<svg width="16" height="16" viewBox="0 0 16 16" fill="none" xmlns="http://www.w3.org/2000/svg">
<path fill-rule="evenodd" clip-rule="evenodd" d="M13.7552 2.24485C12.3075 0.797244 10.3828 0 8.33554 0C6.28831 0 4.36339 0.797244 2.91592 2.24485C1.46832 3.69245 0.671077 5.61723 0.671077 7.66446C0.671077 8.96146 0.999377 10.2356 1.62238 11.3646L0 16L4.63538 14.3776C5.76438 15.0006 7.03867 15.3289 8.33554 15.3289C10.3828 15.3289 12.3077 14.5317 13.7552 13.0841C15.2028 11.6365 16 9.71169 16 7.66446C16 5.61723 15.2028 3.69232 13.7552 2.24485ZM12.1244 10.5119L11.2396 11.3966C10.5067 12.1296 8.42678 11.2382 6.59416 9.40584C4.76182 7.57322 3.87041 5.49332 4.60338 4.76036L5.48814 3.87559C5.67128 3.69219 5.96851 3.69219 6.15178 3.87559L7.2578 4.98161C7.44121 5.16476 7.44121 5.46198 7.2578 5.64525L6.59416 6.30889C7.23788 7.66778 8.33235 8.76225 9.69124 9.40597L10.3549 8.74206C10.538 8.55892 10.8352 8.55892 11.0185 8.74206L12.1245 9.84835C12.3079 10.0315 12.3079 10.3284 12.1245 10.512L12.1244 10.5119Z" fill="#F9FAFB"/>
</svg>
