<svg width="456" height="619" viewBox="0 0 456 619" fill="none" xmlns="http://www.w3.org/2000/svg">
<path d="M434.016 487.252C422.769 482.287 410.41 480.219 398.148 480.945C370.946 482.556 347.495 497.877 328.522 516.376C328.123 516.765 327.527 516.168 327.91 515.762C345.922 496.73 371.918 482.26 397.84 479.806C384.554 479.246 372.118 477.583 359.039 482.756C345.84 487.975 335.226 497.564 325.357 507.495C325.138 507.715 324.805 507.381 325.017 507.153C335.143 496.3 346.396 485.582 360.381 479.936C369.829 476.121 380.771 475.239 391.234 476.229C381.64 474.257 372.062 473.035 362.244 475.454C361.967 475.523 361.862 475.123 362.128 475.032C371.042 471.975 380.298 472.303 389.417 473.825C378.564 470.797 367.43 470.363 355.766 473.794C338.045 479.007 324.911 491.334 314.678 506.23C314.187 506.947 313.045 506.331 313.488 505.553C321.397 491.626 335.323 480 350.999 473.842C335.458 475.937 324.286 486.916 313.768 498.289C313.698 498.362 313.596 498.255 313.659 498.181C323.495 486.437 335.304 473.117 351.296 471.658C334.768 471.967 323.564 482.178 311.502 494.164C311.203 494.462 310.631 494.065 310.89 493.696C315.652 486.905 322.555 480.158 330.447 475.561C326.721 477.095 323.202 478.965 319.727 481.042C319.484 481.188 319.179 480.818 319.416 480.636C322.689 478.132 326.27 476.068 329.974 474.261C326.846 474.447 323.77 474.957 320.766 475.963C303.662 498.862 283.786 519.751 260.086 534.724C259.978 534.876 259.839 534.966 259.681 534.995C280.752 547.7 305.137 549.401 328.685 542.695C352.027 536.048 371.377 522.449 391.847 510.061C407.938 500.323 425.924 495.441 444.741 498.224C406.949 484.27 369.945 504.742 337.918 525.465C337.715 525.596 337.533 525.276 337.731 525.143C368.531 504.513 412.387 476.548 449.631 497.844C433.088 484.778 405.744 486.335 386.35 490.184C386.125 490.229 386.027 489.896 386.255 489.835C398.116 486.68 410.409 485.591 422.641 486.742C427.995 487.245 433.622 488.018 438.876 489.675C437.284 488.805 435.669 487.981 434.016 487.252ZM166.69 417.91C166.68 417.918 166.665 417.931 166.655 417.939C166.664 418.541 167.477 423.395 167.063 426.891C166.219 434.014 165.204 441.116 164.328 448.235C162.378 464.071 158.006 485.094 164.093 500.391C176.699 532.068 221.079 521.645 244.632 538.012C245.252 538.443 244.735 539.381 244.045 539.039C242.725 538.387 241.398 537.795 240.069 537.228C240.036 537.258 240.015 537.292 239.973 537.318C238.178 538.415 236.351 539.451 234.512 540.459C234.581 540.471 234.65 540.473 234.721 540.504C238.364 542.065 247.372 547.73 250.437 542.94C251.998 540.502 250.798 536.58 248.458 535.294C248.356 535.239 248.259 535.197 248.162 535.152C231.081 530.678 214.199 525.251 197.259 520.269C184.498 516.517 173.398 512.674 168.127 499.394C163.132 486.807 165.189 472.254 166.702 459.195C167.67 450.842 167.43 442.225 169.807 434.155C172.926 423.573 169.255 405.84 161.626 413.025C159.278 415.238 161.448 419.264 161.632 422.269C162.751 421.288 165.49 418.927 166.655 417.939C166.654 417.865 166.662 417.844 166.69 417.91ZM403.446 479.154C403.429 479.262 403.396 479.366 403.347 479.462C403.576 479.457 403.805 479.431 404.034 479.427C403.838 479.333 403.642 479.248 403.446 479.154ZM356.504 471.852C356.518 471.868 356.525 471.888 356.538 471.905C356.58 471.893 356.624 471.876 356.667 471.862C356.612 471.857 356.559 471.857 356.504 471.852ZM332.686 474.182C332.684 474.231 332.673 474.278 332.662 474.325C332.753 474.278 332.84 474.222 332.931 474.176C332.849 474.175 332.767 474.182 332.686 474.182ZM381.15 385.643C375.527 396.686 365.117 405.875 354.443 411.025C354.348 411.071 354.269 410.938 354.36 410.883C365.978 403.728 373.097 394.805 379.173 383.866C376.066 388.049 372.552 391.9 368.56 395.45C368.407 395.586 368.192 395.375 368.335 395.226C372.561 390.837 376.299 386.099 379.572 381.026C368.054 396.262 351.103 408.655 332.47 412.55C331.768 412.697 331.507 411.723 332.178 411.484C352.172 404.341 369.438 393.543 381.366 375.537C390.732 361.397 395.926 344.653 392.046 328.497C393.117 356.566 371.914 381.116 350.789 397.22C350.677 397.306 350.525 397.111 350.636 397.022C373.613 378.875 388.621 355.767 389.399 326.796C388.023 335.974 385.174 344.855 380.807 353.088C380.744 353.209 380.575 353.105 380.626 352.985C383.842 345.406 386.053 337.791 387.282 329.842C381.561 350.816 368.407 369.711 348.408 381.224C347.835 381.553 347.385 380.723 347.903 380.352C369.553 364.879 385.276 342.705 388.412 315.81C390.678 296.365 386.113 277.367 376.642 260.657C390.379 295.765 379.806 334.353 351.935 360.497C351.749 360.671 351.482 360.405 351.656 360.217C366.143 344.595 377.034 327.819 380.04 306.273C381.901 292.941 380.482 279.185 376.42 266.315C378.736 283.378 377.378 301.451 369.773 316.736C369.686 316.909 369.445 316.76 369.516 316.589C377.811 296.609 375.931 276.972 372.654 256.312C372.294 255.493 371.909 254.686 371.528 253.877C371.927 256.422 372.275 258.959 372.534 261.47C375.461 289.8 367.448 319.863 345.559 339.16C344.889 339.751 343.908 338.796 344.568 338.167C365.209 318.497 373.559 290.806 370.953 262.767C368.887 240.53 361.249 214.713 345.113 197.995C361.129 225.321 368.508 259.582 358.349 290.009C358.345 290.023 358.324 290.017 358.328 290.004C367.451 258.117 359.075 227.267 343.025 199.468C357.214 236.21 355.685 278.478 337.954 313.881C334.471 320.834 330.348 327.455 328.083 334.952C325.917 342.116 325.7 349.693 325.185 357.105C324.379 368.718 322.226 379.748 317.377 390.408C307.068 413.071 288.27 430.508 267.801 444.075C257.285 451.044 246.23 457.745 234.795 463.758C247.434 459.011 260.964 456.907 274.41 455.012C293.714 452.291 311.214 448.525 327.69 438.991C315.568 443.232 302.707 444.967 290.252 443.513C289.576 443.435 289.523 442.466 290.241 442.429C311.052 441.359 331.159 439.598 348.229 426.846C367.961 412.108 377.081 396.072 381.15 385.643ZM389.309 320.569C389.337 320.572 389.365 320.575 389.392 320.58C389.371 320.532 389.356 320.484 389.335 320.436C389.327 320.481 389.317 320.525 389.309 320.569ZM344.99 258.483C343.369 258.669 342.285 265.786 342.279 266.063C342.216 268.465 342.585 270.839 342.941 273.207C344.782 273.269 346.558 273.964 347.747 275.35C348.454 271.334 348.986 267.287 349.338 263.226C349.173 263.167 349.011 263.073 348.861 262.902C347.566 261.434 346.276 259.958 344.99 258.483ZM312.74 225.5C312.739 227.652 313.537 229.495 314.808 231.121C315.626 231.732 316.372 232.427 316.848 233.203C317.555 232.292 318.485 231.598 319.567 231.338C318.983 230.803 318.412 230.254 317.818 229.726C316.136 228.232 314.444 226.833 312.74 225.5ZM302.521 218.412C302.507 222.544 303.884 226.13 306.877 229.053C306.966 229.14 307.017 229.232 307.049 229.325C308.506 228.549 310.27 228.73 311.761 229.365C311.095 227.754 310.886 225.947 311.159 224.286C308.325 222.153 305.448 220.216 302.521 218.412ZM271.136 147.42C258.373 123.593 243.526 100.785 225.776 80.3461C189.45 38.5163 139.136 6.09164 82.7044 2.37998C62.3466 1.04177 41.8979 3.45754 22.6637 9.85864C36.6012 6.51336 51.9649 6.19847 65.9095 6.67076C82.8287 7.24305 99.4568 9.84672 115.71 14.5937C115.749 14.6051 115.735 14.6676 115.693 14.6576C99.452 10.419 82.7257 7.90148 65.9215 7.80834C53.8273 7.74147 42.2155 9.44659 30.511 11.2835C59.9106 10.9651 88.8666 13.5923 116.646 24.7169C148.214 37.3603 176.3 57.8402 199.944 82.0751C200.229 82.3678 199.789 82.8071 199.494 82.524C174.493 58.6199 146.151 37.9382 113.494 25.8335C94.357 18.7417 74.7103 15.6218 54.7974 14.4076C66.7424 16.5597 78.177 20.3256 89.0231 27.0724C107.672 38.6726 123.394 54.296 143.301 63.9626C143.536 64.0766 143.375 64.4951 143.127 64.3947C124.757 57.0046 109.985 43.7578 93.7192 32.8445C84.5833 26.7148 74.8874 21.4277 64.1992 18.5638C54.3697 15.9309 44.2318 15.2102 34.1302 14.4113C68.288 20.8477 97.8371 52.6098 126.708 69.2721C170.227 94.3889 228.515 105.016 255.299 151.981C255.711 152.706 254.622 153.332 254.178 152.628C230.482 115.073 188.899 101.319 150.453 83.5966C154.216 87.079 157.899 90.4255 162.713 92.8926C169.333 96.288 176.072 99.4657 182.731 102.782C182.898 102.866 182.754 103.1 182.59 103.03C168.485 96.9718 155.183 92.3956 144.623 80.8666C144.31 80.7167 143.998 80.5634 143.684 80.4135C148.874 85.4986 153.723 90.867 159.338 95.5662C166.798 101.807 174.831 107.38 183.087 112.516C197.97 121.775 213.602 129.631 229.139 137.706C229.31 137.796 229.162 138.038 228.992 137.963C211.694 130.326 194.424 122.271 178.368 112.238C166.704 104.947 153.954 96.1917 144.66 85.4519C148.775 92.1576 152.9 98.8358 158.072 104.85C165.767 113.799 175.121 119.778 185.834 124.532C205.164 133.112 223.42 142.189 238.818 157.032C239.18 157.378 238.648 157.884 238.275 157.573C228.814 149.7 219.02 142.419 208.183 136.532C201.608 132.96 194.68 130.17 187.845 127.18C181.429 125.923 175.136 124.748 168.486 125.782C160.213 127.067 153.863 131.527 147.998 137.266C142.116 143.021 136.723 149.667 129.601 153.618C130.427 153.258 131.252 152.89 132.078 152.543C132.11 152.465 132.159 152.39 132.238 152.323C143.235 142.976 158.145 134.942 172.492 132.662C172.744 132.621 172.859 132.987 172.6 133.053C159.68 136.328 149.93 143.251 139.103 149.77C164.44 140.447 190.246 138.433 215.381 152.445C215.716 152.63 215.427 153.132 215.089 152.959C201.371 145.897 186.191 142.543 170.766 143.765C157.334 144.832 144.993 149.692 132.575 154.465C141.002 154.007 149.43 153.584 157.865 153.718C195.697 154.325 233.264 166.846 264.082 188.724C264.553 189.058 264.117 189.847 263.631 189.514C228.955 165.755 188.818 154.225 146.816 155.487C127.037 156.08 107.198 158.418 87.4387 156.17C75.9375 154.86 64.9387 151.914 54.3181 147.825C74.9908 158.681 97.0546 163.275 120.673 162.882C120.912 162.878 120.901 163.214 120.677 163.243C101.677 165.682 82.0768 162.642 64.3242 155.395C84.8213 166.94 106.135 175.274 131.065 175.003C160.217 174.686 188.033 171.46 214.604 186.383C214.73 186.453 214.622 186.631 214.496 186.574C198.85 179.496 183.11 175.314 165.862 175.155C150.697 175.015 135.577 177.143 120.407 176.45C100.812 175.553 82.2252 169.107 65.1755 159.708C96.2484 179.797 131.499 189.395 169.056 191.787C169.218 191.797 169.223 192.029 169.06 192.039C128.674 194.423 87.3417 179.483 54.8316 155.703C86.0416 182.906 124.6 197.54 167.085 200.805C208.28 203.971 261.122 194.046 292.965 226.601C292.887 226.448 292.808 226.293 292.677 226.146C290.892 224.151 278.877 208.941 276.296 205.503C276.05 205.175 277.004 204.363 277.258 204.397C281.431 204.977 303.236 215.128 306.724 217.587C293.191 195.107 283.516 170.527 271.136 147.42ZM30.7512 13.854C30.7094 13.8117 30.6541 13.7811 30.619 13.7342C30.3354 13.7345 30.0519 13.7391 29.7682 13.739C30.0962 13.7801 30.4242 13.8093 30.7512 13.854ZM40.9689 142.266C41.0086 142.205 41.054 142.148 41.1029 142.095C40.9262 142.009 40.7469 141.932 40.57 141.845C40.7014 141.987 40.836 142.125 40.9689 142.266ZM290.768 216.491C288.091 220.232 293.001 223.259 295.149 225.472C297.533 224.437 300.638 224.805 302.962 226.213C301.701 223.776 301.184 220.96 301.623 218.25C298.878 217.205 293.016 213.351 290.768 216.491ZM289.416 215.42C290.498 213.905 292.243 213.453 294.123 213.63C289.033 210.946 283.748 208.486 278.19 205.973C281.755 209.797 285.174 213.829 288.418 218.014C288.509 217.138 288.814 216.263 289.416 215.42ZM300.007 235.058C300.707 234.151 302.058 233.795 303.26 234.148C304.193 234.422 304.945 235.072 305.589 235.79C304.816 233.704 304.624 231.557 306.031 230.093C306.007 230.08 305.983 230.065 305.96 230.052C305.858 230.268 305.524 230.35 305.32 230.169C302.115 227.335 299.231 226.314 295.062 227.192C296.789 229.768 298.442 232.392 300.007 235.058ZM314.608 271.511C314.111 268.398 314.529 264.917 318.139 264.226C318.395 264.177 318.655 264.183 318.913 264.172C318.253 263.297 317.917 262.152 317.29 261.227C316.173 259.575 312.809 255.673 310.939 258.495C312.436 262.788 313.67 267.131 314.608 271.511ZM242.956 381.495C240.472 382.564 237.713 383.74 234.78 384.986C237.632 384.949 240.303 386.068 240.876 389.377C240.918 389.62 240.904 389.854 240.918 390.093C244.29 387.032 250.037 384.032 249.157 378.694C247.102 379.658 245.037 380.599 242.956 381.495ZM249.437 363.049C248.11 367.372 245.372 371.345 242.174 374.336C242.008 374.49 241.777 374.256 241.927 374.088C246.282 369.145 247.816 363.854 248.753 357.67C244.197 367.977 236.07 376.823 226.253 382.293C225.554 382.682 225.022 381.693 225.644 381.24C235.77 373.845 244.565 365.344 248.732 353.182C250.207 348.878 250.651 343.171 250.56 337.671C248.597 354.007 236.218 368.376 223.645 378.176C223.483 378.304 223.248 378.084 223.412 377.944C238.738 365.006 248.183 349.975 248.52 330.075C243.052 346.41 229.847 363.748 215.737 372.468C215.119 372.85 214.644 371.935 215.188 371.521C232.477 358.348 247.602 341.7 248.368 318.828C249.008 299.701 237.291 283.289 219.356 278.361C231.901 288.172 238.182 302.317 237.689 318.378C237.1 337.654 226.292 354.945 213.801 368.95C213.644 369.126 213.401 368.872 213.545 368.694C225.057 354.511 234.701 338.247 235.381 319.518C235.962 303.561 229.478 291.862 218.793 281.14C220.852 284.922 222.511 288.938 223.673 293.121C229.735 314.951 222.742 338.727 209.958 356.796C209.513 357.423 208.467 356.856 208.901 356.194C220.534 338.417 227.7 317.036 222.629 295.753C221.046 289.106 218.22 282.839 214.423 277.288C214.323 277.273 214.225 277.252 214.124 277.239C213.767 277.189 213.732 276.764 213.921 276.53C208.742 269.219 201.822 263.235 193.728 259.409C222.299 276.94 221.924 316.961 209.016 344.762C208.997 344.8 208.93 344.774 208.945 344.733C214.793 329.017 219.082 312.432 215.377 295.674C212.188 281.256 203.857 270.907 192.782 262.546C206.619 276.78 213.546 297.38 209.789 317.231C203.439 350.783 168.785 372.466 170.981 408.508C189.587 396.241 211.422 390.984 232.034 383.046C236.117 381.474 240.191 379.79 244.221 377.992C244.242 377.943 244.249 377.896 244.283 377.847C247.509 373.141 249.074 368.262 249.437 363.049ZM249.644 326.359C249.649 326.359 249.654 326.358 249.659 326.359C249.657 326.348 249.655 326.337 249.653 326.325C249.651 326.337 249.647 326.348 249.644 326.359ZM137.896 448.382C143.255 459.254 127.028 481.773 115.521 476.063C115.459 476.074 115.393 476.109 115.332 476.11C114.316 477.442 113.302 478.775 112.296 480.115C108.165 485.621 103.474 491.34 99.642 497.456C100.263 498.3 101.095 499.083 102.147 499.8C102.128 499.446 102.103 499.089 102.063 498.696C102.052 498.597 102.174 498.544 102.251 498.585C104.213 499.661 103.468 502.548 102.731 504.181C101.629 506.629 99.8012 508.983 96.9841 509.328C96.3554 509.406 96.3632 508.528 96.8434 508.328C97.1568 508.197 97.4505 508.041 97.736 507.873C96.8991 507.073 96.1048 506.244 95.3774 505.382C95.2107 505.753 95.0441 506.125 94.8912 506.5C92.1565 530.437 130.651 513.653 140.689 510.611C141.07 510.495 126.721 519.002 120.505 524.063C112.713 530.406 104.932 542.902 115.984 550.609C116.146 550.722 117.951 551.547 118.8 551.79C118.894 551.209 119.515 548.706 119.74 548.061C119.231 547.999 118.723 547.928 118.215 547.815C118.035 547.776 118.02 547.534 118.164 547.443C118.732 547.082 119.484 546.86 120.323 546.755C120.408 546.688 120.508 546.675 120.603 546.726C123.829 546.434 128.189 547.871 128.935 550.561C129.037 550.927 128.696 551.249 128.338 551.168C127.737 551.035 127.175 550.757 126.624 550.431C126.577 550.646 126.548 552.817 126.657 553.645C132.343 554.682 138.114 555.233 143.359 555.74C151.696 556.546 160.102 556.812 168.478 556.498C168.6 556.268 170.69 547.711 183.674 546.927C187.315 546.707 197.746 547.92 201.539 551.81C211.969 549.152 222.059 545.407 231.75 540.368C231.803 540.308 231.869 540.272 231.955 540.258C234.176 539.098 236.38 537.885 238.56 536.593C224.918 531.089 210.823 529.524 196.47 525.735C185.228 522.767 173.552 517.665 166.398 508.115C158.391 497.427 159.091 483.133 159.853 470.484C160.285 463.327 161.06 456.192 161.941 449.079C162.469 444.818 166.848 427.522 165.409 420.578C155.621 429.247 146.517 438.597 137.896 448.382ZM132.9 447.509C131.247 447.668 130.345 448.921 129.567 450.217C130.771 450.323 131.963 450.647 133.099 451.265C133.134 451.079 133.175 450.899 133.207 450.712C133.233 450.559 133.489 450.553 133.515 450.708C135.162 460.775 127.048 469.213 117.433 470.429C117.202 470.696 116.779 470.804 116.473 470.493C115.951 469.964 115.556 469.377 115.256 468.752C114.798 469.798 114.373 470.866 114.427 472.023C114.462 472.762 114.723 473.481 115.166 474.069C115.349 474.312 115.552 474.501 115.726 474.703C126.782 476.305 141.386 459.1 136.187 448.687C135.133 448.135 134.292 447.374 132.9 447.509ZM120.287 455.501C117.104 459.162 114.875 465.268 117.508 469.7C117.537 469.748 117.545 469.795 117.56 469.842C126.49 467.303 131.181 460.724 132.973 451.911C128.107 450.904 123.705 451.57 120.287 455.501ZM96.935 495.587C96.9376 495.583 96.9397 495.58 96.9415 495.577C95.8293 492.329 96.4172 488.913 96.5975 485.269C97.0925 475.259 92.4552 465.306 83.2676 460.594C67.4434 452.477 50.0462 462.248 39.5391 474.898C49.2147 466.123 63.4447 462.306 76.1672 465.466C82.1571 466.954 88.5275 470.207 90.79 476.353C92.1153 479.954 91.645 483.747 91.5292 487.49C91.3881 492.108 92.466 495.75 93.7851 499.578C95.1339 502.276 96.9971 504.727 98.5855 507.288C99.762 506.359 100.667 505.115 101.367 503.745C101.802 502.894 102.018 502.137 102.11 501.368C99.1726 500.114 97.5735 498.074 96.8781 495.681C96.8967 495.648 96.9172 495.618 96.935 495.587ZM112.355 549.494C107.987 544.776 108.141 537.376 111.491 531.676C114.907 525.863 120.905 521.017 127.375 517.271C120.285 519.865 112.725 521.624 106.141 520.739C99.7955 519.885 93.9713 515.43 93.9235 509.16C93.5298 510.36 93.1768 511.574 92.9079 512.81C90.2193 525.112 95.7403 538.527 105.869 545.829C107.862 547.268 110.046 548.471 112.355 549.494ZM112.561 551.713C102.604 547.682 94.5747 540.954 91.072 528.882C88.8158 521.114 89.6673 513.903 92.199 507.12C77.7155 519.288 94.7592 561.223 112.561 551.713ZM121.122 548.578C120.498 550.947 120.485 553.069 120.897 555.022C121.02 555.566 121.161 556.106 121.346 556.633C125.277 567.887 143.831 573.391 143.497 587.625C143.21 599.883 133.728 611.533 123.391 617.511C139.267 610.373 153.576 589.566 139.583 573.948C134.896 568.717 127.66 563.627 125.914 556.713C125.85 556.711 125.787 556.707 125.725 556.707C124.739 554.565 124.642 552.18 125.724 549.87C125.02 549.418 124.312 548.966 123.535 548.708C122.726 548.44 121.911 548.321 121.093 548.224C121.135 548.33 121.156 548.447 121.122 548.578ZM170.251 557.526C170.256 558.038 170.29 558.547 170.679 559.049C171.228 559.758 172.164 560.048 172.906 560.503C172.653 560.039 172.177 558.817 172.238 558.71C172.05 558.681 171.907 558.433 172.083 558.281C178.807 552.439 189.946 551.24 197.775 555.603C197.92 555.684 198.004 555.798 198.049 555.92C198.278 556.071 198.279 557.687 198.175 558.203C199.029 557.82 201.726 557.711 201.279 554.457C198.462 550.269 189.499 548.643 185.304 548.678C178.715 548.732 172.98 551.534 170.251 557.526ZM196.546 556.597C192.753 555.773 189.136 554.689 185.176 554.729C180.646 554.773 176.554 556.184 172.719 558.496C172.796 558.525 172.867 558.58 172.915 558.684C178.05 569.686 194.627 569.738 196.546 556.597ZM258.859 532.492C258.927 528.514 255.547 525.678 251.37 526C247.494 526.297 245.259 529.19 242.753 531.71C244.805 532.351 246.864 532.972 248.907 533.64C248.948 533.654 248.973 533.68 249.01 533.697C250.341 534.024 251.537 534.571 252.29 535.999C252.372 536.152 252.435 536.333 252.504 536.503C254.671 535.207 256.779 533.861 258.859 532.492ZM274.801 512.729C274.662 512.752 274.524 512.737 274.394 512.688C273.771 512.656 273.14 512.717 272.546 512.877C269.858 513.598 267.931 515.683 266.042 517.627C268.621 518.232 271.38 520.514 271.739 523.172C274.188 521.229 276.578 519.235 278.914 517.192C279.268 514.604 277.161 513 274.801 512.729ZM282.232 504.906C279.197 505.731 277.748 508.753 276.017 511.087C278.359 511.632 280.184 513.477 280.571 515.707C282.947 513.582 285.268 511.407 287.537 509.185C287.13 506.37 285.673 503.969 282.232 504.906ZM294.537 500.343C293.496 499.859 292.301 499.636 291.155 499.742C288.817 499.956 287.296 501.53 285.953 503.265C287.685 504.03 288.685 505.713 289.108 507.648C291.297 505.463 293.439 503.237 295.539 500.973C295.224 500.739 294.903 500.514 294.537 500.343ZM307.926 482.995C306.45 482.278 304.761 482.583 303.31 483.174C300.755 484.213 298.663 486.074 296.605 487.862C299.847 489.813 300.303 493.261 299.425 496.683C302.934 492.734 306.333 488.684 309.645 484.551C309.151 483.947 308.672 483.358 307.926 482.995ZM312.179 477.315C310.644 478.347 309.434 479.684 308.324 481.127C309.396 481.486 310.351 482.089 310.918 482.953C312.868 480.491 314.79 478.003 316.688 475.491C315.116 475.924 313.626 476.343 312.179 477.315ZM320.997 457.809C324.058 461.294 322.209 466.824 320.365 470.562C323.749 465.967 327.073 461.305 330.364 456.605C327.319 453.965 323.505 454.844 320.997 457.809ZM332.3 444.827C334.008 445.886 335.028 447.817 335.14 449.732C337.118 446.867 339.094 443.99 341.07 441.11C337.79 440.274 334.703 442.717 332.3 444.827ZM333.474 442.066C335.984 440.198 338.856 438.875 341.911 439.882C344.772 435.711 347.639 431.534 350.534 427.367C345.469 430.854 340.053 433.841 334.428 436.306C334.582 438.265 334.173 440.219 333.474 442.066ZM325.06 444.786C326.82 443.778 328.92 443.468 330.971 444.194C330.972 444.193 330.972 444.192 330.972 444.19C332.283 441.795 332.84 439.34 333.436 436.751C333.241 436.833 333.052 436.928 332.858 437.009C330.805 438.888 328.576 440.551 326.237 442.066C325.926 442.999 325.526 443.906 325.06 444.786ZM319.243 447.419C319.916 447.648 320.496 447.99 321.006 448.397C322.23 446.73 323.276 444.963 324.38 443.23C321.892 444.706 319.282 446.006 316.588 447.157C317.463 447.061 318.355 447.117 319.243 447.419ZM302.288 453.183C302.949 452.696 303.65 452.297 304.269 452.033C305.81 451.372 307.703 451.28 309.216 452.07C310.108 450.845 311.291 449.654 312.626 448.736C309.462 449.894 306.212 450.876 302.934 451.719C302.743 452.216 302.526 452.705 302.288 453.183ZM290.696 457.408C292.997 455.324 296.181 453.868 298.891 455.264C299.134 455.389 299.318 455.538 299.51 455.683C299.754 454.969 300.231 454.326 300.621 453.675C300.958 453.111 301.315 452.558 301.693 452.021C298.358 452.842 295.009 453.529 291.697 454.119C291.529 455.269 291.178 456.365 290.696 457.408ZM279.42 460.815C281.703 459.057 284.427 457.929 286.799 458.791C287.185 458.931 287.527 459.134 287.835 459.376C289.002 457.833 289.777 456.138 290.412 454.346C288.022 454.756 285.656 455.122 283.342 455.454C282.424 455.585 281.523 455.728 280.614 455.866C280.524 457.608 280.116 459.271 279.42 460.815ZM268.02 460.892C268.205 462.215 267.823 463.419 267.266 464.585C269.09 463.329 271.28 462.805 273.563 463.734C274.073 463.942 274.524 464.212 274.915 464.531C277.293 462.09 278.783 459.215 279.757 455.995C275.236 456.695 270.86 457.471 266.626 458.307C267.37 458.938 267.878 459.873 268.02 460.892ZM253.168 469.368C255.655 467.651 258.599 466.905 261.673 468.3C262.226 468.552 262.683 468.847 263.093 469.163C263.096 469.146 263.091 469.132 263.096 469.115C263.72 466.752 268.924 459.937 264.784 458.671C261.477 459.344 258.268 460.053 255.143 460.787C256.827 462.259 255.27 465.94 253.168 469.368ZM236.118 469.941C237.458 469.727 238.76 470.056 239.515 471.493C240.175 472.752 239.671 474.084 239.119 475.281C238.958 475.632 238.761 475.966 238.588 476.313C241.073 474.434 244.182 473.455 246.95 474.93C248.392 473.327 256.671 463.18 253.36 461.208C248.171 462.457 243.248 463.775 238.595 465.12C238.177 466.928 237.302 468.553 236.118 469.941ZM227.537 469.919C228.233 470.796 228.648 471.711 228.878 472.635C232.71 471.416 235.263 468.91 237.177 465.531C233.433 466.631 229.874 467.747 226.499 468.855C226.864 469.162 227.213 469.511 227.537 469.919ZM223.26 458.444C223.183 458.491 223.112 458.493 223.045 458.484C223.113 461.937 220.909 465.181 218.068 467.835C219.541 467.365 221.052 467.147 222.494 467.268C227.251 464.837 231.947 462.289 236.6 459.68C232.904 455.429 227.923 455.683 223.26 458.444ZM243.479 446.109C240.52 446.001 237.812 447.197 234.939 447.504C234.543 450.493 231.956 452.892 229.058 454.753C232.425 454.576 235.954 456.168 238.087 458.857C242.424 456.405 246.709 453.892 250.959 451.357C249.846 448.164 247.136 446.244 243.479 446.109ZM268.262 434.123C267.336 434.37 266.506 434.718 265.718 435.121C265.024 435.62 264.305 436.061 263.555 436.402C263.078 436.72 262.603 437.051 262.121 437.385C262.87 440.797 261.427 443.835 259.198 446.359C265.131 442.642 270.958 438.69 276.546 434.441C273.819 433.553 271.072 433.377 268.262 434.123ZM282.42 417.839C279.582 417.339 277.062 418.454 274.637 419.742C274.344 419.984 274.068 420.222 273.819 420.457C273.873 420.57 273.944 420.66 273.994 420.778C275.231 423.791 273.069 426.974 271.347 429.285C270.703 430.151 269.975 431.055 269.188 431.934C272.082 431.477 275.111 431.758 277.482 432.669C277.796 432.79 277.983 433.018 278.078 433.276C281.358 430.729 284.536 428.063 287.603 425.285C288.352 421.766 285.984 418.467 282.42 417.839ZM292.025 419.233C291.102 420.011 290.151 420.726 289.241 421.366C289.469 422.047 289.579 422.756 289.588 423.475C291.771 421.423 293.884 419.3 295.922 417.11C294.586 417.746 293.287 418.456 292.025 419.233ZM302.329 402.514C300.18 403.243 298.586 404.593 296.842 405.94C296.865 405.979 296.887 406.016 296.906 406.059C298.59 409.596 297.59 412.807 295.561 415.55C296.481 415.094 297.436 414.69 298.416 414.327C301.843 410.411 305.027 406.277 307.891 401.879C306.015 401.702 304.174 401.886 302.329 402.514ZM321.14 368.191C315.693 366.867 312.986 372.651 309.69 376.028C310.6 377.802 309.982 379.818 309.197 381.668C308.724 382.781 308.18 383.967 307.563 385.138C308.403 384.547 309.3 384.036 310.278 383.659C312.283 382.883 315.086 382.505 317.144 383.473C318.937 378.521 320.247 373.428 321.14 368.191ZM322.95 350.024C318.95 351.777 316.386 354.72 314.59 358.648C314.702 358.784 314.818 358.901 314.925 359.06C316.449 361.316 316.129 364.094 315.171 366.505C315.039 366.838 314.894 367.189 314.746 367.542C316.794 366.349 319.128 365.811 321.445 366.292C321.765 364.157 322.04 362.006 322.223 359.821C322.496 356.551 322.692 353.28 322.95 350.024ZM324.903 336.349C323.267 335.382 321.171 335.257 319.504 336.295C317.305 337.665 316.107 340.18 314.95 342.415C315.177 342.513 315.397 342.642 315.606 342.815C317.394 344.313 317.34 347.763 317.201 349.838C317.155 350.539 317.058 351.228 316.928 351.907C318.595 350.213 320.757 348.996 323.068 348.527C323.425 344.423 323.949 340.352 324.903 336.349ZM335.126 312.473C333.018 310.439 329.495 310.958 327.458 312.925C325.471 314.844 324.604 317.5 323.389 319.907C323.363 319.976 323.341 320.048 323.314 320.116C323.485 320.172 323.653 320.198 323.827 320.273C327.27 321.743 327.684 325.216 327.394 328.68C329.675 323.112 332.427 317.807 335.126 312.473ZM340.968 299.929C335.478 299.469 333.835 304.442 332.438 309.369C333.722 309.527 334.913 310.072 335.834 311.052C337.662 307.408 339.435 303.734 340.968 299.929ZM335.216 266.627C331.732 265.618 327.783 267.975 328.405 271.916C328.42 272.005 328.415 272.088 328.398 272.165C331.989 272.415 333.651 275.935 334.35 279.553C335.313 277.075 336.962 274.902 339.483 273.826C340.075 273.575 340.706 273.42 341.344 273.316C341.329 273.229 341.316 273.14 341.301 273.054C339.851 270.384 338.377 267.542 335.216 266.627ZM326.614 244.275C327.807 246.326 329.613 247.863 330.936 249.792C332.291 248.573 334.042 247.819 335.794 248.019C332.338 244.152 328.814 240.349 325.147 236.679C324.735 239.362 325.236 241.907 326.614 244.275ZM309.108 240.606C309.109 240.607 309.109 240.608 309.109 240.608C309.197 240.761 309.295 240.909 309.376 241.063C309.774 240.945 310.18 240.851 310.599 240.8C312.769 240.537 314.923 241.242 316.778 242.426C315.713 240.472 315.054 238.33 315.488 236.168C315.636 235.434 315.921 234.701 316.306 234.025C313.744 232.88 310.678 229.085 307.833 231.104C305.517 232.748 308.452 238.371 309.108 240.606ZM313.14 248.171C315.088 247.926 317.042 248.96 318.629 250.45C318.427 248.961 318.652 247.48 319.48 246.285C319.378 246.164 319.276 246.031 319.173 245.907C317.057 244.722 315.086 243.148 312.643 242.704C309.954 242.215 307.101 243.594 306.42 246.34C306.377 246.515 306.273 246.638 306.147 246.729C307.497 249.618 308.746 252.541 309.865 255.495C309.103 252.559 309.64 248.611 313.14 248.171ZM321.104 255.649C320.664 255.183 320.265 254.64 319.915 254.051C318.52 252.655 317.099 251.235 315.327 250.374C313.301 249.392 311.565 250.472 311.107 252.56C310.84 253.777 311.167 255.007 311.276 256.232C312.513 255.815 314.215 256.15 315.274 256.87C316.302 257.57 317.763 258.93 318.835 260.445C318.885 258.58 319.677 256.752 321.104 255.649ZM323.468 254.652C325.431 254.396 327.008 255.297 328.308 256.705C328.193 255.161 328.404 253.615 329.085 252.199C329.335 251.682 329.671 251.2 330.039 250.74C329.014 249.934 328.005 248.934 327.103 247.807C324.887 245.962 322.188 244.348 320.552 247.646C319.176 250.417 321.207 252.603 322.363 254.929C322.709 254.8 323.074 254.703 323.468 254.652ZM320.645 264.105C320.644 264.202 320.613 264.28 320.565 264.339C323.207 264.93 325.723 267.052 327.193 269.33C327.686 267.314 329.24 265.675 331.256 264.979C329.974 262.498 328.732 259.589 326.764 257.692C324.746 255.748 321.721 256.395 320.769 259.069C320.2 260.665 320.675 262.46 320.645 264.105ZM316.503 273.562C318.944 274.501 320.457 278.36 321.287 281.665C321.728 277.632 323.211 272.759 327.217 272.21C327.137 271.901 327.125 271.601 327.094 271.299C325.239 269.183 322.981 266.716 320.114 266.126C315.255 265.126 315.724 270.43 316.503 273.562ZM320.521 284.905C320.018 281.983 318.844 276.233 316.313 274.768C315.99 274.936 315.537 274.865 315.354 274.445C315.298 274.438 315.239 274.44 315.181 274.436C315.873 278.206 316.356 281.996 316.577 285.794C317.568 285.01 319.157 284.703 320.521 284.905ZM319.061 306.89C319.179 306.341 319.319 305.755 319.484 305.156C319.707 302.485 318.78 300.079 316.368 298.51C316.094 301.415 315.663 304.314 315.062 307.203C316.246 306.627 317.721 306.515 319.061 306.89ZM331.299 308.456C331.22 305.207 331.494 301.522 327.965 299.865C324.63 298.298 322.452 300.914 321.176 303.794C321.15 304.927 320.812 306.021 320.104 306.946C320.078 307.051 320.048 307.162 320.025 307.262C320.284 307.39 320.537 307.533 320.771 307.703C322.903 309.262 323.951 311.862 324.144 314.548C325.184 312.487 326.697 310.716 328.851 309.858C329.619 309.553 330.407 309.379 331.184 309.326C331.216 309.041 331.259 308.748 331.299 308.456ZM326.311 297.556C326.298 297.629 326.251 297.658 326.217 297.706C326.758 297.724 327.324 297.796 327.946 298.002C330.445 298.824 332.026 301.015 332.597 303.479C333.239 302.005 334.141 300.672 335.472 299.68C336.833 298.665 338.81 297.954 340.54 298.217C340.515 293.822 339.278 287.725 334.219 286.641C327.914 285.289 327.072 293.383 326.311 297.556ZM333.339 284.666C333.327 284.626 333.298 284.602 333.3 284.551C333.31 284.349 333.343 284.144 333.359 283.941C333.061 280.133 332.195 274.145 328.076 274.129C323.301 274.113 322.622 280.862 321.887 284.581C321.935 284.88 321.976 285.16 322.008 285.407C322.04 285.425 322.078 285.44 322.109 285.462C324.102 286.755 325.238 289.162 325.787 291.733C326.687 287.897 329.018 284.475 333.339 284.666ZM312.925 315.229C316.034 316.866 316.212 320.429 315.463 323.814C317.049 321.372 319.414 319.489 322.226 319.854C322.111 317.291 322.84 314.827 322.043 312.277C321.035 309.059 316.964 306.905 314.612 309.102C314.132 311.152 313.581 313.195 312.925 315.229ZM295.654 350.46C296.542 347.96 298.884 345.278 297.591 342.836C295.593 345.292 293.49 347.643 291.293 349.893C292.843 349.55 294.427 349.659 295.654 350.46ZM288.031 353.099C291.452 355.875 288.481 360.723 285.544 364.008C287.396 363.623 289.459 364.209 290.796 365.603C292.699 363.063 294.779 360.515 295.686 357.44C296.353 355.18 296.333 352.501 293.796 351.308C292.393 350.649 290.608 351.369 289.081 352.102C288.734 352.438 288.383 352.768 288.031 353.099ZM282.229 364.56C282.279 364.664 282.298 364.78 282.34 364.888C285.015 362.291 289.819 357.408 287.139 353.948C283.808 357.022 280.299 359.893 276.646 362.587C278.967 362.007 281.19 362.336 282.229 364.56ZM231.254 401.528C230.899 401.745 230.556 401.954 230.237 402.147C230.043 402.265 229.859 402.283 229.684 402.261C229.717 402.413 229.754 402.562 229.777 402.725C230.359 406.886 225.888 410.019 222.167 412.328C225.204 412.103 228.326 413.27 229.357 416.096C229.417 416.03 229.475 415.963 229.566 415.908C233.524 413.547 237.847 411.081 240.153 406.914C240.939 405.492 241.281 403.182 240.349 401.719C239.669 400.651 237.423 400.44 236.238 400.431C234.475 400.416 232.854 400.926 231.254 401.528ZM229.69 387.141C229.596 387.181 229.501 387.221 229.406 387.26C230.492 392.305 226.401 396.05 222.219 398.614C224.917 398.202 227.786 398.557 229.103 400.747C229.166 400.678 229.224 400.608 229.316 400.553C232.614 398.569 236.398 396.383 238.399 392.95C239.821 390.512 239.179 387.511 236.249 386.564C234.181 385.895 231.886 386.606 229.87 387.131C229.807 387.147 229.746 387.149 229.69 387.141ZM219.012 397.897C219.047 398.087 219.062 398.273 219.081 398.46C223.503 396.18 228.424 393.112 228.218 387.762C223.356 389.813 218.201 391.975 213.035 394.133C215.772 393.917 218.402 394.73 219.012 397.897ZM195.533 408.076C200.621 407.232 209.351 402.679 207.367 396.499C202.274 398.621 197.29 400.691 192.692 402.595C194.59 403.43 195.602 405.934 195.533 408.076ZM184.693 412.714C185.121 413.766 185.238 414.783 185.133 415.763C187.86 414.704 190.813 413.557 192.604 411.119C194.896 408 193.878 405.231 191.044 403.276C186.301 405.238 182.042 406.992 178.586 408.41C181.214 408.664 183.547 409.894 184.693 412.714ZM172.902 424.981C176.654 423.09 182.114 420.275 182.99 415.912C183.768 412.043 180.101 409.801 176.638 409.833C175.897 409.84 175.173 409.952 174.456 410.1C171.437 411.329 169.656 412.041 169.608 412.033C172.352 415.483 173.032 420.179 172.902 424.981ZM170.809 442.386C174.778 441.46 178.56 439.984 180.657 436.168C181.735 434.206 182.488 430.554 180.987 428.576C179.201 426.223 176.664 426.375 174.142 426.674C173.927 426.783 173.708 426.894 173.508 426.991C173.257 427.113 173.019 427.115 172.801 427.062C172.476 431.652 171.575 436.194 171.156 439.703C171.05 440.594 170.924 441.492 170.809 442.386ZM168.152 462.136C171.9 459.863 176.244 458.279 178.409 454.147C179.839 451.419 179.899 447.778 177.425 445.569C175.369 443.735 172.915 444.181 170.551 444.397C169.762 450.267 168.856 456.195 168.152 462.136ZM167.069 481.371C171.96 479.599 176.919 475.867 178.369 470.685C178.898 468.79 178.715 468.128 177.718 466.344C176.427 464.032 175.196 463.924 172.687 463.804C171.304 463.739 169.999 463.787 168.663 463.587C168.62 463.602 168.576 463.62 168.533 463.635C168.321 463.708 168.147 463.66 167.997 463.573C167.329 469.512 166.926 475.458 167.069 481.371ZM172.224 503.485C172.269 503.395 172.312 503.306 172.398 503.222C176.029 499.759 180.082 495.595 179.605 490.18C178.985 483.161 172.75 483.64 167.458 483.71C167.311 483.711 167.217 483.65 167.145 483.565C167.171 484.091 167.165 484.619 167.202 485.144C167.632 491.476 169.002 498 172.224 503.485ZM185.486 501.899C181.778 499.856 178.14 501.439 174.878 503.414C174.494 503.801 174.108 504.182 173.723 504.549C173.503 504.759 173.261 504.793 173.027 504.768C174.06 506.326 175.251 507.794 176.642 509.124C179.284 511.651 182.455 513.423 185.843 514.811C187.403 510.473 191.065 504.972 185.486 501.899ZM206.118 516.463C205.61 513.352 203.228 510.896 200.166 510.147C194.949 508.871 191.066 511.836 188.048 515.659C192.197 517.138 196.566 518.17 200.634 519.366C202.385 519.88 204.143 520.379 205.897 520.885C206.024 519.393 206.371 518.004 206.118 516.463ZM217.767 515.295C213.442 515.458 210.389 518.148 208.103 521.523C213.822 523.167 219.548 524.798 225.269 526.451C225.937 520.969 224.422 515.046 217.767 515.295ZM236.312 521.415C233.989 520.906 231.59 521.551 229.828 523.152C228.602 524.266 228.028 525.672 227.295 527.046C231.78 528.349 236.251 529.691 240.71 531.069C242.47 527.092 241.024 522.45 236.312 521.415ZM253.718 523.775C253.586 523.576 253.544 523.316 253.7 523.025C256.356 518.071 252.49 512.12 246.706 513.931C243.371 514.974 241.381 518.109 238.826 520.244C238.659 520.384 238.458 520.369 238.323 520.27C238.308 520.298 238.296 520.33 238.28 520.358C241.542 521.796 243.525 525.222 243.197 528.573C245.532 525.41 249.68 523.536 253.577 524.036C253.624 523.948 253.668 523.861 253.718 523.775ZM259.489 506.849C255.605 506.232 252.451 508.922 250.823 512.195C254.663 513.24 256.859 516.992 256.282 520.641C258.414 518.733 261.184 517.479 263.981 517.434C265.825 513.367 264.578 507.659 259.489 506.849ZM270.945 501.643C267.092 499.825 263.687 502.603 262.375 506.109C265.416 507.851 267.213 511.667 266.535 515.044C268.524 512.785 271.095 510.982 274.092 510.874C274.69 507.268 274.896 503.507 270.945 501.643ZM284.754 502.522C284.516 501.438 284.769 500.425 284.658 499.315C284.394 496.706 282.495 495.043 279.919 495.041C276.605 495.04 274.235 497.479 271.871 499.505C271.849 499.563 271.828 499.624 271.806 499.682C271.748 499.833 271.658 499.946 271.556 500.038C275.1 501.538 276.338 504.843 276.141 508.319C277.672 505.435 280.101 502.922 283.532 502.818C283.932 502.806 284.302 502.838 284.658 502.892C284.684 502.767 284.718 502.644 284.754 502.522ZM293.363 488.634C288.684 487.555 286.198 491.239 283.622 494.272C285.35 495.442 286.612 497.579 286.669 499.656C287.775 498.721 289.179 498.095 290.571 497.89C292.458 497.612 294.994 498.119 296.584 499.467C298.152 495.247 299.179 489.974 293.363 488.634ZM306.241 480.535C306.554 479.193 307.309 478.029 307.509 476.633C307.647 475.663 307.631 474.641 307.43 473.678C307.108 472.129 306.904 471.47 305.386 471.057C302.196 470.188 299.487 472.866 297.301 475.069C297.299 475.072 297.299 475.074 297.299 475.078C297.277 475.169 297.238 475.243 297.192 475.312C299.651 477.317 299.299 481.14 298.167 484.4C299.995 482.62 302.267 481.216 304.68 480.797C305.163 480.713 305.704 480.705 306.258 480.736C306.255 480.666 306.223 480.613 306.241 480.535ZM309.862 460.399C309.646 460.752 309.42 461.089 309.194 461.402C310.49 462.91 310.171 465.184 309.267 467.171C311.23 465.727 313.712 465.052 316.124 465.971C317.52 466.502 318.634 467.539 319.335 468.785C320.669 465.547 322.211 461.237 319.28 458.507C316.173 455.613 312.689 458.483 309.862 460.399ZM311.12 457.727C313.687 455.73 317.084 454.739 319.89 456.774C319.907 456.786 319.919 456.8 319.937 456.812C319.968 456.74 320.01 456.667 320.075 456.597C323.374 453.062 320.581 447.448 315.7 448.881C313.47 449.534 311.791 451.197 310.011 452.613C311.634 453.963 311.712 455.866 311.12 457.727ZM299.727 462.11C302.068 460.407 305.006 459.308 307.468 460.239C307.678 460.318 307.834 460.426 308.016 460.521C309.513 458.352 311.528 454.839 308.515 453.191C306.812 452.261 304.778 452.912 303.294 453.928C302.348 454.574 301.592 455.555 300.621 456.148C300.522 456.27 300.425 456.394 300.311 456.501C301.317 458.043 300.708 460.175 299.727 462.11ZM289.561 462.794C289.641 463.791 289.445 464.722 289.08 465.591C291.079 463.955 293.571 463.112 296.168 464.3C296.336 464.375 296.45 464.472 296.599 464.555C297.193 462.169 300.557 459.089 298.538 457.084C297.071 455.628 294.208 456.886 292.786 457.68C291.355 458.479 290.076 459.531 288.892 460.657C289.26 461.31 289.501 462.044 289.561 462.794ZM276.534 468.679C276.471 469.218 276.354 469.818 276.191 470.44C278.245 468.861 280.87 468.002 283.335 468.406C283.79 468.481 284.197 468.594 284.573 468.732C284.595 468.702 284.602 468.67 284.628 468.64C285.953 467.172 287.703 465.515 287.797 463.404C287.916 460.745 285.74 459.919 283.466 460.675C280.524 461.655 278.148 463.672 276.006 465.845C276.457 466.664 276.658 467.625 276.534 468.679ZM250.078 484.041C252.897 481.951 256.743 480.993 259.787 482.54C262.057 478.948 266.484 471.097 259.694 469.563C254.659 468.424 251.547 472.948 248.496 476.093C250.569 478.138 250.855 481.209 250.078 484.041ZM236.03 490.409C238.542 487.39 242.183 485.277 246.053 486.946C246.31 487.058 246.533 487.197 246.765 487.33C246.773 487.31 246.772 487.292 246.782 487.272C248.466 483.952 250.534 477.665 245.28 476.122C242.288 475.243 239.15 477.24 236.883 479.453C236.498 480.102 236.12 480.756 235.72 481.395C237.639 483.981 237.268 487.342 236.03 490.409ZM220.162 483.686C217.789 480.956 213.797 482.227 211.793 484.655C211.729 484.733 211.639 484.744 211.549 484.731C212.01 486.445 211.327 488.507 210.217 490.491C212.976 488.831 216.269 488.117 219.265 489.414C219.682 489.593 220.062 489.804 220.407 490.041C221.527 488.045 221.79 485.559 220.162 483.686ZM215.198 472.761C215.843 473.023 216.403 473.391 216.814 473.889C218.587 476.031 217.404 478.655 215.537 480.827C217.36 480.414 219.364 480.758 220.83 482.025C221.403 482.52 221.846 483.127 222.193 483.781C222.598 483.257 223.058 482.74 223.569 482.242C226.271 478.877 229.496 473.858 225.636 470.385C225.251 470.036 224.851 469.763 224.445 469.535C221.178 470.629 218.09 471.712 215.198 472.761ZM214.03 471.025C213.356 471.479 212.688 471.899 212.048 472.275C212.107 472.272 212.164 472.276 212.222 472.274C214.359 471.278 216.478 470.246 218.593 469.199C217.033 469.647 215.483 470.363 214.03 471.025ZM221.304 458.81C221.491 454.471 217.269 453.187 213.794 453.735C211.95 454.025 210.14 454.494 208.314 454.877C208.825 455.935 209.091 457.234 208.978 458.851C208.936 459.475 208.811 460.092 208.638 460.701C211.434 460.155 213.441 462.924 213.231 465.62C213.086 467.48 212.278 469.235 211.138 470.821C215.348 468.08 221.079 463.988 221.304 458.81ZM233.046 446.507C232.916 440.016 223.076 443.511 219.467 444.627C218.965 447.409 216.625 450.194 213.911 452.128C217.534 451.466 221.126 452.009 222.574 455.871C222.628 456.013 222.665 456.156 222.709 456.298C226.345 453.984 233.145 451.427 233.046 446.507ZM246.066 435.328C245.515 429.655 236.421 431.741 232.214 432.647C232.606 435.62 230.409 438.677 227.51 440.817C230.64 440.636 233.545 441.521 234.61 444.468C234.774 444.925 234.876 445.367 234.94 445.802C234.979 445.761 235.01 445.717 235.06 445.682C238.462 443.283 246.558 440.399 246.066 435.328ZM258.161 422.211C259.035 425.649 257.019 429.086 254.182 431.509C257.302 431.456 260.251 432.613 261.612 435.751C262.364 434.883 263.279 434.165 264.304 433.588C267.286 430.985 270.638 428.54 271.877 424.618C274.661 415.809 262.134 420.367 258.161 422.211ZM275.85 404.18C274.766 404.374 273.737 404.763 272.724 405.202C271.869 405.812 271.025 406.319 270.258 406.679C271.898 410.787 269.005 414.621 265.376 417.563C268.364 416.933 271.322 417.227 273.059 419.279C275.516 416.091 279.677 414.608 281.722 411.076C284.246 406.72 280.138 403.416 275.85 404.18ZM296.22 390.979C294.538 391.439 292.95 392.372 291.403 393.234C292.465 396.547 290.136 400.576 287.526 403.519C290.332 402.222 293.485 401.973 295.624 404.172C298.058 401.578 301.056 398.028 301.564 394.421C302.029 391.122 298.824 390.27 296.22 390.979ZM301.057 376.734C299.725 377.824 298.63 379.261 297.525 380.575C298.84 383.566 297.422 386.79 295.318 389.409C297.755 388.433 300.323 388.2 302.097 389.953C303.045 388.262 304.327 386.759 305.318 385.079C306.313 383.395 308.125 380.822 308.162 378.836C308.243 374.446 303.577 374.673 301.057 376.734ZM310.496 345.346C310.131 345.645 309.809 345.968 309.516 346.306C309.069 347.493 308.516 348.613 307.923 349.593C309.53 352.215 309.105 355.214 307.796 357.924C309.525 356.795 311.453 356.338 313.157 357.338C314.798 354.396 315.811 351.162 315.595 347.76C315.503 346.318 315.423 343.758 312.956 343.943C312.126 344.005 311.103 344.846 310.496 345.346ZM310.597 329.22C308.541 328.962 307.546 330.178 305.955 331.099C305.888 331.139 305.819 331.14 305.749 331.145C305.165 332.141 304.557 333.133 303.922 334.122C305.734 333.851 307.848 334.63 308.988 336.099C310.624 338.207 310.826 340.936 310.298 343.597C311.175 342.945 312.372 342.314 313.535 342.217C314.144 339.137 315.543 336.076 314.537 332.911C313.943 331.044 312.618 329.474 310.597 329.22ZM307.595 327.855C309.069 327.31 310.933 327.472 312.47 328.124C314.123 324.284 315.598 319.715 312.496 316.512C311.192 320.329 309.565 324.115 307.595 327.855ZM306.845 348.255C308.035 345.676 309.023 342.794 308.673 339.967C308.468 338.3 307.781 336.68 306.203 335.906C305.135 335.381 303.899 335.32 302.854 335.754C302.619 336.105 302.408 336.457 302.166 336.805C300.934 338.579 299.631 340.286 298.296 341.961C299.652 343.51 299.5 345.813 298.727 347.952C301.211 346.301 304.607 346.091 306.845 348.255ZM295.227 362.67C297.699 360.834 300.698 359.986 303.159 362.014C305.219 358.835 308.204 355.324 306.698 351.314C304.847 346.382 300.089 348.714 297.152 351.037C297.031 351.216 296.908 351.39 296.786 351.555C297.066 351.944 297.309 352.391 297.493 352.924C298.534 355.964 297.209 359.601 295.227 362.67ZM281.029 373.332C280.015 375.625 278.597 377.69 276.87 379.469C279.517 378.607 282.467 378.591 284.33 380.318C286.508 377.592 289.098 374.744 290.056 371.339C291.358 366.708 286.975 363.975 283.162 366.703C283.017 366.807 282.861 366.776 282.722 366.704C282.721 366.705 282.72 366.704 282.72 366.705C282.813 368.969 281.847 371.484 281.029 373.332ZM262.055 379.633C262.335 382.806 260.334 386.033 257.702 388.645C260.122 388.193 262.505 388.618 264.048 390.631C265.402 389.667 266.709 388.658 267.902 387.489C268.972 386.441 271.178 384.549 271.526 383.055C271.849 381.663 271.357 379.606 270.094 378.855C269.02 378.215 267.933 378.15 266.735 378.227C265.109 378.331 263.568 378.944 262.015 379.391C262.028 379.472 262.047 379.547 262.055 379.633ZM247.557 400.577C250.546 400.232 253.37 401.235 254.532 404.866C254.578 405.01 254.606 405.15 254.644 405.294C254.71 405.22 254.777 405.147 254.879 405.088C258.336 403.073 263.189 399.102 263.251 394.655C263.33 389.02 258.568 389.858 254.608 391.251C253.409 392.114 252.205 392.833 251.118 393.347C251.431 395.963 249.722 398.574 247.557 400.577ZM256.283 423.689C256.163 417.43 248.501 418.992 244.451 419.82C244.629 423.727 240.878 427.66 236.94 430.049C241.221 429.175 246.075 429.501 247.681 433.055C247.736 433.011 247.784 432.964 247.858 432.931C251.514 431.342 256.37 428.264 256.283 423.689ZM261.212 404.515C258.969 405.045 256.932 406.421 254.968 407.574C254.992 411.947 251.554 415.347 247.79 417.746C251.497 416.921 255.642 417.164 257.527 420.546C261.449 418.033 267.507 415.131 268.397 410.091C269.167 405.725 265.159 403.582 261.212 404.515ZM277.74 394.95C277.545 388.153 268.537 391.289 264.967 392.368C264.962 392.369 264.959 392.365 264.955 392.366C266.29 396.031 263.959 399.99 260.926 402.947C264.247 402.014 267.664 402.277 269.636 405.438C272.623 402.724 277.866 399.359 277.74 394.95ZM295.587 380.989C293.67 377.052 289.766 378.912 286.694 380.444C286.245 380.925 285.807 381.37 285.396 381.764C286.855 384.546 285.856 387.342 283.97 389.604C286.475 389.017 289.086 389.479 290.723 391.767C290.744 391.798 290.758 391.83 290.779 391.859C290.804 391.707 290.863 391.551 291.005 391.405C293.526 388.804 297.549 385.019 295.587 380.989ZM289.22 377.372C291.785 376.475 294.616 376.666 296.517 378.888C296.548 378.923 296.562 378.96 296.591 378.996C298.235 375.166 301.597 372.123 302.869 368.075C303.918 364.738 301.58 361.947 298.023 362.831C295.46 363.467 293.743 365.748 291.892 367.462C293.04 370.629 291.427 374.299 289.22 377.372ZM267.736 390.154C271.587 388.624 276.41 388.227 278.651 391.963C281.39 389.691 285.71 386.79 283.821 382.706C282.017 378.807 276.73 381.262 273.589 382.511C273.109 385.324 270.38 388.082 267.736 390.154ZM275.502 402.838C278.59 402.005 281.791 402.31 283.551 405.18C286.104 402.329 291.121 397.614 289.456 393.507C287.639 389.025 283.035 391.543 279.767 393.116C279.599 393.214 279.43 393.315 279.263 393.403C280.22 396.568 278.202 400.115 275.502 402.838ZM211.848 424.11C214.281 424.027 216.617 425.394 217.625 427.76C221.353 426.577 224.942 424.818 226.961 421.252C228.572 418.404 227.856 414.894 224.374 413.907C222.596 413.402 220.858 413.834 219.131 414.263C219.467 418.274 215.468 421.736 211.848 424.11ZM206.947 409.768C210.354 407.914 214.137 405.846 216.246 402.487C216.69 401.779 217.514 400.552 217.516 399.725C217.519 398.089 216.23 395.818 214.583 395.403C212.582 394.899 210.467 395.641 208.516 396.147C210.589 400.881 206.854 404.94 202.355 407.429C204.216 407.499 205.9 408.161 206.947 409.768ZM205.803 476.285C205.632 478.35 204.462 480.275 202.849 481.978C205.084 481.228 207.395 481.107 209.348 482.126C209.94 482.435 210.367 482.806 210.725 483.202C212.867 481.569 216.998 477.979 215.411 475.302C214.671 474.052 213.315 473.878 211.945 473.957C209.778 474.763 207.731 475.541 205.803 476.285ZM188.229 483.687C190.645 483.566 192.923 484.264 194.333 486.428C197.204 484.246 200.563 482.114 202.62 479.123C203.072 478.469 203.398 477.799 203.599 477.138C197.618 479.465 192.946 481.353 189.673 482.431C189.212 482.867 188.733 483.29 188.229 483.687ZM201.71 472.288C200.261 471.366 198.65 471.4 197.046 471.666C195.945 472.068 194.858 472.362 193.83 472.504C193.825 472.505 193.822 472.503 193.818 472.503C193.853 472.749 193.886 472.999 193.9 473.266C194.066 476.256 192.864 478.836 191.009 481.019C195.309 479.486 199.576 477.831 203.795 476.035C203.886 474.617 203.283 473.291 201.71 472.288ZM203.296 452.714C201.496 452.106 199.303 452.45 197.373 452.734C197.024 452.913 196.678 453.084 196.338 453.241C196.32 453.251 196.303 453.247 196.285 453.255C196.338 453.566 196.377 453.89 196.393 454.231C196.681 460.422 190.496 464.82 184.876 467.466C188.555 467.023 192.39 467.744 193.554 471.349C197.398 469.015 201.559 467.68 204.616 464.115C207.447 460.81 209.113 454.676 203.296 452.714ZM214.209 439.376C212.642 438.948 210.984 439.118 209.366 439.236C209.001 439.435 208.644 439.632 208.313 439.827C208.115 439.944 207.929 439.957 207.758 439.918C207.757 440.026 207.776 440.116 207.77 440.227C207.531 444.862 203.902 448.654 199.969 451.224C203.043 451.022 206.033 451.717 207.685 453.826C207.728 453.721 207.8 453.618 207.921 453.535C211.053 451.364 214.499 450.011 216.692 446.65C218.506 443.875 217.666 440.317 214.209 439.376ZM209.039 425.946C208.936 425.993 208.839 425.996 208.751 425.981C208.724 425.994 208.696 425.998 208.668 426.008C208.511 430.042 205.593 432.53 202.143 434.169C204.773 434.445 207.033 435.659 207.614 438.382C209.957 436.886 213.133 435.893 214.974 433.767C218.797 429.352 214.382 423.537 209.039 425.946ZM185.021 447.451C189.307 447.068 194.089 447.95 195.769 451.588C199.245 449.842 202.746 447.331 204.725 443.906C205.639 442.325 206.79 439.343 205.519 437.637C203.674 435.162 200.493 435.464 197.77 435.813C197.331 435.947 196.897 436.073 196.474 436.189C196.35 436.223 196.236 436.226 196.131 436.212C195.503 441.405 190.033 445.088 185.021 447.451ZM187.654 429.129C191.747 428.996 195.825 429.931 196.174 434.487C200.505 433.284 206.016 431.633 206.859 426.517C207.985 419.693 200.513 420.931 196.004 421.551C195.671 425.02 191.432 427.518 187.654 429.129ZM202.112 419.428C205.279 419.491 208.065 420.688 208.589 424.404C211.373 422.152 215.089 420.5 216.834 417.307C218.562 414.145 216.7 410.818 213.309 410.187C211.302 409.813 209.486 410.564 207.614 411.173C207.631 411.214 207.649 411.252 207.663 411.298C208.722 414.784 205.651 417.769 202.112 419.428ZM211.603 438.027C215.052 437.776 218.772 438.787 219.491 442.379C223.329 440.399 227.541 439.611 229.796 435.343C231.708 431.726 227.948 429.58 225.011 428.894C223.271 428.488 221.57 428.552 219.876 428.864C219.262 429.066 218.655 429.227 218.069 429.332C218.713 433.647 215.119 436.089 211.603 438.027ZM200.332 470.128C202.739 470.336 204.862 471.495 205.596 474.101C207.4 472.761 208.973 471.191 210.212 469.267C210.77 468.404 211.293 467.499 211.559 466.498C212.098 464.468 211.368 461.492 208.471 461.926C208.375 461.941 208.287 461.934 208.207 461.913C206.817 465.232 203.736 468.175 200.332 470.128ZM193.744 495.147C196.919 493.448 200.717 492.821 203.691 494.043C204.323 494.302 204.87 494.607 205.343 494.949C207.574 491.583 213.555 483.411 206.539 483.228C202.224 483.115 198.283 485.51 195.193 488.279C195.18 488.291 195.162 488.288 195.147 488.296C195.749 490.557 195.042 492.935 193.744 495.147ZM201.454 495.372C196.298 494.6 191.378 498.073 188.477 501.994C191.459 505.038 190.254 508.949 188.673 512.679C191.676 508.522 197.351 506.612 202.312 508.739C202.524 508.83 202.731 508.963 202.94 509.076C205.342 504.952 209.132 496.523 201.454 495.372ZM219.592 500.862C219.593 500.818 219.568 500.782 219.578 500.737C219.905 499.256 220.764 497.989 221.108 496.51C221.855 493.287 219.752 490.966 216.661 490.508C213.295 490.008 210.814 491.941 208.19 493.592C207.543 494.47 206.911 495.263 206.394 495.913C208.499 498.33 208.11 501.898 206.833 505.117C210.323 501.936 215.507 499.682 219.592 500.862ZM221.549 513.645C222.458 511.508 223.302 509.655 222.951 507.3C222.34 503.193 218.594 501.792 214.9 502.667C210.861 503.625 208.063 506.074 205.044 508.614C204.76 509.063 204.473 509.494 204.182 509.885C206.688 511.807 208.713 515.129 208.533 518.196C211.204 514.943 215.8 513.159 219.92 513.7C220.49 513.774 221.018 513.906 221.518 514.073C221.487 513.935 221.489 513.787 221.549 513.645ZM233.897 506.583C234.914 503.086 236.301 498.557 231.975 496.714C227.526 494.819 223.995 498.437 220.902 501.117C220.852 501.174 220.807 501.237 220.754 501.295C224.207 502.956 225.371 506.907 224.575 510.441C226.839 507.657 230.423 505.778 233.897 506.583ZM234.62 508.634C230.026 506.339 225.328 511.088 223.176 514.554C223.107 514.667 222.997 514.702 222.885 514.704C225.912 516.444 227.264 520.041 227.169 523.672C229.161 520.646 233.784 519.072 237.158 519.957C237.399 516.14 239.024 510.836 234.62 508.634ZM247.932 501.531C243.056 497.89 238.431 502.551 235.754 506.34C235.627 506.584 235.494 506.824 235.349 507.055C239.256 508.931 240.223 514.08 239.131 518.145C241.368 514.695 245.321 511.623 249.447 511.949C249.708 508.283 251.568 504.246 247.932 501.531ZM261.955 500.974C262.097 498.452 261.15 495.774 258.827 494.468C254.173 491.85 250.752 496.604 248.404 499.851C251.153 501.564 252.249 504.942 251.871 508.168C254.071 505.643 257.798 504.394 261.065 505.468C261.216 503.926 261.867 502.548 261.955 500.974ZM270.094 499.247C270.924 496.697 272.145 493.367 270.652 490.83C269.423 488.746 266.806 488.445 264.771 489.349C262.846 490.203 261.772 491.877 260.762 493.635C260.74 493.673 260.708 493.678 260.68 493.703C262.754 495.451 264 498.417 263.862 501.197C265.528 499.788 267.855 499.113 270.058 499.544C270.057 499.45 270.059 499.355 270.094 499.247ZM281.953 481.272C277.529 480.728 273.88 485.789 271.726 489.173C271.716 489.205 271.701 489.241 271.691 489.273C273.349 491.307 273.304 494.232 272.675 496.89C275.093 494.391 278.303 492.618 281.838 493.474C281.827 493.344 281.846 493.21 281.933 493.078C283.828 490.205 288.637 482.097 281.953 481.272ZM293.431 475.864C290.92 475.778 288.727 476.897 286.945 478.508C286.58 479.445 286.132 480.316 285.645 481.048C287.643 482.962 287.489 485.796 286.454 488.477C288.942 486.783 292.149 486.103 294.93 487.071C296.675 483.804 299.523 476.071 293.431 475.864ZM298.164 472.084C300.513 469.635 304.126 467.794 306.801 469.125C307.428 467.859 308.182 466.614 308.332 465.189C308.616 462.469 306.587 461.378 304.101 461.926C301.763 462.442 299.737 463.661 297.893 465.134C297.835 465.22 297.773 465.313 297.717 465.394C299.395 467.127 298.887 469.654 298.164 472.084ZM287.674 475.917C290.037 474.239 293.015 473.44 295.699 474.457C295.742 474.472 295.777 474.494 295.817 474.511C296.177 471.857 298.689 467.896 295.87 466.061C292.212 463.683 288.892 467.609 286.396 469.908C287.825 471.377 288.083 473.648 287.674 475.917ZM274.271 483.321C276.916 480.393 280.487 478.286 283.917 479.861C283.998 479.899 284.063 479.944 284.133 479.988C284.406 479.432 284.742 478.893 285.13 478.378C285.713 477.113 286.236 475.825 286.253 474.406C286.289 471.343 283.979 469.678 280.965 470.103C277.441 470.6 275.228 472.979 273.604 475.874C275.926 477.708 275.398 480.523 274.271 483.321ZM262.686 488.924C264.76 487.086 267.717 486.377 270.357 488.057C271.77 484.616 275.792 479.351 272.057 476.851C267.194 473.598 263.922 480.375 261.434 483.186C261.37 483.284 261.302 483.389 261.238 483.483C261.221 483.509 261.198 483.519 261.179 483.542C262.624 484.95 263.008 486.946 262.686 488.924ZM243.411 487.897C238.791 487.772 236.489 492.169 234.055 495.298C233.87 495.534 233.492 495.403 233.371 495.168C233.364 495.181 233.354 495.195 233.345 495.207C233.325 495.236 233.298 495.249 233.276 495.273C236.01 496.689 237.051 499.574 236.833 502.454C239.23 499.512 243.105 497.865 246.895 499.145C247.97 497.432 248.872 495.645 248.777 493.553C248.644 490.69 246.375 487.975 243.411 487.897ZM250.301 494.833C252.566 492.553 255.774 491.299 258.947 492.595C259.114 492.663 259.265 492.767 259.426 492.85C259.41 492.708 259.421 492.561 259.498 492.418C261.102 489.46 262.245 484.669 257.706 483.705C254.276 482.976 251.266 484.814 248.824 487.019C248.614 487.38 248.394 487.729 248.154 488.054C248.108 488.116 248.053 488.154 247.999 488.2C249.856 489.873 250.565 492.366 250.301 494.833ZM177.844 500.104C180.826 498.966 184.104 498.909 186.957 500.736C189.651 497.924 193.519 494.018 193.6 489.888C193.698 484.896 189.128 484.945 185.196 485.75C183.816 486.565 182.41 487.26 181.088 487.819C181.069 487.828 181.051 487.826 181.031 487.832C182.457 492.431 180.611 496.568 177.844 500.104ZM170.347 482.065C174.366 481.49 178.466 482.571 180.409 486.3C183.928 484.192 187.752 482.523 190.157 479.023C192.245 475.984 193.161 471.796 189.564 469.575C187.112 468.063 184.138 468.731 181.46 469.193C181.278 469.224 181.134 469.165 181.031 469.068C180.96 469.093 180.882 469.125 180.811 469.15C180.749 469.173 180.696 469.166 180.638 469.175C180.636 469.201 180.639 469.223 180.637 469.25C180.202 475.015 175.468 479.555 170.347 482.065ZM171.412 462.445C175.618 462.198 179.921 462.846 180.577 467.235C185.246 465.507 191.104 462.568 193.586 458.031C194.465 456.419 194.872 453.508 193.89 451.872C193.092 450.539 190.267 449.5 188.754 449.142C186.259 448.549 183.536 448.964 181.004 449.149C181 449.151 180.996 449.153 180.992 449.155C181.028 449.4 181.083 449.629 181.102 449.89C181.535 455.718 176.438 460.038 171.412 462.445ZM174.924 443.092C177.457 443.468 179.565 444.859 180.542 447.375C184.574 445.853 188.858 443.689 191.859 440.548C195.414 436.824 196.128 431.351 188.779 430.329C187.299 430.123 185.715 430.394 184.177 430.457C183.957 430.533 183.738 430.609 183.541 430.675C183.502 430.689 183.471 430.681 183.435 430.689C183.543 431.498 183.537 432.392 183.399 433.371C182.729 438.115 179.172 441.444 174.924 443.092ZM176.86 425.183C179.638 425.199 181.95 426.489 182.96 428.919C182.992 428.904 183.011 428.881 183.046 428.87C185.992 427.895 191.16 426.323 193.042 423.594C194.985 420.775 193.913 417.912 190.608 417.234C189.238 416.954 187.816 417.083 186.42 417.236C186.119 417.36 185.82 417.48 185.524 417.599C185.184 417.732 184.913 417.645 184.717 417.464C183.494 420.633 180.017 423.301 176.86 425.183ZM189.453 415.846C192.223 415.865 194.896 416.777 195.763 419.52C195.778 419.513 195.787 419.504 195.801 419.497C198.962 418.254 207.493 416.956 206.029 411.753C205.009 408.126 201.139 408.516 197.933 409.32C197.461 409.466 197 409.592 196.555 409.694C196.065 409.835 195.608 409.974 195.203 410.091C195.165 410.102 195.136 410.083 195.102 410.082C194.139 412.764 191.941 414.531 189.453 415.846ZM211.346 408.953C214.349 408.488 217.504 409.478 218.726 412.564C221.467 410.623 225.184 408.806 227.125 406.104C228.83 403.733 228.108 400.691 225.027 399.908C223.022 399.397 220.91 400.072 218.953 400.503C218.183 403.979 214.683 406.846 211.346 408.953ZM223.505 427.172C226.792 427.152 230.161 428.151 231.582 430.699C235.28 428.42 240.527 426.371 242.022 421.947C244.281 415.27 236.364 415.928 231.515 416.883C231.148 417.097 230.797 417.3 230.475 417.483C230.183 417.651 229.906 417.629 229.674 417.516C229.69 417.669 229.71 417.819 229.716 417.98C229.831 421.744 226.947 425.072 223.505 427.172ZM235.269 414.52C238.87 414.053 242.649 414.818 243.989 417.831C247.933 415.455 253.01 412.695 253.007 407.479C253.003 402.097 248.834 401.786 244.946 402.583C244.341 402.968 243.748 403.3 243.199 403.553C243.136 403.582 243.076 403.586 243.015 403.6C243.476 407.9 239.298 411.752 235.269 414.52ZM266.271 376.875C269.139 376.324 272.078 376.843 273.349 379.927C273.382 380.007 273.399 380.088 273.427 380.168C276.805 377.244 279.513 373.693 280.543 369.24C282.302 361.63 274.396 365.108 270.753 367.29C271.06 368.827 270.366 371.323 270.019 372.118C269.19 374.016 267.88 375.636 266.271 376.875ZM325.278 334.916C325.177 334.799 325.106 334.646 325.107 334.435C325.131 330.862 327.105 326.313 324.677 323.159C322.848 320.783 319.878 321.338 317.87 323.164C316.224 324.663 315.354 326.854 314.145 328.683C314.049 328.827 313.896 328.858 313.76 328.824C313.758 328.83 313.755 328.837 313.753 328.843C314.072 329.075 314.363 329.328 314.602 329.61C316.366 331.688 316.751 334.345 316.311 336.931C317.28 335.667 318.493 334.637 320.107 334.144C321.877 333.603 323.959 333.781 325.27 334.941C325.272 334.933 325.275 334.924 325.278 334.916ZM310.868 371.006C311.947 369.073 313.21 367.196 313.837 365.107C314.758 362.045 313.72 358.598 310.046 358.618C307.564 358.632 305.719 361.539 304.282 363.258C305.527 365.135 305.14 367.524 304.318 369.525C303.73 370.956 302.971 372.544 302.082 374.086C304.243 372.834 306.665 372.657 308.811 374.85C309.26 373.489 309.969 372.182 310.868 371.006ZM300.52 401.348C303.137 400.1 306.286 399.708 308.975 400.141C309.53 399.251 310.092 398.367 310.621 397.456C312.928 393.482 314.846 389.414 316.456 385.258C315.853 385.065 315.245 384.885 314.588 384.831C312.816 384.69 311.098 385.165 309.537 385.989C307.063 387.292 305.095 389.381 302.986 391.182C304.691 394.279 302.857 398.147 300.52 401.348ZM279.572 415.99C281.435 415.674 283.351 415.844 285.074 416.683C286.473 417.362 287.636 418.422 288.444 419.674C291.848 417.074 296.02 413.922 295.739 409.204C295.33 402.333 288.867 404.487 284.843 406.231C284.796 406.252 284.748 406.236 284.699 406.239C284.614 406.306 284.525 406.383 284.444 406.446C284.366 406.506 284.286 406.54 284.206 406.57C285.54 410.407 282.776 413.433 279.572 415.99ZM252.608 449.205C256.353 446.57 261.253 442.725 259.972 437.467C258.915 433.137 254.821 433.119 251.115 433.576C250.25 434.024 249.381 434.377 248.554 434.595C248.411 434.632 248.277 434.622 248.15 434.592C248.94 439.025 244.733 442.287 240.598 444.566C245.564 443.912 251.148 445.06 252.606 449.207C252.607 449.206 252.607 449.206 252.608 449.205ZM237.437 475.138C238.062 473.909 238.854 471.787 236.988 471.269C236.065 471.013 235.109 471.367 234.217 471.769C232.697 472.967 230.935 473.874 229.082 474.384C229.062 476.123 228.449 477.868 227.523 479.501C229.767 478.504 232.197 478.339 234.262 479.894C234.38 479.983 234.46 480.087 234.57 480.179C235.588 478.536 236.561 476.861 237.437 475.138ZM225.515 482.407C224.828 483.251 224.107 484.029 223.417 484.717C223.17 484.963 222.887 484.982 222.654 484.878C223.318 486.97 222.974 489.369 221.471 490.999C223 492.708 223.395 495.123 222.839 497.402C225.415 495.121 228.798 493.748 232.082 494.792C232.093 494.71 232.116 494.624 232.163 494.535C234.126 490.854 237.247 485.984 234.035 482.048C231.712 479.201 228.328 480.469 225.515 482.407ZM264.329 470.129C264.28 470.186 264.231 470.242 264.182 470.298C265.427 472.023 265.409 474.242 264.758 476.487C266.82 474.745 269.425 473.877 272.1 474.999C273.163 471.83 277.318 466.432 272.125 465.201C268.746 464.402 266.765 467.198 264.838 469.53C264.835 469.538 264.83 469.547 264.827 469.555C264.745 469.858 264.554 470.041 264.329 470.129ZM331.389 453.291C334.531 451.158 333.495 446.726 329.911 445.77C326.634 444.896 323.91 447.063 322.093 449.553C323.059 450.906 323.437 452.618 323.094 454.23C325.215 453.068 327.965 453.126 330.16 454.368C330.441 454.225 330.725 454.092 331.01 453.958C331.013 453.721 331.115 453.477 331.389 453.291ZM318.089 473.629C318.088 473.551 318.087 473.472 318.121 473.385C319.098 470.882 317.57 468.038 314.944 467.365C312.337 466.696 309.719 468.181 307.794 469.856C309.447 471.509 309.954 474.711 309.433 477.398C311.626 475.07 314.771 473.454 317.748 473.605C317.862 473.611 317.955 473.646 318.045 473.688C318.059 473.669 318.075 473.65 318.089 473.629ZM320.194 470.792C320.147 470.837 320.097 470.876 320.045 470.906C320.048 470.933 320.047 470.96 320.05 470.988C320.098 470.923 320.145 470.858 320.194 470.792ZM235.165 398.936C238.3 398.409 241.476 399.052 242.631 402.051C245.226 400.342 248.368 397.909 249.165 394.759C249.773 392.359 247.782 390.855 245.588 390.882C243.879 390.903 242.266 391.743 240.672 392.247C240.664 392.249 240.658 392.248 240.65 392.249C239.892 394.858 237.628 397.11 235.165 398.936ZM250.037 378.281C251.444 382.148 248.798 386.533 245.38 389.24C247.526 389.035 249.586 389.594 250.604 391.594C253.725 389.75 256.428 387.599 258.468 384.507C259.977 382.221 261.071 378.9 258.382 377.142C256.872 376.154 255.058 376.335 253.307 376.689C252.222 377.23 251.132 377.761 250.037 378.281ZM256.369 375.137C258.46 375.129 260.412 375.738 261.399 377.459C263.641 376.831 265.552 375.7 267.043 373.881C267.452 373.382 269.962 368.881 269.456 367.542C265.223 370.273 260.85 372.802 256.369 375.137ZM316.49 296.708C318.534 297.4 320.171 299.358 320.842 301.543C321.742 299.784 322.993 298.341 324.723 297.854C324.556 295.35 324.539 292.836 323.729 290.424C323.222 288.916 322.515 287.43 321.053 286.661C319.259 285.717 317.554 286.376 316.658 287.999C316.752 290.903 316.698 293.806 316.49 296.708ZM314.989 273.367C314.996 273.366 315.004 273.363 315.01 273.363C314.984 273.271 314.961 273.173 314.937 273.079C314.956 273.174 314.971 273.271 314.989 273.367ZM300.612 236.123C302.254 238.975 303.791 241.875 305.222 244.813C305.742 243.313 306.882 242.162 308.314 241.475C306.739 239.596 302.668 232.9 300.612 236.123ZM320.581 232.273C318.152 233.026 316.625 235.207 316.753 237.864C316.891 240.702 318.829 243.058 320.371 245.315C321.842 244.097 323.507 244.031 325.058 244.612C323.672 241.821 323.143 238.711 324.388 235.932C323.139 234.694 321.868 233.474 320.581 232.273ZM343.963 257.306C341.742 254.758 339.522 252.21 337.282 249.682C337.172 249.726 337.053 249.754 336.924 249.734C333.42 249.222 330.562 251.599 330.153 255.096C329.875 257.459 330.66 259.635 331.465 261.803C331.95 262.838 332.381 263.835 332.769 264.667C332.929 264.653 333.085 264.621 333.25 264.617C336.42 264.551 339.195 266.399 340.755 269.002C340.536 266.511 340.594 263.996 341.337 261.63C341.754 260.305 342.619 258.038 343.963 257.306ZM347.344 277.466C347.283 277.416 347.222 277.368 347.171 277.294C345.189 274.412 341.067 274.322 338.493 276.5C336.601 278.099 335.584 280.41 334.746 282.718C334.793 283.486 334.81 284.215 334.799 284.858C339.543 285.996 342.167 291.5 342.315 296.305C342.45 295.924 342.606 295.553 342.733 295.167C344.663 289.379 346.192 283.46 347.344 277.466ZM270.092 524.448C269.835 523.4 269.574 522.437 268.819 521.523C267.388 519.793 265.212 519.254 263.058 519.524C259.658 519.953 257.506 522.265 255.071 524.336C258.251 525.323 260.563 528.087 260.774 531.226C263.979 529.052 267.077 526.786 270.092 524.448ZM455.021 502.195C436.492 496.978 417.059 498.687 399.946 507.64C383.3 516.347 368.59 528.103 351.498 536.137C322.967 549.55 285.852 555.472 258.724 535.585C256.972 536.669 253.186 538.834 253.074 538.86C253.255 540.67 252.98 542.64 252.197 543.941C248.593 549.922 232.855 541.585 232.638 541.456C223.072 546.506 212.952 550.378 202.524 553.176C202.541 553.211 202.547 553.251 202.563 553.288C202.695 553.347 202.821 553.434 202.917 553.569C203.813 554.826 202.604 556.761 201.726 557.711C200.804 558.708 199.31 559.768 197.879 559.377C196.449 564.312 192.441 568.206 187.051 568.792C181.607 569.383 176.492 566.116 173.576 561.626C172.155 562.547 169.711 561.053 168.925 559.837C168.719 559.517 168.522 559.018 168.395 558.486C155.946 559.124 143.429 558.44 131.207 556.502C129.819 556.282 128.445 556.028 127.077 555.765C127.143 556.003 127.213 556.238 127.29 556.47C127.346 556.567 127.387 556.673 127.446 556.767C127.431 556.766 127.415 556.766 127.399 556.765C129.971 564.046 137.561 568.371 142.425 574.719C146.092 579.505 147.274 584.888 146.477 590.834C144.68 604.243 133.383 614.704 120.883 619C129.851 612.924 135.234 607.061 139.131 599.067C144.878 587.271 141.464 578.351 131.35 570.802C125.574 566.489 118.758 560.897 118.665 553.769C117.285 553.378 115.92 552.968 114.597 552.491C114.542 552.703 114.417 552.905 114.175 553.051C94.1893 565.039 72.5485 516.217 92.858 505.405C92.865 505.401 92.8717 505.402 92.8778 505.399C93.1655 504.712 93.6201 503.011 93.5072 502.84C91.4752 500.479 90.4207 497.425 89.8955 494.245C88.1514 483.695 92.5971 474.039 80.0589 468.306C64.7595 461.312 44.2208 469.907 35.5616 480.321C35.1929 480.765 34.5102 480.391 34.7798 479.877C42.1753 465.768 60.7613 452.892 77.2548 456.535C84.9018 458.223 91.5606 463.179 95.2884 470.073C96.8673 472.993 97.9181 476.223 98.3501 479.509C99.0374 484.736 97.4059 489.829 98.6399 494.878C102.26 489.293 112.465 476.114 113.52 474.756C113.156 474.141 112.908 473.445 112.82 472.941C112.457 470.875 113.334 468.734 114.74 467.22C113.9 463.33 116.068 458.517 118.346 455.637C120.846 452.475 124.945 450.066 128.989 450.175C128.736 448.211 130.489 446.454 132.33 445.941C133.41 445.641 136.692 446.658 136.862 446.789C144.461 438.429 152.42 430.402 160.918 422.896C160.831 422.855 160.746 422.805 160.687 422.719C158.147 418.945 157.366 412.44 161.845 409.633C164.525 407.955 168.793 409.964 169.175 409.701C169.334 409.589 169.5 409.49 169.66 409.38C165.21 380.866 189.164 358.681 201.207 335.399C215.676 307.427 208.151 272.826 181.168 255.375C180.263 254.789 180.818 253.474 181.863 253.653C196.085 256.095 208.131 264.769 215.982 276.457C235.702 277.843 249.36 296.395 250.195 315.313C250.301 317.713 250.228 320.083 250.004 322.42L250.007 322.417C254.845 330.759 253.159 346.076 249.905 354.862C250.031 354.915 250.138 355.01 250.183 355.159C252.363 362.503 250.726 370.532 246.612 376.901C264.46 368.674 281.312 357.93 294.04 342.856C311.443 322.245 318.094 296.642 312.071 270.32C308.71 255.632 302.052 242.678 294.095 230.404C294.085 230.394 294.072 230.392 294.061 230.381C275.377 210.244 247.777 205.55 221.522 204.807C198.625 204.158 175.775 204.838 152.98 202.032C106.785 196.349 63.7433 174.765 34.0862 138.47C33.2035 137.391 34.2936 135.663 35.6462 136.429C54.8725 147.301 76.2823 154.173 98.4193 155.228C106.643 155.619 114.859 155.363 123.073 154.962C137.092 150.008 143.983 136.074 156.319 128.557C163.835 123.977 173.216 122.928 181.969 124.515C180.447 123.795 178.934 123.058 177.441 122.276C160.173 113.238 148.489 96.737 140.056 79.5416C139.965 79.4099 139.867 79.2825 139.777 79.1515C139.672 78.9969 139.642 78.8463 139.64 78.6994C139.583 78.5813 139.522 78.4646 139.466 78.3473C135.696 76.4696 131.972 74.5323 128.327 72.4949C90.0214 51.079 50.5475 1.22731 1.24767 18.9043C0.179712 19.2864 -0.516111 17.6024 0.483978 17.0766C44.8029 -6.19193 97.68 -4.54393 142.991 15.1344C195.682 38.0186 235.592 81.9239 264.263 130.646C281.129 159.306 293.525 190.216 309.296 219.448C311.754 221.269 314.112 223.14 316.345 224.995C328.72 235.277 339.428 247.589 349.565 260.041C351.106 235.955 346.451 211.91 336.054 190.103C335.379 188.688 336.985 187.511 338.176 188.477C356.356 203.21 366.519 226.587 370.819 249.639C370.921 249.66 371.021 249.703 371.101 249.802C372.045 250.948 372.946 252.118 373.82 253.304C373.854 253.343 373.891 253.382 373.921 253.433C387.82 272.375 392.803 296.078 389.6 318.545C389.978 319.104 390.289 319.685 390.628 320.258C390.915 320.329 391.159 320.526 391.227 320.893C391.257 321.057 391.275 321.219 391.303 321.383C399.683 336.986 394.058 357.188 385.603 371.906C385.892 371.747 386.345 371.994 386.289 372.424C383.505 394.123 370.328 413.03 352.53 425.958C352.761 426.149 352.875 426.462 352.671 426.814C343.519 442.618 333.463 458.733 322.204 474.015C326.163 472.919 330.284 472.631 334.342 473.487C342.11 469.847 350.613 468.475 358.894 471.237C374.787 467.047 391.698 468.688 405.572 479.276C405.623 479.315 405.623 479.364 405.646 479.409C420.947 479.434 435.928 483.975 448.931 494.548C450.185 495.445 451.38 496.437 452.489 497.56C452.532 497.604 452.531 497.652 452.564 497.697C453.652 498.71 454.73 499.753 455.784 500.858C456.312 501.412 455.801 502.414 455.021 502.195Z" fill="#494949"/>
</svg>
