<svg width="201" height="211" viewBox="0 0 201 211" fill="none" xmlns="http://www.w3.org/2000/svg">
<path d="M141.946 5.41931C124.85 -2.29558 104.667 5.33222 96.9545 22.4235C89.2869 39.415 88.3003 79.0406 105.268 86.6974C122.234 94.3536 151.295 67.3971 158.963 50.4056C166.676 33.3143 159.042 13.1342 141.946 5.41931ZM104.421 88.5743C85.7569 80.1519 87.2271 38.9719 95.0771 21.5763C103.257 3.45021 124.661 -4.63955 142.793 3.54245C160.924 11.7244 169.02 33.1267 160.84 51.2528C152.991 68.6484 123.085 96.9967 104.421 88.5743Z" fill="#494949"/>
<path d="M137.722 14.9817C124.293 8.9215 107.833 16.2531 101.031 31.3271C94.2583 46.3352 92.0146 80.7166 105.344 86.7318C118.675 92.7477 142.971 68.3175 149.744 53.3094C156.546 38.2353 151.152 21.0418 137.722 14.9817ZM104.496 88.6103C89.604 81.89 92.1863 45.9192 99.1527 30.4816C106.421 14.3744 124.105 6.57753 138.569 13.1048C153.034 19.6321 158.891 38.0519 151.622 54.159C144.656 69.5966 119.391 95.3315 104.496 88.6103Z" fill="#494949"/>
<path d="M104.421 88.5743C103.902 88.34 103.672 87.7297 103.906 87.2123L130.188 28.9705C130.423 28.4497 131.033 28.2221 131.55 28.4556C132.07 28.6899 132.3 29.2986 132.066 29.8177L105.783 88.0595C105.55 88.5769 104.939 88.8079 104.421 88.5743Z" fill="#494949"/>
<path d="M108.847 37.5999C108.184 37.8603 107.468 37.8812 106.776 37.7518C106.419 46.9342 104.602 66.3158 98.698 83.5454C98.5222 84.0522 98.7674 84.6004 99.2478 84.8172C99.2782 84.8309 99.3094 84.843 99.339 84.8543C99.8753 85.0373 100.462 84.7525 100.648 84.2137C106.384 67.474 108.609 47.5481 108.847 37.6016L108.847 37.5999Z" fill="#494949"/>
<path d="M140.965 52.3049C140.798 51.9935 140.633 51.6829 140.47 51.3754C140.467 51.3681 140.466 51.3573 140.463 51.35C133.532 57.6429 118.648 72.2452 110.211 88.578C109.95 89.0808 110.147 89.7048 110.653 89.9638C110.669 89.9731 110.686 89.9807 110.703 89.9884C111.198 90.212 111.79 90.0108 112.04 89.5235C120.262 73.6126 134.754 59.3322 141.654 53.0472C141.399 52.8307 141.165 52.5867 140.964 52.3066L140.965 52.3049Z" fill="#494949"/>
<path d="M178.689 81.9855C176.328 80.92 173.827 80.1191 171.222 79.6029C161.673 77.7156 147.136 78.997 135.051 82.7915C126.808 85.3768 112.659 91.3497 110.505 102.277C106.901 120.532 139.759 142.713 158.061 146.326C176.46 149.958 194.381 137.948 198.012 119.554C199.769 110.643 197.954 101.577 192.894 94.0329C189.311 88.6917 184.411 84.5634 178.693 81.9828L178.689 81.9855ZM145.308 144.18C126.96 135.9 105.291 118.046 108.479 101.876C110.841 89.9065 125.753 83.5513 134.434 80.8258C146.82 76.9395 161.763 75.6355 171.621 77.5828C181.077 79.4563 189.236 84.8844 194.602 92.8866C199.97 100.891 201.896 110.504 200.033 119.957C196.181 139.464 177.172 152.201 157.657 148.348C154.006 147.628 149.753 146.185 145.31 144.18L145.308 144.18Z" fill="#494949"/>
<path d="M163.9 85.1026C147.636 81.8907 113.381 87.6843 110.5 102.293C109.249 108.634 114.343 116.717 124.474 124.465C133.251 131.182 144.859 136.815 153.368 138.495C161.298 140.063 169.305 138.745 175.904 134.787C182.472 130.848 186.859 124.762 188.263 117.649C189.666 110.539 187.918 103.242 183.339 97.1028C178.739 90.93 171.835 86.6728 163.901 85.1034L163.9 85.1026ZM140.318 136.245C134.413 133.581 128.343 130.021 123.224 126.108C116.889 121.261 106.549 111.671 108.477 101.895C111.693 85.5958 147.573 79.7784 164.302 83.0823C172.732 84.7516 180.083 89.2917 184.992 95.8724C189.923 102.484 191.801 110.36 190.282 118.052C188.765 125.74 184.034 132.312 176.963 136.555C169.923 140.778 161.401 142.186 152.965 140.52C149.176 139.773 144.791 138.266 140.316 136.246L140.318 136.245Z" fill="#494949"/>
<path d="M109.068 103.017C108.64 102.824 108.384 102.358 108.479 101.876C108.59 101.319 109.132 100.958 109.689 101.067L172.397 113.447C172.961 113.563 173.318 114.099 173.209 114.658C173.098 115.214 172.556 115.576 171.998 115.467L109.293 103.088C109.214 103.072 109.14 103.047 109.069 103.015L109.068 103.017Z" fill="#494949"/>
<path d="M153.694 128.601C146.005 123.2 127.619 112.754 109.846 107.481C109.301 107.318 108.729 107.63 108.566 108.175C108.404 108.719 108.715 109.311 109.261 109.456C127.62 114.908 145.315 125.433 152.38 130.186C152.698 129.564 153.138 129.007 153.695 128.599L153.694 128.601Z" fill="#494949"/>
<path d="M160.039 92.3988C160.088 92.2358 160.138 92.0752 160.183 91.9123C151.702 93.8162 130.661 97.7716 112.131 95.1228C111.566 95.0447 111.046 95.4348 110.962 95.9994C110.896 96.462 111.153 96.8994 111.559 97.0826C111.645 97.1215 111.738 97.1494 111.836 97.1629C130.333 99.8055 151.227 95.9972 160.146 94.0286C160.014 93.4966 159.953 92.9544 160.038 92.4005L160.039 92.3988Z" fill="#494949"/>
<path d="M60.2251 28.527C54.5066 25.9464 48.1691 25.0037 41.7952 25.8518C32.7876 27.05 24.79 31.6855 19.2745 38.9004C13.7539 46.1129 11.3787 55.044 12.5799 64.0484C13.7787 73.0537 18.4152 81.05 25.6311 86.5694C40.4452 97.9069 78.8183 107.862 90.1244 93.0843C96.8936 84.2372 92.0086 69.6771 88.495 61.7866C83.3438 50.2121 74.687 38.4661 66.9521 32.5538C64.8433 30.9427 62.5864 29.5966 60.2253 28.5311L60.2251 28.527ZM35.6761 94.7067C31.2295 92.7001 27.3362 90.469 24.3817 88.2057C8.57944 76.121 5.55475 53.4416 17.635 37.6477C23.4885 29.9951 31.9708 25.0797 41.5243 23.8083C51.0771 22.5387 60.5505 25.0675 68.2047 30.9149C76.1872 37.0183 85.0952 49.0873 90.379 60.9455C94.0779 69.2555 99.1777 84.6431 91.7654 94.3336C81.7489 107.422 54.0223 102.986 35.6778 94.7074L35.6761 94.7067Z" fill="#494949"/>
<path d="M60.256 38.7759C55.4863 36.6235 50.3548 35.6612 45.2741 36.0163C37.7438 36.544 31.2387 39.9156 26.9632 45.5103C22.6819 51.1044 21.1322 58.265 22.5942 65.6673C24.0641 73.12 28.408 79.924 34.8178 84.8252C47.9576 94.8699 80.9755 105.044 89.7707 93.5433C93.5845 88.5564 92.4858 79.2258 86.7563 67.9358C81.7929 58.1557 73.841 48.0506 66.9661 42.795C64.852 41.1775 62.5968 39.8322 60.2543 38.7751L60.256 38.7759ZM45.4368 93.2785C40.7586 91.1673 36.6265 88.8021 33.5652 86.4641C26.7554 81.2582 22.1406 74.0124 20.5714 66.0672C18.9945 58.0757 20.6796 50.3311 25.3223 44.261C29.9674 38.19 37 34.5334 45.1274 33.9638C53.2058 33.3944 61.4048 35.9505 68.2179 41.1578C75.3123 46.5857 83.5013 56.9728 88.5927 67.0061C92.178 74.0702 97.3124 87.076 91.406 94.7962C83.7979 104.744 61.4269 100.494 45.4352 93.2777L45.4368 93.2785Z" fill="#494949"/>
<path d="M90.5206 94.647C90.4495 94.6149 90.3815 94.5761 90.3164 94.5264L39.5441 55.6975C39.0918 55.3509 39.007 54.7042 39.3503 54.2547C39.6976 53.8008 40.3413 53.7188 40.7951 54.062L91.5675 92.8909C92.0198 93.2375 92.1045 93.8842 91.7612 94.3337C91.4636 94.7225 90.9443 94.8402 90.5181 94.6479L90.5206 94.647Z" fill="#494949"/>
<path d="M86.6563 97.0163C70.8482 87.1189 50.7051 80.219 41.6448 78.074C41.6289 78.7588 41.4509 79.4376 41.1375 80.0553C49.1589 82.1161 69.0963 88.4612 85.5625 98.7634C86.0285 99.0796 86.6815 98.9183 86.982 98.4373C87.2833 97.9546 87.1384 97.3193 86.6555 97.018L86.6563 97.0163Z" fill="#494949"/>
<path d="M94.4111 87.1262C80.6743 75.4181 69.9946 57.887 65.4974 49.8212C64.9515 50.2505 64.2971 50.523 63.5733 50.5933C68.0681 58.6824 78.973 76.6754 93.0777 88.6961C93.1518 88.7621 93.2351 88.8119 93.3214 88.8508C93.7273 89.034 94.2251 88.937 94.5281 88.5813C94.8953 88.1466 94.8461 87.4976 94.4119 87.1246L94.4111 87.1262Z" fill="#494949"/>
<path d="M111.663 121.636C108.778 120.333 105.72 119.67 102.584 120.052C91.5274 121.392 84.5227 135.056 81.3283 143.082C76.6505 154.851 74.294 169.249 75.4684 178.913C77.7289 197.529 94.7185 210.835 113.33 208.58C122.35 207.489 130.401 202.951 136.006 195.801C141.609 188.652 144.092 179.749 142.999 170.73C141.826 161.071 136.092 147.653 128.73 137.342C125.137 132.303 118.946 124.924 111.661 121.636L111.663 121.636ZM94.4535 207.732C91.8218 206.545 89.3166 205.032 86.9849 203.206C79.4 197.264 74.5833 188.724 73.4228 179.16C72.2122 169.189 74.6221 154.383 79.4169 142.319C82.7779 133.87 90.2219 119.476 102.337 118.009C122.671 115.536 142.748 151.535 145.046 170.484C146.208 180.049 143.574 189.49 137.632 197.072C131.689 204.653 123.149 209.467 113.581 210.625C106.957 211.427 100.388 210.408 94.456 207.731L94.4535 207.732Z" fill="#494949"/>
<path d="M108.828 121.408C106.465 120.342 104.083 119.869 101.723 120.154C86.0645 122.053 77.1293 156.736 79.1812 173.64C81.2453 190.621 95.7517 202.884 111.538 200.974C127.314 199.059 138.472 183.689 136.414 166.709C134.669 152.351 122.158 127.423 108.828 121.408ZM96.2306 200.609C86.228 196.095 78.6228 186.147 77.1364 173.886C75.0288 156.523 84.0704 120.219 101.476 118.109C118.881 115.999 136.35 149.094 138.456 166.46C140.653 184.567 128.688 200.969 111.784 203.018C106.323 203.68 101.002 202.762 96.2289 200.608L96.2306 200.609Z" fill="#494949"/>
<path d="M109.74 183.404C109.422 183.261 109.184 182.962 109.141 182.589L101.438 119.152C101.371 118.589 101.772 118.075 102.338 118.007C102.9 117.939 103.416 118.339 103.486 118.904L111.188 182.342C111.257 182.907 110.855 183.419 110.288 183.487C110.095 183.51 109.908 183.478 109.742 183.403L109.74 183.404Z" fill="#494949"/>
<path d="M91.3818 167.861C94.1195 158.253 97.9073 138.662 97.4346 121.041C97.4203 120.473 96.9472 120.024 96.3773 120.037C95.809 120.051 95.3587 120.526 95.3747 121.095C95.8797 139.817 91.5806 159.435 89.2121 167.95C89.8654 167.716 90.5956 167.659 91.3835 167.861L91.3818 167.861Z" fill="#494949"/>
<path d="M126.794 162.575C126.851 162.56 126.912 162.547 126.971 162.533C122.17 154.253 112.926 136.675 109.888 119.381C109.79 118.82 109.252 118.449 108.696 118.544C108.136 118.643 107.762 119.175 107.858 119.737C110.958 137.373 120.374 155.264 125.236 163.645C125.674 163.175 126.182 162.806 126.793 162.573L126.794 162.575Z" fill="#494949"/>
<path d="M17.2945 114.003C9.8089 119.15 4.77573 126.902 3.12306 135.834C1.46963 144.767 3.3939 153.807 8.54398 161.292C19.1706 176.743 40.3886 180.675 55.8392 170.053C63.86 164.541 73.1011 153.247 78.8275 141.951C82.7332 134.248 88.346 119.956 82.0329 110.776C71.4803 95.4309 32.6586 103.442 17.2936 114L17.2945 114.003ZM21.6836 174.87C15.8839 172.252 10.7054 168.074 6.84581 162.461C1.3844 154.52 -0.657206 144.933 1.09512 135.46C2.84915 125.988 8.18657 117.765 16.1266 112.31C31.8578 101.499 72.1406 92.7453 83.7314 109.615C90.6474 119.67 84.7814 134.776 80.6677 142.886C74.7939 154.463 65.2877 166.064 57.0074 171.754C46.2336 179.159 32.8153 179.895 21.6845 174.872L21.6836 174.87Z" fill="#494949"/>
<path d="M76.4174 106.154C63.4684 100.31 37.0257 107.37 25.3287 115.408C11.5262 124.895 7.39337 142.936 16.1142 155.623C24.84 168.308 43.1684 170.915 56.9725 161.424C70.7136 151.979 90.4776 123.055 81.8178 110.463C80.529 108.591 78.6763 107.175 76.4149 106.155L76.4174 106.154ZM26.078 166.489C21.469 164.41 17.4194 161.153 14.4193 156.79C5.05064 143.165 9.42293 123.84 24.1607 113.711C38.2906 103.999 73.8737 95.2837 83.5169 109.296C93.1614 123.32 72.2712 153.408 58.1405 163.122C48.1258 170.008 35.8533 170.903 26.0772 166.491L26.078 166.489Z" fill="#494949"/>
<path d="M29.7992 147.33C29.6317 147.255 29.4841 147.135 29.3731 146.975C29.0513 146.506 29.1677 145.865 29.6365 145.543L82.2981 109.345C82.7686 109.024 83.4113 109.147 83.7305 109.613C84.0523 110.081 83.9325 110.721 83.4671 111.045L30.8063 147.241C30.4967 147.454 30.1147 147.475 29.7984 147.332L29.7992 147.33Z" fill="#494949"/>
<path d="M86.1522 115.425C85.7894 114.989 85.1393 114.931 84.6996 115.297C70.9962 126.748 58.6727 142.814 53.3906 151.136C53.9134 151.146 54.4669 151.259 55.0419 151.519C55.1958 151.588 55.3172 151.676 55.4541 151.756C60.5515 144.051 72.1108 128.5 86.0232 116.875C86.458 116.511 86.5176 115.861 86.1513 115.423L86.1522 115.425Z" fill="#494949"/>
<path d="M79.1206 105.198C78.8258 104.719 78.1933 104.56 77.7044 104.858C62.1904 114.348 42.0243 119.053 33.0632 120.789C33.3006 121.454 33.3381 122.165 33.2121 122.859C42.1968 121.129 62.8641 116.352 78.7802 106.616C79.2649 106.317 79.4199 105.685 79.1206 105.198Z" fill="#494949"/>
<path d="M97.3538 92.9255C100.376 94.2894 102.5 89.5979 99.472 88.2317C96.4512 86.8685 94.328 91.5601 97.3538 92.9255Z" fill="#494949"/>
<path d="M105.529 96.3967C108.549 97.7599 110.673 93.0683 107.647 91.7029C104.624 90.3389 102.501 95.0305 105.529 96.3967Z" fill="#494949"/>
<path d="M98.8485 101.604C101.871 102.968 103.992 98.276 100.967 96.9105C97.9442 95.5466 95.821 100.238 98.8485 101.604Z" fill="#494949"/>
<path d="M103.376 108.119C106.399 109.483 108.522 104.791 105.494 103.425C102.472 102.061 100.35 106.753 103.376 108.119Z" fill="#494949"/>
<path d="M91.1088 102.691C94.1295 104.054 96.2528 99.3625 93.2269 97.9971C90.2045 96.6331 88.0812 101.325 91.1088 102.691Z" fill="#494949"/>
<path d="M83.518 106.804C86.5388 108.167 88.662 103.475 85.6361 102.11C82.6137 100.746 80.4905 105.438 83.518 106.804Z" fill="#494949"/>
<path d="M95.1425 109.776C98.1633 111.139 100.287 106.448 97.2607 105.082C94.2416 103.72 92.1167 108.411 95.1425 109.776Z" fill="#494949"/>
<path d="M103.684 116.553C106.705 117.916 108.828 113.225 105.802 111.859C102.778 110.495 100.657 115.187 103.684 116.553Z" fill="#494949"/>
<path d="M96.4364 117.502C99.4589 118.865 101.582 114.174 98.5546 112.808C95.5338 111.445 93.4106 116.136 96.4364 117.502Z" fill="#494949"/>
<path d="M88.3507 113.598C91.3731 114.962 93.4947 110.27 90.4688 108.905C87.4464 107.541 85.3232 112.232 88.3507 113.598Z" fill="#494949"/>
<path d="M89.8086 120.315C92.8294 121.678 94.9526 116.987 91.9268 115.621C88.9077 114.259 86.7828 118.95 89.8086 120.315Z" fill="#494949"/>
<path d="M43.3227 56.3016C42.5375 58.0415 40.4905 58.8152 38.7518 58.0305C37.0097 57.2444 36.2338 55.1969 37.019 53.457C37.8041 51.7171 39.8528 50.9442 41.5949 51.7304C43.3336 52.515 44.1078 54.5617 43.3227 56.3016Z" fill="#494949"/>
<path d="M68.1441 52.3832C67.3582 54.1248 65.312 54.8967 63.5716 54.1113C61.8312 53.326 61.0552 51.2785 61.8404 49.5386C62.6255 47.7987 64.6742 47.0258 66.4146 47.8112C68.1567 48.5973 68.9292 50.6433 68.1441 52.3832Z" fill="#494949"/>
<path d="M175.348 115.88C174.563 117.62 172.515 118.393 170.774 117.607C169.035 116.823 168.261 114.776 169.046 113.036C169.832 111.296 171.878 110.522 173.617 111.307C175.358 112.092 176.134 114.14 175.348 115.88Z" fill="#494949"/>
<path d="M162.285 94.4055C161.5 96.1454 159.452 96.9207 157.712 96.1353C155.971 95.3499 155.196 93.3007 155.981 91.5608C156.766 89.8226 158.815 89.0481 160.556 89.8334C162.296 90.6188 163.069 92.6673 162.285 94.4055Z" fill="#494949"/>
<path d="M144.123 53.7547C143.339 55.4929 141.29 56.2675 139.551 55.4829C137.811 54.6975 137.037 52.6491 137.821 50.9109C138.607 49.171 140.654 48.3957 142.395 49.181C144.133 49.9656 144.909 52.0148 144.123 53.7547Z" fill="#494949"/>
<path d="M110.834 39.5952C110.047 41.3385 108.001 42.1105 106.26 41.3251C104.52 40.5397 103.744 38.4922 104.53 36.7506C105.314 35.0124 107.364 34.2378 109.104 35.0232C110.845 35.8086 111.618 37.857 110.834 39.5952Z" fill="#494949"/>
<path d="M134.356 30.8494C133.571 32.591 131.523 33.3622 129.782 32.5768C128.042 31.7914 127.268 29.7447 128.053 28.0048C128.838 26.2649 130.885 25.4913 132.625 26.2766C134.366 27.062 135.142 29.1095 134.356 30.8494Z" fill="#494949"/>
<path d="M155.735 130.503C154.95 132.243 152.903 133.016 151.164 132.232C149.424 131.446 148.648 129.399 149.433 127.659C150.218 125.919 152.267 125.146 154.007 125.932C155.746 126.716 156.52 128.763 155.735 130.503Z" fill="#494949"/>
<path d="M113.258 184.017C112.473 185.757 110.425 186.532 108.684 185.747C106.941 184.96 106.171 182.913 106.956 181.173C107.742 179.432 109.786 178.659 111.528 179.445C113.269 180.231 114.043 182.277 113.258 184.017Z" fill="#494949"/>
<path d="M93.3629 168.871C92.5777 170.611 90.5283 171.385 88.7879 170.6C87.0458 169.814 86.274 167.766 87.0592 166.026C87.8436 164.288 89.8913 163.513 91.6317 164.298C93.3721 165.083 94.1473 167.133 93.3629 168.871Z" fill="#494949"/>
<path d="M37.204 123.356C36.4189 125.095 34.3719 125.869 32.6298 125.083C30.8911 124.298 30.1169 122.252 30.902 120.512C31.6872 118.772 33.7341 117.998 35.4729 118.783C37.215 119.569 37.9892 121.616 37.204 123.356Z" fill="#494949"/>
<path d="M33.6193 147.269C32.8342 149.009 30.7872 149.783 29.0468 148.998C27.3047 148.211 26.5305 146.165 27.3156 144.425C28.1015 142.683 30.1494 141.912 31.8898 142.697C33.6302 143.483 34.4045 145.529 33.6193 147.269Z" fill="#494949"/>
<path d="M58.3356 151.646C57.5489 153.389 55.5027 154.161 53.7606 153.375C52.0219 152.59 51.2477 150.543 52.0336 148.802C52.818 147.064 54.8657 146.288 56.6044 147.073C58.3482 147.86 59.12 149.907 58.3356 151.646Z" fill="#494949"/>
<path d="M129.435 164.976C128.65 166.716 126.603 167.49 124.865 166.705C123.124 165.92 122.348 163.872 123.133 162.132C123.919 160.392 125.967 159.62 127.708 160.405C129.446 161.19 130.221 163.236 129.435 164.976Z" fill="#494949"/>
<path d="M46.3598 81.146C45.5746 82.8859 43.526 83.6588 41.7856 82.8734C40.0468 82.0888 39.2726 80.042 40.0578 78.3022C40.8429 76.5623 42.8899 75.7886 44.6286 76.5732C46.369 77.3586 47.1449 79.4061 46.3598 81.146Z" fill="#494949"/>
</svg>
