<svg width="320" height="150" viewBox="0 0 320 150" fill="none" xmlns="http://www.w3.org/2000/svg">
<path fill-rule="evenodd" clip-rule="evenodd" d="M0.000899195 130.54C4.41954 132.739 10.3596 136.039 15.8465 139.8C19.0368 141.986 22.0887 144.339 24.6029 146.731C25.7305 147.804 26.76 148.894 27.6475 149.991H25.4913C24.8771 149.305 24.2018 148.614 23.4726 147.921C21.0421 145.609 18.0657 143.311 14.9194 141.154C9.80212 137.646 4.27387 134.54 0.000899195 132.377V130.541V130.54ZM3.38727 149.991H6.21793C5.4444 149.427 4.66262 148.874 3.87283 148.333C2.59777 147.459 1.29934 146.611 0 145.795V147.737C0.989114 148.37 1.97463 149.021 2.94576 149.687C3.09323 149.788 3.2398 149.889 3.38637 149.991H3.38727ZM15.0157 149.991H17.5244C15.2404 147.947 12.6013 145.945 9.85967 144.067C6.59559 141.829 3.17056 139.755 0.000899195 137.978V139.862C2.9026 141.513 5.98594 143.4 8.9335 145.42C11.0799 146.891 13.1471 148.427 15.0157 149.99V149.991ZM52.6685 149.991H78.4394C92.8769 147.222 108.524 139.48 124.565 123.913C124.89 123.598 124.898 123.078 124.583 122.754C124.269 122.429 123.749 122.421 123.424 122.736C96.3946 148.965 70.6956 152.543 50.2236 147.8C35.9138 143.985 23.1713 135.568 13.0923 127.883C9.92531 125.468 7.04789 123.147 4.4609 121.059C2.91789 119.814 1.47828 118.653 0.142073 117.606L0.00179839 117.496V119.585C1.05925 120.424 2.19224 121.337 3.39266 122.306C5.99763 124.407 8.92271 126.767 12.0978 129.189C22.2263 136.913 35.181 145.492 49.8145 149.39L49.8271 149.394L49.8397 149.396C50.7786 149.614 51.7217 149.812 52.6685 149.992V149.991ZM102.461 149.991H106.26C115.046 145.442 124.324 137.884 132.6 130.437C136.846 126.617 140.846 122.808 144.395 119.428C144.856 118.989 145.31 118.557 145.755 118.135C149.642 114.439 152.891 111.387 155.253 109.529C155.609 109.249 155.67 108.733 155.391 108.376C155.111 108.02 154.595 107.959 154.239 108.239C151.804 110.155 148.493 113.267 144.625 116.945C144.179 117.369 143.725 117.801 143.264 118.241C139.713 121.621 135.731 125.413 131.503 129.217C122.232 137.56 111.874 145.877 102.461 149.992V149.991ZM120.131 149.991H123.553C129.965 146.281 135.13 141.768 139.753 137.485C140.528 136.766 141.287 136.057 142.032 135.358C147.329 130.401 151.955 126.072 157.2 123.832C157.616 123.654 157.81 123.172 157.632 122.755C157.454 122.338 156.972 122.145 156.556 122.323C151.024 124.684 146.163 129.239 140.904 134.166C140.157 134.865 139.403 135.572 138.639 136.281C133.415 141.119 127.598 146.155 120.131 149.99V149.991ZM136.215 149.991H139.372C146.139 145.722 150.984 141.319 155.366 137.336C155.642 137.085 155.916 136.836 156.189 136.588C161.569 131.707 166.346 127.563 173.396 124.997C173.821 124.843 174.041 124.372 173.886 123.946C173.732 123.52 173.261 123.3 172.835 123.455C165.453 126.141 160.47 130.489 155.087 135.373C154.818 135.617 154.548 135.861 154.278 136.108C149.409 140.532 144.077 145.377 136.215 149.991ZM147.645 149.991H150.529C153.431 147.953 156.089 145.959 158.622 144.057C159.359 143.504 160.085 142.959 160.803 142.424C167.041 137.771 172.698 133.815 179.793 131.234C180.218 131.079 180.438 130.609 180.283 130.182C180.129 129.757 179.658 129.536 179.232 129.692C171.894 132.362 166.07 136.448 159.823 141.107C159.101 141.646 158.373 142.192 157.637 142.745C154.542 145.068 151.289 147.51 147.646 149.991H147.645ZM161.291 149.991H163.822C177.664 138.251 188.725 130.435 206.113 127.993C206.563 127.93 206.876 127.516 206.812 127.067C206.75 126.618 206.335 126.306 205.887 126.369C187.397 128.965 175.868 137.524 161.291 149.992V149.991ZM177.688 149.991H180.393C196.179 138.022 216.447 125.484 238.697 121.589C274.332 115.348 300.127 121.417 319.987 132.38V130.511C318.7 129.814 317.389 129.138 316.052 128.484C315.971 128.405 315.891 128.325 315.81 128.246L315.803 128.239C315.725 128.163 315.647 128.088 315.57 128.012L315.544 127.987C315.466 127.912 315.389 127.839 315.312 127.764L315.31 127.762C315.229 127.685 315.148 127.608 315.066 127.531L315.044 127.51C314.708 127.194 314.37 126.882 314.028 126.574L314.008 126.556C313.925 126.481 313.842 126.407 313.759 126.333L313.75 126.324C313.576 126.17 313.402 126.016 313.227 125.864L313.194 125.835C313.115 125.766 313.035 125.697 312.955 125.627L312.92 125.597L312.674 125.386L312.659 125.373C312.572 125.299 312.485 125.224 312.396 125.15L312.382 125.139C312.293 125.063 312.203 124.988 312.113 124.913L312.11 124.91C312.02 124.835 311.929 124.759 311.837 124.683L311.809 124.661L311.55 124.448L311.532 124.432C311.445 124.361 311.358 124.29 311.271 124.22L311.226 124.184C311.144 124.118 311.061 124.051 310.978 123.985L310.943 123.957C310.861 123.891 310.778 123.825 310.694 123.759L310.629 123.707C310.554 123.648 310.479 123.589 310.403 123.529L310.34 123.48C310.26 123.417 310.18 123.354 310.099 123.292L310.067 123.268C309.981 123.201 309.894 123.133 309.807 123.067L309.754 123.026C309.671 122.962 309.587 122.898 309.504 122.835L309.474 122.813L309.197 122.603L309.19 122.598C309.095 122.527 309 122.455 308.905 122.384L308.845 122.34C308.765 122.279 308.684 122.219 308.603 122.16L308.539 122.113C308.457 122.053 308.375 121.992 308.293 121.933L308.247 121.899C308.158 121.835 308.07 121.77 307.981 121.706L307.946 121.681C307.857 121.617 307.768 121.553 307.678 121.489L307.612 121.441L307.36 121.262L307.33 121.241C307.236 121.175 307.141 121.108 307.046 121.041L307.014 121.018C306.923 120.954 306.832 120.891 306.74 120.827L306.661 120.772C306.582 120.718 306.504 120.664 306.425 120.61L306.355 120.562C306.167 120.433 305.978 120.305 305.788 120.178L305.689 120.111C305.616 120.063 305.543 120.013 305.47 119.965L305.363 119.893C305.291 119.846 305.218 119.797 305.145 119.75L305.058 119.693C304.977 119.64 304.897 119.588 304.815 119.534L304.762 119.5C304.672 119.442 304.581 119.383 304.491 119.325L304.427 119.283C304.341 119.228 304.253 119.173 304.167 119.117L304.081 119.062C304.002 119.013 303.923 118.962 303.844 118.913L303.7 118.823L303.52 118.71L303.351 118.606L303.188 118.505L303.031 118.409C302.972 118.373 302.913 118.337 302.854 118.3L302.721 118.219C302.654 118.178 302.585 118.137 302.517 118.096L302.42 118.037C302.34 117.99 302.26 117.941 302.18 117.894L302.105 117.85C302.02 117.8 301.934 117.749 301.848 117.698L301.739 117.634C301.664 117.589 301.587 117.545 301.511 117.501L301.433 117.456C301.235 117.342 301.037 117.228 300.838 117.115L300.701 117.038C300.633 117 300.566 116.961 300.498 116.924L300.49 116.919C300.384 116.86 300.277 116.8 300.171 116.741L300.162 116.736L299.997 116.646L299.818 116.548L299.811 116.544C299.703 116.485 299.595 116.426 299.487 116.368L299.47 116.359L299.365 116.302C299.286 116.26 299.208 116.217 299.129 116.175C299.019 116.117 298.909 116.058 298.799 116L298.786 115.993C298.676 115.935 298.565 115.877 298.453 115.82L298.443 115.813C298.331 115.756 298.22 115.698 298.107 115.641L298.097 115.636C297.985 115.579 297.873 115.521 297.76 115.464L297.753 115.461C297.64 115.404 297.526 115.346 297.413 115.29L297.408 115.287L297.25 115.21L297.062 115.116C296.946 115.059 296.831 115.004 296.717 114.948L296.715 114.947C296.599 114.891 296.484 114.835 296.368 114.78C296.255 114.726 296.141 114.672 296.027 114.619L296.019 114.615C295.909 114.563 295.797 114.511 295.687 114.459L295.67 114.452L295.558 114.401C295.483 114.367 295.408 114.332 295.333 114.297L295.202 114.238C295.129 114.205 295.056 114.172 294.984 114.139L294.846 114.078C294.778 114.047 294.71 114.018 294.642 113.987L294.475 113.913L294.296 113.835L294.121 113.759L293.949 113.685L293.78 113.614L293.601 113.537L293.429 113.465L293.252 113.391L293.087 113.324L292.902 113.248L292.729 113.178L292.558 113.11L292.366 113.033L292.216 112.974L292.021 112.898L291.86 112.836L291.666 112.762L291.522 112.708C291.451 112.682 291.38 112.655 291.31 112.628L291.168 112.575L290.976 112.504L290.812 112.445L290.622 112.377L290.475 112.324C290.402 112.298 290.329 112.273 290.256 112.247L290.13 112.203C290.055 112.177 289.98 112.152 289.905 112.126L289.786 112.085L289.564 112.01L289.426 111.964C289.354 111.941 289.282 111.917 289.21 111.893L289.094 111.856C289.012 111.83 288.931 111.803 288.85 111.777L288.749 111.746C288.668 111.72 288.587 111.695 288.505 111.669L288.4 111.637C288.32 111.613 288.241 111.588 288.162 111.565L288.051 111.532C287.969 111.507 287.887 111.483 287.806 111.459L287.715 111.433C287.63 111.408 287.544 111.383 287.46 111.359L287.37 111.334C287.284 111.309 287.197 111.285 287.111 111.262L287.024 111.238C286.94 111.214 286.857 111.192 286.773 111.169L286.676 111.143C286.59 111.121 286.503 111.097 286.418 111.075L286.35 111.058C286.256 111.033 286.161 111.009 286.066 110.986L286.025 110.975C285.921 110.949 285.819 110.924 285.716 110.899L285.698 110.895C285.59 110.869 285.483 110.843 285.376 110.818L285.352 110.813C285.248 110.789 285.143 110.764 285.038 110.741L285 110.733C284.896 110.709 284.794 110.687 284.691 110.665L284.683 110.663C281.625 110.006 278.64 109.736 275.844 109.967H275.84C275.634 109.984 275.428 110.004 275.224 110.027H275.223C275.121 110.037 275.02 110.05 274.919 110.062H274.916C272.579 106.028 270.051 102.734 267.193 99.8554C287.012 96.1091 299.715 104.815 319.996 119.498V117.473C299.949 102.975 286.673 94.0902 265.759 98.469C264.799 97.5792 263.802 96.7272 262.764 95.9013C260.847 94.3763 258.79 92.9422 256.565 91.5297C262.665 87.14 268.475 85.0851 274.063 84.7064C279.748 84.3204 285.267 85.6636 290.697 88.1441C300.398 92.5742 309.688 100.559 319.014 108.575L319.996 109.419V107.255C310.73 99.2886 301.277 91.1725 291.378 86.6515C285.77 84.0901 279.976 82.6605 273.951 83.0689C267.922 83.4783 261.722 85.7257 255.301 90.4194C255.223 90.4761 255.158 90.5445 255.107 90.6201C251.132 88.1846 246.641 85.7662 241.503 82.9978L240.558 82.4886C256.406 70.5695 271.572 69.0894 285.465 72.9833C298.154 76.5407 309.829 84.5966 319.995 93.4316V91.2661C309.994 82.7189 298.477 74.9267 285.905 71.4035C271.354 67.3242 255.449 68.9842 238.971 81.6339C238.293 81.2677 237.605 80.8953 236.905 80.5156C236.873 80.4985 236.841 80.4832 236.808 80.4706C236.401 76.7117 235.229 73.6122 233.523 71.2199C233.551 71.2055 233.579 71.1893 233.606 71.1713C253.181 58.1419 269.682 55.5535 284.056 58.8779C297.54 61.9953 309.273 70.3391 319.996 80.4391V78.1953C318.971 77.2488 317.936 76.3167 316.89 75.4044C317.836 71.8542 317.813 66.878 317.222 62.2707C316.635 57.6912 315.456 53.2746 313.952 50.8715C315.316 48.9579 316.457 46.8229 317.241 44.481C318.182 45.9043 319.14 47.8962 319.995 50.1742V46.0248C319.293 44.606 318.553 43.3878 317.81 42.4836C317.867 42.238 317.921 41.9915 317.97 41.7423C318.006 41.6505 318.026 41.5507 318.027 41.4463C318.077 41.1782 318.122 40.9074 318.162 40.6339C318.173 40.615 318.182 40.5988 318.192 40.5862C318.221 40.5439 318.267 40.4944 318.451 40.4863C318.668 40.4773 319.004 40.5394 319.476 40.7193C319.64 40.7823 319.813 40.8552 319.995 40.9407V39.162C319.457 38.9622 318.904 38.8264 318.383 38.8471C317.809 38.8705 317.248 39.0918 316.865 39.6217C316.791 39.7234 316.727 39.8313 316.673 39.9447C316.629 40.0158 316.596 40.0949 316.575 40.1795C316.456 40.5133 316.401 40.8876 316.39 41.2816C315.241 47.2673 311.55 52.0735 307.346 55.4474C302.877 59.0336 297.969 60.8878 295.148 60.8878C295.126 60.8878 295.104 60.8887 295.082 60.8905C291.655 59.3565 288.107 58.1294 284.426 57.2782C280.278 56.3192 275.971 55.8405 271.486 55.9332C271.371 55.8579 271.239 55.813 271.102 55.8027C264.209 55.2665 257.841 51.9673 251.529 47.4329C247.53 44.5601 243.621 41.2466 239.634 37.8664C237.297 35.8853 234.933 33.8817 232.507 31.9302C219.478 21.4452 205.009 12.7766 185.712 19.9957C185.683 20.0065 185.655 20.0182 185.628 20.0326C182.844 18.5443 179.959 17.252 176.996 16.1648C177.373 15.8967 177.869 15.5944 178.49 15.2714C179.763 14.6084 181.474 13.9048 183.55 13.2687C187.701 11.9974 193.277 11.0105 199.695 11.1418C212.512 11.4036 228.697 16.1244 243.625 31.9941C251.573 40.444 263.044 48.5107 274.681 52.284C286.319 56.0583 298.303 55.5787 306.972 46.6069C307.286 46.2813 307.278 45.7621 306.954 45.4472C306.627 45.1323 306.107 45.1413 305.795 45.467C297.733 53.8081 286.51 54.3956 275.187 50.7231C263.861 47.0505 252.617 39.1584 244.82 30.8695C229.565 14.6506 212.947 9.7716 199.728 9.50169C193.129 9.36673 187.38 10.3807 183.07 11.7005C180.916 12.36 179.111 13.0987 177.733 13.8166C176.647 14.3825 175.76 14.9682 175.192 15.5324C170.676 14.0158 166.015 12.9749 161.283 12.4266C163.055 10.7469 165.59 9.10042 168.74 7.62852C168.847 7.61233 168.952 7.57454 169.049 7.51336L169.214 7.4099C170.775 6.70273 172.48 6.03786 174.311 5.43236C179.312 3.77782 185.204 2.58303 191.582 2.15567C191.813 2.25374 192.085 2.24474 192.316 2.10979C193.778 2.02612 195.265 1.98203 196.771 1.98293C201.82 1.98563 207.082 2.48586 212.38 3.61678C212.496 3.67256 212.624 3.70045 212.753 3.69775C223.828 6.12513 235.036 11.3263 244.74 20.5419C244.781 20.5922 244.828 20.6363 244.879 20.675C245.713 21.4721 246.537 22.2972 247.348 23.1546C247.361 23.1717 247.376 23.1888 247.39 23.205C252.858 29.2095 262.081 38.345 272.123 43.6442C277.151 46.2966 282.443 48.0213 287.611 47.8638C292.372 47.719 296.972 45.9781 301.098 42.0086C301.141 41.9861 301.183 41.96 301.224 41.9294C303.955 39.8439 303.684 36.139 301.949 33.7035C301.059 32.4565 299.747 31.4552 298.129 31.0647C296.728 30.7264 295.154 30.8596 293.508 31.6126C291.954 27.1447 284.83 27.1996 283.836 32.6509C283.405 32.4907 282.971 32.3369 282.536 32.1884C282.968 28.6886 284.223 26.2054 285.858 24.5347C287.52 22.837 289.619 21.931 291.779 21.6836C296.164 21.1815 300.591 23.3858 302.018 26.9C302.189 27.3193 302.665 27.5217 303.085 27.3517C303.114 27.34 303.142 27.3265 303.169 27.3121C303.461 27.2311 303.698 26.99 303.758 26.6706C305.207 18.8927 299.8 13.6961 293.978 11.9893C291.06 11.1337 287.941 11.113 285.379 12.118C282.85 13.1095 280.885 15.1023 280.283 18.1685C280.247 18.2611 280.226 18.3619 280.226 18.4681C280.226 19.4613 279.772 19.9939 279.422 20.1487C279.253 20.2234 279.088 20.2279 278.927 20.164C278.909 20.1568 278.89 20.1478 278.87 20.1379C275.821 16.6282 274.865 13.4666 275.118 10.9115C275.373 8.35548 276.852 6.25559 278.98 4.88085C283.267 2.11069 289.973 2.40759 293.826 7.86514C293.912 7.98709 294.03 8.08322 294.166 8.14316C294.303 8.20309 294.453 8.22456 294.601 8.20523C294.752 8.22508 294.905 8.20261 295.044 8.14032C295.182 8.07804 295.301 7.9784 295.386 7.85255C298.491 3.27489 302.893 1.49529 306.601 1.89926C309.702 2.23754 312.379 4.09991 313.535 7.28214C311.694 6.54889 309.781 6.39324 308.179 7.1085C306.132 8.02259 304.915 10.2017 304.908 13.5143C304.885 13.5971 304.874 13.6853 304.877 13.7761C304.885 13.93 304.934 14.0721 305.013 14.1918C305.156 14.4473 305.431 14.6183 305.744 14.612C305.848 14.6102 305.947 14.5886 306.038 14.5517C308.444 14.5634 309.941 16.0596 310.379 17.9777C310.83 19.9598 310.145 22.433 307.944 24.1676C307.652 24.2594 307.423 24.5113 307.377 24.8343C307.313 25.2824 307.623 25.6989 308.072 25.7637C309.484 25.967 310.406 26.3413 311.01 26.7767C311.599 27.2023 311.928 27.716 312.112 28.2936C312.304 28.891 312.345 29.5757 312.311 30.3332C312.289 30.8254 312.243 31.2905 312.193 31.7683C312.164 32.0508 312.133 32.3387 312.108 32.6383C312.048 33.3805 312.018 34.1884 312.215 34.8947C312.43 35.6639 312.915 36.3117 313.797 36.6554C314.609 36.9721 315.684 36.9982 317.046 36.7886C317.879 36.6608 318.854 36.4386 319.998 36.112V32.4736C317.945 30.9127 316.143 29.6783 313.846 28.201C313.823 28.1866 313.801 28.1731 313.778 28.1614C313.748 28.0381 313.714 27.9167 313.676 27.7952C313.394 26.9117 312.867 26.0948 311.968 25.4461C311.432 25.0583 310.779 24.7434 309.994 24.505C311.852 22.4987 312.475 19.9292 311.998 17.7024C314.537 19.4127 316.701 21.0457 319.999 23.7556V21.6377C316.404 18.7209 314.1 17.0753 310.731 14.9089C310.672 14.8711 310.61 14.8414 310.546 14.8198C309.595 13.7716 308.245 13.0609 306.564 12.9331C306.698 10.3996 307.686 9.12831 308.847 8.60919C309.936 8.12335 311.404 8.18813 312.975 8.82602C313.008 8.85481 313.042 8.8809 313.079 8.90429C313.463 9.15081 313.832 9.39103 314.191 9.62675C314.3 9.76365 314.45 9.86229 314.618 9.90835C316.482 11.1436 318.093 12.2934 320 13.777V11.7086C318.496 10.5696 317.12 9.60066 315.576 8.575C314.685 3.68246 311.055 0.735951 306.779 0.269909C305.248 0.102565 303.644 0.253714 302.06 0.735951C301.307 0.478638 300.583 0.23662 299.886 0.00899696H294.263C295.911 0.469641 297.713 1.02026 299.746 1.69053C297.874 2.6739 296.1 4.1548 294.585 6.15662C290.733 1.41972 284.838 0.618991 280.265 2.39769C256.874 -1.88036 240.994 4.41751 231.778 9.05274C229.407 7.75268 227 6.61906 224.573 5.63749C228.346 2.69639 232.949 1.4701 238.537 0.00989665H232.417C228.85 1.13362 225.619 2.54614 222.819 4.95463C220.236 3.99015 217.637 3.19392 215.041 2.54974C216.269 1.88666 217.218 1.39903 218.047 0.973471C218.346 0.820523 218.63 0.674772 218.904 0.53262C219.243 0.357179 219.568 0.185337 219.894 0.00899696H216.337C215.359 0.516425 214.179 1.13812 212.635 1.99732C210.626 1.57087 208.62 1.23258 206.631 0.97617C207.165 0.618091 207.629 0.300498 208.048 0.00899696H205.124C204.803 0.222225 204.458 0.448948 204.086 0.691866C201.008 0.400528 197.915 0.292374 194.824 0.367976C194.983 0.249651 195.141 0.129987 195.298 0.00899696H192.505C192.279 0.164644 192.038 0.328389 191.781 0.501131C185.955 0.868207 180.51 1.86507 175.735 3.27129C177.452 2.15387 179.065 1.07424 180.585 0.00899696H177.688C174.933 1.87047 171.871 3.81651 168.437 5.96318C164.483 7.76618 161.335 9.87596 159.318 12.0919C159.28 12.1333 159.247 12.1765 159.22 12.2224C155.101 11.8721 150.959 11.8977 146.845 12.2988C152.297 9.21558 158.446 4.62714 163.933 0.00809726H161.369C154.773 5.42966 147.524 10.5363 141.856 12.9745C133.988 14.3394 126.348 17.1068 119.355 21.2886C119.291 21.3264 119.235 21.3714 119.186 21.4227C117.874 20.1037 116.662 18.9881 115.628 18.0587C121.165 16.1774 129.361 12.558 137.426 8.12875C141.96 5.63839 146.481 2.87723 150.477 0.00809726H147.614C144.189 2.34371 140.434 4.60374 136.637 6.69014C128.18 11.3344 119.613 15.0609 114.217 16.7973C113.92 16.531 113.649 16.2863 113.41 16.0641L113.384 16.0398L113.355 16.0173C112.19 15.1113 111.014 14.2233 109.82 13.3578C115.334 11.5287 123.408 8.43195 130.979 4.63343C133.862 3.18762 136.68 1.63565 139.261 0.00809726H136.097C134.225 1.10123 132.255 2.15747 130.245 3.16603C122.21 7.19757 113.587 10.4347 108.153 12.1747C105.94 10.638 103.654 9.18859 101.246 7.85794C107.724 6.66855 114.825 4.46699 121.169 1.32255C122.018 0.901495 122.854 0.463343 123.674 0.00719757H120.124C113.35 3.31808 105.701 5.54303 98.951 6.58038C98.9186 6.58487 98.8871 6.59207 98.8575 6.60017C97.2912 5.81455 95.6929 5.09476 94.0665 4.4427C98.3089 3.50881 102.475 1.99373 106.376 0.00629787H102.506C98.8368 1.57537 94.981 2.71708 91.0902 3.33877C86.9081 1.90825 82.315 0.840316 77.1491 0.243818C77.5816 0.169143 78.015 0.0899696 78.4502 0.00719757H52.6775C53.6981 0.201532 54.7313 0.374274 55.7743 0.525422C47.8282 1.7634 40.9116 4.35543 34.913 7.75088L34.2108 6.99334C31.3414 3.89658 30.0673 2.52185 27.7051 0.00719757H25.4535C28.5449 3.29289 29.74 4.58215 33.0076 8.10896L33.4608 8.59749C32.258 9.32142 31.0797 10.0854 29.9279 10.8881C26.3149 7.23356 22.7406 4.28885 19.214 1.38283C18.6574 0.923988 18.1026 0.466942 17.5487 0.00809726H15.021C15.0579 0.0575805 15.1011 0.102565 15.1505 0.143951C16.1729 1.00226 17.1908 1.84078 18.2069 2.67839C21.6625 5.52593 25.0947 8.35458 28.5782 11.8562C27.0919 12.9494 25.6511 14.1032 24.2594 15.3146C17.7132 8.8701 11.1923 3.66266 6.26469 0.00719757H3.48888C8.50009 3.63297 15.7503 9.25067 23.032 16.4078C21.5582 17.751 20.1662 19.1329 18.8534 20.5374C12.9052 13.2777 5.26568 6.78641 0.0143871 2.79086V4.86016C5.18566 8.8782 12.2344 15.0015 17.7339 21.76C16.9453 22.6411 16.1763 23.5395 15.4275 24.4546C14.6533 21.5144 12.1859 19.5369 9.49909 18.7569C8.68532 18.5211 7.83019 18.3889 6.97505 18.3745C6.96246 18.3592 6.94988 18.3439 6.93639 18.3286C4.10482 15.1959 1.92877 13.1994 0.0134879 11.6969V13.8076C1.42972 14.997 3.0132 16.4995 4.93478 18.5715C3.14898 18.9629 1.52054 19.9454 0.464884 21.6458C0.443303 21.6809 0.42442 21.7169 0.408234 21.7537C0.367771 21.796 0.330904 21.8428 0.299432 21.8941C0.202319 21.8122 0.107004 21.7349 0.0134879 21.662V23.8824C0.0557501 23.9283 0.0989114 23.9751 0.142972 24.0237C0.157359 24.039 0.171746 24.0534 0.186133 24.0678C0.352484 24.4816 0.617747 24.8658 0.966634 25.1744C1.87932 25.9832 3.27487 26.2603 5.00761 25.7043C5.09574 25.9607 5.18566 26.2756 5.25759 26.6355C5.41585 27.429 5.47699 28.3908 5.27827 29.3724C5.08135 30.3449 4.62726 31.3481 3.73525 32.2496C3.18315 32.8092 2.44851 33.3436 1.47558 33.8079C0.944154 33.224 0.456791 32.8002 0.0125887 32.4664V36.1066C2.21472 35.4615 3.7973 34.5195 4.90061 33.403C6.03899 32.2514 6.63066 30.9504 6.88423 29.6981C7.13691 28.4538 7.05418 27.2662 6.86445 26.3143C6.67652 25.3741 6.37259 24.6085 6.12801 24.2C6.07266 24.1076 5.99963 24.027 5.91311 23.9628C5.82658 23.8987 5.72826 23.8522 5.62377 23.8262C5.51928 23.8001 5.41067 23.7949 5.30417 23.8109C5.19767 23.8269 5.09537 23.8637 5.00312 23.9193C4.95996 23.9454 4.92039 23.9742 4.88353 24.0066C3.31893 24.6283 2.4512 24.2999 2.05286 23.9472C1.57089 23.5208 1.57269 22.9602 1.69948 22.7479C1.71836 22.7164 1.73545 22.684 1.74983 22.6507C1.7894 22.6094 1.82537 22.5635 1.85684 22.5131C3.28116 20.2198 6.25929 19.5279 9.0405 20.3349C11.7318 21.1159 13.9267 23.2185 14.031 26.2054C11.7093 29.2005 9.7095 32.1938 8.00283 35.0315C7.2601 36.2658 6.5866 37.5659 5.97605 38.9181C5.9167 38.9658 5.86365 39.0234 5.81779 39.0891C5.11372 40.103 3.73975 40.3873 1.5592 39.7441C1.06465 39.5983 0.54761 39.4085 0.0134879 39.1818V40.9515C0.380359 41.0909 0.741836 41.2142 1.09612 41.3185C2.40714 41.7045 3.73166 41.8611 4.87903 41.583C3.6813 44.7716 2.7902 48.1751 2.14458 51.6255C1.54302 49.3717 0.895598 47.6146 0.0134879 46.0833V50.1931C0.503549 51.6893 0.945054 53.4806 1.42522 55.7281C1.43601 55.7793 1.4513 55.8279 1.47108 55.8738C1.28945 57.254 1.14378 58.6305 1.02868 59.9926C0.401041 67.4196 0.695077 74.4903 1.32451 79.5214C1.15367 79.3523 0.98282 79.1822 0.811973 79.014C0.545811 78.7504 0.27965 78.4877 0.0134879 78.2259V80.5327C1.92518 82.4283 3.85934 84.3771 5.81239 86.3447C15.887 96.496 26.4624 107.15 37.0594 113.692C48.0691 120.487 61.5993 123.876 72.9939 123.309C79.3782 122.99 85.2014 121.413 89.5067 118.413C89.5238 118.404 89.5409 118.395 89.558 118.385C89.6227 118.348 89.6812 118.304 89.7315 118.253C92.7762 116.069 95.0341 113.154 96.1536 109.447C96.2568 109.335 96.3266 109.196 96.355 109.046C97.7281 101.835 94.6402 97.7385 91.5425 96.3295C89.8655 95.5666 86.9755 95.0457 83.9767 95.9481C81.0831 96.819 78.1652 98.9917 76.1546 103.366C73.7654 102.496 72.4733 101.138 71.9131 99.7268C71.2935 98.1685 71.5067 96.3952 72.3636 94.8468C73.2196 93.2994 74.6925 92.0335 76.4927 91.5036C78.274 90.9799 80.4357 91.159 82.7313 92.6021C82.8553 92.6803 82.9979 92.7237 83.1444 92.7278C83.2909 92.7319 83.4358 92.6966 83.564 92.6255C83.6923 92.5546 83.7992 92.4507 83.8737 92.3244C83.9482 92.1981 83.9875 92.0542 83.9875 91.9075C83.9875 90.0794 83.4561 88.1558 82.3491 86.6686C81.226 85.1589 79.5158 84.1126 77.2633 84.1126C75.2032 84.1126 73.6494 84.4365 72.2215 85.284C71.1065 85.9461 70.1129 86.9034 69.0249 88.163C68.3918 87.0132 67.5565 86.1585 66.589 85.5782C65.3076 84.8089 63.8509 84.5534 62.441 84.6632C59.6661 84.8773 56.8839 86.5256 55.7033 88.8252C54.7825 90.6192 55.0784 92.1747 55.4875 93.3057C55.5882 93.5828 55.6961 93.8356 55.7905 94.0533C55.8085 94.0956 55.8265 94.1352 55.8427 94.1739C55.8751 94.2485 55.9047 94.316 55.9326 94.3799C55.9182 94.3781 55.9029 94.3754 55.8885 94.3736C55.4884 94.3097 54.9696 94.1406 54.4282 93.7969C53.3681 93.1239 52.1668 91.7456 51.6632 89.0501C50.3693 82.1188 54.9678 74.3536 66.1304 71.7849C77.9125 69.0742 86.3425 76.9798 89.4618 81.5412C89.5226 81.6302 89.6003 81.7063 89.6906 81.7652C89.7809 81.824 89.8819 81.8644 89.9878 81.884C90.2018 81.9245 90.4221 81.8777 90.602 81.7545C92.1153 80.7189 93.848 79.8399 95.5808 79.6465C97.2605 79.4584 98.9905 79.9056 100.611 81.6375C101.645 82.7432 102.047 84.4185 102.097 86.1846C102.147 87.9291 101.851 89.6142 101.639 90.5832C101.586 90.8261 101.645 91.0798 101.801 91.2732C101.877 91.3688 101.975 91.4458 102.086 91.4988C102.196 91.5517 102.317 91.5792 102.44 91.5791C102.755 91.5791 103.098 91.5639 103.46 91.5486C104.576 91.5 105.88 91.4433 107.161 91.7888C107.972 92.0083 108.717 92.3835 109.327 93.007C109.935 93.6296 110.454 94.5472 110.739 95.9292C111.329 98.7884 110.972 101.101 110.036 102.974C109.095 104.858 107.536 106.362 105.62 107.535C105.483 107.619 105.373 107.743 105.305 107.889C105.237 108.035 105.214 108.199 105.238 108.358C105.411 109.488 106.43 111.008 108.531 112.489C110.666 113.994 114.012 115.534 119.073 116.666C121.663 117.246 124.663 116.893 127.669 115.925C127.972 115.999 128.3 115.894 128.502 115.641C128.775 115.543 129.046 115.44 129.318 115.333C132.875 113.928 136.422 111.702 139.338 109.058C142.248 106.421 144.583 103.321 145.638 100.143C146.704 96.9323 146.462 93.6206 144.166 90.7388C141.998 88.0172 138.842 87.1616 136.27 87.8094C134.985 88.1324 133.83 88.8369 133.042 89.8895C132.247 90.9512 131.862 92.3196 132.049 93.8914C132.052 93.9139 132.056 93.9363 132.06 93.9588L132.061 93.9615L132.064 93.9759C132.067 93.9894 132.071 94.0101 132.076 94.0371L132.092 94.1253C132.099 94.1685 132.108 94.2198 132.118 94.2773C132.152 94.4843 132.195 94.7758 132.23 95.1096C132.302 95.7951 132.333 96.5905 132.22 97.2058C132.095 97.8923 131.895 97.9256 131.858 97.9301C131.774 97.9409 131.558 97.9301 131.15 97.7205C130.748 97.5144 130.224 97.1465 129.556 96.5473C127.909 95.0691 126.739 93.4973 125.969 91.8958C125.949 91.7234 125.876 91.5615 125.759 91.4334C125.075 89.8517 124.775 88.2476 124.784 86.6848C124.804 83.3631 126.227 80.1512 128.514 77.66C133.088 72.6747 140.931 70.7242 147.496 76.4436C147.626 76.5573 147.79 76.6268 147.962 76.6422C148.135 76.6575 148.307 76.6179 148.456 76.529C148.605 76.44 148.721 76.3062 148.789 76.1469C148.857 75.9875 148.872 75.8108 148.834 75.6419C148.355 73.5465 148.545 68.8285 152.934 66.4542C155.052 65.3098 157.173 65.6481 159.041 66.6153C160.93 67.5933 162.472 69.1758 163.274 70.3094C163.367 70.4403 163.495 70.5411 163.645 70.5995C163.794 70.6579 163.957 70.6712 164.114 70.6378C164.252 70.6085 164.38 70.544 164.486 70.4505C164.591 70.357 164.671 70.2378 164.717 70.1043C164.725 70.0944 164.733 70.0827 164.747 70.0674C164.807 69.9927 164.909 69.8848 165.062 69.7498C165.362 69.4826 165.814 69.1497 166.401 68.8132C167.574 68.1403 169.238 67.4799 171.238 67.2874C174.568 66.9671 177.357 67.8173 178.569 69.5366C179.69 71.1246 179.745 73.9145 176.657 78.2681C170.209 78.0522 165.597 80.35 162.833 84.0298C160.469 87.1769 159.523 91.2463 159.849 95.41C159.834 95.5252 159.843 95.6458 159.88 95.7627C159.942 96.4249 160.038 97.0889 160.164 97.7511C161.731 105.958 168.153 114.117 178.734 116.216C178.828 116.279 178.934 116.323 179.046 116.344C179.158 116.365 179.273 116.362 179.384 116.336C181.405 116.684 183.574 116.814 185.884 116.684C193.808 116.241 198.476 108.4 195.97 100.279C195.516 98.8064 194.764 97.7502 193.801 97.0583C192.843 96.37 191.741 96.0875 190.656 96.0461C189.045 95.985 187.397 96.4501 186.095 97.0178C185.757 94.1469 186.653 92.2062 188.152 90.89C189.86 89.3911 192.464 88.5985 195.332 88.3753C197.951 88.1711 199.87 89.3731 201.248 91.0366C202.643 92.7218 203.437 94.8378 203.731 96.2567L203.866 96.9107H204.534C206.074 96.9107 207.238 97.1312 208.093 97.6224C208.911 98.0929 209.533 98.8631 209.894 100.167L209.999 100.544L210.358 100.7C214.027 102.296 218.006 100.58 221.008 98.0183C224.017 95.4478 226.368 91.7654 226.752 88.8126C227.177 85.5332 226.022 81.8939 223.644 79.4827C221.22 77.0248 217.559 75.884 213.174 77.6051C210.925 78.4877 209.601 79.7445 208.753 80.6784C208.601 80.8476 208.459 81.0104 208.336 81.1499C208.295 81.1976 208.256 81.2425 208.22 81.2848C208.151 81.364 208.091 81.4306 208.039 81.4873C206.951 80.4085 206.692 78.9708 207.161 77.3055C207.462 76.2384 208.063 75.0976 208.926 73.9649C209.071 73.8685 209.181 73.7286 209.242 73.5654C209.809 72.87 210.474 72.1817 211.227 71.5177C216.169 67.1641 221.985 66.0503 226.611 67.8101C231.209 69.56 234.853 74.2366 235.29 81.9434C235.636 88.0595 231.407 93.957 226.763 97.402C222.951 100.231 220.401 102.258 219.593 102.927C219.526 102.982 219.469 103.048 219.422 103.121C216.416 105.652 214.83 108.331 214.348 110.952C213.848 113.672 214.557 116.223 215.923 118.333C217.282 120.435 219.306 122.12 221.499 123.153C222.141 123.455 222.802 123.705 223.472 123.892C206.026 129.91 190.312 140.28 177.699 150L177.688 149.991ZM192.485 149.991H195.212C208.154 140.343 223.7 131.436 241.977 128.235C281.826 121.257 307.279 131.906 319.987 139.953V138.02C306.711 129.866 281.108 119.717 241.695 126.619C222.285 130.018 205.903 139.752 192.484 149.991H192.485ZM205.106 149.991H208.043C218.142 143.322 229.633 137.828 242.715 135.537C264.304 131.757 281.155 132.826 295.248 136.743C304.467 139.306 312.529 143.094 319.987 147.568V145.66C312.667 141.344 304.73 137.675 295.688 135.161C281.325 131.169 264.226 130.105 242.434 133.921C228.179 136.416 215.815 142.629 205.107 149.991H205.106ZM216.282 149.991H219.861C226.905 146.499 234.533 143.773 242.797 142.326C264.386 138.546 281.237 139.615 295.33 143.532C301.366 145.21 306.907 147.413 312.106 149.991H315.692C309.596 146.74 303.04 143.972 295.768 141.95C281.406 137.958 264.306 136.894 242.514 140.71C232.94 142.386 224.22 145.739 216.281 149.991H216.282ZM232.376 149.991H238.599C240.007 149.662 241.433 149.368 242.879 149.116C263.847 145.444 280.346 146.346 294.19 149.991H299.979C298.629 149.547 297.254 149.13 295.852 148.74C281.489 144.748 264.389 143.683 242.597 147.5C239.076 148.116 235.67 148.96 232.376 149.992V149.991ZM319.988 4.82867V2.80255C318.467 1.71932 317.058 0.807027 315.691 0H312.3C314.719 1.25058 317.129 2.72248 319.988 4.82777V4.82867ZM0.00179839 91.2121V93.4514L0.300331 93.7303C2.18774 95.4946 4.10482 97.321 6.05068 99.1753C15.1802 107.874 24.967 117.2 35.4894 123.695C57.4693 137.261 84.277 136.352 99.6119 118.026C99.9023 117.678 99.8565 117.16 99.5094 116.87C99.1623 116.579 98.6444 116.625 98.3539 116.972C83.6979 134.487 57.865 135.577 36.3508 122.298C25.9894 115.902 16.3564 106.726 7.22773 98.03C5.26928 96.164 3.33421 94.3205 1.41983 92.531C0.945953 92.0884 0.472976 91.6484 0.00179839 91.213V91.2121ZM0.00179839 107.334V109.472C1.52503 110.745 3.06356 112.025 4.61826 113.302C14.1497 121.14 24.254 128.899 35.0236 134.424C45.8005 139.952 57.2823 143.265 69.5581 142.165C81.8402 141.066 94.8255 135.56 108.623 123.616C108.965 123.32 109.002 122.802 108.706 122.459C108.636 122.378 108.55 122.311 108.454 122.263C108.357 122.214 108.253 122.185 108.145 122.178C108.038 122.17 107.93 122.183 107.827 122.217C107.725 122.251 107.631 122.305 107.549 122.376C93.956 134.145 81.2836 139.469 69.4124 140.532C57.5359 141.594 46.3679 138.399 35.7718 132.963C25.1685 127.524 15.1766 119.862 5.65953 112.036C3.75594 110.47 1.87032 108.896 0.00179839 107.334ZM112.31 17.2832C105.915 12.3132 99.2432 7.91552 90.8951 5.00411C90.7489 4.99539 90.6078 4.9472 90.4869 4.86466C83.2259 2.39049 74.697 1.03735 63.9939 1.39453C34.9544 2.3662 18.2698 21.1276 9.39658 35.87C5.33222 42.6231 3.37378 51.5733 2.65083 60.1231C1.93687 68.5784 2.43862 76.5497 3.24609 81.4423C4.49687 82.6938 5.75305 83.9596 7.01462 85.23C8.38769 86.6128 9.76705 88.0029 11.1509 89.3866C-3.18045 47.8575 26.6665 10.6119 64.0424 6.84039C98.7873 3.33427 135.21 33.7071 130.459 73.8506C131.995 72.843 133.701 72.0908 135.5 71.6725C136.503 54.5018 132.068 42.184 126.731 33.5389C122.09 26.0237 116.766 21.2724 113.624 18.4681C113.128 18.0254 112.686 17.6313 112.31 17.2823V17.2832ZM120.331 22.604C121.738 24.0867 123.229 25.7907 124.718 27.7358C124.736 27.7232 124.755 27.7115 124.775 27.6998C160.438 7.47377 204.249 27.5235 215.154 66.9689C216.511 66.34 217.893 65.8964 219.27 65.6355C207.876 26.2927 173.294 9.26417 142.32 14.549C142.191 14.6039 142.063 14.6569 141.936 14.7091C141.741 14.7883 141.533 14.7874 141.35 14.7217C134.004 16.0893 126.878 18.7137 120.332 22.604H120.331ZM125.706 29.0611C126.556 30.2364 127.364 31.4425 128.126 32.677C128.256 32.8857 128.383 33.098 128.511 33.3112C163.681 13.5782 204.204 37.4291 209.041 71.3117C209.386 70.959 209.751 70.6135 210.133 70.277C211.267 69.2784 212.452 68.4318 213.666 67.7372C203.192 29.0656 160.445 9.4585 125.705 29.0611H125.706ZM129.337 34.7292C130.056 36.0067 130.751 37.3527 131.41 38.7715C131.422 38.7643 131.434 38.758 131.447 38.7517C150.269 29.2977 169.632 31.5235 183.568 41.4472C197.507 51.3717 205.951 68.9482 203.039 90.0416C203.019 90.19 202.959 90.33 202.865 90.4464C204.053 92.038 204.795 93.8509 205.175 95.2751C205.97 95.3075 206.723 95.4029 207.418 95.5909C208.628 91.5126 208.884 87.3011 208.767 83.0239C208.639 83.1157 208.48 83.2039 208.295 83.2507C207.913 83.3469 207.555 83.2381 207.282 83.0131C205.339 81.409 204.926 79.1408 205.572 76.8502C205.937 75.5574 206.638 74.2411 207.6 72.9752C203.877 39.4463 163.954 15.3272 129.337 34.7292ZM132.079 40.2623C132.736 41.7801 133.35 43.3761 133.91 45.0532C151.36 35.4282 168.325 38.2308 180.33 47.2628C192.337 56.2958 199.389 71.5654 196.996 86.7739C198.835 87.0159 200.337 87.8544 201.529 88.9529C204.014 68.833 195.854 52.2076 182.62 42.7832C169.194 33.224 150.481 31.0278 132.184 40.2173C132.15 40.2344 132.115 40.2488 132.08 40.2614L132.079 40.2623ZM134.417 46.6465C134.9 48.2336 135.333 49.8908 135.709 51.6192C152.775 42.1948 167.776 45.3006 177.88 53.9161C187.606 62.2104 192.76 75.5907 190.836 87.5701C192.211 87.1131 193.7 86.8476 195.194 86.7316L195.345 86.7208L195.35 86.6794C197.717 72.0764 190.959 57.3124 179.344 48.5746C167.774 39.8691 151.386 37.1547 134.418 46.6465H134.417ZM136.051 53.3034C136.327 54.7582 136.562 56.2616 136.75 57.8163C152.807 46.4486 170.325 53.1315 178.835 65.452C183.177 71.7373 185.219 79.5394 183.525 87.2246C181.868 94.7407 176.662 102.032 166.787 107.631C168.164 109.194 169.761 110.549 171.529 111.651C176.554 108.593 181.374 104.286 184.531 98.4555C184.5 98.2999 184.517 98.1406 184.573 97.9958C183.906 94.2476 184.954 91.4964 187.059 89.6484C187.651 89.1284 188.317 88.6884 189.038 88.3187C191.332 76.7027 186.419 63.353 176.816 55.1649C167.168 46.9389 152.755 43.8998 136.099 53.2791C136.083 53.2881 136.068 53.2962 136.052 53.3034H136.051ZM136.954 59.6966C137.142 61.6984 137.254 63.7794 137.278 65.9432C142.432 60.2805 149.089 58.2292 155.24 58.4622C161.869 58.7133 168.014 61.6265 171.086 65.6436C173.469 65.4169 175.862 65.7219 177.696 66.6927C177.627 66.5892 177.557 66.4866 177.486 66.3841C169.259 54.4712 152.331 48.2129 136.954 59.6966ZM137.267 68.5073C137.248 69.4529 137.213 70.412 137.16 71.3873C137.825 71.3126 138.498 71.2838 139.176 71.3063C141.674 66.8861 147.079 64.6773 152.862 64.6566C155.353 63.613 157.79 64.115 159.784 65.1479C161.517 66.0449 162.97 67.3629 163.953 68.5208C163.956 68.5181 163.959 68.5154 163.962 68.5127C164.358 68.1619 164.902 67.7651 165.573 67.38C166.53 66.8312 167.764 66.2941 169.213 65.9522C166.332 62.7475 161.029 60.3237 155.177 60.1015C148.948 59.8658 142.202 62.1303 137.266 68.5064L137.267 68.5073ZM67.6185 67.9243C67.3119 68.3508 67.1258 68.9806 67.3362 69.865C68.9529 69.6059 70.505 69.5294 71.9877 69.6041C72.0731 68.6252 71.7908 68.0008 71.4248 67.6193C70.9644 67.1389 70.2388 66.9014 69.4718 66.9635C68.703 67.0255 68.0106 67.3791 67.6185 67.9243ZM65.7266 70.1808C65.4452 68.9212 65.6727 67.8191 66.2877 66.9644C67.0134 65.9576 68.1877 65.4205 69.3396 65.3278C70.4924 65.2342 71.7404 65.577 72.6091 66.4839C73.3599 67.2685 73.7394 68.3796 73.6207 69.748C75.1295 69.9397 76.5601 70.2833 77.9062 70.7413C78.5788 66.9779 77.5987 64.3903 75.9433 62.7574C74.153 60.9913 71.4419 60.2113 68.7335 60.4182C66.0252 60.6251 63.458 61.8091 61.9518 63.7857C60.5671 65.6031 59.988 68.2068 61.1893 71.6284C62.5777 71.0463 64.091 70.5587 65.7266 70.1799V70.1808ZM128.643 75.1246C134.332 35.4228 98.4618 5.01581 64.2079 8.47244C26.7762 12.2494 -2.81088 50.4127 13.9249 92.1424C17.4462 95.617 20.998 99.0124 24.5669 102.149C11.908 82.6704 11.7183 62.3147 19.2428 45.9619C27.403 28.2289 44.6234 15.2381 64.7042 13.2147C84.3121 11.239 104.464 21.3246 115.586 38.0059C126.743 54.7402 128.789 78.0639 112.291 102.45C112.198 102.589 112.063 102.696 111.907 102.756C111.783 103.077 111.644 103.392 111.49 103.699C110.474 105.731 108.877 107.335 107.008 108.579C107.295 109.179 107.994 110.104 109.463 111.139C109.921 111.463 110.45 111.794 111.056 112.124C115.597 107.363 121.58 99.6764 124.243 92.0785C123.472 90.2962 123.121 88.4689 123.132 86.6677C123.155 82.8836 124.772 79.2911 127.294 76.5425C127.715 76.0828 128.163 75.6464 128.634 75.2353C128.635 75.1993 128.638 75.1633 128.642 75.1264L128.643 75.1246ZM114.221 38.9154C103.415 22.7074 83.8346 12.9358 64.8679 14.8468C45.3904 16.809 28.66 29.4192 20.7318 46.6474C12.8171 63.8469 13.6615 85.6852 29.4225 106.166C29.4549 106.208 29.4828 106.253 29.5062 106.299C32.3018 108.531 35.1046 110.556 37.9082 112.286C45.4831 116.961 54.2853 119.979 62.6937 121.158C60.3962 120.569 58.1491 119.817 55.9821 118.946C45.7906 114.849 37.2015 108.07 33.0643 102.973C33.0049 102.928 32.9501 102.874 32.9033 102.811C18.0477 83.0032 18.1197 63.021 25.6963 47.6128C33.2468 32.2577 48.2508 21.4523 63.2269 19.9436C80.2999 18.2233 97.6373 25.0916 108.072 38.1885C118.505 51.2827 121.958 70.4984 111.552 93.3354C111.889 93.9777 112.153 94.7254 112.332 95.59C112.572 96.7515 112.673 97.8482 112.65 98.8811C126.902 76.0045 124.592 54.473 114.22 38.9172L114.221 38.9154ZM106.791 39.2105C96.7264 26.5779 79.9492 19.9076 63.3923 21.5756C49.0403 23.0214 34.4967 33.4327 27.1683 48.3371C19.9019 63.1155 19.7319 82.3195 34.0048 101.541C34.0408 101.573 34.0732 101.608 34.1038 101.647C37.9424 106.528 46.4308 113.338 56.5935 117.424C66.7023 121.488 78.31 122.796 88.595 117.027C91.1541 115.227 93.0837 112.905 94.1942 110.054C73.5424 120.826 53.9885 114.284 43.1416 104.509C43.0732 104.47 43.0094 104.42 42.9518 104.36C42.897 104.302 42.8439 104.244 42.7891 104.186C42.7459 104.146 42.7019 104.107 42.6596 104.067C42.6066 104.018 42.5604 103.962 42.522 103.9C25.6657 85.8616 23.9923 67.2748 30.0736 52.7816C36.1764 38.238 50.0672 27.8915 63.9291 26.496C78.8009 24.999 94.0162 30.9432 103.146 42.3793C112.159 53.6696 115.158 70.2006 106.247 89.9471C106.69 89.9984 107.137 90.0776 107.575 90.1954C108.582 90.468 109.592 90.9539 110.443 91.8068C120.156 69.8398 116.665 51.6048 106.791 39.2114V39.2105ZM101.865 43.4031C93.1089 32.4358 78.4556 26.6832 64.0946 28.129C50.8737 29.4605 37.4748 39.3869 31.5869 53.4176C25.7529 67.3206 27.2771 85.329 43.9409 103.017C54.546 112.786 74.2042 119.418 94.8848 107.816C95.1717 105.764 95.0449 104.058 94.6654 102.663C87.0034 107.275 78.8675 109.81 70.6425 109.426C62.3834 109.04 54.1099 105.714 46.2078 98.7353C46.1548 98.6993 46.1053 98.658 46.0603 98.6085L46.0433 98.5896L46.0361 98.5833C45.9884 98.541 45.9479 98.4942 45.9129 98.4456C31.9897 83.2165 30.8379 67.4151 36.1512 55.0947C41.4538 42.8003 53.1829 34.0184 64.8175 32.8461C77.2795 31.591 89.1021 36.2955 96.6607 45.0874C104.233 53.8954 107.471 66.7421 102.883 81.6384C102.856 81.7266 102.814 81.8096 102.76 81.884C103.444 83.2066 103.685 84.7352 103.725 86.1297C103.765 87.526 103.606 88.8684 103.43 89.894C103.748 89.8796 104.103 89.867 104.482 89.8634C113.504 70.3382 110.533 54.2607 101.865 43.404V43.4031ZM95.4171 46.1562C88.2245 37.789 76.936 33.2735 64.9821 34.4772C53.9957 35.5839 42.7477 43.9412 37.6574 55.7434C32.6066 67.4547 33.6101 82.6083 47.196 97.4173C54.8841 104.241 62.8456 107.416 70.719 107.784C78.6274 108.154 86.5241 105.694 94.0468 101.119C94.0585 101.111 94.0692 101.105 94.0809 101.099C93.2438 99.3831 91.9885 98.3296 90.8528 97.8131C89.4968 97.196 87.0151 96.7335 84.438 97.509C81.904 98.2711 79.193 100.256 77.3523 104.684C77.2742 104.871 77.1296 105.023 76.9462 105.11C76.7629 105.197 76.5539 105.213 76.3596 105.155C74.2465 104.522 72.6792 103.536 71.6173 102.331C63.8024 102.736 56.2428 99.7574 50.4089 93.4352C50.3774 93.41 50.3477 93.3812 50.3198 93.3506C38.8479 80.7036 37.7563 67.6706 42.049 57.5356C46.3139 47.4644 55.8787 40.3172 65.5738 39.3743C86.034 37.3851 104.031 55.3115 97.2839 78.0261C98.7585 78.2349 100.223 78.9195 101.575 80.2772C105.617 66.2599 102.449 54.3353 95.4162 46.1553L95.4171 46.1562ZM95.5799 77.9865C102.312 56.2913 85.2796 39.1089 65.7338 41.009C56.6852 41.8889 47.6106 48.6142 43.5606 58.177C39.6689 67.3656 40.4017 79.2344 50.488 91.0582C50.3081 90.5364 50.1571 89.9651 50.0402 89.3407C49.6364 87.1796 49.7372 84.9853 50.3306 82.8809C44.8905 73.1921 45.3149 64.3445 48.9441 57.7146C52.584 51.0649 59.4053 46.7248 66.5134 46.0347C74.1377 45.2952 82.1594 48.1904 87.1652 54.0582C92.1477 59.8982 94.0567 68.5739 89.8116 79.2668C89.9977 79.4989 90.1721 79.7266 90.3367 79.9479C91.8114 79.0221 93.5522 78.2106 95.3866 78.0054C95.4513 77.9982 95.516 77.9919 95.5799 77.9865ZM85.9171 55.1244C81.289 49.701 73.8113 46.9758 66.6699 47.6686C60.0968 48.3065 53.7575 52.3344 50.381 58.5027C47.2032 64.3094 46.617 72.0827 51.0833 80.8179C51.8026 79.2308 52.8196 77.7229 54.1315 76.3518C54.1187 76.3264 54.1073 76.3002 54.0973 76.2735C51.3512 69.0876 52.2765 63.2648 55.2645 59.1271C58.2291 55.0218 63.1334 52.7015 68.1239 52.3011C73.1153 51.9008 78.3073 53.4131 81.8429 57.1262C85.401 60.8626 87.1571 66.6954 85.517 74.6694C85.499 74.7566 85.4676 74.8376 85.4262 74.9105C86.5561 75.8103 87.6157 76.795 88.5959 77.8561C92.2358 68.0359 90.3331 60.3012 85.9171 55.1244ZM56.5953 60.0871C54.0587 63.6004 53.1001 68.636 55.4246 75.1291C56.6511 74.0765 58.0745 73.1273 59.6939 72.3158C58.2741 68.3886 58.8559 65.1425 60.6489 62.7907C62.5021 60.3597 65.5477 59.0156 68.6104 58.7816C71.673 58.5477 74.8921 59.4141 77.096 61.5887C79.2559 63.7192 80.3215 66.9851 79.4645 71.3351C81.1271 72.0378 82.645 72.9051 84.0064 73.8524C85.3947 66.5379 83.6943 61.4483 80.656 58.2571C77.5286 54.9723 72.859 53.567 68.2561 53.9359C63.6522 54.3047 59.2282 56.4406 56.5953 60.0871ZM150.045 66.5001C147.637 68.753 146.989 71.7418 147.007 73.982C145.046 72.6217 143.012 71.8218 140.996 71.4853C142.828 68.7889 146.122 67.0633 150.045 66.4992V66.5001ZM125.265 94.02C126.074 95.3156 127.128 96.5725 128.45 97.7592C128.788 98.0624 129.108 98.326 129.411 98.55C129.408 98.595 129.407 98.64 129.41 98.6849C128.512 100.817 127.57 102.732 126.566 104.494C126.435 104.612 126.345 104.768 126.309 104.941C124.112 108.706 121.619 111.789 118.647 114.875C116.18 114.28 114.19 113.593 112.597 112.88C116.885 108.317 122.374 101.256 125.265 94.0182V94.02ZM131.412 99.5316C131.63 99.5684 131.846 99.5756 132.058 99.5486C133.267 99.3921 133.681 98.2702 133.824 97.4901C133.938 96.8631 133.94 96.164 133.903 95.5486C135.403 98.4321 138.185 101.062 142.375 103.055C141.381 104.587 140.095 106.086 138.603 107.485C138.556 107.437 138.502 107.395 138.443 107.359C134.741 105.122 132.56 102.42 131.412 99.5316ZM134.234 91.0186C134.27 90.9656 134.306 90.9143 134.343 90.8639C134.877 90.1504 135.689 89.6349 136.659 89.3911C137.044 89.2939 137.454 89.2408 137.874 89.2354C138.002 90.7847 138.77 92.4159 139.907 93.7942C141.077 95.2112 142.695 96.4312 144.579 97.0655C144.529 97.9031 144.354 98.7569 144.069 99.617C143.846 100.288 143.556 100.962 143.206 101.633C137.276 98.8532 134.609 94.8918 134.242 91.0807C134.24 91.06 134.237 91.0393 134.234 91.0186H134.234ZM139.556 89.4685C140.738 89.8121 141.912 90.5472 142.872 91.7528C143.754 92.8612 144.276 94.0434 144.486 95.2733C143.184 94.7083 142.04 93.8014 141.173 92.7497C140.287 91.6772 139.731 90.5085 139.555 89.4685H139.556ZM137.338 108.607C136.232 109.535 135.046 110.4 133.816 111.178C130.529 109.934 128.581 107.207 128.006 105.283C128.778 103.925 129.515 102.48 130.224 100.92C131.549 103.79 133.82 106.422 137.338 108.607ZM132.081 112.203C130.969 112.814 129.836 113.35 128.703 113.798C128.418 113.91 128.135 114.017 127.853 114.117C126.786 113.328 126.055 112.538 125.585 111.847C125.038 111.042 124.876 110.422 124.876 110.111V110.1C125.606 109.112 126.298 108.096 126.949 107.054C127.86 108.914 129.583 110.933 132.081 112.204V112.203ZM125.966 114.701C124.041 115.208 122.202 115.405 120.565 115.239C121.646 114.085 122.665 112.922 123.632 111.715C123.788 112.058 123.986 112.413 124.229 112.769C124.654 113.393 125.226 114.05 125.966 114.701ZM55.7402 96.0012C56.0054 96.0353 56.2572 96.0434 56.4847 96.0245C56.7239 96.0048 57.0161 95.949 57.2634 95.7969C57.3479 95.7447 57.4226 95.6773 57.4837 95.5981C57.722 95.2877 57.7517 94.9404 57.7247 94.6822C57.6995 94.4366 57.6204 94.1991 57.5458 94.0074C57.4837 93.8446 57.4055 93.6655 57.3309 93.4946L57.285 93.3893C57.1933 93.1788 57.1025 92.9629 57.0197 92.7362C56.7329 91.9444 56.5566 91.0285 56.9748 89.957C60.8215 93.3614 66.1529 94.8261 71.1452 93.6556C71.0659 93.7828 70.99 93.9122 70.9177 94.0434C69.8674 95.9418 69.5473 98.2306 70.3791 100.324C70.4321 100.459 70.4915 100.593 70.5535 100.725C65.2995 100.796 60.1921 99.2266 55.7402 96.0021V96.0012ZM57.8632 88.5481C58.9575 87.3308 60.7307 86.4311 62.5579 86.2898C63.6891 86.2026 64.7942 86.4122 65.7356 86.9763C66.6699 87.5368 67.498 88.4797 68.0349 89.9624C68.0844 90.0988 68.1692 90.2196 68.2807 90.3125C68.3921 90.4054 68.5261 90.4672 68.6691 90.4914C68.8121 90.5156 68.959 90.5015 69.0948 90.4505C69.2306 90.3994 69.3504 90.3133 69.4421 90.2008C70.8727 88.4419 71.9221 87.3542 73.0479 86.6857C74.1422 86.0361 75.3768 85.7446 77.2525 85.7446C78.9358 85.7446 80.1776 86.5031 81.0228 87.6394C81.6136 88.4329 82.0119 89.4181 82.2035 90.4527C80.0175 89.4613 77.8873 89.3704 76.0188 89.9201C75.1736 90.1684 74.3904 90.5454 73.6854 91.0213C73.6333 91.0348 73.582 91.0537 73.5316 91.078C68.3217 93.6098 62.0714 92.415 57.8623 88.549L57.8632 88.5481ZM186.234 98.7497C187.44 98.1505 189.078 97.6206 190.585 97.6782C191.117 97.698 191.617 97.7916 192.073 97.9706C189.459 105.099 184.652 111.4 179.134 114.614C176.948 114.188 174.954 113.487 173.157 112.571C178.219 109.349 183.071 104.841 186.232 98.7533L186.234 98.7497ZM193.456 98.9576C193.829 99.3948 194.154 99.9778 194.393 100.755C196.647 108.061 192.437 114.665 185.783 115.038C184.333 115.119 182.945 115.091 181.618 114.968C186.705 111.391 190.975 105.484 193.456 98.9576ZM165.739 106.34C164.802 105.096 164 103.755 163.348 102.34C169.294 99.7268 178.881 92.7425 177.669 79.6402C177.685 79.6222 177.701 79.6033 177.715 79.5835C179.587 77.0329 180.596 74.7647 180.845 72.8187C182.492 77.2776 182.974 82.1116 181.925 86.871C180.372 93.9139 175.445 100.91 165.738 106.34H165.739ZM162.716 100.824C162.3 99.707 161.983 98.5707 161.766 97.4353C161.677 96.9683 161.605 96.5032 161.55 96.0389C164.481 94.8486 167.08 93.078 168.881 90.594C170.79 87.9579 171.752 84.5822 171.326 80.4022C172.735 80.0522 174.306 79.8705 176.046 79.8876C177.103 91.8679 168.375 98.3341 162.717 100.824H162.716ZM161.424 94.3115C161.331 90.827 162.23 87.5431 164.135 85.0069C165.466 83.2363 167.314 81.7923 169.726 80.8944C170.035 84.5561 169.158 87.4172 167.554 89.6295C166.075 91.6718 163.938 93.2139 161.425 94.3106L161.424 94.3115ZM227.184 66.2671C229.197 67.0327 231.011 68.2707 232.515 69.9586C232.566 69.8971 232.625 69.8434 232.692 69.7993C233.954 68.959 235.206 68.1601 236.445 67.4034C233.373 66.3679 231.08 64.178 228.813 62.0124C228.468 61.6832 228.126 61.3548 227.779 61.0309C225.016 58.4442 221.992 55.989 217.255 55.1343C218.653 58.3795 219.883 61.8028 220.918 65.4124C223.087 65.2334 225.215 65.5177 227.183 66.2671H227.184ZM236.936 82.3969C236.947 83.0248 236.916 83.6474 236.848 84.2637C236.854 84.2763 236.859 84.2898 236.864 84.3024C237.394 85.687 238.832 87.7356 240.988 90.0236C243.124 92.2908 245.903 94.7281 249.031 96.8954C254.959 101.004 261.97 104.029 268.17 103.328C267.201 102.204 266.177 101.128 265.102 100.105C264.949 100.031 264.822 99.9116 264.739 99.7628C263.778 98.8667 262.78 98.0102 261.739 97.1816C256.216 92.7865 249.498 89.1671 240.74 84.4482C239.513 83.7878 238.247 83.1058 236.938 82.3969H236.936ZM236.343 86.8324C235.74 88.9664 234.72 90.9835 233.457 92.8054C237.868 98.7056 244.604 103.7 251.925 106.9C259.07 110.023 266.687 111.4 273.158 110.316C271.959 108.298 270.709 106.478 269.39 104.809C262.309 106.065 254.423 102.63 248.095 98.245C244.873 96.0119 242.008 93.5009 239.795 91.15C238.362 89.6295 237.174 88.1486 236.343 86.8333V86.8324ZM232.436 94.1721C231.155 95.7681 229.703 97.1771 228.221 98.3368C229.091 99.9841 230.598 101.479 232.027 102.706C234.458 102.039 236.812 102.17 238.876 102.817C240.89 103.449 242.615 104.568 243.845 105.895C244.871 107 245.593 108.294 245.798 109.605C248.995 109.965 251.088 111.159 252.212 112.874C253.246 114.452 253.358 116.319 252.936 118.038C261.566 117.268 269.571 117.261 277.021 117.89C276.049 115.687 275.056 113.677 274.029 111.827C267.018 113.17 258.821 111.704 251.27 108.403C243.894 105.18 237.047 100.169 232.436 94.1721H232.436ZM226.896 99.3318C224.701 100.972 222.991 102.297 221.874 103.181C222.687 104.669 223.798 106.006 224.996 107.097C226.708 105.322 228.488 104.103 230.258 103.333C229.037 102.223 227.759 100.866 226.896 99.3318ZM208.946 96.2171C210.071 96.8775 210.872 97.8995 211.346 99.3228C212.151 99.6125 212.994 99.7097 213.852 99.6431C215.868 93.7141 215.993 84.9448 215.402 78.6208C214.875 78.7369 214.329 78.9024 213.766 79.1238C212.141 79.7616 211.087 80.6164 210.349 81.3613C210.579 86.3078 210.426 91.3263 208.946 96.2171ZM215.693 99.2626C217.143 98.7866 218.591 97.9085 219.934 96.7614C220.242 96.4987 220.539 96.2261 220.827 95.9436C221.97 90.5049 221.747 84.2871 221.273 79.6312C220.097 78.8377 218.674 78.3698 217.031 78.4157C217.606 84.5174 217.547 93.0421 215.693 99.2626ZM222.898 93.5261C224.122 91.814 224.929 90.0362 225.117 88.5922C225.441 86.091 224.675 83.3217 223.07 81.3064C223.358 84.9619 223.447 89.3326 222.898 93.5261ZM216.462 53.3538C214.567 49.2305 212.389 45.414 209.971 41.906C217.831 43.2565 223.666 47.6317 229.04 52.1761C229.714 52.7465 230.385 53.3214 231.051 53.8936C233.194 55.7353 235.305 57.5473 237.449 59.0902C239.72 60.7259 242.073 62.0943 244.625 62.9148C242.567 63.9144 240.476 65.03 238.35 66.2671C238.268 66.2131 238.175 66.1735 238.073 66.1519C234.818 65.4574 232.569 63.317 229.954 60.8302C229.609 60.5027 229.26 60.169 228.899 59.8325C225.868 56.9948 222.301 54.0897 216.46 53.3538H216.462ZM208.655 40.059C206.123 36.6221 203.356 33.4993 200.395 30.6922C209.941 28.64 217.767 33.2941 226.132 39.8565C227.83 41.1881 229.546 42.5979 231.303 44.0383C237.963 49.5031 245.159 55.4087 253.783 59.1415C251.546 59.8946 249.268 60.788 246.946 61.8298C246.911 61.8178 246.876 61.8082 246.84 61.801C243.863 61.1973 241.134 59.7209 238.406 57.7569C236.325 56.2589 234.29 54.5108 232.158 52.6799C231.482 52.1005 230.798 51.5121 230.098 50.921C224.352 46.0626 217.801 41.1359 208.655 40.0572V40.059ZM198.95 29.3616C195.377 26.1623 191.544 23.4029 187.524 21.0853C205.33 15.0078 218.822 23.0232 231.473 33.2042C233.825 35.0962 236.159 37.0738 238.485 39.0441C242.515 42.4593 246.525 45.8566 250.568 48.7599C255.289 52.1518 260.151 54.9453 265.317 56.4091C262.357 56.8077 259.322 57.4555 256.207 58.3759C256.167 58.3516 256.124 58.33 256.079 58.3129C246.958 54.7537 239.514 48.6475 232.436 42.8435C230.655 41.3833 228.899 39.9411 227.144 38.5646C218.491 31.7755 209.859 26.5455 199.074 29.3184C199.031 29.3292 198.99 29.3436 198.95 29.3607V29.3616ZM287.554 46.2192C288.292 46.1974 289.028 46.1322 289.758 46.0239C283.889 40.1669 274.405 37.4489 266.448 38.2236C268.535 39.6847 270.69 41.0315 272.881 42.1885C277.768 44.7671 282.772 46.3649 287.553 46.2201L287.554 46.2192ZM291.655 45.6335C293.591 45.1225 295.483 44.2668 297.308 43.0001C292.645 38.0292 285.617 34.5177 278.291 32.6311C271.194 30.8038 263.935 30.5303 258.439 31.8564C260.355 33.5533 262.393 35.2384 264.516 36.8246C264.539 36.8183 264.564 36.8138 264.588 36.8093C273.598 35.3509 285.048 38.3927 291.655 45.6335ZM298.623 42.005C299.437 41.3374 300.236 40.5817 301.018 39.7324C301.038 39.7108 301.058 39.6901 301.08 39.6712C301.954 38.2416 301.743 36.2488 300.604 34.6518C299.914 33.6828 298.922 32.9415 297.736 32.6554C296.563 32.372 295.126 32.5168 293.502 33.4516C293.331 33.5498 293.131 33.5834 292.938 33.5461C292.53 33.5506 292.174 33.2537 292.117 32.8398C291.603 29.1834 285.925 28.8847 285.396 33.2573C290.488 35.3437 295.161 38.2668 298.623 42.0068V42.005ZM248.733 22.2432C249.451 23.0304 250.231 23.8671 251.066 24.7389C255.655 22.5869 261.527 21.8149 267.322 21.9562C273.153 22.0992 278.993 23.1681 283.52 24.765C283.878 24.263 284.266 23.8015 284.678 23.3804C285.927 22.1037 287.385 21.213 288.927 20.6624C286.004 19.5972 284.294 19.0376 281.912 18.3457C281.891 18.4411 281.872 18.5382 281.855 18.6363C281.802 20.0272 281.122 21.1806 280.078 21.6431C279.529 21.886 278.906 21.9184 278.313 21.6818C277.726 21.4478 277.236 20.98 276.878 20.3394C276.862 20.3106 276.849 20.2827 276.836 20.2531C275.99 19.1725 275.314 18.1064 274.794 17.0636C274.727 17.069 274.66 17.0672 274.592 17.0555C266.43 15.733 254.957 16.2944 246.768 20.2243C247.408 20.8541 248.042 21.5 248.668 22.1658C248.691 22.191 248.712 22.2162 248.732 22.2432H248.733ZM252.28 25.9904C253.719 27.456 255.298 28.9954 256.984 30.5429C262.944 28.8209 270.976 29.0512 278.702 31.0413C279.451 31.2338 280.198 31.4435 280.941 31.6702C281.236 29.5406 281.824 27.7214 282.636 26.1955C278.336 24.7263 272.814 23.7322 267.284 23.5972C261.845 23.4641 256.477 24.1622 252.281 25.9904H252.28ZM245.511 19.016C243.971 17.5731 242.365 16.202 240.699 14.9071C248.956 10.5948 258.937 8.18633 273.615 9.83368C273.556 10.1297 273.51 10.4329 273.479 10.7415C273.336 12.1774 273.513 13.7123 274.06 15.3146C265.574 14.0928 253.88 14.7793 245.511 19.0151V19.016ZM239.254 13.8157C237.399 12.453 235.476 11.1864 233.491 10.0208C242.347 5.68968 256.883 0.315793 277.858 3.64287C276.187 4.77918 274.839 6.34196 274.087 8.23582C258.551 6.44452 248.012 9.08333 239.255 13.8157H239.254ZM220.599 104.259C219.162 105.451 218.101 106.646 217.35 107.819C219.576 113.372 225.548 118.165 231.38 120.642C231.686 120.332 231.979 119.983 232.25 119.6C233.046 118.482 233.611 117.16 233.815 115.904C231.81 114.721 228.699 112.644 226.923 111.351C226.908 111.34 226.895 111.329 226.881 111.318L226.809 111.331C226.777 111.336 226.745 111.341 226.714 111.343C226.29 111.461 225.836 111.448 225.43 111.344C224.978 111.228 224.508 110.977 224.178 110.561C223.828 110.12 223.679 109.542 223.824 108.908C223.863 108.74 223.921 108.574 223.998 108.408C222.722 107.264 221.517 105.855 220.598 104.259H220.599ZM216.394 109.687C216.192 110.215 216.046 110.733 215.953 111.24C215.54 113.482 216.114 115.613 217.289 117.432C218.472 119.257 220.251 120.747 222.188 121.66C224.133 122.575 226.165 122.88 227.858 122.447C227.919 122.432 227.979 122.423 228.039 122.422C228.298 122.345 228.556 122.268 228.816 122.194C228.876 122.161 228.941 122.136 229.01 122.118C229.302 122.046 229.596 121.93 229.887 121.778C224.506 119.298 219.021 114.945 216.393 109.689L216.394 109.687ZM282.441 16.7901C283.175 15.2759 284.426 14.2449 285.969 13.6403C288.121 12.7964 290.858 12.7811 293.509 13.5584C298.235 14.9439 302.364 18.7146 302.344 24.227C300.047 21.2553 295.898 19.6647 291.91 20.0146C287.392 18.3322 285.423 17.6583 282.441 16.791V16.7901ZM319.858 34.4332C318.622 34.7975 317.612 35.0315 316.789 35.1583C315.526 35.3527 314.796 35.278 314.383 35.1178C314.04 34.9838 313.879 34.7786 313.786 34.444C313.674 34.0463 313.672 33.5002 313.734 32.766C313.754 32.5348 313.78 32.2784 313.808 32.0085C313.86 31.4939 313.918 30.9297 313.941 30.398C313.944 30.3386 313.946 30.2793 313.948 30.219C316.044 31.591 317.774 32.8128 319.858 34.4332ZM297.798 62.1798C300.38 61.5743 303.489 60.1843 306.484 58.1231C307.473 61.1262 308.203 64.5496 308.327 68.5973C304.942 66.1798 301.438 64.0116 297.798 62.1798ZM307.873 57.1109C308.039 56.984 308.203 56.8545 308.367 56.7231C309.961 55.4447 311.498 53.9584 312.868 52.2777C314.043 54.4856 315.054 58.3057 315.59 62.4749C316.126 66.6459 316.162 70.9959 315.485 74.1952C313.686 72.6702 311.854 71.2028 309.987 69.8092C309.984 64.7979 309.095 60.6665 307.874 57.1109H307.873ZM229.405 111.096C230.796 112.055 232.459 113.151 233.818 113.99C233.658 113.163 233.264 112.475 232.614 111.984C231.945 111.48 230.919 111.118 229.405 111.095V111.096ZM226.136 108.277C226.12 108.294 226.105 108.31 226.088 108.326C225.619 108.777 225.465 109.1 225.424 109.278C225.389 109.424 225.424 109.492 225.465 109.543C225.524 109.618 225.65 109.707 225.837 109.755C226.026 109.803 226.2 109.791 226.309 109.751C226.405 109.717 226.502 109.702 226.597 109.704C229.778 109.15 232.092 109.537 233.599 110.674C235.147 111.84 235.646 113.641 235.522 115.423C235.397 117.197 234.654 119.051 233.585 120.554C233.465 120.721 233.341 120.886 233.212 121.046C234.934 120.639 236.669 120.278 238.417 119.973C242.817 119.203 247.069 118.618 251.181 118.206C251.708 116.629 251.657 115.023 250.838 113.775C250.014 112.514 248.27 111.415 244.977 111.179H244.973L244.956 111.177C244.942 111.176 244.928 111.175 244.915 111.173H244.911L244.904 111.172L244.891 111.169L244.874 111.166L244.871 111.165C244.734 111.137 244.606 111.074 244.5 110.982L244.471 110.956L244.458 110.942L244.457 110.941L244.444 110.928L244.443 110.927L244.431 110.913C244.342 110.815 244.278 110.696 244.245 110.568L244.244 110.566L244.242 110.559C244.225 110.49 244.216 110.418 244.218 110.343C244.211 109.327 243.68 108.129 242.645 107.013C241.614 105.901 240.134 104.932 238.385 104.385C234.936 103.303 230.391 103.842 226.137 108.277H226.136ZM244.915 111.172C244.929 111.174 244.942 111.175 244.957 111.176L244.915 111.172ZM294.328 115.642L294.527 115.732L294.658 115.792C294.734 115.826 294.809 115.861 294.885 115.896L294.99 115.945C295.058 115.976 295.126 116.009 295.195 116.04L295.334 116.105C295.443 116.156 295.552 116.207 295.661 116.26C295.762 116.308 295.863 116.357 295.965 116.405L296.067 116.455L296.284 116.561L296.386 116.611C296.476 116.655 296.566 116.7 296.655 116.745L296.687 116.761C296.793 116.813 296.897 116.866 297.002 116.918L297.072 116.954L297.319 117.08L297.4 117.122L297.645 117.248L297.72 117.287C297.82 117.339 297.922 117.392 298.023 117.445L298.088 117.48L298.334 117.61L298.425 117.659L298.656 117.783L298.735 117.825C298.835 117.878 298.934 117.932 299.033 117.986L299.125 118.037L299.332 118.151L299.456 118.219L299.649 118.326L299.753 118.384L300.012 118.53L300.05 118.551L300.057 118.555L300.065 118.56C300.158 118.613 300.252 118.666 300.345 118.72L300.447 118.779C300.521 118.821 300.594 118.864 300.668 118.907L300.748 118.953C300.835 119.004 300.923 119.055 301.009 119.106L301.053 119.132L301.35 119.308L301.434 119.358L301.648 119.486L301.758 119.552L301.976 119.684L302.044 119.725C302.143 119.786 302.242 119.846 302.341 119.907L302.405 119.947L302.638 120.091L302.731 120.149L302.929 120.273L303.038 120.342C303.232 120.464 303.424 120.586 303.616 120.71L303.7 120.764L303.896 120.891L304.003 120.961C304.087 121.014 304.17 121.069 304.253 121.124L304.282 121.143L304.294 121.15C304.386 121.211 304.478 121.272 304.57 121.333L304.659 121.392L304.858 121.526L304.961 121.595L305.189 121.749L305.237 121.781C305.334 121.848 305.431 121.913 305.527 121.98L305.576 122.013C305.655 122.068 305.734 122.122 305.814 122.178L305.891 122.231L306.115 122.387L306.178 122.432C306.271 122.497 306.365 122.563 306.458 122.629L306.504 122.663L306.738 122.829L306.817 122.886L307.031 123.04L307.101 123.09L307.376 123.29L307.379 123.292L294.329 115.642H294.328ZM308.021 123.767C308.098 123.824 308.175 123.882 308.251 123.939L308.278 123.96C308.365 124.026 308.452 124.091 308.538 124.157L308.633 124.23L308.812 124.367L308.911 124.442L309.091 124.581L309.171 124.643L309.433 124.848L309.478 124.884L309.689 125.051L309.773 125.119L309.98 125.284L310.026 125.321C310.112 125.39 310.197 125.459 310.281 125.527L310.296 125.539L310.344 125.578L310.546 125.743L310.618 125.802L310.812 125.962L310.882 126.02L311.108 126.208L311.132 126.228L311.135 126.231C301.686 122.192 291.033 119.274 278.875 118.063C278.865 118.027 278.853 117.991 278.838 117.956C277.847 115.657 276.832 113.553 275.782 111.615C275.871 111.607 275.961 111.6 276.051 111.593L276.066 111.592C276.152 111.585 276.237 111.579 276.323 111.573L276.353 111.571C276.437 111.566 276.521 111.56 276.605 111.556L276.639 111.554C276.723 111.55 276.806 111.546 276.89 111.543L276.928 111.542C277.009 111.538 277.092 111.535 277.175 111.534L277.216 111.533C277.3 111.53 277.384 111.528 277.467 111.527H277.504C277.587 111.526 277.669 111.525 277.753 111.525H277.802C277.884 111.525 277.967 111.525 278.051 111.525H278.084C278.171 111.526 278.258 111.527 278.346 111.529L278.37 111.53C279.136 111.546 279.917 111.596 280.708 111.679L280.735 111.682C280.821 111.691 280.907 111.701 280.994 111.711L281.046 111.717C281.13 111.727 281.213 111.737 281.298 111.748L281.354 111.755C281.438 111.766 281.523 111.776 281.606 111.788L281.663 111.795C281.744 111.806 281.824 111.818 281.905 111.829L281.984 111.841C282.063 111.853 282.141 111.865 282.22 111.877L282.289 111.888C282.369 111.901 282.45 111.913 282.531 111.927L282.605 111.938C282.686 111.952 282.767 111.965 282.849 111.98L282.915 111.991L283.157 112.035L283.235 112.049L283.482 112.095L283.525 112.103C283.616 112.12 283.707 112.138 283.798 112.156L283.833 112.163C283.927 112.182 284.021 112.201 284.114 112.221L284.127 112.224C284.527 112.307 284.929 112.398 285.332 112.496L285.376 112.507C285.475 112.53 285.573 112.556 285.671 112.58L285.69 112.584C285.78 112.607 285.87 112.63 285.959 112.653L286.018 112.668C286.093 112.688 286.17 112.708 286.245 112.728L286.354 112.757C286.424 112.776 286.495 112.796 286.566 112.815L286.674 112.844C286.748 112.864 286.821 112.885 286.893 112.906L287.002 112.936C287.073 112.956 287.144 112.977 287.216 112.997L287.33 113.031L287.54 113.093L287.667 113.13L287.855 113.187L288.005 113.233L288.189 113.291L288.325 113.333C288.39 113.354 288.455 113.374 288.52 113.395L288.659 113.44C288.721 113.46 288.783 113.48 288.844 113.5L288.996 113.551L289.177 113.611L289.319 113.659L289.509 113.723L289.622 113.762C289.695 113.787 289.77 113.813 289.844 113.839C289.951 113.877 290.059 113.915 290.166 113.954H290.167C290.274 113.992 290.381 114.032 290.489 114.071L290.497 114.073C290.556 114.095 290.613 114.116 290.671 114.137L290.824 114.194C290.884 114.216 290.943 114.239 291.004 114.262L291.161 114.322L291.32 114.383L291.5 114.452L291.665 114.517L291.821 114.578L291.998 114.649L292.166 114.717L292.324 114.781L292.499 114.852L292.656 114.917L292.834 114.992L292.994 115.059L293.164 115.13L293.33 115.202L293.503 115.276L293.661 115.344L293.842 115.423L293.995 115.49L294.174 115.57L294.328 115.639L308.021 123.763V123.767ZM307.651 123.493L307.74 123.559L307.909 123.685L308.021 123.768L307.651 123.493ZM310.027 125.322C310.112 125.391 310.198 125.46 310.282 125.528L310.027 125.322Z" fill="#35363B"/>
</svg>
