<svg width="324" height="161" viewBox="0 0 324 161" fill="none" xmlns="http://www.w3.org/2000/svg">
<path d="M35.5945 161C31.1462 161 26.4373 160.281 21.4698 158.581C7.55322 153.816 2.74759 143.121 1.14992 135.127C0.279612 132.154 0.0147351 129.37 1.97292e-05 127.152C-0.00208247 126.84 0.163991 126.568 0.412051 126.418C0.437277 125.716 0.477219 125.309 0.481423 125.277L0.933396 121.241L2.12534 125.123C2.18 125.305 2.54158 126.426 3.39717 127.974C3.49808 128.073 3.57586 128.2 3.6179 128.345L3.62841 128.381C6.6703 133.6 15.0413 142.807 35.132 138.779C50.3939 135.717 60.3037 128.381 68.2647 122.49C73.8776 118.333 78.4709 114.926 83.1756 114.472C79.8037 110.991 77.342 106.247 75.9146 100.41C65.3889 99.695 58.2267 86.1975 57.5771 73.7733C57.0075 62.8441 61.4872 50.5528 75.6771 48.3872C74.7269 35.9525 80.6341 25.7613 91.5949 21.0232C102.016 16.5191 114.059 18.2756 120.715 25.1414C124.85 19.8971 131.869 16.8839 140.62 16.6308C147.904 16.4326 155.548 18.1617 162.326 21.2867C162.763 20.0996 163.799 18.1195 166.12 16.8164C169.328 15.0177 173.793 15.1442 179.397 17.1896C180.489 8.43238 188.399 2.04315 200.352 0.385743C216.016 -1.7925 235.034 5.20191 241.581 22.7059C249.302 19.0937 256.687 19.1928 261.469 23.0137C265.007 25.8414 266.534 30.2865 265.628 35.0162C272.39 38.0105 277.282 44.5769 279.098 53.1528C280.377 59.1814 279.96 65.3851 278.106 70.7221C284.066 68.9677 294.775 70.9245 301.451 75.281C305.639 78.0138 307.817 81.3518 307.791 84.9787C310.812 85.605 321.735 88.6815 323.659 100.644C324.876 108.218 322.795 115.721 318.09 120.72C315.033 123.972 309.517 127.637 300.486 126.928C299.45 131.144 296.147 134.216 291.31 135.422C289.906 135.774 288.457 135.943 287.005 135.943C281.278 135.943 275.447 133.32 271.667 128.843C269.229 130.209 260.555 134.216 252.804 127.297C251.574 126.201 250.597 124.605 249.912 122.681C245.898 127.82 227.977 148.886 199.358 155.423C170.411 162.04 148.504 153.059 130.902 145.845C128.478 144.852 126.117 143.884 123.809 142.984C103.832 135.188 82.6816 138.665 72.116 146.126C63.3246 152.329 51.0456 160.994 35.5902 160.996L35.5945 161ZM113.508 100.418C112.039 100.418 110.311 100.157 108.627 99.2817C106.048 97.9427 104.179 95.4925 103.073 91.9942C99.5496 92.1903 95.669 89.5777 93.88 85.7568C92.7743 83.393 91.0273 77.2821 98.1916 70.9245C96.6129 65.5896 98.055 59.4155 101.868 55.3837C105.436 51.6092 110.435 50.2365 116.035 51.4553C115.739 47.9634 117.309 43.5478 120.53 41.7892C122.781 40.5662 126.473 40.2309 131.554 45.22C133.418 40.3638 136.99 36.9203 141.116 36.1043C145.041 35.3304 149.008 37.0089 152.338 40.8382C152.99 40.5599 153.673 40.3448 154.379 40.1972C153.587 37.7258 150.61 30.9718 141.787 30.9718C141.774 30.9718 141.762 30.9718 141.747 30.9718C132.788 30.9929 130.641 38.2108 130.622 38.2846L130.313 39.3706L129.361 38.7696C123.355 34.9677 117.782 36.1612 114.841 38.3395C112.051 40.4038 110.897 43.5415 111.751 46.734L112.051 47.8474L110.902 47.7989C102.087 47.3982 95.5513 52.381 92.9656 57.4671C90.8066 61.7097 91.1324 66.1189 93.8548 69.5644L94.5759 70.4754L93.489 70.8802C87.4073 73.147 86.0199 80.3734 87.7878 86.3388C89.3603 91.6442 93.6803 96.3633 99.783 94.9885L100.496 94.8282L100.756 95.5115C102.785 100.842 107.334 104.035 112.93 104.047C112.939 104.047 112.951 104.047 112.962 104.047C116.605 104.047 119.88 102.607 121.505 100.41C121.164 100.431 120.818 100.441 120.464 100.441C119.312 100.441 118.175 100.258 117.078 99.9122C116.517 100.081 115.18 100.418 113.51 100.418H113.508ZM152.54 42.601C152.502 42.6242 152.462 42.6432 152.42 42.6601C150.578 43.59 149.08 45.0956 148.188 46.8626C146.155 50.8902 146.952 56.7712 155.266 61.2078C163.953 65.8384 172.437 62.3866 176.988 56.902C180.556 52.6087 182.82 45.3971 179.004 37.8755C178.99 37.8502 178.977 37.8228 178.964 37.7954C178.338 36.5724 177.55 35.3409 176.578 34.1116C175.967 33.3356 175.309 32.5828 174.609 31.8511C174.583 31.8279 174.56 31.8047 174.539 31.7794C166.494 23.4017 153.055 17.9846 140.671 18.322C132.012 18.5729 125.194 21.6389 121.476 26.9527L120.853 27.8383L120.149 27.0223C114.135 20.0637 102.411 18.1955 92.2676 22.5772C81.7777 27.1109 76.23 37.0026 77.4282 49.0346L77.5102 49.8548L76.6924 49.956C59.4796 52.0668 59.0003 68.6535 59.2631 73.6869C59.8875 85.6598 67.0055 98.5859 76.6041 98.7503L77.2621 98.763L77.4114 99.4061C78.9229 106.019 81.784 111.181 85.7971 114.62C85.8559 114.658 85.9085 114.704 85.9547 114.753C87.3569 115.932 88.8999 116.902 90.5712 117.652C98.2084 121.087 107.958 119.75 118.764 113.787L119.476 113.395L119.895 114.097C122.201 117.973 127.833 119.683 133.912 118.346C140.81 116.828 148.588 111.054 150.82 99.4019C150.377 96.4435 150.467 93.2299 151.272 89.8497C150.435 81.4488 146.265 74.1824 139.47 69.6867C132.134 64.8305 123.153 64.2991 116.033 68.2992C107.83 72.9067 106.598 81.044 108.181 87.1232C109.962 93.9679 115.013 98.7503 120.46 98.7503C121.301 98.7503 122.087 98.6829 122.819 98.5542C122.863 98.5437 122.907 98.5353 122.951 98.5311C126.323 97.89 128.451 95.8783 128.905 92.7934C129.384 89.5461 127.795 85.9719 125.571 85.295C125.127 85.1601 124.873 84.6877 125.007 84.2428C125.144 83.7958 125.615 83.5427 126.056 83.6777C129.062 84.5928 131.173 88.9662 130.57 93.0422C130.023 96.7429 127.503 99.2522 123.63 100.113C122.062 103.495 117.849 105.736 112.955 105.736C112.943 105.736 112.932 105.736 112.922 105.736C106.838 105.724 101.849 102.39 99.4466 96.7766C92.6712 97.9195 87.9077 92.6795 86.1713 86.8217C84.2751 80.4367 85.6919 72.7359 91.8892 69.7289C89.3414 65.8933 89.1711 61.2036 91.4604 56.6995C94.1869 51.3414 100.889 46.1099 109.897 46.0867C109.38 42.6179 110.83 39.2061 113.838 36.9794C118.049 33.867 124.055 33.8333 129.386 36.8212C130.41 34.5692 133.666 29.2975 141.739 29.2807C141.753 29.2807 141.77 29.2807 141.781 29.2807C151.93 29.2807 155.268 37.4369 156.061 39.98C157.797 39.8999 159.635 40.2436 161.47 41.1271C165.866 43.2484 166.894 45.8167 166.986 47.5986C167.1 49.859 165.716 52.1554 163.381 53.5914C160.982 55.0632 158.222 55.2424 156.168 54.0532C155.767 53.8191 155.628 53.3025 155.859 52.8997C156.09 52.497 156.608 52.3557 157.011 52.5897C158.525 53.4669 160.629 53.3004 162.502 52.149C164.312 51.0378 165.384 49.3277 165.302 47.685C165.206 45.783 163.629 44.0434 160.74 42.6516C159.023 41.8229 157.303 41.5509 155.697 41.7049C155.67 41.7133 155.645 41.7196 155.617 41.726C155.535 41.7428 155.453 41.7491 155.374 41.7407C154.373 41.8736 153.419 42.1709 152.54 42.5989V42.601ZM150.793 41.6395C147.938 38.4997 144.648 37.1249 141.44 37.7596C137.562 38.5271 134.217 42.0823 132.71 47.0356L132.281 48.4399L131.284 47.3645C127.452 43.2273 124.007 41.8061 121.333 43.2716C118.49 44.8215 117.145 49.4373 117.885 52.3747L118.242 53.7896L116.84 53.3931C111.354 51.8433 106.47 52.963 103.088 56.5414C99.5644 60.2695 98.3052 66.0472 99.9554 70.9224L100.14 71.4664L99.7031 71.8376C94.9374 75.8778 93.3713 80.6876 95.402 85.0335C97.0123 88.477 100.59 90.7501 103.527 90.2377L104.282 90.1049L104.488 90.8429C105.429 94.2357 107.078 96.5658 109.386 97.7698C111.12 98.6765 112.957 98.7946 114.366 98.685C110.759 96.5278 107.847 92.5319 106.55 87.5471C104.809 80.8563 106.172 71.8966 115.211 66.819C122.884 62.511 132.535 63.0656 140.4 68.2718C146.666 72.4196 150.837 78.7708 152.412 86.1891C155.876 77.4951 165.227 72.2256 176.511 72.7654C181.218 72.9805 186.221 74.2878 190.564 76.7592C189.7 67.9914 181.386 60.4382 181.296 60.3601C180.949 60.0481 180.919 59.5146 181.229 59.1666C181.54 58.8187 182.074 58.7892 182.418 59.0992C182.818 59.4576 192.097 67.8733 192.318 77.8472C196.114 80.405 199.246 83.9476 200.979 88.5318C208.526 67.4284 195.025 52.0415 194.884 51.8833C194.573 51.5375 194.601 51.0019 194.947 50.6898C195.292 50.3778 195.826 50.4052 196.137 50.751C196.289 50.9176 210.905 67.5317 202.183 90.1323C205.027 90.1934 207.733 91.9099 209.911 95.0728C212.53 98.8748 214.262 104.773 214.389 110.39C220.718 98.666 230.424 92.4982 235.125 90.0521C230.178 89.2023 225.831 87.4374 222.806 84.6877C216.093 78.5874 215.694 68.3288 218.723 61.7751C221.261 56.2841 225.82 53.5471 231.225 54.2661C237.523 55.1033 241.957 58.5636 243.386 63.7572C244.509 67.8353 243.433 72.2994 240.83 74.368C240.206 74.8635 239.533 75.2409 238.825 75.5003C240.525 75.534 242.409 75.2241 244.286 74.5493C249.291 72.7464 254.705 68.1305 254.883 60.5752C254.99 55.9826 252.195 51.255 247.584 48.2417C240.992 43.9316 232.333 43.7587 223.825 47.7694L221.759 48.7436L222.701 46.656C225.148 41.2325 221.46 35.4211 216.642 33.15C212.057 30.9887 205.772 31.5538 201.857 39.6089L201.204 40.9521L200.394 39.6974C197.411 35.0816 194.113 32.6587 190.59 32.5006C185.818 32.2771 181.893 36.2603 180.741 37.5635C184.617 45.6312 182.137 53.3468 178.288 57.9837C173.297 63.987 164.005 67.7784 154.48 62.6986C145.079 57.6843 144.406 50.6224 146.689 46.0993C147.593 44.3048 149.031 42.7381 150.797 41.6395H150.793ZM244.799 80.9343C237.315 80.9343 231.713 77.5689 228.866 71.2893C228.419 70.4416 228.168 69.5539 228.168 68.6957C228.168 68.2297 228.547 67.8522 229.011 67.8522C229.478 67.8522 229.854 68.2297 229.854 68.6957C229.854 69.2734 230.027 69.8828 230.338 70.4775C230.361 70.5133 230.38 70.5492 230.399 70.5892L230.401 70.5935C230.933 71.555 231.822 72.4723 232.915 73.147C232.997 73.1787 233.075 73.2251 233.144 73.2841C233.298 73.3727 233.453 73.4549 233.615 73.5329C234.656 74.0369 237.332 74.9963 239.781 73.05C241.843 71.4095 242.693 67.6097 241.759 64.2127C240.515 59.7001 236.596 56.689 231 55.9446C226.375 55.3289 222.455 57.7138 220.247 62.4899C217.473 68.4996 217.819 77.8831 223.935 83.4415C233.945 92.5425 260.601 89.8434 271.474 78.6232C277.108 72.8097 279.458 62.9538 277.455 53.5112C275.697 45.22 270.919 38.951 264.345 36.3151L263.668 36.0431L263.839 35.3325C264.885 30.9971 263.609 26.8894 260.425 24.3443C255.995 20.8039 248.917 20.9114 241.488 24.6374L240.626 25.0676L240.313 24.1545C234.385 6.8551 215.841 -0.0507487 200.588 2.06423C191.483 3.32732 181.55 8.28899 180.983 18.4274L180.915 19.5956L179.833 19.1654C174.241 16.945 169.914 16.6477 166.973 18.2819C164.966 19.3974 164.152 21.137 163.856 22.0248C168.126 24.1693 172 26.8726 175.151 29.9976C177.651 27.3829 187.321 19.0242 200.958 29.0867C209.299 23.4165 216.829 25.3944 220.613 27.1087C225.793 29.4515 229.936 34.0125 230.83 38.2235C246.516 35.8786 257.643 41.2747 262.211 53.4775C264.734 60.2083 264.272 67.15 260.942 72.5187C257.986 77.2906 253.201 80.23 247.475 80.7994C246.561 80.89 245.669 80.9364 244.801 80.9364L244.799 80.9343ZM235.484 76.6896C238.574 78.7371 242.592 79.5848 247.309 79.1166C252.501 78.6021 256.834 75.941 259.508 71.6267C262.558 66.7051 262.968 60.3074 260.633 54.0721C255.072 39.2272 241.047 38.2382 230.266 40.0222L229.386 40.1677L229.293 39.2757C228.948 35.9482 225.619 31.2291 219.917 28.6481C216.381 27.0476 209.274 25.2025 201.424 30.8158L200.92 31.1785L200.426 30.801C187.316 20.7659 178.416 28.9011 176.309 31.2059C176.864 31.811 177.394 32.431 177.894 33.0636C178.664 34.0378 179.326 35.0141 179.894 35.9862C181.569 34.2128 185.62 30.5986 190.651 30.8158C194.422 30.9845 197.901 33.266 201.004 37.6056C205.511 29.6602 212.534 29.3545 217.353 31.6234C222.352 33.9766 226.26 39.6995 224.881 45.4646C233.348 42.0254 241.871 42.4914 248.501 46.8268C253.597 50.1585 256.687 55.4428 256.565 60.6153C256.365 69.0267 250.382 74.1508 244.849 76.1413C242.867 76.8541 240.893 77.202 239.068 77.202C237.78 77.202 236.567 77.0291 235.482 76.6875L235.484 76.6896ZM277.894 124.01C274.497 124.012 271.413 122.833 270.074 120.813C269.817 120.425 269.922 119.9 270.311 119.641C270.694 119.388 271.219 119.487 271.478 119.879C272.886 122.009 277.37 122.922 281.278 121.88C283.137 121.383 287.499 119.666 287.837 114.479L287.884 113.745L288.615 113.69C291.701 113.458 294.554 110.036 294.842 106.221C295.021 103.898 294.375 98.2506 284.619 95.9922L283.929 95.8341L283.967 95.1256C284.171 91.2477 283.158 88.2703 280.955 86.2755C276.824 82.5285 269.662 83.2138 268.375 83.3761C261.366 88.1143 251.545 90.6594 242.459 90.6594C241.015 90.6594 239.59 90.5941 238.196 90.4654C236.09 91.3447 221.395 97.9912 214.13 114.776C213.865 116.579 213.394 118.277 212.686 119.774C216.148 120.756 218.202 123.219 218.244 126.528C218.316 132.508 211.641 140.253 199.127 142.819C197.706 143.11 196.348 143.395 195.032 143.673C178.895 147.07 169.158 149.12 141.304 141.077C138.794 140.352 136.42 139.658 134.167 138.998C109.808 131.882 99.722 128.929 82.7005 135.498C77.7856 137.394 72.6121 140.036 67.1337 142.834C55.5191 148.763 42.7104 155.3 30.2885 155.302C26.5361 155.302 22.8215 154.706 19.1826 153.318C13.4057 151.113 9.33168 148.125 6.47479 144.867C9.39054 149.723 14.1815 154.309 22.0142 156.989C43.4336 164.323 59.4523 153.012 71.151 144.755C82.0846 137.035 103.893 133.406 124.427 141.419C126.742 142.322 129.111 143.294 131.545 144.291C149.832 151.785 170.562 160.281 198.988 153.786C229.886 146.729 248.083 122.393 249.333 120.674C248.762 118.171 248.617 115.291 248.972 112.305C249.798 105.355 253.065 99.7224 257.704 97.2406C262.743 94.5457 268.821 95.0855 273.191 98.6133C276.763 101.498 278.293 105.724 277.192 109.646C275.806 114.574 271.871 115.849 268.659 115.402C265.909 115.021 263.065 113.321 263.065 111.143C263.065 110.677 263.443 110.297 263.908 110.297C264.373 110.297 264.751 110.675 264.751 111.143C264.751 112.054 266.599 113.41 268.892 113.728C270.458 113.943 274.236 113.935 275.573 109.188C276.49 105.928 275.174 102.381 272.138 99.9291C268.293 96.8251 262.939 96.3528 258.499 98.7293C254.343 100.952 251.408 106.101 250.647 112.505C249.966 118.241 251.286 123.681 253.931 126.043C262.048 133.286 271.303 127.116 271.396 127.053L272.048 126.608L272.533 127.232C277.52 133.644 285.559 135.131 290.913 133.79C295.361 132.681 298.308 129.796 298.998 125.88L299.135 125.106L299.912 125.189C306.873 125.897 312.742 123.961 316.875 119.569C321.222 114.951 323.14 107.978 322.006 100.924C319.984 88.3483 307.356 86.596 306.82 86.5265L306.011 86.4231L306.084 85.6113C306.465 81.491 303.28 78.4946 300.541 76.7086C293.168 71.8987 281.76 70.6082 277.28 72.856C276.115 75.494 274.572 77.8578 272.687 79.8062C272.109 80.4029 271.493 80.9744 270.839 81.5247C273.91 81.4931 278.743 81.995 282.086 85.0188C284.547 87.2455 285.756 90.438 285.68 94.5162C292.91 96.3929 296.952 100.781 296.53 106.354C296.198 110.753 293.097 114.593 289.46 115.286C288.935 119.356 286.147 122.336 281.72 123.519C280.452 123.858 279.157 124.016 277.902 124.016L277.894 124.01ZM212.478 114.624C212.463 114.487 212.482 114.344 212.539 114.207C213.38 108.016 211.593 100.503 208.521 96.0407C207.001 93.833 204.466 91.3152 201.035 91.912L200.27 92.0427L200.081 91.3026L200.075 91.2836C197.275 80.2848 186.183 74.9099 176.433 74.465C165.613 73.9568 156.7 79.0787 153.732 87.4817C153.433 88.323 153.183 89.1517 152.977 89.9657C153.177 92.1734 153.16 94.4529 152.912 96.7788C152.807 97.7593 152.668 98.704 152.496 99.617C153.498 105.557 156.868 110.099 160.446 112.72C165.094 116.121 170.383 116.571 173.93 113.865C179.763 109.41 181.331 101.875 179.845 97.0466C178.924 94.0607 176.94 92.2726 174.396 92.1418C172.418 92.0448 170.968 92.534 170.085 93.6094C168.21 95.8868 169.223 100.113 169.235 100.153C169.347 100.608 169.071 101.064 168.62 101.18C168.174 101.285 167.711 101.017 167.598 100.562C167.547 100.355 166.368 95.4798 168.777 92.5382C170.02 91.0263 171.954 90.3094 174.48 90.4549C177.768 90.6236 180.312 92.8461 181.451 96.5489C183.15 102.057 181.46 110.236 174.947 115.208C170.802 118.38 164.716 117.939 159.45 114.082C156.078 111.613 153.173 107.771 151.661 103.033C148.546 113.29 141.018 118.517 134.267 120.003C127.831 121.414 121.783 119.675 118.89 115.649C115.152 117.652 111.528 119.12 108.059 120.041C113.374 120.408 119.319 121.288 125.997 122.831C152.754 129.018 171.716 130.659 183.543 119.727C190.371 113.418 191.435 104.201 190.154 97.6791C188.95 91.5472 185.736 86.9566 181.559 85.4004C176.829 83.6397 171.884 84.0382 167.993 86.4969C164.396 88.7701 162.111 92.5129 161.729 96.764C161.144 103.208 164.745 105.42 165.859 105.945C167.564 106.746 169.389 106.601 170.402 105.582C170.732 105.253 171.264 105.253 171.594 105.582C171.924 105.911 171.924 106.447 171.594 106.778C170.055 108.319 167.528 108.594 165.147 107.476C162.328 106.152 159.509 102.601 160.053 96.6122C160.488 91.8297 163.053 87.6251 167.098 85.0673C171.436 82.326 176.921 81.8684 182.149 83.8168C186.879 85.5797 190.493 90.6384 191.813 97.3523C193.182 104.324 192.03 114.188 184.693 120.971C172.321 132.404 152.922 130.789 125.63 124.478C97.1363 117.886 82.3873 123.601 72.7193 129.313L70.9934 130.338C60.2785 136.704 44.1378 146.292 26.6012 146.292C26.4163 146.292 26.2313 146.29 26.0463 146.288C15.1506 146.161 8.84397 140.432 5.44892 135.572C10.1852 143.06 20.6058 150.372 39.8682 146.708C51.445 144.504 59.2169 140.223 66.7343 136.086C75.4648 131.274 83.7117 126.734 97.0775 125.556C110.534 124.377 123.052 127.038 136.309 129.855C147.93 132.326 159.944 134.886 174.033 135.302C199.307 136.05 208.105 124.43 210.153 120.978L210.1 120.967L210.71 119.921C211.601 118.397 212.179 116.585 212.486 114.626L212.478 114.624ZM30.2633 149.345C15.8191 149.345 6.49792 142.478 2.55209 133.992L2.56891 134.091C4.28851 140.67 8.90914 147.585 19.7775 151.73C34.7641 157.453 51.5522 148.879 66.3622 141.32C71.8805 138.503 77.094 135.842 82.0888 133.914C99.6421 127.141 109.886 130.138 134.633 137.368C136.885 138.028 139.256 138.72 141.768 139.445C169.217 147.368 178.264 145.466 194.68 142.012C196.001 141.735 197.363 141.446 198.784 141.155C210.413 138.771 216.621 131.844 216.556 126.538C216.522 123.907 214.838 122.026 211.902 121.307C210.272 124.465 201.733 137.822 173.972 136.985C159.734 136.563 147.642 133.988 135.947 131.5C122.819 128.706 110.412 126.068 97.2141 127.228C84.1994 128.375 76.1038 132.835 67.5332 137.556C59.9022 141.759 52.0105 146.104 40.1709 148.356C36.6371 149.029 33.3304 149.339 30.2612 149.339L30.2633 149.345ZM6.89313 134.827C10.0527 139.306 15.8947 144.474 26.061 144.595C43.2948 144.73 59.4628 135.217 70.1294 128.881L71.8616 127.854C77.115 124.75 83.8189 121.646 93.2683 120.4C92.1037 120.09 90.9748 119.689 89.8837 119.2C88.1116 118.403 86.4761 117.382 84.9856 116.149C80.1926 115.763 75.3617 119.343 69.2696 123.854C61.174 129.847 51.0982 137.305 35.4641 140.443C20.8307 143.382 12.0141 139.399 6.89523 134.827H6.89313Z" fill="#494949"/>
</svg>
