<svg width="266" height="101" viewBox="0 0 266 101" fill="none" xmlns="http://www.w3.org/2000/svg">
<path d="M31.1006 26.456C25.8683 26.456 20.7529 28.0815 16.0868 31.3655C5.14475 39.075 -2.33875 56.1054 4.52697 73.7466C7.66265 81.7991 15.7967 88.7475 27.4267 93.314C41.5654 98.8624 81.4118 108.367 145.89 76.8708C210.288 45.408 249.255 77.1668 261.428 89.9455C254.347 76.8802 238.397 65.7834 215.708 58.2994C194.446 51.2899 163.183 56.7913 137.924 71.9989C111.524 87.9018 85.2214 89.5368 84.9547 89.5508C84.4445 89.6166 83.9905 89.1797 83.9625 88.6582C83.9297 88.1367 84.3322 87.6904 84.8517 87.6575C85.1138 87.6434 110.971 86.0273 136.955 70.3734C163.056 54.6537 194.193 49.2087 216.297 56.5001C238.776 63.9136 254.81 74.8882 262.424 87.8736C257.674 72.0365 242.609 58.5484 228.152 51.506C214.851 45.0227 202.664 43.9938 195.555 48.753L193.758 49.9557L194.095 47.8181C195.11 41.4334 192.251 35.9696 186.63 33.5548C180.391 30.8769 170.942 32.3521 163.829 41.6448C163.346 43.0589 159.888 52.0604 149.98 52.1779C149.929 52.1779 149.872 52.1779 149.816 52.1779C143.816 52.1779 140.723 48.1375 139.894 44.6516C139.024 40.9918 140.185 36.2984 144.734 34.0528C147.911 32.4789 150.954 32.9487 152.858 35.3072C154.487 37.332 154.819 40.2307 153.603 41.7764C153.28 42.1851 152.681 42.2556 152.273 41.9314C151.866 41.6072 151.796 41.0106 152.119 40.5972C152.704 39.8549 152.512 37.8958 151.384 36.4958C150.603 35.528 148.815 34.1514 145.562 35.7488C141.949 37.534 141.032 41.2831 141.729 44.21C142.398 47.0241 144.916 50.2798 149.821 50.2798C149.868 50.2798 149.91 50.2798 149.957 50.2798C155.769 50.2094 159.008 46.7046 160.651 44.0032L162.116 40.8133L162.12 40.8086L162.13 40.7945V40.7898L162.139 40.7663C162.855 39.1596 163.543 32.8407 160.894 27.8185C159.069 24.3513 156.069 22.2466 151.983 21.5654C140.629 19.6673 134.976 30.5527 134.11 32.3756C134.189 33.0991 134.241 33.8226 134.278 34.5555C134.971 48.8657 127.052 62.2834 113.106 70.4392C101.11 77.4581 87.8563 78.4869 79.3338 73.0795C70.6148 67.5405 68.1811 58.943 68.841 51.7221C65.1297 49.4342 40.7557 35.3306 24.2677 48.2315C15.1087 55.396 14.9121 64.421 17.7857 70.4815C20.9261 77.1104 29.2333 83.1098 40.0443 80.6105C47.715 78.8393 51.4825 74.2258 50.1253 68.2734C48.8336 62.6169 42.8992 57.3222 36.9133 58.6894C30.0149 60.2679 29.4486 64.4445 29.5281 66.1639C29.6638 69.1895 31.812 71.8345 34.4188 72.1869C37.1052 72.5392 38.3782 71.3506 38.9632 70.2794C39.7542 68.8184 39.5389 67.3056 39.3142 67.0472C38.9258 66.6948 38.9024 66.1029 39.2487 65.7129C39.595 65.323 40.2034 65.2995 40.5825 65.6472C41.5794 66.5445 41.6777 68.9123 40.7978 70.8197C39.6606 73.3003 37.2363 74.4842 34.1661 74.0614C30.6841 73.5916 27.8152 70.1573 27.642 66.2485C27.4361 61.6726 30.7496 58.1538 36.4921 56.843C43.7556 55.1846 50.4716 61.3109 51.9646 67.8459C53.2141 73.3379 50.8554 80.0561 40.4655 82.4568C38.6965 82.8655 36.9274 83.0628 35.1957 83.0628C27.0055 83.0628 19.5642 78.6514 16.0775 71.2942C12.8903 64.5713 13.0635 54.588 23.1023 46.7375C39.7074 33.7474 63.4542 46.3382 69.1125 49.6832C69.192 49.2369 69.281 48.8 69.3839 48.3677C71.6117 38.9481 78.8003 32.3004 87.6972 31.4266C95.8921 30.6232 102.126 33.8226 104.326 40.0005C106.516 46.1643 104.04 53.3571 98.4334 57.1061C95.9061 58.8021 91.7502 59.9343 88.1886 58.6659C86.2651 57.9799 83.7097 56.2886 82.4274 52.1215C81.028 47.5785 82.3665 43.8153 86.003 42.063C88.9655 40.63 92.5692 41.0435 93.8656 42.965C94.1604 43.3972 94.0481 43.9845 93.6175 44.2804C93.1917 44.5764 92.602 44.4637 92.3071 44.0314C91.6332 43.0354 89.0357 42.6972 86.822 43.7683C85.198 44.5529 82.7035 46.6107 84.2292 51.5624C85.0717 54.3061 86.6161 56.0913 88.8204 56.8806C91.7689 57.933 95.2462 56.9605 97.385 55.5323C102.276 52.2577 104.447 45.9952 102.543 40.6394C100.628 35.2555 95.2743 32.5776 87.8797 33.3152C79.7972 34.1091 73.2591 40.1884 71.2185 48.8093C71.0313 49.608 70.8816 50.4349 70.7833 51.2899C70.7833 51.3275 70.7786 51.3698 70.7692 51.4074C70.0064 58.1303 72.1452 66.2861 80.3401 71.4868C88.2729 76.5231 100.759 75.4755 112.151 68.809C125.48 61.0149 133.043 48.2456 132.388 34.6541C132.35 33.9259 132.294 33.2024 132.214 32.4883C132.191 32.3991 132.182 32.3098 132.182 32.2205C130.548 18.3284 120.837 6.47051 107.873 2.90939C95.0497 -0.614149 82.7363 4.89197 74.1155 18.0183L72.9642 19.7707L72.4166 17.7505C71.3121 13.6914 68.3356 10.9102 64.2405 10.135C59.7944 9.27995 55.236 11.0088 52.6198 14.5277C49.1518 19.1881 49.5028 26.1694 53.6166 34.1843L55.8865 38.6146L52.1564 35.3306C45.4779 29.4581 38.1723 26.4701 31.0819 26.4701L31.1006 26.456ZM264.053 95.8932L264.002 95.8227C263.052 94.5167 223.247 41.2032 146.718 78.5762C110.99 96.0248 82.6848 100.995 62.0408 101C45.038 101 33.2301 97.6268 26.7388 95.0805C14.6079 90.3213 6.09481 82.9924 2.76725 74.4419C-4.45416 55.894 3.45523 37.9522 15.0011 29.8198C25.77 22.2325 38.7292 22.8808 50.2938 31.3796C46.5637 21.8566 49.0957 16.1015 51.1221 13.3813C54.1642 9.28934 59.4574 7.28797 64.6102 8.26517C68.7287 9.04974 71.9861 11.6713 73.6147 15.4203C82.5537 2.87181 95.4381 -2.47458 108.388 1.07715C121.254 4.61478 131.091 15.8666 133.67 29.3547C136.216 25.3238 142.3 18.0183 152.301 19.7002C156.93 20.4754 160.487 22.9748 162.57 26.9352C164.442 30.487 164.872 34.6823 164.638 37.8112C172.037 30.1393 181.14 29.1339 187.379 31.8212C193.262 34.3487 196.514 39.7609 196.168 46.2113C203.965 42.2133 216.026 43.5006 228.98 49.8147C246.138 58.1773 264.147 75.4473 265.729 95.1885L265.733 95.2449V95.2731L266 98.6463L264.048 95.9026L264.053 95.8932Z" fill="#494949"/>
</svg>
