<svg width="8" height="11" viewBox="0 0 8 11" fill="none" xmlns="http://www.w3.org/2000/svg">
<path fill-rule="evenodd" clip-rule="evenodd" d="M4 0C1.79399 0 0 1.85006 0 4.12501C0 6.98436 3.61064 10.7408 3.76402 10.8996C3.82938 10.9664 3.91469 11 4 11C4.08531 11 4.17068 10.9663 4.23598 10.8996C4.3893 10.7408 8 6.98436 8 4.12501C8 1.85006 6.20601 0 4 0ZM4 10.1592C3.20404 9.28057 0.666646 6.30919 0.666646 4.12494C0.666646 2.2295 2.162 0.687417 4 0.687417C5.838 0.687417 7.33335 2.2295 7.33335 4.12494C7.33335 6.3071 4.79602 9.28051 4 10.1592Z" fill="url(#paint0_linear_304_7320)"/>
<path fill-rule="evenodd" clip-rule="evenodd" d="M4.00001 2.0625C2.89734 2.0625 2.00001 2.98788 2.00001 4.12501C2.00001 5.26213 2.89734 6.18751 4.00001 6.18751C5.10267 6.18751 6.00001 5.26213 6.00001 4.12501C6.00001 2.98788 5.10267 2.0625 4.00001 2.0625ZM4.00001 5.50003C3.26467 5.50003 2.66665 4.88332 2.66665 4.12501C2.66665 3.36669 3.26467 2.74998 4.00001 2.74998C4.73534 2.74998 5.33336 3.36669 5.33336 4.12501C5.33336 4.88332 4.73534 5.50003 4.00001 5.50003Z" fill="url(#paint1_linear_304_7320)"/>
<defs>
<linearGradient id="paint0_linear_304_7320" x1="1.78959" y1="3.71021" x2="8.72196" y2="4.56863" gradientUnits="userSpaceOnUse">
<stop stop-color="#F45601"/>
<stop offset="1" stop-color="#FF7429"/>
</linearGradient>
<linearGradient id="paint1_linear_304_7320" x1="1.78959" y1="3.71021" x2="8.72196" y2="4.56863" gradientUnits="userSpaceOnUse">
<stop stop-color="#F45601"/>
<stop offset="1" stop-color="#FF7429"/>
</linearGradient>
</defs>
</svg>
