<svg width="17" height="12" viewBox="0 0 17 12" fill="none" xmlns="http://www.w3.org/2000/svg">
<path id="Vector" fill-rule="evenodd" clip-rule="evenodd" d="M15.4063 0H1.59375C0.714903 0 0 0.67285 0 1.5V10.5C0 11.3271 0.714903 12 1.59375 12H15.4063C16.2851 12 17 11.3271 17 10.5V1.5C17 0.67285 16.2851 0 15.4063 0ZM15.4063 1C15.4785 1 15.5471 1.01408 15.6099 1.0387L8.5 6.83843L1.39008 1.0387C1.45286 1.01414 1.52154 1 1.59369 1H15.4063ZM15.4063 11H1.59375C1.30066 11 1.0625 10.7759 1.0625 10.5V2.09521L8.15192 7.87793C8.25205 7.95946 8.37602 8 8.50006 8C8.62404 8 8.74801 7.95946 8.8482 7.87793L15.9376 2.09521V10.5001C15.9376 10.7759 15.6993 11 15.4063 11Z" fill="#F75D0A"/>
</svg>
