<svg width="29" height="28" viewBox="0 0 29 28" fill="none" xmlns="http://www.w3.org/2000/svg">
<path d="M23.7473 19.4368L23.7473 19.4369C25.2927 21.5568 24.8232 24.5304 22.6989 26.0842C20.5804 27.6339 17.6057 27.1677 16.0492 25.046C15.7101 24.5711 15.1818 24.3791 14.7261 24.3748C14.2679 24.3705 13.7395 24.5538 13.39 25.0135L13.3886 25.0153C11.8038 27.1095 8.81569 27.5266 6.72672 25.9344L6.72394 25.9323C4.62973 24.3475 4.21261 21.3594 5.8049 19.2704L5.8056 19.2695C6.15794 18.8061 6.18995 18.2463 6.06021 17.8054C5.93072 17.3655 5.60494 16.9207 5.07639 16.7145L5.06845 16.7114L5.06046 16.7085C2.59491 15.7951 1.33351 13.0502 2.24671 10.5851C3.16009 8.11957 5.905 6.85816 8.37008 7.77137L8.38246 7.77595L8.39496 7.78021C9.20894 8.05754 10.1059 7.47303 10.1156 6.56706C10.1165 6.48101 10.1201 6.39094 10.1261 6.29488C10.2891 3.67316 12.5502 1.67689 15.172 1.83997C17.7937 2.00304 19.7899 4.26413 19.6269 6.88585C19.5735 7.74397 20.438 8.28127 21.1627 7.9847L20.784 7.0592L21.1627 7.9847C21.2354 7.95495 21.3138 7.92597 21.4045 7.89464L21.4079 7.89347C23.8951 7.02428 26.6 8.33601 27.4712 10.8158C28.3396 13.288 27.029 16.0047 24.5507 16.8768C24.4679 16.9053 24.3867 16.9314 24.307 16.9549L24.307 16.9549C23.7981 17.1049 23.484 17.5047 23.3612 17.8969C23.2385 18.2891 23.2687 18.7961 23.6003 19.2093L23.6174 19.1955L23.6003 19.2093C23.617 19.2301 23.6334 19.251 23.6496 19.2721C23.6765 19.3292 23.7091 19.3844 23.7473 19.4368ZM20.6117 6.0539C20.6124 6.06171 20.6132 6.06952 20.6138 6.07734C20.5447 6.08703 20.4758 6.10516 20.4086 6.13234C20.477 6.10439 20.5447 6.07843 20.6117 6.0539ZM21.6114 6.79098C21.6187 6.78918 21.626 6.78741 21.6333 6.78564C21.6311 6.86021 21.6277 6.93501 21.623 7.01001C21.6278 6.93349 21.6235 6.86031 21.6114 6.79098Z" stroke="url(#paint0_linear_263_8553)" stroke-width="2"/>
<defs>
<linearGradient id="paint0_linear_263_8553" x1="7.32581" y1="9.59949" x2="30.7491" y2="15.1623" gradientUnits="userSpaceOnUse">
<stop stop-color="#F45601"/>
<stop offset="1" stop-color="#FF7429"/>
</linearGradient>
</defs>
</svg>
