<svg width="40" height="27" viewBox="0 0 40 27" fill="none" xmlns="http://www.w3.org/2000/svg">
<path d="M17.2063 2.38442C16.1892 2.58583 15.4298 2.13227 15.0676 1.91599C15.0157 1.88499 14.972 1.85886 14.9368 1.84024C14.776 1.75508 14.7351 1.7579 14.726 1.75853C14.7257 1.75855 14.7254 1.75857 14.7252 1.75859L14.7251 1.75859C14.7178 1.75895 14.6488 1.7624 14.4984 1.84797C10.6337 11.6157 8.04505 16.5749 1.97214 24.9262L5.45947 23.6073C6.74672 23.11 8.069 23.2095 9.27844 23.844L9.28472 23.8472L9.28471 23.8473L11.8046 25.192C11.805 25.1922 11.8054 25.1924 11.8058 25.1926C12.555 25.5899 13.3047 25.6267 14.0705 25.3001L14.0729 25.2991L17.9349 23.6639L17.9407 23.6615L17.9407 23.6615C19.2126 23.1324 20.5161 23.1702 21.7494 23.753L21.7552 23.7558L21.7552 23.7558L24.767 25.2028L24.7777 25.208L24.7777 25.2081C25.5406 25.5858 26.3318 25.5792 27.1082 25.184L29.8834 23.769C31.0437 23.1607 32.2943 23.0908 33.5078 23.5092L33.5086 23.5094L37.9078 25.0302C32.704 17.7558 26.8175 9.15534 23.7529 1.9204C23.6825 1.92117 23.5609 1.94567 23.3337 2.03608C23.2987 2.05 23.2488 2.07094 23.1906 2.09533C23.0496 2.15446 22.8603 2.23385 22.7184 2.28267C22.4966 2.35892 22.1229 2.46622 21.7064 2.38456M17.2063 2.38442L21.7058 2.38444C21.706 2.38448 21.7062 2.38452 21.7064 2.38456M17.2063 2.38442C17.4746 2.33185 17.7387 2.19954 17.8946 2.12044C17.9943 2.06983 18.0728 2.02847 18.1482 1.98867C18.2455 1.93734 18.3379 1.88862 18.4647 1.82602C18.8708 1.6256 19.1833 1.52051 19.42 1.52051C19.7017 1.52051 19.8836 1.59532 20.1897 1.76294C20.2243 1.78191 20.2613 1.80267 20.3008 1.82478C20.6147 2.00083 21.081 2.26237 21.7064 2.38456M17.2063 2.38442L21.7064 2.38456" stroke="url(#paint0_linear_263_8554)" stroke-width="2"/>
<defs>
<linearGradient id="paint0_linear_263_8554" x1="9.13831" y1="9.2901" x2="41.3507" y2="17.5169" gradientUnits="userSpaceOnUse">
<stop stop-color="#F45601"/>
<stop offset="1" stop-color="#FF7429"/>
</linearGradient>
</defs>
</svg>
