<svg width="32" height="28" viewBox="0 0 32 28" fill="none" xmlns="http://www.w3.org/2000/svg">
<mask id="path-1-outside-1_263_8555" maskUnits="userSpaceOnUse" x="0.414062" y="-0.979492" width="31" height="28" fill="black">
<rect fill="white" x="0.414062" y="-0.979492" width="31" height="28"/>
<path d="M29.28 2.22315C29.2136 2.14357 29.1273 2.08392 29.0304 2.0506C28.9334 2.01727 28.8294 2.01151 28.7295 2.03393C28.6795 2.04569 23.6264 3.17039 15.914 3.17039C8.20167 3.17039 3.14852 2.04569 3.09858 2.03388C2.89424 1.98838 2.6833 2.06083 2.54815 2.22309C2.48182 2.30273 2.43802 2.39937 2.42146 2.50258C2.40491 2.60579 2.41624 2.71167 2.45423 2.80878L3.5792 5.68378C3.61773 5.78227 3.68213 5.86797 3.76531 5.93139C3.84849 5.99482 3.9472 6.0335 4.05054 6.04317C4.07654 6.04554 5.19303 6.14764 6.88342 6.26516L6.7346 8.92043H5.22662C5.15273 8.92038 5.07956 8.93522 5.0113 8.9641C4.94303 8.99298 4.881 9.03533 4.82875 9.08874C4.77651 9.14214 4.73507 9.20555 4.70682 9.27534C4.67857 9.34513 4.66405 9.41992 4.6641 9.49545V11.7954C4.66405 11.8709 4.67857 11.9457 4.70682 12.0155C4.73507 12.0853 4.77651 12.1487 4.82875 12.2021C4.881 12.2555 4.94303 12.2979 5.0113 12.3268C5.07956 12.3557 5.15273 12.3705 5.22662 12.3704H6.5263L5.79019 24.4095C5.78533 24.4879 5.79628 24.5665 5.82236 24.6404C5.84844 24.7143 5.88909 24.7819 5.9418 24.8391C5.99433 24.8964 6.05781 24.9421 6.12829 24.9733C6.19878 25.0045 6.27478 25.0205 6.35159 25.0205H8.6016C8.74471 25.0206 8.88246 24.9648 8.98677 24.8647C9.09108 24.7645 9.15411 24.6275 9.16301 24.4814L9.9035 12.3704H21.9247L22.6652 24.4814C22.6838 24.7847 22.9294 25.0205 23.2266 25.0205H25.4766C25.632 25.0205 25.7803 24.9548 25.8864 24.8391C25.9391 24.7819 25.9797 24.7143 26.0058 24.6404C26.0319 24.5665 26.0429 24.4879 26.038 24.4095L25.3019 12.3704H26.6016C26.6755 12.3705 26.7487 12.3557 26.8169 12.3268C26.8852 12.2979 26.9472 12.2555 26.9995 12.2021C27.0517 12.1487 27.0931 12.0853 27.1214 12.0155C27.1497 11.9457 27.1642 11.8709 27.1641 11.7954V9.49539C27.1642 9.41987 27.1497 9.34507 27.1214 9.27529C27.0931 9.2055 27.0517 9.14209 26.9995 9.08868C26.9472 9.03528 26.8852 8.99292 26.8169 8.96404C26.7487 8.93516 26.6755 8.92033 26.6016 8.92037H25.0936L24.9448 6.2651C26.6352 6.14753 27.7517 6.04549 27.7777 6.04312C27.881 6.03345 27.9797 5.99476 28.0629 5.93134C28.1461 5.86791 28.2105 5.78222 28.249 5.68372L29.374 2.80873C29.4119 2.71161 29.4232 2.60576 29.4066 2.50257C29.3901 2.39938 29.3463 2.30277 29.28 2.22315ZM14.2265 8.92043H10.1124L10.255 6.46564C11.5144 6.52768 12.8666 6.57836 14.2265 6.60315V8.92043H14.2265ZM17.6015 8.92043V6.60315C18.9614 6.57836 20.3136 6.52768 21.573 6.46564L21.7156 8.92043H17.6015Z"/>
</mask>
<path d="M29.28 2.22315L30.8169 0.943348L30.816 0.942325L29.28 2.22315ZM28.7295 2.03393L28.2915 0.0824866L28.2817 0.0846946L28.2719 0.0870018L28.7295 2.03393ZM3.09858 2.03388L3.5587 0.0875251L3.54599 0.0845203L3.53324 0.0816818L3.09858 2.03388ZM2.54815 2.22309L1.01143 0.943045L1.01136 0.943129L2.54815 2.22309ZM2.45423 2.80878L0.59163 3.5373L0.591736 3.53757L2.45423 2.80878ZM3.5792 5.68378L5.44181 4.9553L5.44169 4.95499L3.5792 5.68378ZM4.05054 6.04317L3.86417 8.03447L3.86883 8.0349L4.05054 6.04317ZM6.88342 6.26516L8.88028 6.37707L8.99071 4.40683L7.02212 4.26997L6.88342 6.26516ZM6.7346 8.92043V10.9204H8.62565L8.73147 9.03234L6.7346 8.92043ZM5.22662 8.92043L5.22527 10.9204H5.22662V8.92043ZM4.6641 9.49545H6.6641L6.6641 9.49416L4.6641 9.49545ZM4.6641 11.7954L6.6641 11.7967V11.7954H4.6641ZM5.22662 12.3704V10.3704L5.22527 10.3704L5.22662 12.3704ZM6.5263 12.3704L8.52257 12.4925L8.65233 10.3704H6.5263V12.3704ZM5.79019 24.4095L7.78636 24.5332L7.78646 24.5316L5.79019 24.4095ZM5.9418 24.8391L7.41583 23.4873L7.41229 23.4835L5.9418 24.8391ZM6.35159 25.0205V23.0205H6.3508L6.35159 25.0205ZM8.6016 25.0205L8.6023 23.0205H8.6016V25.0205ZM9.16301 24.4814L7.16674 24.3594L7.16671 24.3598L9.16301 24.4814ZM9.9035 12.3704V10.3704H8.02205L7.90723 12.2484L9.9035 12.3704ZM21.9247 12.3704L23.9209 12.2484L23.8061 10.3704H21.9247V12.3704ZM22.6652 24.4814L20.6689 24.6035L20.6689 24.6043L22.6652 24.4814ZM25.8864 24.8391L24.4161 23.4833L24.4121 23.4876L25.8864 24.8391ZM26.038 24.4095L24.0417 24.5316L24.0418 24.5335L26.038 24.4095ZM25.3019 12.3704V10.3704H23.1759L23.3056 12.4925L25.3019 12.3704ZM26.6016 12.3704L26.6029 10.3704H26.6016V12.3704ZM27.1641 11.7954H25.1641V11.7967L27.1641 11.7954ZM27.1641 9.49539L25.1641 9.49411V9.49539H27.1641ZM26.6016 8.92037V10.9204L26.6029 10.9204L26.6016 8.92037ZM25.0936 8.92037L23.0968 9.03229L23.2026 10.9204H25.0936V8.92037ZM24.9448 6.2651L24.806 4.26992L22.8375 4.40684L22.9479 6.37702L24.9448 6.2651ZM27.7777 6.04312L27.9594 8.03485L27.9641 8.03442L27.7777 6.04312ZM28.249 5.68372L26.3865 4.95494L26.3864 4.95524L28.249 5.68372ZM29.374 2.80873L31.2365 3.53752L31.237 3.53628L29.374 2.80873ZM10.1124 8.92043L8.1158 8.80445L7.99289 10.9204H10.1124V8.92043ZM10.255 6.46564L10.3534 4.46806L8.37336 4.37051L8.25839 6.34966L10.255 6.46564ZM14.2265 6.60315H16.2265V4.63929L14.2629 4.60348L14.2265 6.60315ZM14.2265 8.92043H12.2265V10.9204H14.2265V8.92043ZM17.6015 8.92043H15.6015V10.9204H17.6015V8.92043ZM17.6015 6.60315L17.5651 4.60348L15.6015 4.63929V6.60315H17.6015ZM21.573 6.46564L23.5696 6.34966L23.4547 4.3705L21.4746 4.46806L21.573 6.46564ZM21.7156 8.92043V10.9204H23.8351L23.7122 8.80445L21.7156 8.92043ZM30.816 0.942325C30.5183 0.585273 30.1269 0.312649 29.6805 0.159221L28.3802 3.94197C28.1278 3.8552 27.9089 3.70186 27.7439 3.50397L30.816 0.942325ZM29.6805 0.159221C29.2339 0.00568271 28.7532 -0.0211396 28.2915 0.0824866L29.1675 3.98538C28.9057 4.04416 28.633 4.02885 28.3802 3.94197L29.6805 0.159221ZM28.2719 0.0870018C28.3434 0.0701915 23.4456 1.17039 15.914 1.17039V5.17039C23.8072 5.17039 29.0157 4.02118 29.1872 3.98087L28.2719 0.0870018ZM15.914 1.17039C8.38183 1.17039 3.48457 0.0700014 3.5587 0.0875251L2.63847 3.98023C2.81248 4.02137 8.02151 5.17039 15.914 5.17039V1.17039ZM3.53324 0.0816818C2.59036 -0.128248 1.62114 0.211091 1.01143 0.943045L4.08486 3.50314C3.74547 3.91057 3.19812 4.10501 2.66393 3.98608L3.53324 0.0816818ZM1.01136 0.943129C0.713126 1.30121 0.51959 1.73131 0.446693 2.18591L4.39624 2.81925C4.35644 3.06742 4.25051 3.30425 4.08493 3.50305L1.01136 0.943129ZM0.446693 2.18591C0.373814 2.64039 0.423397 3.10718 0.59163 3.5373L4.31682 2.08027C4.40908 2.31616 4.43601 2.57119 4.39624 2.81925L0.446693 2.18591ZM0.591736 3.53757L1.71671 6.41256L5.44169 4.95499L4.31672 2.08L0.591736 3.53757ZM1.71659 6.41226C1.88709 6.8482 2.1745 7.23348 2.55263 7.5218L4.978 4.34098C5.18977 4.50246 5.34836 4.71635 5.44181 4.9553L1.71659 6.41226ZM2.55263 7.5218C2.93117 7.81043 3.38487 7.98961 3.86417 8.03447L4.23692 4.05187C4.50954 4.07739 4.76582 4.1792 4.978 4.34098L2.55263 7.5218ZM3.86883 8.0349C3.90433 8.03814 5.03585 8.14154 6.74471 8.26034L7.02212 4.26997C5.3502 4.15374 4.24874 4.05295 4.23225 4.05144L3.86883 8.0349ZM4.88655 6.15324L4.73774 8.80851L8.73147 9.03234L8.88028 6.37707L4.88655 6.15324ZM6.7346 6.92043H5.22662V10.9204H6.7346V6.92043ZM5.22796 6.92043C4.88504 6.9202 4.54649 6.98913 4.23209 7.12213L5.7905 10.8061C5.61263 10.8813 5.42043 10.9206 5.22527 10.9204L5.22796 6.92043ZM4.23209 7.12213C3.91779 7.25509 3.63512 7.44886 3.39908 7.69016L6.25843 10.4873C6.12687 10.6218 5.96826 10.7309 5.7905 10.8061L4.23209 7.12213ZM3.39908 7.69016C3.16312 7.93136 2.97826 8.21537 2.85297 8.52485L6.56067 10.0258C6.49189 10.1957 6.3899 10.3529 6.25843 10.4873L3.39908 7.69016ZM2.85297 8.52485C2.72772 8.83425 2.66389 9.16438 2.6641 9.49673L6.6641 9.49416C6.66422 9.67547 6.62942 9.85601 6.56067 10.0258L2.85297 8.52485ZM2.6641 9.49545V11.7954H6.6641V9.49545H2.6641ZM2.6641 11.7941C2.66389 12.1265 2.72772 12.4566 2.85297 12.766L6.56067 11.265C6.62942 11.4349 6.66422 11.6154 6.6641 11.7967L2.6641 11.7941ZM2.85297 12.766C2.97826 13.0755 3.16312 13.3595 3.39908 13.6007L6.25843 10.8036C6.3899 10.9379 6.49189 11.0951 6.56067 11.265L2.85297 12.766ZM3.39908 13.6007C3.63512 13.842 3.91779 14.0358 4.23209 14.1687L5.7905 10.4848C5.96826 10.56 6.12687 10.6691 6.25843 10.8036L3.39908 13.6007ZM4.23209 14.1687C4.54648 14.3017 4.88502 14.3707 5.22796 14.3704L5.22527 10.3704C5.42044 10.3703 5.61265 10.4096 5.7905 10.4848L4.23209 14.1687ZM5.22662 14.3704H6.5263V10.3704H5.22662V14.3704ZM4.53003 12.2484L3.79392 24.2875L7.78646 24.5316L8.52257 12.4925L4.53003 12.2484ZM3.79402 24.2858C3.7726 24.6314 3.82076 24.9785 3.93637 25.306L7.70835 23.9748C7.7718 24.1546 7.79805 24.3445 7.78636 24.5332L3.79402 24.2858ZM3.93637 25.306C4.05201 25.6337 4.23329 25.9365 4.47131 26.1947L7.41229 23.4835C7.5449 23.6274 7.64487 23.7949 7.70835 23.9748L3.93637 25.306ZM4.46777 26.1909C4.70496 26.4495 4.99411 26.6584 5.31876 26.8021L6.93782 23.1444C7.1215 23.2257 7.2837 23.3433 7.41582 23.4874L4.46777 26.1909ZM5.31876 26.8021C5.64352 26.9458 5.99546 27.0206 6.35239 27.0205L6.3508 23.0205C6.5541 23.0204 6.75404 23.0631 6.93782 23.1444L5.31876 26.8021ZM6.35159 27.0205H8.6016V23.0205H6.35159V27.0205ZM8.6009 27.0205C9.26666 27.0207 9.8994 26.7611 10.372 26.3073L7.60156 23.422C7.86552 23.1686 8.22277 23.0204 8.6023 23.0205L8.6009 27.0205ZM10.372 26.3073C10.8433 25.8548 11.1202 25.2441 11.1593 24.6031L7.16671 24.3598C7.18798 24.0108 7.33889 23.6743 7.60156 23.422L10.372 26.3073ZM11.1593 24.6035L11.8998 12.4925L7.90723 12.2484L7.16674 24.3594L11.1593 24.6035ZM9.9035 14.3704H21.9247V10.3704H9.9035V14.3704ZM19.9284 12.4925L20.6689 24.6035L24.6614 24.3594L23.9209 12.2484L19.9284 12.4925ZM20.6689 24.6043C20.7502 25.9238 21.8343 27.0205 23.2266 27.0205V23.0205C24.0244 23.0205 24.6175 23.6455 24.6614 24.3585L20.6689 24.6043ZM23.2266 27.0205H25.4766V23.0205H23.2266V27.0205ZM25.4766 27.0205C26.1997 27.0205 26.8806 26.7143 27.3606 26.1906L24.4121 23.4876C24.6801 23.1953 25.0644 23.0205 25.4766 23.0205V27.0205ZM27.3566 26.195C27.5948 25.9367 27.7761 25.6338 27.8918 25.306L24.1198 23.9748C24.1834 23.7948 24.2834 23.6272 24.4161 23.4833L27.3566 26.195ZM27.8918 25.306C28.0075 24.9784 28.0556 24.6312 28.0341 24.2855L24.0418 24.5335C24.0301 24.3447 24.0564 24.1547 24.1198 23.9748L27.8918 25.306ZM28.0343 24.2875L27.2982 12.2484L23.3056 12.4925L24.0417 24.5316L28.0343 24.2875ZM25.3019 14.3704H26.6016V10.3704H25.3019V14.3704ZM26.6003 14.3704C26.9432 14.3707 27.2817 14.3017 27.5961 14.1687L26.0377 10.4848C26.2156 10.4096 26.4078 10.3703 26.6029 10.3704L26.6003 14.3704ZM27.5961 14.1687C27.9104 14.0358 28.1931 13.842 28.4291 13.6007L25.5698 10.8036C25.7014 10.6691 25.86 10.56 26.0377 10.4848L27.5961 14.1687ZM28.4291 13.6007C28.6651 13.3595 28.85 13.0755 28.9752 12.766L25.2675 11.265C25.3363 11.0951 25.4383 10.9379 25.5698 10.8036L28.4291 13.6007ZM28.9752 12.766C29.1005 12.4566 29.1643 12.1265 29.1641 11.7941L25.1641 11.7967C25.164 11.6154 25.1988 11.4348 25.2675 11.265L28.9752 12.766ZM29.1641 11.7954V9.49539H25.1641V11.7954H29.1641ZM29.1641 9.49668C29.1643 9.1643 29.1005 8.83418 28.9752 8.52479L25.2675 10.0258C25.1988 9.85597 25.164 9.67543 25.1641 9.49411L29.1641 9.49668ZM28.9752 8.52479C28.85 8.21533 28.6651 7.93131 28.4291 7.6901L25.5698 10.4873C25.4383 10.3529 25.3363 10.1957 25.2675 10.0258L28.9752 8.52479ZM28.4291 7.6901C28.1931 7.4488 27.9104 7.25503 27.5961 7.12208L26.0377 10.806C25.86 10.7308 25.7014 10.6218 25.5698 10.4873L28.4291 7.6901ZM27.5961 7.12208C27.2817 6.98908 26.9432 6.92015 26.6003 6.92038L26.6029 10.9204C26.4078 10.9205 26.2156 10.8812 26.0377 10.806L27.5961 7.12208ZM26.6016 6.92037H25.0936V10.9204H26.6016V6.92037ZM27.0905 8.80846L26.9417 6.15319L22.9479 6.37702L23.0968 9.03229L27.0905 8.80846ZM25.0836 8.26028C26.7924 8.14144 27.9238 8.03809 27.9594 8.03485L27.596 4.05139C27.5795 4.05289 26.478 4.15363 24.806 4.26992L25.0836 8.26028ZM27.9641 8.03442C28.4434 7.98955 28.8971 7.81038 29.2756 7.52175L26.8502 4.34093C27.0624 4.17915 27.3187 4.07734 27.5913 4.05182L27.9641 8.03442ZM29.2756 7.52175C29.6537 7.23343 29.9411 6.84816 30.1116 6.41221L26.3864 4.95524C26.4799 4.71628 26.6385 4.5024 26.8502 4.34093L29.2756 7.52175ZM30.1115 6.41251L31.2365 3.53752L27.5115 2.07994L26.3865 4.95494L30.1115 6.41251ZM31.237 3.53628C31.4049 3.10629 31.4543 2.63973 31.3813 2.1855L27.4319 2.81964C27.3921 2.57179 27.4189 2.31694 27.511 2.08118L31.237 3.53628ZM31.3813 2.1855C31.3084 1.73114 31.1149 1.30127 30.8169 0.943348L27.7431 3.50294C27.5776 3.30427 27.4718 3.06763 27.4319 2.81964L31.3813 2.1855ZM14.2265 6.92043H10.1124V10.9204H14.2265V6.92043ZM12.1091 9.03641L12.2517 6.58162L8.25839 6.34966L8.1158 8.80445L12.1091 9.03641ZM10.1566 8.46321C11.4322 8.52606 12.8054 8.57757 14.19 8.60282L14.2629 4.60348C12.9278 4.57914 11.5967 4.52931 10.3534 4.46806L10.1566 8.46321ZM12.2265 6.60315V8.92043H16.2265V6.60315H12.2265ZM14.2265 10.9204H14.2265V6.92043H14.2265V10.9204ZM19.6015 8.92043V6.60315H15.6015V8.92043H19.6015ZM17.638 8.60282C19.0226 8.57757 20.3959 8.52606 21.6714 8.46321L21.4746 4.46806C20.2314 4.52931 18.9003 4.57914 17.5651 4.60348L17.638 8.60282ZM19.5763 6.58162L19.7189 9.03641L23.7122 8.80445L23.5696 6.34966L19.5763 6.58162ZM21.7156 6.92043H17.6015V10.9204H21.7156V6.92043Z" fill="#FC6B1D" mask="url(#path-1-outside-1_263_8555)"/>
</svg>
