<svg width="692" height="314" viewBox="0 0 692 314" fill="none" xmlns="http://www.w3.org/2000/svg">
<g opacity="0.5">
<path d="M397.893 221C404.03 221 410.526 220.013 417.38 217.68C436.579 211.138 443.209 196.458 445.414 185.485C446.614 181.403 446.98 177.583 447 174.538C447.003 174.109 446.774 173.736 446.432 173.53C446.397 172.566 446.342 172.008 446.336 171.964L445.712 166.424L444.068 171.753C443.992 172.002 443.494 173.542 442.313 175.666C442.174 175.803 442.067 175.976 442.009 176.176L441.994 176.225C437.797 183.389 426.249 196.026 398.531 190.498C377.475 186.295 363.803 176.225 352.82 168.138C345.076 162.433 338.739 157.755 332.248 157.133C336.9 152.354 340.297 145.842 342.266 137.83C356.788 136.848 366.669 118.321 367.565 101.266C368.351 86.2643 362.17 69.3923 342.594 66.4197C343.905 49.3509 335.755 35.3618 320.633 28.8579C306.256 22.6752 289.641 25.0864 280.459 34.5108C274.754 27.3122 265.07 23.176 252.996 22.8287C242.947 22.5566 232.401 24.9301 223.051 29.2197C222.448 27.5901 221.018 24.8722 217.816 23.0834C213.39 20.6144 207.23 20.788 199.498 23.5957C197.993 11.5749 187.079 2.80457 170.588 0.529498C148.978 -2.46051 122.74 7.14052 113.708 31.1677C103.056 26.2094 92.8671 26.3455 86.269 31.5903C81.3879 35.4718 79.2823 41.5734 80.5323 48.0657C71.2022 52.1759 64.4533 61.1894 61.9475 72.9613C60.1841 81.2366 60.7584 89.7522 63.3164 97.0782C55.0942 94.6699 40.3203 97.356 31.1091 103.336C25.3318 107.087 22.3271 111.669 22.3619 116.648C18.1942 117.507 3.12451 121.731 0.47079 138.151C-1.20847 148.548 1.66278 158.847 8.15356 165.709C12.3705 170.173 19.9808 175.203 32.4403 174.231C33.8701 180.017 38.4264 184.234 45.0999 185.89C47.0373 186.373 49.0356 186.605 51.0396 186.605C58.9399 186.605 66.9852 183.004 72.1999 176.859C75.5642 178.735 87.5307 184.234 98.2239 174.737C99.9206 173.232 101.269 171.041 102.215 168.401C107.751 175.455 132.476 204.371 171.96 213.344C211.897 222.427 242.12 210.099 266.404 200.197C269.748 198.834 273.005 197.505 276.189 196.269C303.751 185.569 332.93 190.342 347.507 200.582C359.636 209.098 376.576 220.991 397.899 220.994L397.893 221ZM290.401 137.841C292.428 137.841 294.812 137.482 297.135 136.281C300.694 134.443 303.272 131.08 304.798 126.278C309.658 126.547 315.012 122.961 317.48 117.716C319.006 114.471 321.416 106.083 311.532 97.356C313.71 90.033 311.72 81.5579 306.459 76.0236C301.538 70.8425 294.641 68.9582 286.915 70.6312C287.323 65.8379 285.157 59.7768 280.714 57.3628C277.608 55.684 272.515 55.2238 265.505 62.0722C262.932 55.4062 258.005 50.6795 252.312 49.5593C246.897 48.497 241.424 50.801 236.83 56.0574C235.931 55.6753 234.988 55.3801 234.014 55.1775C235.107 51.7851 239.214 42.5141 251.386 42.5141C251.404 42.5141 251.421 42.5141 251.442 42.5141C263.802 42.543 266.764 52.4509 266.79 52.5522L267.216 54.0429L268.53 53.2179C276.816 47.9992 284.504 49.6374 288.562 52.6274C292.411 55.4612 294.003 59.7682 292.825 64.1504L292.411 65.6787L293.997 65.6121C306.158 65.0622 315.175 71.9019 318.742 78.8834C321.721 84.7071 321.271 90.7595 317.515 95.4891L316.52 96.7395L318.02 97.2952C326.41 100.407 328.324 110.326 325.885 118.515C323.716 125.797 317.756 132.275 309.336 130.388L308.353 130.168L307.994 131.106C305.195 138.423 298.919 142.805 291.198 142.823C291.187 142.823 291.169 142.823 291.155 142.823C286.129 142.823 281.61 140.846 279.368 137.83C279.838 137.859 280.316 137.873 280.804 137.873C282.393 137.873 283.962 137.621 285.476 137.147C286.25 137.378 288.095 137.841 290.398 137.841H290.401ZM236.552 58.4772C236.604 58.5091 236.659 58.5351 236.717 58.5583C239.258 59.8347 241.325 61.9014 242.555 64.327C245.36 69.8555 244.26 77.9282 232.79 84.0182C220.806 90.3745 209.101 85.6362 202.822 78.1077C197.9 72.2145 194.776 62.3153 200.04 51.9907C200.061 51.9559 200.078 51.9183 200.095 51.8807C200.96 50.2019 202.047 48.5115 203.387 46.824C204.231 45.7588 205.139 44.7255 206.105 43.7211C206.14 43.6893 206.171 43.6574 206.2 43.6227C217.3 32.1229 235.841 24.6869 252.926 25.15C264.873 25.4945 274.278 29.7031 279.409 36.9972L280.267 38.2129L281.239 37.0927C289.536 27.5409 305.711 24.9764 319.705 30.9911C334.177 37.2143 341.831 50.7923 340.178 67.3083L340.065 68.4343L341.193 68.5732C364.94 71.4706 365.601 94.2387 365.239 101.148C364.377 117.583 354.557 135.326 341.315 135.552L340.407 135.569L340.201 136.452C338.116 145.529 334.168 152.615 328.632 157.336C328.551 157.388 328.478 157.451 328.414 157.518C326.48 159.136 324.351 160.468 322.045 161.498C311.509 166.213 298.057 164.378 283.15 156.192L282.167 155.654L281.59 156.618C278.408 161.938 270.638 164.285 262.251 162.45C252.735 160.366 242.004 152.441 238.924 136.446C239.536 132.385 239.411 127.974 238.3 123.334C239.455 111.802 245.209 101.828 254.582 95.657C264.704 88.9909 277.094 88.2615 286.917 93.7524C298.234 100.077 299.934 111.247 297.75 119.591C295.293 128.987 288.324 135.552 280.809 135.552C279.649 135.552 278.565 135.459 277.555 135.283C277.495 135.268 277.434 135.257 277.373 135.251C272.721 134.371 269.786 131.609 269.159 127.375C268.498 122.917 270.69 118.011 273.759 117.082C274.371 116.897 274.722 116.248 274.536 115.638C274.348 115.024 273.698 114.677 273.089 114.862C268.942 116.118 266.03 122.121 266.862 127.716C267.616 132.796 271.094 136.241 276.436 137.422C278.6 142.064 284.412 145.141 291.163 145.141C291.181 145.141 291.195 145.141 291.21 145.141C299.603 145.124 306.485 140.548 309.8 132.842C319.148 134.411 325.72 127.218 328.116 119.178C330.732 110.413 328.777 99.8424 320.227 95.7149C323.742 90.4498 323.977 84.0124 320.819 77.8298C317.057 70.4749 307.811 63.2937 295.383 63.2618C296.097 58.5004 294.096 53.8171 289.945 50.7605C284.136 46.4882 275.85 46.4419 268.495 50.5434C267.083 47.4521 262.59 40.2159 251.453 40.1927C251.433 40.1927 251.41 40.1927 251.395 40.1927C237.393 40.1927 232.787 51.3886 231.694 54.8794C229.298 54.7694 226.763 55.2412 224.231 56.454C218.167 59.3658 216.749 62.8913 216.621 65.3372C216.464 68.44 218.373 71.5921 221.595 73.5633C224.904 75.5837 228.712 75.8297 231.546 74.1972C232.1 73.8759 232.291 73.1668 231.972 72.6139C231.653 72.0611 230.94 71.8671 230.383 72.1884C228.295 73.3925 225.391 73.1639 222.807 71.5835C220.31 70.0581 218.831 67.7106 218.944 65.4558C219.078 62.845 221.253 60.457 225.238 58.5467C227.607 57.4091 229.98 57.0358 232.195 57.2471C232.233 57.2586 232.268 57.2673 232.306 57.276C232.419 57.2992 232.532 57.3078 232.642 57.2963C234.023 57.4786 235.339 57.8867 236.552 58.4743V58.4772ZM238.962 57.1573C242.9 52.8474 247.439 50.9602 251.865 51.8315C257.216 52.8851 261.83 57.7652 263.91 64.5643L264.501 66.4921L265.876 65.0159C271.163 59.3369 275.917 57.386 279.606 59.3977C283.527 61.5251 285.383 67.8612 284.362 71.8932L283.869 73.8354L285.804 73.2912C293.373 71.1638 300.111 72.7007 304.777 77.6127C309.638 82.7302 311.375 90.6611 309.099 97.3531L308.843 98.0999L309.447 98.6093C316.021 104.155 318.182 110.758 315.381 116.723C313.159 121.45 308.223 124.57 304.171 123.867L303.13 123.684L302.846 124.697C301.546 129.355 299.273 132.553 296.088 134.206C293.695 135.45 291.16 135.613 289.217 135.462C294.194 132.501 298.211 127.016 300 120.173C302.402 110.989 300.523 98.6904 288.051 91.7204C277.466 85.807 264.15 86.5683 253.301 93.7148C244.655 99.4082 238.901 108.126 236.729 118.309C231.949 106.375 219.049 99.1419 203.48 99.8829C196.986 100.178 190.084 101.973 184.092 105.365C185.284 93.3298 196.754 82.9617 196.879 82.8546C197.358 82.4262 197.398 81.6939 196.972 81.2163C196.543 80.7387 195.806 80.6982 195.33 81.1237C194.779 81.6158 181.977 93.1677 181.673 106.859C176.435 110.37 172.114 115.232 169.724 121.525C159.312 92.557 177.937 71.4358 178.132 71.2188C178.561 70.7441 178.523 70.0089 178.045 69.5805C177.569 69.1521 176.832 69.1897 176.403 69.6644C176.194 69.8931 156.029 92.6988 168.062 123.722C164.138 123.806 160.405 126.162 157.401 130.504C153.787 135.723 151.397 143.818 151.223 151.529C142.491 135.436 129.1 126.97 122.615 123.612C129.439 122.445 135.437 120.023 139.611 116.248C148.871 107.875 149.422 93.7929 145.243 84.7968C141.742 77.2596 135.452 73.5025 127.995 74.4895C119.306 75.6387 113.189 80.3885 111.217 87.5176C109.668 93.1156 111.153 99.2432 114.744 102.083C115.605 102.763 116.533 103.281 117.511 103.637C115.164 103.683 112.566 103.258 109.976 102.332C103.07 99.8569 95.6021 93.5208 95.3556 83.1499C95.2076 76.8457 99.065 70.3562 105.425 66.22C114.52 60.3036 126.467 60.0663 138.204 65.5716L141.055 66.9089L139.756 64.0433C136.38 56.5987 141.467 48.6215 148.114 45.5041C154.44 42.5373 163.111 43.313 168.512 54.3699L169.414 56.2137L170.53 54.4915C174.646 48.1555 179.196 44.8297 184.057 44.6126C190.641 44.3058 196.055 49.7735 197.645 51.5623C192.297 62.6366 195.719 73.2275 201.029 79.5925C207.914 87.8331 220.734 93.0374 233.875 86.0646C246.845 79.1815 247.773 69.4879 244.623 63.2792C243.376 60.816 241.392 58.6654 238.956 57.1573H238.962ZM109.268 111.096C119.593 111.096 127.322 106.477 131.249 97.8568C131.867 96.6932 132.212 95.4746 132.212 94.2965C132.212 93.6569 131.69 93.1387 131.049 93.1387C130.405 93.1387 129.886 93.6569 129.886 94.2965C129.886 95.0896 129.648 95.9261 129.219 96.7424C129.187 96.7916 129.161 96.8408 129.135 96.8958L129.132 96.9016C128.398 98.2215 127.171 99.4806 125.663 100.407C125.55 100.45 125.443 100.514 125.347 100.595C125.135 100.717 124.921 100.829 124.697 100.937C123.262 101.628 119.57 102.945 116.191 100.274C113.346 98.0218 112.174 92.8059 113.462 88.1429C115.179 81.9486 120.585 77.8153 128.305 76.7936C134.686 75.9484 140.095 79.222 143.14 85.7781C146.969 94.0274 146.49 106.908 138.053 114.538C124.242 127.03 87.4669 123.325 72.4667 107.924C64.694 99.9437 61.4516 86.4148 64.2155 73.4533C66.6401 62.0722 73.2324 53.4669 82.3015 49.8487L83.2354 49.4753L83.0004 48.4999C81.5561 42.5488 83.3166 36.9104 87.7105 33.4167C93.8213 28.5569 103.586 28.7045 113.836 33.819L115.025 34.4095L115.457 33.1562C123.636 9.4098 149.219 -0.0696614 170.263 2.83351C182.824 4.56731 196.528 11.378 197.311 25.2948L197.404 26.8983L198.898 26.3078C206.612 23.2599 212.581 22.8518 216.638 25.095C219.408 26.6262 220.531 29.0142 220.94 30.2328C215.049 33.1765 209.704 36.8872 205.356 41.1768C201.908 37.5877 188.567 26.1139 169.753 39.9264C158.245 32.1431 147.856 34.8582 142.636 37.2114C135.489 40.4272 129.773 46.688 128.54 52.4683C106.899 49.2496 91.5475 56.6566 85.2453 73.407C81.7649 82.6462 82.403 92.1749 86.997 99.5443C91.0748 106.094 97.6758 110.129 105.576 110.911C106.838 111.035 108.067 111.099 109.265 111.099L109.268 111.096ZM122.119 105.27C117.856 108.08 112.313 109.244 105.805 108.601C98.6415 107.895 92.6641 104.242 88.975 98.3199C84.7667 91.5641 84.2011 82.7823 87.4233 74.2233C95.0945 53.846 114.445 52.4885 129.318 54.9372L130.533 55.137L130.66 53.9126C131.136 49.3451 135.73 42.8672 143.595 39.3244C148.474 37.1274 158.28 34.5948 169.109 42.2999L169.805 42.7978L170.487 42.2796C188.573 28.5048 200.852 39.6717 203.758 42.8354C202.993 43.6661 202.262 44.5171 201.572 45.3854C200.51 46.7227 199.597 48.0628 198.813 49.3972C196.502 46.9629 190.913 42.0018 183.973 42.2999C178.77 42.5315 173.97 45.6633 169.689 51.6202C163.471 40.7137 153.781 40.294 147.134 43.4085C140.237 46.6387 134.845 54.4944 136.748 62.4079C125.066 57.687 113.308 58.3267 104.161 64.2778C97.1305 68.8511 92.8671 76.1047 93.0354 83.2049C93.3109 94.751 101.565 101.785 109.198 104.517C111.933 105.495 114.657 105.973 117.174 105.973C118.952 105.973 120.625 105.736 122.122 105.267L122.119 105.27ZM63.6093 170.225C68.2962 170.228 72.5508 168.61 74.3983 165.837C74.7521 165.304 74.6071 164.583 74.0706 164.227C73.5427 163.88 72.8176 164.016 72.4609 164.555C70.5178 167.478 64.3315 168.731 58.9399 167.301C56.3761 166.618 50.3581 164.262 49.8911 157.142L49.8274 156.134L48.818 156.059C44.5605 155.741 40.6248 151.043 40.2275 145.807C39.981 142.617 40.8713 134.866 54.3314 131.766L55.2827 131.549L55.2305 130.576C54.9492 125.253 56.3471 121.166 59.3866 118.428C65.0856 113.284 74.9667 114.225 76.7417 114.448C86.4112 120.952 99.9611 124.446 112.496 124.446C114.489 124.446 116.455 124.356 118.378 124.179C121.284 125.386 141.557 134.51 151.58 157.55C151.945 160.025 152.595 162.355 153.572 164.41C148.796 165.759 145.962 169.139 145.904 173.681C145.805 181.89 155.014 192.521 172.279 196.044C174.24 196.443 176.113 196.834 177.929 197.216C200.191 201.879 213.625 204.692 252.053 193.653C255.516 192.657 258.791 191.705 261.9 190.799C295.505 181.03 309.421 176.978 332.904 185.994C339.685 188.596 346.822 192.223 354.38 196.064C370.404 204.203 388.075 213.176 405.213 213.179C410.39 213.179 415.515 212.36 420.535 210.455C428.505 207.428 434.126 203.326 438.067 198.854C434.045 205.52 427.435 211.816 416.628 215.495C387.078 225.562 364.978 210.036 348.838 198.701C333.754 188.104 303.666 183.123 275.337 194.122C272.144 195.361 268.875 196.695 265.516 198.064C240.287 208.351 211.688 220.013 172.47 211.098C129.842 201.41 104.738 168.005 103.012 165.646C103.801 162.21 104.001 158.256 103.511 154.158C102.371 144.617 97.8643 136.886 91.4634 133.479C84.5115 129.78 76.1268 130.521 70.0972 135.364C65.1697 139.323 63.0583 145.124 64.5781 150.508C66.4893 157.272 71.9186 159.023 76.3502 158.41C80.1437 157.886 84.0677 155.553 84.0677 152.563C84.0677 151.923 83.5457 151.402 82.9047 151.402C82.2638 151.402 81.7417 151.92 81.7417 152.563C81.7417 153.813 79.1924 155.674 76.0283 156.111C73.8675 156.407 68.6558 156.395 66.8112 149.879C65.5467 145.405 67.3623 140.536 71.5502 137.17C76.8548 132.909 84.2418 132.261 90.3671 135.523C96.1009 138.574 100.15 145.642 101.2 154.433C102.139 162.306 100.318 169.773 96.6693 173.015C85.4715 182.958 72.7017 174.488 72.574 174.402L71.675 173.791L71.005 174.648C64.1256 183.45 53.035 185.49 45.6481 183.649C39.5111 182.127 35.4449 178.167 34.4937 172.792L34.3052 171.73L33.2321 171.843C23.6293 172.815 15.5318 170.158 9.82992 164.129C3.83218 157.79 1.18713 148.218 2.75036 138.536C5.54043 121.273 22.9622 118.868 23.7018 118.772L24.8184 118.631L24.7169 117.516C24.1919 111.86 28.5859 107.747 32.3649 105.296C42.5361 98.6933 58.2758 96.9219 64.4562 100.007C66.063 103.628 68.1917 106.873 70.7933 109.548C71.5908 110.367 72.4406 111.151 73.3426 111.907C69.1053 111.863 62.4376 112.552 57.8262 116.703C54.43 119.759 52.7624 124.142 52.8668 129.74C42.8928 132.316 37.3156 138.339 37.8986 145.989C38.3568 152.027 42.6347 157.298 47.6522 158.25C48.3772 163.837 52.2229 167.927 58.3309 169.55C60.0797 170.016 61.8663 170.234 63.5977 170.234L63.6093 170.225ZM153.86 157.341C153.88 157.153 153.854 156.956 153.775 156.768C152.615 148.27 155.081 137.957 159.318 131.832C161.415 128.802 164.912 125.346 169.646 126.165L170.701 126.344L170.962 125.328L170.971 125.302C174.834 110.205 190.136 102.827 203.587 102.216C218.515 101.518 230.812 108.549 234.907 120.084C235.319 121.238 235.664 122.376 235.948 123.493C235.673 126.524 235.696 129.653 236.038 132.845C236.183 134.191 236.375 135.488 236.613 136.741C235.229 144.895 230.58 151.13 225.644 154.728C219.231 159.397 211.934 160.013 207.042 156.299C198.993 150.183 196.83 139.841 198.88 133.213C200.15 129.114 202.888 126.66 206.398 126.48C209.127 126.347 211.128 127.019 212.346 128.495C214.933 131.621 213.535 137.422 213.518 137.477C213.364 138.102 213.744 138.727 214.368 138.886C214.982 139.031 215.62 138.663 215.777 138.038C215.847 137.754 217.474 131.062 214.15 127.025C212.436 124.949 209.768 123.965 206.282 124.165C201.746 124.396 198.236 127.447 196.664 132.53C194.321 140.09 196.653 151.318 205.638 158.143C211.357 162.497 219.753 161.892 227.018 156.598C231.67 153.208 235.679 147.934 237.764 141.43C242.062 155.509 252.448 162.685 261.761 164.725C270.641 166.662 278.985 164.274 282.976 158.748C288.133 161.498 293.133 163.513 297.918 164.777C290.586 165.281 282.384 166.488 273.17 168.607C236.256 177.099 210.095 179.351 193.779 164.346C184.359 155.686 182.891 143.034 184.657 134.081C186.319 125.664 190.754 119.363 196.516 117.227C203.042 114.81 209.863 115.357 215.232 118.732C220.194 121.852 223.347 126.99 223.875 132.825C224.681 141.671 219.713 144.707 218.176 145.428C215.823 146.528 213.306 146.328 211.908 144.93C211.453 144.478 210.719 144.478 210.264 144.93C209.808 145.381 209.808 146.117 210.264 146.571C212.387 148.687 215.873 149.063 219.159 147.529C223.048 145.711 226.937 140.837 226.186 132.617C225.586 126.052 222.047 120.28 216.467 116.769C210.481 113.007 202.914 112.378 195.702 115.053C189.176 117.473 184.19 124.417 182.369 133.633C180.481 143.202 182.07 156.742 192.192 166.054C209.26 181.748 236.024 179.531 273.678 170.867C312.988 161.819 333.336 169.663 346.674 177.504L349.055 178.911C363.838 187.65 386.106 200.811 410.3 200.811C410.555 200.811 410.811 200.808 411.066 200.805C426.098 200.631 434.799 192.767 439.483 186.095C432.948 196.374 418.572 206.412 391.997 201.381C376.025 198.356 365.303 192.481 354.931 186.802C342.887 180.196 331.509 173.965 313.069 172.346C294.505 170.728 277.234 174.381 258.944 178.248C242.912 181.641 226.337 185.155 206.899 185.725C172.03 186.752 159.892 170.801 157.067 166.063L157.14 166.048L156.299 164.612C155.069 162.52 154.271 160.033 153.848 157.344L153.86 157.341ZM405.248 205.002C425.176 205.002 438.035 195.575 443.479 183.927L443.456 184.063C441.083 193.094 434.709 202.585 419.714 208.276C399.038 216.131 375.877 204.362 355.445 193.986C347.832 190.119 340.639 186.466 333.748 183.82C309.531 174.523 295.398 178.636 261.256 188.561C258.15 189.467 254.878 190.417 251.413 191.413C213.544 202.287 201.061 199.676 178.413 194.935C176.592 194.556 174.712 194.159 172.752 193.76C156.708 190.486 148.143 180.978 148.233 173.695C148.279 170.083 150.603 167.501 154.654 166.514C156.902 170.85 168.683 189.184 206.983 188.035C226.627 187.456 243.309 183.922 259.443 180.506C277.555 176.671 294.673 173.05 312.881 174.642C330.836 176.216 342.005 182.338 353.829 188.819C364.357 194.588 375.245 200.553 391.579 203.645C396.454 204.568 401.016 204.993 405.251 204.993L405.248 205.002ZM437.49 185.074C433.131 191.221 425.071 198.316 411.046 198.481C387.269 198.666 364.963 185.609 350.247 176.911L347.858 175.501C340.61 171.241 331.361 166.98 318.324 165.269C319.931 164.844 321.489 164.294 322.994 163.623C325.439 162.528 327.695 161.127 329.751 159.434C336.364 158.904 343.029 163.819 351.434 170.011C362.603 178.237 376.503 188.475 398.073 192.782C418.261 196.817 430.425 191.349 437.487 185.074H437.49Z" fill="#3F3F3F"/>
<path d="M660.549 238.718C665.84 238.718 671.013 240.36 675.732 243.676C686.797 251.462 694.365 268.661 687.422 286.477C684.251 294.609 676.025 301.626 664.264 306.238C649.966 311.841 609.67 321.439 544.465 289.632C479.34 257.858 439.934 289.931 427.624 302.836C434.785 289.641 450.915 278.435 473.86 270.877C495.361 263.798 526.977 269.354 552.52 284.712C579.219 300.772 605.817 302.423 606.087 302.437C606.603 302.504 607.062 302.063 607.091 301.536C607.124 301.009 606.717 300.559 606.191 300.525C605.926 300.511 579.777 298.879 553.5 283.07C527.105 267.195 495.617 261.696 473.263 269.059C450.531 276.546 434.316 287.63 426.616 300.744C431.42 284.75 446.655 271.128 461.275 264.016C474.726 257.468 487.05 256.429 494.24 261.236L496.057 262.45L495.716 260.292C494.689 253.844 497.581 248.326 503.265 245.887C509.574 243.183 519.13 244.672 526.324 254.057C526.811 255.485 530.309 264.576 540.328 264.694C540.38 264.694 540.437 264.694 540.494 264.694C546.562 264.694 549.69 260.614 550.528 257.094C551.408 253.398 550.234 248.658 545.634 246.39C542.42 244.8 539.344 245.275 537.418 247.657C535.771 249.702 535.435 252.629 536.665 254.19C536.992 254.603 537.598 254.674 538.009 254.347C538.421 254.019 538.492 253.417 538.165 252.999C537.574 252.249 537.768 250.271 538.909 248.857C539.699 247.88 541.507 246.49 544.796 248.103C548.45 249.906 549.378 253.692 548.672 256.648C547.996 259.49 545.449 262.778 540.489 262.778C540.442 262.778 540.399 262.778 540.352 262.778C534.474 262.706 531.199 259.167 529.537 256.439L528.056 253.217L528.051 253.213L528.042 253.198V253.194L528.032 253.17C527.308 251.547 526.613 245.166 529.291 240.094C531.137 236.592 534.171 234.467 538.303 233.779C549.785 231.862 555.502 242.855 556.378 244.696C556.297 245.427 556.245 246.157 556.207 246.898C555.507 261.35 563.515 274.9 577.619 283.137C589.749 290.225 603.153 291.264 611.771 285.803C620.589 280.209 623.05 271.527 622.383 264.234C626.136 261.924 650.785 247.68 667.459 260.709C676.721 267.944 676.92 277.059 674.014 283.179C670.838 289.874 662.437 295.933 651.504 293.409C643.747 291.62 639.937 286.961 641.309 280.949C642.616 275.237 648.617 269.89 654.67 271.27C661.647 272.865 662.219 277.083 662.139 278.819C662.002 281.875 659.829 284.546 657.193 284.902C654.476 285.257 653.189 284.057 652.597 282.975C651.797 281.5 652.015 279.972 652.242 279.711C652.635 279.355 652.659 278.757 652.309 278.364C651.958 277.97 651.343 277.946 650.96 278.297C649.952 279.203 649.852 281.595 650.742 283.521C651.892 286.026 654.344 287.222 657.449 286.795C660.97 286.32 663.871 282.852 664.046 278.904C664.254 274.283 660.904 270.73 655.096 269.406C647.751 267.731 640.959 273.918 639.449 280.518C638.186 286.064 640.571 292.849 651.078 295.273C652.867 295.686 654.656 295.885 656.407 295.885C664.69 295.885 672.215 291.43 675.741 284C678.964 277.211 678.789 267.128 668.637 259.2C651.845 246.082 627.83 258.797 622.108 262.175C622.028 261.724 621.938 261.283 621.834 260.847C619.581 251.334 612.311 244.62 603.314 243.738C595.026 242.926 588.722 246.157 586.498 252.397C584.283 258.621 586.786 265.885 592.456 269.672C595.012 271.384 599.215 272.528 602.817 271.247C604.762 270.554 607.346 268.846 608.643 264.638C610.058 260.05 608.704 256.249 605.027 254.479C602.031 253.032 598.387 253.45 597.076 255.39C596.778 255.827 596.891 256.42 597.327 256.719C597.757 257.018 598.354 256.904 598.652 256.467C599.333 255.462 601.96 255.12 604.199 256.202C605.841 256.994 608.364 259.072 606.821 264.073C605.969 266.844 604.407 268.647 602.178 269.444C599.196 270.507 595.68 269.524 593.517 268.082C588.571 264.775 586.375 258.451 588.301 253.042C590.237 247.605 595.651 244.9 603.129 245.645C611.303 246.447 617.915 252.586 619.978 261.293C620.168 262.099 620.319 262.934 620.418 263.798C620.418 263.836 620.423 263.878 620.433 263.916C621.204 270.706 619.041 278.942 610.754 284.195C602.732 289.281 590.104 288.223 578.584 281.49C565.105 273.619 557.457 260.723 558.119 246.997C558.157 246.262 558.214 245.531 558.294 244.81C558.318 244.72 558.328 244.63 558.328 244.54C559.979 230.51 569.8 218.535 582.91 214.938C595.878 211.38 608.331 216.94 617.049 230.197L618.213 231.966L618.767 229.926C619.884 225.827 622.894 223.018 627.035 222.235C631.531 221.372 636.141 223.118 638.787 226.672C642.294 231.378 641.939 238.429 637.779 246.523L635.483 250.997L639.255 247.68C646.009 241.75 653.397 238.732 660.568 238.732L660.549 238.718ZM424.969 308.843L425.021 308.771C425.982 307.452 466.235 253.611 543.627 291.354C579.758 308.976 608.383 313.995 629.259 314C646.454 314 658.395 310.593 664.96 308.022C677.227 303.216 685.836 295.814 689.202 287.179C696.504 268.447 688.506 250.328 676.83 242.115C665.939 234.453 652.834 235.107 641.139 243.69C644.911 234.073 642.351 228.261 640.301 225.514C637.225 221.381 631.872 219.36 626.661 220.347C622.496 221.139 619.202 223.787 617.555 227.573C608.515 214.9 595.486 209.501 582.39 213.088C569.379 216.66 559.43 228.024 556.823 241.645C554.248 237.575 548.095 230.197 537.981 231.895C533.3 232.678 529.703 235.202 527.597 239.202C525.704 242.789 525.268 247.026 525.505 250.186C518.022 242.438 508.817 241.422 502.508 244.136C496.559 246.689 493.269 252.155 493.619 258.669C485.734 254.631 473.538 255.931 460.437 262.308C443.086 270.753 424.874 288.194 423.274 308.131L423.27 308.188V308.216L423 311.623L424.974 308.852L424.969 308.843Z" fill="#3F3F3F"/>
</g>
</svg>
