<svg width="197" height="198" viewBox="0 0 197 198" fill="none" xmlns="http://www.w3.org/2000/svg">
<path d="M75.321 3.7156C57.3484 9.08115 46.758 26.9465 51.7123 43.5416C56.6377 60.0398 81.0441 87.9595 98.8815 82.6343C116.717 77.3097 121.825 40.5788 116.899 24.0806C111.945 7.48546 93.2935 -1.64995 75.321 3.7156ZM99.4256 84.4567C79.8048 90.3143 54.7812 61.0214 49.7386 44.1308C44.4844 26.5309 55.7162 7.58363 74.7769 1.89322C93.8376 -3.79719 113.619 5.89148 118.873 23.4914C123.915 40.382 119.046 78.5991 99.4256 84.4567Z" fill="#494949"/>
<path d="M78.1629 12.9431C64.0452 17.1579 56.1135 32.4932 60.4831 47.1296C64.8336 61.7021 84.9487 86.7939 98.9615 82.6105C112.976 78.4265 116.043 46.4139 111.693 31.8414C107.323 17.205 92.2806 8.72842 78.1629 12.9431ZM99.5061 84.4345C83.8503 89.1084 62.9849 62.71 58.5099 47.7205C53.8409 32.0809 62.413 15.6604 77.6189 11.1208C92.8248 6.58118 109 15.6137 113.669 31.2533C118.144 46.2428 115.164 79.76 99.5061 84.4345Z" fill="#494949"/>
<path d="M99.4256 84.4567C98.8797 84.6197 98.3167 84.3425 98.1667 83.8401L81.2838 27.289C81.1329 26.7833 81.4545 26.2456 81.9986 26.0832C82.5445 25.9203 83.107 26.1958 83.2575 26.6998L100.14 83.2509C100.29 83.7533 99.9696 84.2943 99.4256 84.4567Z" fill="#494949"/>
<path d="M70.4435 46.5682C70.1018 47.162 69.5676 47.6236 68.9556 47.9672C74.513 54.5173 85.4306 69.0067 91.8558 84.5673C92.0432 85.0263 92.5788 85.2509 93.0838 85.1001C93.1158 85.0905 93.1473 85.0794 93.1771 85.0687C93.7034 84.8597 93.9711 84.297 93.7713 83.8095C87.5287 68.6915 76.5778 53.5719 70.444 46.5698L70.4435 46.5682Z" fill="#494949"/>
<path d="M104.341 36.6342C104.016 36.5239 103.693 36.4131 103.373 36.3029C103.366 36.2995 103.358 36.2929 103.352 36.2896C102.047 44.9563 99.937 64.3166 103.856 80.8418C103.975 81.3515 104.522 81.6586 105.073 81.5208C105.091 81.5171 105.109 81.5118 105.127 81.5065C105.648 81.351 105.973 80.8428 105.855 80.3505C102.04 64.2503 104.054 45.3565 105.34 36.7153C105.008 36.725 104.674 36.7031 104.342 36.6359L104.341 36.6342Z" fill="#494949"/>
<path d="M152.036 33.5155C149.554 34.2566 147.133 35.2672 144.813 36.5391C136.313 41.2048 126.009 51.1704 119.177 61.3352C114.515 68.2666 107.488 81.2219 112.779 90.0973C121.614 104.928 160.825 99.682 177.115 90.7365C193.492 81.7437 199.571 62.2714 190.667 47.329C186.353 40.0913 179.209 34.9787 170.549 32.9419C164.417 31.5002 158.049 31.717 152.037 33.5117L152.036 33.5155ZM166 97.2251C146.712 102.983 118.804 104.22 110.975 91.0865C105.181 81.3634 112.549 67.668 117.457 60.3665C124.461 49.9498 135.061 39.7154 143.836 34.8981C152.256 30.2814 161.942 28.924 171.127 31.0848C180.315 33.2467 187.891 38.6665 192.469 46.3442C201.909 62.1918 195.46 82.844 178.091 92.3818C174.841 94.1672 170.673 95.8301 166.002 97.2246L166 97.2251Z" fill="#494949"/>
<path d="M142.706 44.9038C128.229 52.852 105.712 78.2455 112.785 90.1116C115.855 95.2623 124.883 97.6488 137.55 96.6583C148.526 95.8025 160.981 92.4313 168.554 88.2731C175.614 84.3987 180.901 78.488 183.433 71.6379C185.955 64.82 185.445 57.8858 182.003 52.108C178.561 46.3318 172.591 42.3957 165.191 41.0268C157.754 39.6477 149.771 41.0278 142.707 44.9032L142.706 44.9038ZM157.146 94.876C150.939 96.7291 144.036 98.0692 137.637 98.5707C129.715 99.1887 115.718 99.0418 110.985 91.1013C103.096 77.8608 126.84 51.4357 141.731 43.26C149.237 39.1433 157.741 37.6792 165.674 39.1465C173.643 40.6207 180.08 44.8752 183.802 51.1237C187.524 57.3689 188.079 64.8527 185.366 72.1947C182.664 79.5029 177.041 85.7968 169.532 89.9195C166.16 91.7721 161.85 93.4736 157.145 94.8782L157.146 94.876Z" fill="#494949"/>
<path d="M112.15 91.5047C111.7 91.639 111.208 91.4782 110.975 91.0865C110.706 90.6338 110.891 90.0459 111.387 89.7728L167.201 59.1249C167.707 58.8524 168.32 58.9984 168.591 59.4522C168.86 59.9048 168.675 60.4928 168.179 60.7659L112.366 91.4132C112.296 91.4519 112.224 91.4808 112.149 91.5031L112.15 91.5047Z" fill="#494949"/>
<path d="M162.521 81.2517C153.212 82.3339 132.519 86.6235 115.58 94.0945C115.059 94.3231 114.819 94.8954 115.041 95.3727C115.263 95.8484 115.877 96.0621 116.385 95.8208C133.887 88.1067 154.102 84.3034 162.523 83.1644C162.371 82.5376 162.354 81.8791 162.521 81.25L162.521 81.2517Z" fill="#494949"/>
<path d="M144.386 52.343C144.32 52.2 144.257 52.058 144.188 51.9177C138.911 58.5284 125.332 74.3999 109.48 84.1515C108.998 84.451 108.848 85.0447 109.142 85.4861C109.386 85.8462 109.859 85.9873 110.286 85.8599C110.377 85.8328 110.466 85.7937 110.549 85.742C126.373 76.006 139.932 60.328 145.503 53.3989C145.064 53.1151 144.673 52.7794 144.387 52.3446L144.386 52.343Z" fill="#494949"/>
<path d="M27.5 70.6948C21.4884 72.4895 16.0435 75.7995 11.7076 80.3661C5.5802 86.8195 2.40764 95.0102 2.77099 103.427C3.129 111.846 6.98359 119.484 13.6196 124.938C20.2544 130.394 28.8774 133.007 37.9002 132.302C56.4277 130.858 92.0935 113.743 91.3562 96.4965C90.9152 86.1713 77.9344 79.191 70.2373 75.9494C58.9486 71.1925 44.8703 68.5077 35.2012 69.2665C32.5656 69.474 29.9849 69.9565 27.5028 70.6976L27.5 70.6948ZM50.7487 131.632C46.0742 133.028 41.6802 133.923 37.9837 134.21C18.2261 135.756 1.51241 122.019 0.721843 103.589C0.339038 94.6587 3.70446 85.9722 10.203 79.1274C16.702 72.2841 25.5522 68.1078 35.1184 67.3547C45.0983 66.5729 59.5738 69.3233 71.1439 74.1928C79.2492 77.6076 92.9197 85.0239 93.4044 96.3321C94.0552 111.608 70.0352 125.875 50.7505 131.632L50.7487 131.632Z" fill="#494949"/>
<path d="M34.0313 77.7373C29.0172 79.2343 24.482 81.7773 20.8221 85.1963C15.3986 90.2647 12.5649 96.652 12.8478 103.178C13.1259 109.708 16.4875 115.61 22.3057 119.797C28.1619 124.013 35.8041 125.988 43.8179 125.36C60.2443 124.072 91.9539 110.453 91.3772 97.0338C91.1273 91.2148 84.3624 85.4722 72.8122 81.2727C62.8065 77.6349 50.3092 75.6403 41.7147 76.3143C39.071 76.5207 36.4922 77.0027 34.0296 77.7379L34.0313 77.7373ZM57.3061 124.55C52.388 126.018 47.7263 126.97 43.9007 127.272C35.3876 127.939 27.2577 125.83 21.0127 121.336C14.7326 116.815 11.1036 110.426 10.7997 103.343C10.497 96.2573 13.5532 89.344 19.4067 83.8736C25.2229 78.4341 33.1158 75.0728 41.6325 74.4042C50.5042 73.7118 63.3619 75.7525 73.6262 79.4848C80.8534 82.1121 93.038 87.8657 93.4233 96.8754C93.922 108.483 74.1158 119.532 57.3043 124.551L57.3061 124.55Z" fill="#494949"/>
<path d="M92.6515 97.3257C92.5768 97.348 92.5001 97.3637 92.4188 97.3701L28.9372 102.337C28.3712 102.381 27.8957 101.988 27.8728 101.464C27.8502 100.934 28.2904 100.476 28.8554 100.429L92.337 95.4616C92.903 95.4178 93.3785 95.8105 93.4013 96.3348C93.4206 96.7885 93.0982 97.1941 92.6502 97.3279L92.6515 97.3257Z" fill="#494949"/>
<path d="M91.2008 101.373C72.8276 104.429 53.0425 112.26 44.7519 116.443C45.1746 116.925 45.4694 117.504 45.622 118.125C53.0647 114.533 72.3402 106.449 91.4737 103.26C92.0308 103.186 92.4278 102.667 92.3522 102.148C92.2761 101.627 91.7619 101.28 91.2013 101.374L91.2008 101.373Z" fill="#494949"/>
<path d="M90.8513 89.713C72.9121 90.2281 53.6135 84.821 45.0529 82.0732C44.9081 82.7101 44.5807 83.3067 44.0718 83.8073C52.6454 86.5727 72.4094 92.1574 90.8284 91.6277C90.9269 91.6269 91.0223 91.6091 91.113 91.5821C91.5397 91.4547 91.8588 91.0769 91.8646 90.6424C91.8694 90.1135 91.4197 89.697 90.8508 89.7113L90.8513 89.713Z" fill="#494949"/>
<path d="M125.957 102.712C122.923 103.618 120.164 105.071 118.008 107.294C110.404 115.125 113.723 128.916 116.376 136.442C120.272 147.474 127.612 158.867 134.647 164.792C148.196 176.207 169.637 174.761 182.437 161.579C188.643 155.191 191.918 147.034 191.664 138.606C191.41 130.179 187.655 122.494 181.093 116.962C174.063 111.04 161.158 105.376 148.981 102.871C143.034 101.644 133.613 100.428 125.955 102.714L125.957 102.712ZM167.464 172.788C164.698 173.614 161.821 174.137 158.879 174.335C149.305 174.98 140.199 172.105 133.239 166.24C125.982 160.126 118.424 148.419 114.43 137.111C111.635 129.189 108.189 114.62 116.522 106.04C130.501 91.6317 168.713 103.893 182.502 115.514C189.464 121.378 193.445 129.529 193.715 138.465C193.984 147.403 190.51 156.055 183.928 162.83C179.372 167.522 173.701 170.924 167.466 172.786L167.464 172.788Z" fill="#494949"/>
<path d="M123.644 104.327C121.16 105.069 119.038 106.231 117.415 107.902C106.645 118.993 121.835 148.474 134.138 158.839C146.499 169.25 165.379 168.636 176.238 157.457C187.086 146.281 185.86 128.719 173.504 118.305C163.052 109.503 137.657 100.144 123.644 104.327ZM164.3 166.77C153.785 169.909 141.652 167.806 132.73 160.286C120.094 149.639 103.956 118.975 115.927 106.647C127.897 94.3189 162.27 106.208 174.908 116.858C188.085 127.962 189.349 146.739 177.724 158.712C173.968 162.58 169.316 165.272 164.299 166.77L164.3 166.77Z" fill="#494949"/>
<path d="M163.706 146.475C163.372 146.575 163.001 146.517 162.73 146.287L116.561 107.389C116.151 107.043 116.132 106.439 116.521 106.039C116.908 105.641 117.556 105.594 117.969 105.939L164.14 144.838C164.551 145.184 164.568 145.788 164.179 146.189C164.045 146.325 163.882 146.421 163.708 146.473L163.706 146.475Z" fill="#494949"/>
<path d="M139.798 147.234C135.791 138.904 126.248 123.038 114.698 111.193C114.327 110.81 113.679 110.796 113.252 111.161C112.827 111.526 112.783 112.134 113.157 112.516C125.431 125.101 134.6 141.305 138.196 148.651C138.547 148.082 139.069 147.586 139.8 147.234L139.798 147.234Z" fill="#494949"/>
<path d="M163.522 121.468C163.557 121.422 163.595 121.375 163.631 121.328C154.702 118.622 136.472 112.286 123.167 102.268C122.737 101.943 122.089 102.023 121.724 102.436C121.359 102.855 121.41 103.454 121.841 103.782C135.41 113.996 153.971 120.441 163.01 123.178C163.047 122.581 163.201 122.009 163.52 121.467L163.522 121.468Z" fill="#494949"/>
<path d="M48.9442 156.413C46.4883 164.636 47.5616 173.122 51.969 180.309C56.3768 187.497 63.5882 192.523 72.2794 194.463C90.2171 198.471 108.939 187.923 114.01 170.951C116.644 162.142 116.54 148.587 113.746 137.226C111.842 129.478 107.059 116.123 96.4021 113.742C78.5888 109.762 53.9875 139.536 48.942 156.411L48.9442 156.413ZM90.9489 195.61C84.8519 197.43 78.2385 197.786 71.7232 196.33C62.5044 194.27 54.8556 188.94 50.1808 181.318C45.5078 173.696 44.368 164.695 46.976 155.976C52.1416 138.698 77.3884 107.499 96.9639 111.881C108.637 114.488 113.743 128.561 115.747 136.72C118.606 148.367 118.703 162.299 115.984 171.393C112.446 183.227 102.652 192.117 90.9511 195.611L90.9489 195.61Z" fill="#494949"/>
<path d="M89.1729 114.066C75.5601 118.13 59.8216 139.515 55.9804 152.361C51.4493 167.522 59.7444 182.535 74.469 185.828C89.1963 189.116 104.868 179.461 109.398 164.298C113.908 149.204 110.657 116.927 96.039 113.661C93.8648 113.176 91.5488 113.358 89.1716 114.068L89.1729 114.066ZM88.9883 187.09C84.1431 188.536 78.9787 188.823 73.9136 187.69C58.0983 184.156 49.1711 168.109 54.0094 151.921C58.6482 136.402 80.3256 108.165 96.5975 111.795C112.877 115.432 116.007 149.216 111.369 164.737C108.083 175.739 99.2659 184.023 88.9888 187.091L88.9883 187.09Z" fill="#494949"/>
<path d="M79.6686 171.564C79.4926 171.616 79.3038 171.626 79.1173 171.585C78.5736 171.463 78.2553 170.949 78.4096 170.434L95.6961 112.59C95.8522 112.075 96.4219 111.758 96.9616 111.88C97.5054 112.002 97.8201 112.518 97.6694 113.031L80.3823 170.873C80.2804 171.213 80.0016 171.466 79.6691 171.565L79.6686 171.564Z" fill="#494949"/>
<path d="M102.504 114.372C101.95 114.298 101.416 114.664 101.312 115.191C98.1036 131.643 98.8814 150.413 100.126 159.446C100.532 159.127 101.027 158.859 101.632 158.679C101.794 158.63 101.942 158.615 102.098 158.584C101.103 150.091 100.069 132.154 103.326 115.451C103.428 114.929 103.06 114.444 102.502 114.371L102.504 114.372Z" fill="#494949"/>
<path d="M90.6332 111.718C90.1036 111.572 89.5188 111.858 89.3344 112.369C83.4965 128.601 71.0622 144.442 65.3118 151.236C65.9155 151.546 66.3956 152.013 66.74 152.57C72.5126 145.764 85.2837 129.56 91.273 112.908C91.4543 112.399 91.1714 111.867 90.6332 111.718Z" fill="#494949"/>
<path d="M96.7839 91.8703C99.9613 90.9217 98.606 86.3625 95.4233 87.3127C92.2477 88.2607 93.603 92.8199 96.7839 91.8703Z" fill="#494949"/>
<path d="M105.239 89.1546C108.415 88.2066 107.06 83.6474 103.879 84.597C100.701 85.5456 102.057 90.1048 105.239 89.1546Z" fill="#494949"/>
<path d="M103.438 96.9165C106.615 95.9679 105.258 91.4093 102.077 92.3589C98.8997 93.3075 100.255 97.8666 103.438 96.9165Z" fill="#494949"/>
<path d="M111.036 98.5764C114.214 97.6278 112.859 93.0687 109.676 94.0188C106.498 94.9674 107.856 99.526 111.036 98.5764Z" fill="#494949"/>
<path d="M98.2089 102.501C101.384 101.553 100.029 96.9935 96.8483 97.9432C93.6709 98.8917 95.0262 103.451 98.2089 102.501Z" fill="#494949"/>
<path d="M95.0156 110.077C98.1912 109.129 96.8359 104.57 93.655 105.52C90.4776 106.468 91.8329 111.027 95.0156 110.077Z" fill="#494949"/>
<path d="M105.793 104.863C108.968 103.914 107.613 99.3553 104.432 100.305C101.258 101.252 102.612 105.812 105.793 104.863Z" fill="#494949"/>
<path d="M116.628 104.196C119.803 103.247 118.448 98.6883 115.267 99.6379C112.088 100.587 113.445 105.146 116.628 104.196Z" fill="#494949"/>
<path d="M111.687 109.377C114.865 108.429 113.509 103.869 110.327 104.82C107.151 105.768 108.506 110.327 111.687 109.377Z" fill="#494949"/>
<path d="M103.026 111.74C106.203 110.791 104.846 106.232 101.665 107.182C98.4876 108.131 99.8429 112.69 103.026 111.74Z" fill="#494949"/>
<path d="M108.405 115.457C111.581 114.509 110.226 109.949 107.045 110.899C103.871 111.847 105.224 116.406 108.405 115.457Z" fill="#494949"/>
<path d="M32.2103 100.393C32.7147 102.082 31.6405 103.894 29.8127 104.44C27.9813 104.987 26.0879 104.06 25.5835 102.371C25.0792 100.682 26.155 98.8692 27.9864 98.3225C29.8143 97.7768 31.706 98.7033 32.2103 100.393Z" fill="#494949"/>
<path d="M48.7037 82.1849C49.2085 83.8759 48.1339 85.6863 46.3043 86.2325C44.4747 86.7787 42.5813 85.8527 42.0769 84.1633C41.5726 82.4739 42.6484 80.6614 44.4781 80.1152C46.3095 79.5685 48.1993 80.4955 48.7037 82.1849Z" fill="#494949"/>
<path d="M171.003 58.9573C171.508 60.6467 170.432 62.4592 168.602 63.0054C166.774 63.5511 164.882 62.6245 164.378 60.9351C163.874 59.2457 164.948 57.4338 166.776 56.8881C168.605 56.3419 170.499 57.2679 171.003 58.9573Z" fill="#494949"/>
<path d="M147.378 52.3225C147.882 54.0119 146.809 55.8254 144.979 56.3717C143.149 56.9179 141.255 55.9902 140.751 54.3008C140.247 52.6131 141.323 50.799 143.152 50.2527C144.982 49.7065 146.874 50.6347 147.378 52.3225Z" fill="#494949"/>
<path d="M107.678 35.6597C108.181 37.3474 107.106 39.1616 105.278 39.7073C103.449 40.2535 101.556 39.3253 101.053 37.6375C100.548 35.9481 101.622 34.1346 103.451 33.5883C105.279 33.0427 107.173 33.9703 107.678 35.6597Z" fill="#494949"/>
<path d="M73.2294 46.7021C73.7348 48.3947 72.6602 50.205 70.8306 50.7513C69.0009 51.2975 67.1075 50.3715 66.6027 48.6804C66.0988 46.9927 67.1742 45.1786 69.0038 44.6323C70.8334 44.0861 72.7256 45.0143 73.2294 46.7021Z" fill="#494949"/>
<path d="M85.6645 25.9794C86.1693 27.6705 85.0929 29.4813 83.2633 30.0275C81.4337 30.5737 79.542 29.6472 79.0377 27.9578C78.5333 26.2684 79.6074 24.4565 81.4371 23.9102C83.2667 23.364 85.1601 24.29 85.6645 25.9794Z" fill="#494949"/>
<path d="M165.289 81.2871C165.794 82.9765 164.72 84.7885 162.892 85.3342C161.062 85.8804 159.169 84.9544 158.664 83.265C158.16 81.5756 159.236 79.7631 161.065 79.2169C162.893 78.6712 164.785 79.5978 165.289 81.2871Z" fill="#494949"/>
<path d="M166.786 144.699C167.29 146.388 166.217 148.202 164.387 148.748C162.554 149.296 160.665 148.366 160.161 146.677C159.656 144.986 160.729 143.176 162.56 142.629C164.39 142.083 166.282 143.01 166.786 144.699Z" fill="#494949"/>
<path d="M141.955 146.692C142.459 148.382 141.383 150.196 139.554 150.742C137.722 151.289 135.832 150.36 135.328 148.671C134.824 146.983 135.897 145.17 137.727 144.623C139.557 144.077 141.451 145.005 141.955 146.692Z" fill="#494949"/>
<path d="M70.1082 150.418C70.6125 152.107 69.5384 153.919 67.707 154.466C65.8792 155.012 63.9875 154.085 63.4832 152.396C62.9788 150.706 64.0529 148.894 65.8808 148.349C67.7122 147.802 69.6038 148.728 70.1082 150.418Z" fill="#494949"/>
<path d="M82.5513 169.135C83.0556 170.824 81.9815 172.636 80.1519 173.182C78.3205 173.729 76.4288 172.803 75.9245 171.113C75.4196 169.422 76.496 167.611 78.3256 167.065C80.1553 166.519 82.0469 167.446 82.5513 169.135Z" fill="#494949"/>
<path d="M104.231 156.708C104.736 158.401 103.662 160.211 101.83 160.758C100.003 161.304 98.111 160.377 97.6061 158.686C97.1023 156.998 98.1759 155.185 100.004 154.639C101.837 154.092 103.727 155.02 104.231 156.708Z" fill="#494949"/>
<path d="M167.067 121.472C167.571 123.161 166.497 124.973 164.669 125.519C162.84 126.065 160.946 125.139 160.442 123.449C159.938 121.76 161.014 119.948 162.843 119.401C164.671 118.856 166.563 119.782 167.067 121.472Z" fill="#494949"/>
<path d="M50.3082 115.614C50.8125 117.303 49.7366 119.116 47.907 119.662C46.0792 120.208 44.1875 119.281 43.6831 117.592C43.1788 115.902 44.2529 114.09 46.0807 113.545C47.9103 112.998 49.8038 113.924 50.3082 115.614Z" fill="#494949"/>
</svg>
