<svg width="332" height="312" viewBox="0 0 332 312" fill="none" xmlns="http://www.w3.org/2000/svg">
<path d="M279.048 187.02C269.441 183.312 258.61 188.109 254.903 197.714C251.218 207.262 251.886 229.015 261.421 232.694C270.956 236.374 286.065 220.71 289.749 211.161C293.456 201.557 288.656 190.727 279.048 187.02ZM261.014 233.749C250.526 229.701 250.076 207.082 253.848 197.306C257.779 187.12 269.266 182.033 279.455 185.965C289.644 189.897 294.736 201.383 290.805 211.569C287.032 221.344 271.503 237.797 261.014 233.749Z" fill="#3F3F3F"/>
<path d="M277.025 192.39C269.478 189.478 260.679 193.999 257.41 202.47C254.155 210.904 253.974 229.82 261.464 232.711C268.956 235.602 281.529 221.468 284.784 213.035C288.053 204.564 284.572 195.303 277.025 192.39ZM261.057 233.767C252.688 230.537 253.006 210.739 256.354 202.064C259.847 193.012 269.303 188.199 277.432 191.336C285.56 194.473 289.333 204.392 285.84 213.443C282.492 222.118 269.427 236.997 261.057 233.767Z" fill="#3F3F3F"/>
<path d="M261.014 233.749C260.723 233.636 260.578 233.309 260.69 233.018L273.321 200.289C273.434 199.996 273.762 199.853 274.052 199.965C274.344 200.078 274.489 200.404 274.376 200.696L261.745 233.425C261.633 233.716 261.305 233.861 261.014 233.749Z" fill="#3F3F3F"/>
<path d="M261.886 205.67C261.53 205.833 261.139 205.867 260.755 205.817C260.839 210.861 260.435 221.542 257.724 231.167C257.643 231.45 257.794 231.743 258.064 231.847C258.081 231.854 258.098 231.86 258.115 231.865C258.415 231.949 258.727 231.775 258.813 231.474C261.447 222.122 262.059 211.131 261.886 205.671L261.886 205.67Z" fill="#3F3F3F"/>
<path d="M279.941 212.752C279.84 212.586 279.74 212.421 279.641 212.257C279.64 212.253 279.639 212.248 279.637 212.244C276.029 215.905 268.316 224.364 264.189 233.574C264.061 233.858 264.188 234.194 264.473 234.321C264.482 234.325 264.492 234.329 264.501 234.333C264.78 234.44 265.098 234.312 265.22 234.037C269.242 225.064 276.751 216.794 280.341 213.138C280.195 213.027 280.059 212.9 279.941 212.753L279.941 212.752Z" fill="#3F3F3F"/>
<path d="M301.527 227.872C300.2 227.359 298.804 226.997 297.361 226.793C292.068 226.05 284.138 227.196 277.629 229.645C273.189 231.313 265.615 235.019 264.768 241.075C263.349 251.193 282.038 262.349 292.181 263.772C302.378 265.201 311.836 258.071 313.265 247.877C313.957 242.938 312.685 238.024 309.681 234.043C307.554 231.224 304.742 229.11 301.528 227.87L301.527 227.872ZM285.125 262.984C274.814 259.005 262.39 249.878 263.645 240.917C264.575 234.283 272.555 230.345 277.231 228.586C283.902 226.078 292.054 224.907 297.518 225.674C302.758 226.412 307.396 229.139 310.583 233.362C313.769 237.586 315.118 242.797 314.385 248.036C312.869 258.847 302.837 266.409 292.021 264.892C289.998 264.609 287.623 263.948 285.126 262.984L285.125 262.984Z" fill="#3F3F3F"/>
<path d="M293.514 230.031C284.5 228.767 265.899 232.988 264.765 241.084C264.273 244.598 267.312 248.874 273.102 252.813C278.118 256.227 284.654 258.961 289.369 259.622C293.765 260.24 298.114 259.273 301.61 256.902C305.091 254.542 307.31 251.072 307.863 247.13C308.415 243.189 307.234 239.242 304.537 236.017C301.827 232.773 297.912 230.65 293.515 230.032L293.514 230.031ZM282.147 258.787C278.829 257.506 275.393 255.74 272.467 253.751C268.847 251.287 262.885 246.346 263.644 240.928C264.91 231.894 284.402 227.611 293.673 228.912C298.345 229.57 302.513 231.834 305.405 235.292C308.31 238.766 309.58 243.026 308.982 247.289C308.385 251.55 305.992 255.297 302.245 257.839C298.514 260.369 293.886 261.4 289.211 260.744C287.111 260.45 284.661 259.758 282.146 258.787L282.147 258.787Z" fill="#3F3F3F"/>
<path d="M264.002 241.525C263.762 241.432 263.607 241.184 263.645 240.917C263.689 240.609 263.975 240.394 264.284 240.437L299.037 245.31C299.35 245.357 299.562 245.64 299.519 245.949C299.475 246.258 299.189 246.473 298.88 246.43L264.128 241.556C264.084 241.551 264.043 241.539 264.003 241.524L264.002 241.525Z" fill="#3F3F3F"/>
<path d="M289.246 254.188C284.867 251.462 274.469 246.296 264.565 243.948C264.261 243.876 263.957 244.064 263.885 244.368C263.813 244.671 264.001 244.986 264.305 245.048C274.535 247.477 284.557 252.707 288.575 255.097C288.73 254.746 288.954 254.428 289.247 254.187L289.246 254.188Z" fill="#3F3F3F"/>
<path d="M291.62 234.149C291.642 234.058 291.665 233.969 291.685 233.878C287.093 235.18 275.679 237.99 265.441 237.104C265.129 237.078 264.855 237.308 264.827 237.62C264.805 237.876 264.959 238.107 265.187 238.195C265.235 238.214 265.287 238.227 265.341 238.231C275.562 239.115 286.899 236.39 291.729 235.039C291.64 234.752 291.59 234.456 291.62 234.15L291.62 234.149Z" fill="#3F3F3F"/>
<path d="M234.955 202.18C231.741 200.94 228.238 200.616 224.77 201.276C219.869 202.207 215.626 204.992 212.823 209.116C210.016 213.238 208.987 218.206 209.92 223.106C210.852 228.006 213.637 232.248 217.761 235.054C226.228 240.817 247.568 245.103 253.315 236.658C256.756 231.601 253.634 223.768 251.467 219.55C248.29 213.362 243.186 207.187 238.765 204.182C237.56 203.363 236.282 202.694 234.955 202.182L234.955 202.18ZM223.516 239.208C221.017 238.244 218.815 237.139 217.126 235.989C208.095 229.846 205.745 217.506 211.886 208.479C214.861 204.105 219.361 201.152 224.559 200.164C229.757 199.176 235.028 200.274 239.402 203.246C243.964 206.348 249.216 212.692 252.474 219.032C254.755 223.474 258.02 231.754 254.252 237.292C249.161 244.773 233.826 243.187 223.517 239.208L223.516 239.208Z" fill="#3F3F3F"/>
<path d="M235.284 207.797C232.604 206.763 229.762 206.392 226.987 206.742C222.875 207.261 219.412 209.307 217.239 212.505C215.063 215.702 214.432 219.675 215.459 223.688C216.492 227.729 219.081 231.326 222.744 233.817C230.254 238.923 248.664 243.493 253.135 236.92C255.073 234.07 254.186 228.988 250.701 222.974C247.682 217.764 243.015 212.467 239.085 209.796C237.877 208.974 236.6 208.305 235.283 207.797L235.284 207.797ZM228.823 238.127C226.194 237.113 223.857 235.942 222.108 234.754C218.216 232.108 215.465 228.276 214.362 223.969C213.254 219.636 213.942 215.339 216.301 211.87C218.663 208.4 222.406 206.181 226.844 205.621C231.255 205.062 235.828 206.213 239.722 208.86C243.776 211.619 248.582 217.064 251.68 222.408C253.86 226.172 257.072 233.145 254.069 237.557C250.202 243.242 237.809 241.595 228.822 238.127L228.823 238.127Z" fill="#3F3F3F"/>
<path d="M253.58 237.502C253.54 237.487 253.501 237.467 253.464 237.442L224.447 217.705C224.188 217.529 224.122 217.177 224.296 216.92C224.473 216.661 224.823 216.596 225.082 216.771L254.1 236.507C254.358 236.684 254.425 237.036 254.25 237.293C254.099 237.515 253.818 237.595 253.578 237.503L253.58 237.502Z" fill="#3F3F3F"/>
<path d="M251.533 238.919C242.566 233.975 231.313 230.807 226.281 229.908C226.293 230.284 226.216 230.661 226.063 231.01C230.523 231.895 241.646 234.765 250.987 239.91C251.252 240.069 251.605 239.961 251.755 239.688C251.906 239.414 251.807 239.07 251.533 238.92L251.533 238.919Z" fill="#3F3F3F"/>
<path d="M255.483 233.261C247.595 227.261 241.206 217.977 238.495 213.692C238.208 213.944 237.858 214.114 237.463 214.174C240.174 218.472 246.701 228.002 254.8 234.162C254.842 234.196 254.89 234.221 254.938 234.239C255.166 234.327 255.436 234.259 255.591 234.055C255.779 233.805 255.733 233.451 255.483 233.26L255.483 233.261Z" fill="#3F3F3F"/>
<path d="M265.993 251.652C264.372 251.026 262.675 250.756 260.968 251.061C254.947 252.133 251.524 259.837 250.018 264.334C247.813 270.928 246.96 278.893 247.899 284.155C249.706 294.291 259.425 301.067 269.559 299.263C274.47 298.39 278.746 295.657 281.6 291.566C284.454 287.476 285.543 282.52 284.669 277.609C283.731 272.35 280.179 265.169 275.828 259.741C273.705 257.089 270.085 253.232 265.992 251.653L265.993 251.652ZM259.185 299.374C257.706 298.804 256.287 298.051 254.953 297.121C250.614 294.095 247.713 289.56 246.785 284.353C245.817 278.924 246.687 270.734 248.947 263.974C250.532 259.24 254.173 251.122 260.77 249.948C271.841 247.972 283.946 267.095 285.783 277.412C286.712 282.62 285.556 287.876 282.53 292.213C279.504 296.551 274.969 299.45 269.759 300.376C266.152 301.018 262.52 300.66 259.187 299.374L259.185 299.374Z" fill="#3F3F3F"/>
<path d="M264.432 251.614C263.104 251.102 261.784 250.915 260.499 251.143C251.973 252.662 248.133 271.947 249.773 281.151C251.423 290.397 259.749 296.677 268.345 295.148C276.935 293.617 282.583 284.851 280.936 275.606C279.541 267.788 271.923 254.505 264.432 251.614ZM259.942 295.415C254.321 293.246 249.849 288.024 248.66 281.348C246.975 271.894 250.824 251.717 260.301 250.029C269.778 248.342 280.364 265.951 282.048 275.407C283.805 285.266 277.746 294.622 268.542 296.261C265.568 296.791 262.624 296.45 259.941 295.415L259.942 295.415Z" fill="#3F3F3F"/>
<path d="M266.823 285.572C266.644 285.503 266.505 285.346 266.47 285.143L260.312 250.603C260.258 250.296 260.462 250.002 260.77 249.948C261.076 249.893 261.371 250.097 261.427 250.404L267.584 284.945C267.639 285.253 267.435 285.546 267.126 285.6C267.021 285.619 266.917 285.607 266.824 285.571L266.823 285.572Z" fill="#3F3F3F"/>
<path d="M256.285 277.611C257.493 272.26 258.972 261.405 258.175 251.76C258.15 251.449 257.877 251.217 257.565 251.242C257.254 251.267 257.021 251.541 257.047 251.852C257.895 262.1 256.137 272.986 255.098 277.726C255.449 277.578 255.848 277.524 256.286 277.611L256.285 277.611Z" fill="#3F3F3F"/>
<path d="M275.536 273.633C275.567 273.623 275.6 273.614 275.632 273.605C272.748 269.212 267.144 259.858 264.951 250.47C264.881 250.166 264.574 249.979 264.272 250.048C263.968 250.119 263.779 250.422 263.849 250.727C266.087 260.301 271.794 269.821 274.715 274.267C274.941 273.996 275.208 273.778 275.536 273.632L275.536 273.633Z" fill="#3F3F3F"/>
<path d="M214.028 250.347C210.082 253.397 207.559 257.8 206.926 262.746C206.292 267.694 207.622 272.591 210.674 276.537C216.971 284.683 228.722 286.191 236.868 279.897C241.097 276.63 245.818 270.158 248.613 263.791C250.519 259.449 253.16 251.443 249.419 246.603C243.166 238.513 222.129 244.088 214.028 250.345L214.028 250.347ZM218.291 283.579C215.032 282.321 212.066 280.189 209.779 277.23C206.542 273.043 205.131 267.85 205.802 262.603C206.475 257.357 209.15 252.687 213.336 249.454C221.63 243.048 243.446 237.02 250.314 245.915C254.412 251.216 251.658 259.675 249.65 264.247C246.783 270.772 241.926 277.422 237.56 280.794C231.88 285.182 224.547 285.995 218.292 283.581L218.291 283.579Z" fill="#3F3F3F"/>
<path d="M246.199 244.24C238.923 241.432 224.642 246.109 218.475 250.872C211.198 256.494 209.483 266.51 214.651 273.198C219.821 279.886 229.948 280.756 237.226 275.132C244.471 269.535 254.423 253.076 249.291 246.438C248.528 245.451 247.469 244.731 246.198 244.241L246.199 244.24ZM220.444 278.851C217.854 277.852 215.535 276.19 213.757 273.89C208.206 266.707 210.013 255.979 217.783 249.977C225.233 244.222 244.473 238.359 250.187 245.746C255.902 253.14 245.368 270.271 237.918 276.027C232.638 280.107 225.938 280.972 220.444 278.852L220.444 278.851Z" fill="#3F3F3F"/>
<path d="M221.9 268.235C221.806 268.199 221.721 268.138 221.655 268.053C221.465 267.806 221.509 267.451 221.756 267.26L249.52 245.81C249.769 245.62 250.125 245.668 250.314 245.913C250.505 246.16 250.458 246.515 250.213 246.706L222.449 268.155C222.286 268.281 222.077 268.304 221.899 268.236L221.9 268.235Z" fill="#3F3F3F"/>
<path d="M251.819 249.026C251.607 248.797 251.248 248.786 251.019 249C243.856 255.695 237.59 264.879 234.949 269.602C235.235 269.591 235.542 269.636 235.865 269.761C235.952 269.794 236.021 269.839 236.099 269.878C238.658 265.499 244.52 256.622 251.792 249.824C252.019 249.612 252.032 249.253 251.818 249.024L251.819 249.026Z" fill="#3F3F3F"/>
<path d="M247.652 243.634C247.476 243.38 247.124 243.312 246.865 243.491C238.65 249.166 227.739 252.361 222.879 253.586C223.03 253.943 223.072 254.331 223.024 254.716C227.897 253.494 239.081 250.244 247.509 244.421C247.765 244.243 247.831 243.892 247.652 243.634Z" fill="#3F3F3F"/>
<path d="M257.273 236.35C258.971 237.005 259.992 234.369 258.291 233.712C256.593 233.057 255.573 235.694 257.273 236.35Z" fill="#3F3F3F"/>
<path d="M261.86 238.003C263.558 238.659 264.579 236.022 262.878 235.366C261.18 234.71 260.159 237.347 261.86 238.003Z" fill="#3F3F3F"/>
<path d="M258.357 241.062C260.056 241.718 261.075 239.081 259.375 238.424C257.677 237.769 256.656 240.405 258.357 241.062Z" fill="#3F3F3F"/>
<path d="M261.038 244.495C262.736 245.151 263.757 242.514 262.056 241.857C260.357 241.202 259.337 243.839 261.038 244.495Z" fill="#3F3F3F"/>
<path d="M254.147 241.894C255.845 242.549 256.866 239.912 255.165 239.256C253.467 238.601 252.446 241.237 254.147 241.894Z" fill="#3F3F3F"/>
<path d="M250.112 244.38C251.809 245.035 252.83 242.398 251.13 241.742C249.431 241.087 248.41 243.723 250.112 244.38Z" fill="#3F3F3F"/>
<path d="M256.575 245.655C258.272 246.31 259.293 243.673 257.593 243.017C255.896 242.362 254.874 244.999 256.575 245.655Z" fill="#3F3F3F"/>
<path d="M261.464 249.109C263.162 249.764 264.182 247.128 262.482 246.472C260.783 245.816 259.763 248.453 261.464 249.109Z" fill="#3F3F3F"/>
<path d="M257.52 249.85C259.218 250.506 260.239 247.869 258.538 247.213C256.84 246.557 255.819 249.194 257.52 249.85Z" fill="#3F3F3F"/>
<path d="M252.968 247.957C254.667 248.613 255.687 245.976 253.986 245.32C252.288 244.664 251.267 247.301 252.968 247.957Z" fill="#3F3F3F"/>
<path d="M253.972 251.595C255.67 252.25 256.691 249.613 254.99 248.957C253.294 248.302 252.272 250.939 253.972 251.595Z" fill="#3F3F3F"/>
<path d="M226.536 217.921C226.159 218.899 225.061 219.386 224.083 219.009C223.104 218.631 222.617 217.532 222.994 216.554C223.371 215.577 224.471 215.09 225.45 215.468C226.427 215.845 226.914 216.944 226.536 217.921Z" fill="#3F3F3F"/>
<path d="M240.024 215.016C239.646 215.995 238.548 216.48 237.57 216.103C236.592 215.725 236.104 214.627 236.481 213.649C236.859 212.671 237.958 212.185 238.936 212.563C239.915 212.94 240.401 214.038 240.024 215.016Z" fill="#3F3F3F"/>
<path d="M300.729 246.554C300.352 247.532 299.252 248.018 298.274 247.64C297.297 247.263 296.81 246.165 297.188 245.187C297.565 244.21 298.663 243.723 299.641 244.1C300.619 244.477 301.106 245.576 300.729 246.554Z" fill="#3F3F3F"/>
<path d="M292.913 235.18C292.535 236.158 291.437 236.646 290.459 236.268C289.48 235.891 288.993 234.791 289.37 233.813C289.747 232.837 290.847 232.349 291.825 232.727C292.803 233.104 293.29 234.204 292.913 235.18Z" fill="#3F3F3F"/>
<path d="M281.717 213.45C281.34 214.427 280.24 214.914 279.263 214.537C278.285 214.16 277.798 213.06 278.175 212.083C278.553 211.106 279.651 210.618 280.63 210.996C281.607 211.373 282.094 212.472 281.717 213.45Z" fill="#3F3F3F"/>
<path d="M263.036 206.704C262.658 207.683 261.559 208.169 260.581 207.791C259.603 207.414 259.116 206.315 259.493 205.336C259.87 204.36 260.97 203.873 261.948 204.25C262.926 204.627 263.413 205.727 263.036 206.704Z" fill="#3F3F3F"/>
<path d="M275.664 201.192C275.286 202.17 274.187 202.656 273.209 202.278C272.231 201.901 271.744 200.802 272.121 199.825C272.499 198.847 273.597 198.36 274.575 198.738C275.553 199.115 276.041 200.214 275.664 201.192Z" fill="#3F3F3F"/>
<path d="M290.423 255.169C290.046 256.146 288.947 256.633 287.97 256.256C286.992 255.878 286.504 254.78 286.882 253.802C287.259 252.824 288.359 252.338 289.337 252.715C290.314 253.092 290.801 254.191 290.423 255.169Z" fill="#3F3F3F"/>
<path d="M268.77 285.8C268.393 286.778 267.294 287.266 266.316 286.888C265.336 286.51 264.851 285.411 265.229 284.434C265.606 283.455 266.704 282.969 267.683 283.347C268.661 283.724 269.147 284.823 268.77 285.8Z" fill="#3F3F3F"/>
<path d="M257.402 278.104C257.025 279.082 255.925 279.569 254.947 279.192C253.968 278.814 253.482 277.715 253.86 276.737C254.237 275.76 255.335 275.273 256.313 275.65C257.291 276.028 257.779 277.127 257.402 278.104Z" fill="#3F3F3F"/>
<path d="M225.228 254.866C224.85 255.844 223.752 256.331 222.773 255.953C221.796 255.576 221.309 254.477 221.686 253.5C222.064 252.522 223.162 252.035 224.139 252.412C225.118 252.79 225.605 253.889 225.228 254.866Z" fill="#3F3F3F"/>
<path d="M223.992 268.085C223.615 269.063 222.516 269.549 221.538 269.172C220.559 268.794 220.072 267.696 220.45 266.718C220.827 265.739 221.927 265.254 222.905 265.631C223.883 266.009 224.369 267.107 223.992 268.085Z" fill="#3F3F3F"/>
<path d="M237.675 269.73C237.297 270.71 236.199 271.195 235.22 270.818C234.243 270.44 233.756 269.342 234.133 268.363C234.51 267.387 235.609 266.899 236.586 267.276C237.566 267.654 238.052 268.753 237.675 269.73Z" fill="#3F3F3F"/>
<path d="M277.058 274.869C276.68 275.846 275.582 276.333 274.605 275.956C273.627 275.579 273.139 274.48 273.516 273.502C273.894 272.524 274.993 272.038 275.971 272.416C276.948 272.793 277.435 273.891 277.058 274.869Z" fill="#3F3F3F"/>
<path d="M228.959 231.448C228.582 232.426 227.482 232.912 226.504 232.535C225.527 232.158 225.04 231.059 225.418 230.081C225.795 229.104 226.894 228.617 227.871 228.994C228.849 229.372 229.337 230.47 228.959 231.448Z" fill="#3F3F3F"/>
<path d="M167.651 38.2843C150.152 31.5313 130.425 40.2687 123.674 57.762C116.962 75.1533 118.179 114.773 135.546 121.475C152.911 128.176 180.43 99.6469 187.142 82.2556C193.893 64.7622 185.149 45.0374 167.651 38.2843ZM134.804 123.396C115.701 116.023 114.881 74.8254 121.752 57.0205C128.912 38.4679 149.834 29.2014 168.392 36.3633C186.95 43.5252 196.223 64.4446 189.063 82.9972C182.192 100.802 153.908 130.768 134.804 123.396Z" fill="#3F3F3F"/>
<path d="M163.965 48.0666C150.22 42.7619 134.193 50.9967 128.239 66.4254C122.311 81.7867 121.981 116.24 135.624 121.505C149.269 126.771 172.169 101.028 178.098 85.6671C184.052 70.2384 177.711 53.3712 163.965 48.0666ZM134.882 123.428C119.639 117.545 120.219 81.4864 126.317 65.6856C132.679 49.1995 149.902 40.4321 164.707 46.1456C179.511 51.8591 186.383 69.925 180.02 86.4111C173.922 102.212 150.126 129.311 134.882 123.428Z" fill="#3F3F3F"/>
<path d="M134.804 123.396C134.273 123.191 134.01 122.594 134.214 122.065L157.22 62.4524C157.426 61.9193 158.022 61.6582 158.552 61.8627C159.083 62.0678 159.347 62.6627 159.142 63.194L136.136 122.806C135.932 123.336 135.334 123.6 134.804 123.396Z" fill="#3F3F3F"/>
<path d="M136.392 72.2542C135.744 72.5511 135.031 72.6117 134.332 72.521C134.485 81.709 133.749 101.162 128.811 118.693C128.663 119.208 128.939 119.742 129.43 119.932C129.462 119.944 129.493 119.954 129.524 119.964C130.069 120.117 130.639 119.8 130.795 119.252C135.592 102.219 136.706 82.2003 136.391 72.2559L136.392 72.2542Z" fill="#3F3F3F"/>
<path d="M169.276 85.152C169.093 84.8503 168.91 84.5494 168.731 84.2515C168.728 84.2443 168.726 84.2336 168.723 84.2264C162.151 90.8947 148.102 106.301 140.586 123.078C140.353 123.594 140.584 124.206 141.104 124.437C141.12 124.445 141.138 124.452 141.155 124.459C141.662 124.654 142.242 124.421 142.465 123.92C149.79 107.577 163.466 92.5135 170.006 85.8549C169.74 85.6528 169.492 85.4222 169.276 85.1537L169.276 85.152Z" fill="#3F3F3F"/>
<path d="M208.592 112.691C206.175 111.758 203.634 111.097 201.004 110.727C191.365 109.373 176.921 111.46 165.066 115.92C156.979 118.959 143.184 125.709 141.64 136.74C139.056 155.167 173.096 175.488 191.57 178.078C210.143 180.682 227.369 167.695 229.972 149.127C231.232 140.133 228.916 131.182 223.444 123.93C219.57 118.796 214.448 114.947 208.595 112.688L208.592 112.691ZM178.718 176.643C159.939 169.396 137.31 152.773 139.596 136.451C141.289 124.369 155.824 117.195 164.34 113.992C176.492 109.423 191.339 107.291 201.29 108.688C210.835 110.033 219.283 114.999 225.086 122.691C230.89 130.385 233.348 139.876 232.012 149.417C229.25 169.109 210.979 182.882 191.28 180.119C187.594 179.604 183.268 178.399 178.72 176.644L178.718 176.643Z" fill="#3F3F3F"/>
<path d="M193.998 116.625C177.581 114.321 143.701 122.009 141.636 136.756C140.739 143.156 146.275 150.944 156.821 158.117C165.957 164.336 177.861 169.315 186.449 170.52C194.455 171.645 202.376 169.884 208.745 165.565C215.084 161.267 219.126 154.947 220.132 147.768C221.138 140.59 218.988 133.401 214.075 127.526C209.138 121.619 202.009 117.752 194 116.625L193.998 116.625ZM173.295 168.999C167.251 166.666 160.992 163.45 155.664 159.826C149.07 155.339 138.212 146.339 139.594 136.471C141.9 120.018 177.401 112.216 194.288 114.585C202.798 115.783 210.389 119.908 215.656 126.206C220.948 132.533 223.259 140.293 222.171 148.057C221.083 155.818 216.725 162.642 209.9 167.272C203.106 171.88 194.675 173.758 186.16 172.564C182.335 172.028 177.873 170.768 173.292 169L173.295 168.999Z" fill="#3F3F3F"/>
<path d="M140.247 137.558C139.809 137.389 139.527 136.938 139.596 136.451C139.675 135.89 140.196 135.498 140.759 135.576L204.057 144.453C204.627 144.538 205.013 145.053 204.935 145.617C204.855 146.179 204.334 146.57 203.772 146.492L140.475 137.616C140.395 137.605 140.32 137.584 140.247 137.556L140.247 137.558Z" fill="#3F3F3F"/>
<path d="M186.225 160.623C178.248 155.657 159.31 146.249 141.272 141.972C140.718 141.84 140.164 142.183 140.032 142.736C139.901 143.288 140.244 143.862 140.797 143.976C159.431 148.399 177.684 157.925 185.002 162.278C185.284 161.64 185.693 161.06 186.226 160.621L186.225 160.623Z" fill="#3F3F3F"/>
<path d="M190.549 124.124C190.589 123.959 190.63 123.796 190.666 123.63C182.304 126.003 161.515 131.121 142.867 129.506C142.298 129.459 141.8 129.878 141.748 130.446C141.708 130.912 141.988 131.334 142.404 131.494C142.492 131.528 142.587 131.551 142.685 131.559C161.301 133.17 181.951 128.207 190.747 125.745C190.585 125.222 190.494 124.684 190.548 124.126L190.549 124.124Z" fill="#3F3F3F"/>
<path d="M87.3404 65.8969C81.4874 63.6381 75.1073 63.0489 68.7903 64.2498C59.8633 65.9467 52.1355 71.0194 47.0294 78.5295C41.9181 86.0377 40.0429 95.087 41.7425 104.011C43.4398 112.935 48.5134 120.662 56.0248 125.772C71.446 136.269 110.313 144.076 120.78 128.693C127.048 119.484 121.361 105.218 117.415 97.5344C111.628 86.264 102.332 75.0171 94.2808 69.5437C92.0857 68.0523 89.7575 66.8337 87.3408 65.901L87.3404 65.8969ZM66.5065 133.338C61.9553 131.582 57.944 129.571 54.8683 127.475C38.419 116.287 34.1388 93.8106 45.3229 77.3699C50.7421 69.4039 58.9382 64.0248 68.4063 62.2246C77.8738 60.4261 87.4731 62.4246 95.4404 67.8377C103.75 73.4882 113.314 85.0436 119.249 96.5899C123.404 104.682 129.351 119.762 122.488 129.849C113.215 143.474 85.2843 140.585 66.5082 133.339L66.5065 133.338Z" fill="#3F3F3F"/>
<path d="M87.9407 76.1282C83.0589 74.2442 77.8817 73.5685 72.8286 74.2053C65.3392 75.1506 59.0316 78.8784 55.0736 84.7021C51.1097 90.5254 49.9602 97.761 51.8313 105.071C53.7129 112.43 58.4282 118.982 65.1004 123.52C78.7781 132.819 112.31 141.143 120.453 129.171C123.984 123.98 122.368 114.725 116.02 103.771C110.521 94.2815 102.02 84.6338 94.8638 79.7683C92.6631 78.2708 90.3366 77.0529 87.939 76.1276L87.9407 76.1282ZM76.1727 131.37C71.3844 129.522 67.1273 127.39 63.9408 125.226C56.8523 120.406 51.842 113.428 49.8338 105.582C47.8153 97.6909 49.0675 89.8646 53.3657 83.5459C57.6663 77.2261 64.485 73.1845 72.5682 72.1641C80.6025 71.1468 88.9307 73.2433 96.0227 78.0641C103.408 83.0895 112.161 93.0055 117.802 102.74C121.774 109.594 127.624 122.295 122.155 130.331C115.112 140.687 92.5391 137.686 76.171 131.369L76.1727 131.37Z" fill="#3F3F3F"/>
<path d="M121.263 130.231C121.19 130.203 121.12 130.168 121.052 130.122L68.201 94.1745C67.7301 93.8536 67.6096 93.2126 67.9274 92.7447C68.2489 92.2722 68.887 92.1546 69.3592 92.4721L122.211 128.42C122.681 128.741 122.802 129.382 122.484 129.85C122.209 130.254 121.697 130.401 121.26 130.233L121.263 130.231Z" fill="#3F3F3F"/>
<path d="M117.536 132.812C101.203 123.808 80.7073 118.038 71.5418 116.4C71.564 117.084 71.4239 117.772 71.1454 118.406C79.2688 120.018 99.528 125.246 116.541 134.617C117.024 134.907 117.667 134.71 117.94 134.213C118.214 133.714 118.034 133.088 117.535 132.814L117.536 132.812Z" fill="#3F3F3F"/>
<path d="M124.73 122.506C110.363 111.579 98.7261 94.6687 93.7877 86.8652C93.2665 87.3242 92.6283 87.6327 91.9095 87.743C96.8468 95.5699 108.735 112.929 123.485 124.148C123.563 124.209 123.649 124.255 123.737 124.289C124.153 124.449 124.644 124.325 124.927 123.952C125.27 123.498 125.185 122.853 124.73 122.504L124.73 122.506Z" fill="#3F3F3F"/>
<path d="M143.872 156.004C140.919 154.864 137.829 154.371 134.719 154.927C123.754 156.879 117.519 170.911 114.776 179.102C110.759 191.113 109.206 205.62 110.916 215.203C114.207 233.665 131.91 246.007 150.367 242.721C159.313 241.131 167.099 236.152 172.298 228.702C177.496 221.253 179.48 212.226 177.887 203.282C176.18 193.703 169.709 180.623 161.786 170.737C157.918 165.906 151.326 158.882 143.87 156.005L143.872 156.004ZM131.473 242.924C128.779 241.884 126.194 240.512 123.764 238.819C115.861 233.307 110.577 225.049 108.887 215.564C107.124 205.675 108.708 190.759 112.825 178.447C115.711 169.824 122.344 155.039 134.359 152.901C154.524 149.301 176.571 184.13 179.918 202.922C181.61 212.407 179.504 221.98 173.993 229.881C168.48 237.781 160.22 243.062 150.732 244.749C144.163 245.918 137.547 245.265 131.475 242.922L131.473 242.924Z" fill="#3F3F3F"/>
<path d="M141.029 155.934C138.611 155.001 136.206 154.661 133.866 155.077C118.336 157.842 111.342 192.969 114.33 209.733C117.334 226.573 132.5 238.011 148.156 235.226C163.801 232.438 174.088 216.472 171.089 199.632C168.549 185.393 154.672 161.2 141.029 155.934ZM132.852 235.713C122.614 231.762 114.467 222.251 112.302 210.091C109.233 192.872 116.244 156.122 133.505 153.048C150.766 149.975 170.047 182.048 173.114 199.27C176.314 217.228 165.279 234.268 148.515 237.254C143.099 238.218 137.735 237.597 132.85 235.712L132.852 235.713Z" fill="#3F3F3F"/>
<path d="M145.384 217.784C145.058 217.658 144.804 217.373 144.74 217.003L133.525 154.092C133.427 153.533 133.798 152.999 134.36 152.899C134.917 152.8 135.455 153.17 135.557 153.731L146.771 216.643C146.871 217.203 146.498 217.737 145.936 217.836C145.744 217.869 145.556 217.848 145.386 217.783L145.384 217.784Z" fill="#3F3F3F"/>
<path d="M126.191 203.284C128.39 193.539 131.084 173.768 129.633 156.201C129.587 155.634 129.09 155.212 128.521 155.257C127.955 155.303 127.531 155.802 127.579 156.369C129.123 175.033 125.921 194.861 124.029 203.494C124.669 203.224 125.394 203.126 126.192 203.285L126.191 203.284Z" fill="#3F3F3F"/>
<path d="M161.254 196.039C161.311 196.021 161.371 196.005 161.429 195.987C156.175 187.987 145.969 170.95 141.974 153.851C141.846 153.297 141.287 152.956 140.738 153.082C140.184 153.212 139.84 153.763 139.968 154.32C144.043 171.756 154.438 189.096 159.758 197.194C160.169 196.7 160.657 196.304 161.253 196.037L161.254 196.039Z" fill="#3F3F3F"/>
<path d="M49.2254 153.626C42.0373 159.181 37.4427 167.201 36.2888 176.211C35.1343 185.222 37.5578 194.141 43.1159 201.328C54.5846 216.166 75.9883 218.912 90.8248 207.448C98.5269 201.498 107.126 189.709 112.216 178.113C115.688 170.204 120.498 155.622 113.684 146.807C102.296 132.072 63.979 142.227 49.2243 153.624L49.2254 153.626ZM56.9895 214.155C51.0534 211.864 45.6507 207.979 41.4853 202.59C35.5911 194.964 33.0199 185.506 34.2432 175.95C35.4683 166.395 40.3405 157.888 47.9652 152C63.0715 140.332 102.806 129.354 115.316 145.554C122.78 155.209 117.762 170.617 114.105 178.943C108.884 190.829 100.037 202.94 92.0858 209.082C81.7399 217.073 68.3833 218.554 56.9906 214.157L56.9895 214.155Z" fill="#3F3F3F"/>
<path d="M107.821 142.504C94.5671 137.389 68.5576 145.907 57.3253 154.583C44.0712 164.822 40.9471 183.065 50.3594 195.247C59.7765 207.428 78.2215 209.012 91.4769 198.77C104.672 188.575 122.798 158.598 113.452 146.507C112.062 144.709 110.133 143.398 107.818 142.505L107.821 142.504ZM60.9115 205.543C56.1941 203.723 51.9698 200.697 48.7319 196.506C38.6208 183.424 41.9125 163.885 56.0647 152.953C69.6332 142.471 104.677 131.792 115.084 145.247C125.493 158.713 106.307 189.916 92.7375 200.399C83.1208 207.831 70.9169 209.407 60.9109 205.545L60.9115 205.543Z" fill="#3F3F3F"/>
<path d="M63.5625 186.207C63.3911 186.141 63.2371 186.03 63.1173 185.876C62.77 185.426 62.8506 184.779 63.3008 184.432L113.87 145.363C114.322 145.017 114.97 145.104 115.315 145.551C115.662 146.001 115.578 146.647 115.131 146.996L64.5631 186.062C64.2658 186.292 63.8855 186.334 63.5618 186.209L63.5625 186.207Z" fill="#3F3F3F"/>
<path d="M118.056 151.22C117.669 150.804 117.017 150.783 116.598 151.173C103.552 163.367 92.1405 180.094 87.329 188.696C87.8515 188.677 88.4104 188.76 88.9989 188.987C89.1565 189.048 89.2826 189.128 89.4237 189.2C94.0851 181.224 104.762 165.055 118.007 152.675C118.421 152.288 118.445 151.635 118.055 151.218L118.056 151.22Z" fill="#3F3F3F"/>
<path d="M110.467 141.4C110.146 140.938 109.505 140.814 109.034 141.139C94.0711 151.476 74.1976 157.294 65.3467 159.525C65.6207 160.176 65.6977 160.884 65.6105 161.584C74.4852 159.358 94.8551 153.439 110.206 142.834C110.673 142.509 110.793 141.869 110.467 141.4Z" fill="#3F3F3F"/>
<path d="M127.99 128.133C131.084 129.327 132.943 124.525 129.844 123.329C126.752 122.135 124.893 126.938 127.99 128.133Z" fill="#3F3F3F"/>
<path d="M136.345 131.145C139.437 132.338 141.296 127.536 138.199 126.34C135.105 125.146 133.246 129.949 136.345 131.145Z" fill="#3F3F3F"/>
<path d="M129.965 136.715C133.058 137.909 134.916 133.106 131.819 131.911C128.725 130.717 126.866 135.52 129.965 136.715Z" fill="#3F3F3F"/>
<path d="M134.847 142.968C137.941 144.162 139.8 139.36 136.701 138.164C133.608 136.97 131.75 141.773 134.847 142.968Z" fill="#3F3F3F"/>
<path d="M122.297 138.23C125.389 139.423 127.248 134.621 124.151 133.426C121.058 132.232 119.198 137.034 122.297 138.23Z" fill="#3F3F3F"/>
<path d="M114.947 142.759C118.038 143.952 119.898 139.15 116.801 137.954C113.707 136.76 111.848 141.563 114.947 142.759Z" fill="#3F3F3F"/>
<path d="M126.718 145.081C129.81 146.274 131.669 141.471 128.572 140.276C125.482 139.084 123.621 143.885 126.718 145.081Z" fill="#3F3F3F"/>
<path d="M135.623 151.373C138.715 152.566 140.574 147.763 137.477 146.568C134.382 145.374 132.525 150.177 135.623 151.373Z" fill="#3F3F3F"/>
<path d="M128.439 152.722C131.533 153.916 133.392 149.114 130.293 147.918C127.202 146.725 125.342 151.527 128.439 152.722Z" fill="#3F3F3F"/>
<path d="M120.149 149.274C123.243 150.468 125.1 145.665 122.003 144.47C118.91 143.276 117.051 148.078 120.149 149.274Z" fill="#3F3F3F"/>
<path d="M121.978 155.899C125.07 157.093 126.929 152.29 123.832 151.095C120.742 149.903 118.881 154.704 121.978 155.899Z" fill="#3F3F3F"/>
<path d="M72.0073 94.5678C71.32 96.3486 69.3192 97.2348 67.5396 96.548C65.7565 95.8598 64.868 93.8586 65.5553 92.0778C66.2426 90.2969 68.2451 89.4114 70.0282 90.0996C71.8078 90.7864 72.6946 92.7869 72.0073 94.5678Z" fill="#3F3F3F"/>
<path d="M96.5727 89.2762C95.8847 91.0588 93.8846 91.9432 92.1033 91.2558C90.3219 90.5683 89.4334 88.5671 90.1207 86.7863C90.8079 85.0054 92.8105 84.1199 94.5918 84.8074C96.3749 85.4955 97.2599 87.4954 96.5727 89.2762Z" fill="#3F3F3F"/>
<path d="M207.139 146.718C206.452 148.499 204.45 149.385 202.668 148.697C200.889 148.01 200.002 146.01 200.689 144.229C201.376 142.448 203.377 141.562 205.157 142.249C206.938 142.936 207.827 144.937 207.139 146.718Z" fill="#3F3F3F"/>
<path d="M192.903 126.003C192.216 127.784 190.214 128.672 188.433 127.984C186.652 127.297 185.764 125.294 186.451 123.513C187.138 121.734 189.141 120.847 190.922 121.534C192.704 122.222 193.59 124.224 192.903 126.003Z" fill="#3F3F3F"/>
<path d="M172.511 86.4241C171.824 88.2032 169.821 89.0904 168.041 88.4036C166.26 87.7162 165.374 85.7139 166.061 83.9348C166.748 82.1539 168.749 81.266 170.531 81.9535C172.31 82.6403 173.198 84.6432 172.511 86.4241Z" fill="#3F3F3F"/>
<path d="M138.486 74.1361C137.797 75.9204 135.797 76.8048 134.016 76.1174C132.234 75.4299 131.346 73.4287 132.034 71.6461C132.72 69.867 134.724 68.9798 136.505 69.6673C138.286 70.3547 139.172 72.357 138.486 74.1361Z" fill="#3F3F3F"/>
<path d="M161.486 64.0968C160.798 65.8794 158.796 66.7632 157.015 66.0757C155.234 65.3882 154.347 63.3877 155.034 61.6069C155.722 59.826 157.722 58.9398 159.504 59.6273C161.285 60.3148 162.174 62.316 161.486 64.0968Z" fill="#3F3F3F"/>
<path d="M188.369 162.408C187.681 164.189 185.681 165.075 183.901 164.389C182.12 163.701 181.231 161.7 181.918 159.919C182.606 158.138 184.608 157.253 186.389 157.94C188.169 158.627 189.056 160.628 188.369 162.408Z" fill="#3F3F3F"/>
<path d="M148.93 218.2C148.243 219.981 146.242 220.869 144.46 220.182C142.676 219.493 141.793 217.492 142.48 215.711C143.168 213.928 145.167 213.043 146.95 213.731C148.731 214.419 149.618 216.419 148.93 218.2Z" fill="#3F3F3F"/>
<path d="M128.225 204.183C127.538 205.963 125.534 206.851 123.753 206.163C121.97 205.475 121.086 203.473 121.773 201.693C122.459 199.914 124.461 199.026 126.242 199.713C128.024 200.401 128.911 202.404 128.225 204.183Z" fill="#3F3F3F"/>
<path d="M69.6238 161.858C68.9365 163.639 66.9357 164.525 65.1526 163.837C63.373 163.15 62.4863 161.15 63.1735 159.369C63.8608 157.588 65.8616 156.702 67.6412 157.389C69.4243 158.077 70.3111 160.077 69.6238 161.858Z" fill="#3F3F3F"/>
<path d="M67.3733 185.934C66.6861 187.715 64.6853 188.601 62.9039 187.914C61.1208 187.226 60.2341 185.225 60.9213 183.444C61.6093 181.662 63.6111 180.778 65.3925 181.465C67.1738 182.153 68.0606 184.153 67.3733 185.934Z" fill="#3F3F3F"/>
<path d="M92.2946 188.93C91.606 190.715 89.6058 191.599 87.8228 190.911C86.0431 190.224 85.1564 188.224 85.8443 186.441C86.5309 184.662 88.5324 183.774 90.312 184.461C92.0968 185.15 92.9812 187.151 92.2946 188.93Z" fill="#3F3F3F"/>
<path d="M164.025 198.29C163.338 200.071 161.337 200.957 159.558 200.27C157.776 199.583 156.888 197.581 157.575 195.8C158.262 194.02 160.265 193.134 162.046 193.822C163.826 194.508 164.713 196.509 164.025 198.29Z" fill="#3F3F3F"/>
<path d="M76.4201 119.205C75.7329 120.986 73.7303 121.871 71.949 121.184C70.1693 120.497 69.2826 118.497 69.9699 116.716C70.6571 114.935 72.6579 114.049 74.4376 114.735C76.2189 115.423 77.1074 117.424 76.4201 119.205Z" fill="#3F3F3F"/>
</svg>
