<svg width="699" height="291" viewBox="0 0 699 291" fill="none" xmlns="http://www.w3.org/2000/svg">
<path fill-rule="evenodd" clip-rule="evenodd" d="M534.812 217.051C542.158 217.492 548.024 223.593 548.024 231.004C548.024 238.693 541.7 244.983 533.96 244.983H470.81C465.276 244.983 460.734 249.49 460.734 255.003C460.734 260.509 465.277 265.022 470.81 265.022H547.426V267.002H470.81C464.174 267.002 458.74 261.6 458.74 255.003C458.74 248.398 464.174 243.003 470.81 243.003H533.96C540.596 243.003 546.03 237.602 546.03 231.004C546.03 224.4 540.596 219.005 533.96 219.005L533.953 218.998H403.07C396.434 218.998 391 213.597 391 206.999C391 200.402 396.434 195 403.07 195H558.294C564.93 195 570.364 200.395 570.364 206.999C570.364 211.172 568.19 214.867 564.912 217.019C563.008 218.269 560.732 218.998 558.294 218.998V217.019C563.827 217.019 568.37 212.506 568.37 206.999C568.37 201.486 563.828 196.979 558.294 196.979H403.07C397.537 196.979 392.994 201.493 392.994 206.999C392.994 212.506 397.537 217.019 403.07 217.019H534.779L534.812 217.051ZM558.294 218.998V220.978H686.93C692.469 220.978 697.006 225.49 697.006 230.997C697.006 236.504 692.463 241.017 686.93 241.017H580.111V241.024C572.42 241.088 566.158 247.336 566.158 254.996C566.158 262.646 572.418 268.91 580.111 268.974V268.981H612.871C618.405 268.981 622.948 273.488 622.948 279.001C622.948 284.507 618.405 289.021 612.871 289.021H547.426C541.893 289.021 537.35 284.507 537.35 279.001C537.35 273.494 541.893 268.981 547.426 268.981V267.002C544.988 267.002 542.712 267.731 540.808 268.981C537.53 271.133 535.356 274.828 535.356 279.001C535.356 285.598 540.79 291 547.426 291H612.871C619.508 291 624.941 285.598 624.941 279.001C624.941 272.397 619.508 267.002 612.871 267.002H580.111C580.125 267.002 580.146 266.995 580.166 266.995C580.148 266.995 580.129 266.995 580.111 266.994C573.52 266.93 568.151 261.554 568.151 254.996C568.151 248.43 573.52 243.068 580.111 243.004C580.129 243.004 580.148 243.004 580.166 243.003C580.152 243.003 580.132 242.997 580.111 242.997H686.93C693.566 242.997 699 237.595 699 230.997C699 224.4 693.573 218.998 686.93 218.998H558.294ZM580.493 268.946C580.492 268.946 580.491 268.946 580.49 268.946L580.493 268.946Z" fill="#3F3F3F"/>
<path fill-rule="evenodd" clip-rule="evenodd" d="M164.188 22.0513C156.842 22.4921 150.976 28.5927 150.976 36.0043C150.976 43.6926 157.3 49.9828 165.04 49.9828H288.19C293.724 49.9828 298.266 54.4899 298.266 60.0026C298.266 65.5092 293.723 70.0223 288.19 70.0223H151.574V72.0017H288.19C294.826 72.0017 300.26 66.6 300.26 60.0026C300.26 53.3982 294.826 48.0034 288.19 48.0034H165.04C158.404 48.0034 152.97 42.6018 152.97 36.0043C152.97 29.4 158.404 24.0052 165.04 24.0052L165.047 23.9983H395.93C402.566 23.9983 408 18.5966 408 11.9991C408 5.40167 402.566 0 395.93 0H140.706C134.07 0 128.636 5.3948 128.636 11.9991C128.636 16.1723 130.81 19.8671 134.088 22.0189C135.992 23.2689 138.268 23.9983 140.706 23.9983V22.0189C135.173 22.0189 130.63 17.5057 130.63 11.9991C130.63 6.48642 135.172 1.97938 140.706 1.97938H395.93C401.463 1.97938 406.006 6.49256 406.006 11.9991C406.006 17.5057 401.463 22.0189 395.93 22.0189H164.221L164.188 22.0513ZM140.706 23.9983V25.9777H12.07C6.53073 25.9777 1.99353 30.4901 1.99353 35.9974C1.99353 41.504 6.53693 46.0172 12.07 46.0172H118.889V46.0244C126.58 46.0884 132.842 52.3362 132.842 59.9957C132.842 67.6462 126.582 73.9098 118.889 73.9739V73.9811H86.1285C80.5947 73.9811 76.0521 78.4881 76.0521 84.0009C76.0521 89.5074 80.5954 94.0206 86.1285 94.0206H151.574C157.107 94.0206 161.65 89.5074 161.65 84.0009C161.65 78.4943 157.107 73.9811 151.574 73.9811V72.0017C154.012 72.0017 156.288 72.7311 158.192 73.9811C161.47 76.1329 163.644 79.8277 163.644 84.0009C163.644 90.5983 158.21 96 151.574 96H86.1285C79.4921 96 74.0585 90.5983 74.0585 84.0009C74.0585 77.3965 79.4921 72.0017 86.1285 72.0017H118.889C118.875 72.0017 118.854 71.9948 118.834 71.9948C118.852 71.9947 118.871 71.9946 118.889 71.9944C125.48 71.9304 130.849 66.5542 130.849 59.9957C130.849 53.4303 125.48 48.0678 118.889 48.0038C118.871 48.0037 118.852 48.0035 118.834 48.0034C118.848 48.0034 118.868 47.9966 118.889 47.9966H12.07C5.43359 47.9966 0 42.5949 0 35.9974C0 29.4 5.4267 23.9983 12.07 23.9983H140.706Z" fill="#3F3F3F"/>
</svg>
