<svg width="9" height="10" viewBox="0 0 9 10" fill="none" xmlns="http://www.w3.org/2000/svg">
<path id="Vector" fill-rule="evenodd" clip-rule="evenodd" d="M4.5 5.62849C1.60329 5.62849 0 7.05307 0 9.63687C0 9.8324 0.161677 10 0.350299 10H8.6497C8.83832 10 9 9.8324 9 9.63687C9 7.05307 7.39671 5.62849 4.5 5.62849ZM0.714072 9.27374C0.848802 7.34637 2.12874 6.36872 4.5 6.36872C6.87126 6.36872 8.13772 7.34637 8.28593 9.27374H0.714072ZM4.5 0C3.16617 0 2.15569 1.06145 2.15569 2.47207C2.15569 3.92458 3.20659 5.09777 4.5 5.09777C5.79341 5.09777 6.84431 3.92458 6.84431 2.47207C6.84431 1.06145 5.83383 0 4.5 0ZM4.5 4.37151C3.59731 4.37151 2.86976 3.51955 2.86976 2.47207C2.86976 1.46648 3.55689 0.726257 4.5 0.726257C5.42964 0.726257 6.13024 1.48045 6.13024 2.47207C6.13024 3.51955 5.40269 4.37151 4.5 4.37151Z" fill="url(#paint0_linear_302_2612)"/>
<defs>
<linearGradient id="paint0_linear_302_2612" x1="2.01329" y1="3.37292" x2="9.75012" y2="4.55848" gradientUnits="userSpaceOnUse">
<stop stop-color="#F45601"/>
<stop offset="1" stop-color="#FF7429"/>
</linearGradient>
</defs>
</svg>
