<svg width="11" height="11" viewBox="0 0 11 11" fill="none" xmlns="http://www.w3.org/2000/svg">
<g id="Vector">
<path d="M3.81393 11C3.52289 11.0002 3.23872 10.9116 2.99948 10.7458C2.76025 10.5801 2.57737 10.3452 2.47534 10.0727L2.13473 9.16504C2.10891 9.09657 2.06877 9.03441 2.01699 8.98271C1.96521 8.93101 1.90298 8.89096 1.83447 8.86525L0.927252 8.52466C0.743944 8.45562 0.576726 8.34976 0.435912 8.2136C0.295097 8.07745 0.183673 7.91389 0.108513 7.73301C-0.0427662 7.36859 -0.0354315 6.95374 0.127766 6.59481L0.528885 5.7124C0.559258 5.64585 0.574977 5.57355 0.574977 5.50039C0.574977 5.42724 0.559258 5.35494 0.528885 5.28838L0.127766 4.40505C-0.0349731 4.04613 -0.0423078 3.63128 0.108513 3.26686C0.259333 2.90243 0.557765 2.61364 0.927252 2.47521L1.83493 2.13462C1.97337 2.08236 2.08293 1.9728 2.13473 1.83437L2.47534 0.927202C2.54438 0.743904 2.65025 0.576695 2.78641 0.435888C2.92258 0.295082 3.08615 0.183663 3.26703 0.108507C3.63148 -0.0427639 4.04635 -0.0354296 4.40529 0.127759L5.28775 0.528856C5.42299 0.59074 5.57747 0.590281 5.71179 0.528856L6.59471 0.127759C6.77311 0.0471472 6.96611 0.00385612 7.16185 0.000545322C7.35759 -0.00276547 7.55194 0.0339739 7.73297 0.108507C8.09741 0.259319 8.38622 0.557735 8.52466 0.927202L8.86527 1.83483C8.91753 1.97326 9.02709 2.08282 9.16553 2.13462L10.0727 2.47521C10.2561 2.54425 10.4233 2.65011 10.5641 2.78626C10.7049 2.92242 10.8163 3.08598 10.8915 3.26686C11.0428 3.63128 11.0354 4.04613 10.8722 4.40505L10.4711 5.28747C10.4407 5.35402 10.425 5.42632 10.425 5.49947C10.425 5.57263 10.4407 5.64493 10.4711 5.71148L10.8722 6.59435C11.035 6.95328 11.0423 7.36813 10.8915 7.73255C10.7407 8.09698 10.4422 8.38577 10.0727 8.5242L9.16507 8.86479C9.0966 8.89061 9.03444 8.93075 8.98273 8.98253C8.93103 9.03431 8.89098 9.09653 8.86527 9.16504L8.52466 10.0722C8.45562 10.2555 8.34975 10.4227 8.21359 10.5635C8.07742 10.7043 7.91385 10.8157 7.73297 10.8909C7.55197 10.9655 7.3576 11.0023 7.16185 10.999C6.96609 10.9957 6.77308 10.9524 6.59471 10.8716L5.71225 10.4706C5.64573 10.4401 5.57341 10.4243 5.50023 10.4243C5.42705 10.4243 5.35473 10.4401 5.28821 10.4706L4.40575 10.8721C4.21983 10.9564 4.01806 11 3.81393 11ZM3.81439 0.915742C3.74792 0.915742 3.68144 0.929036 3.61772 0.955164C3.48478 1.01017 3.38393 1.11469 3.3335 1.249L2.99336 2.15616C2.92169 2.34723 2.80995 2.52074 2.66564 2.66504C2.52134 2.80934 2.34782 2.92107 2.15674 2.99274L1.24952 3.33287C1.1152 3.38329 1.01068 3.48459 0.955674 3.61707C0.900664 3.75001 0.902956 3.89532 0.962551 4.02596L1.36367 4.90837C1.4482 5.09413 1.49193 5.29585 1.49193 5.49993C1.49193 5.70402 1.4482 5.90573 1.36367 6.09149L0.963009 6.97345C0.903414 7.10409 0.901122 7.2494 0.956133 7.38188C1.01114 7.51481 1.11566 7.61566 1.24998 7.66608L2.1572 8.00667C2.34832 8.07826 2.52188 8.18997 2.6662 8.33427C2.81051 8.47858 2.92222 8.65213 2.99381 8.84325L3.33396 9.75041C3.38439 9.88472 3.4857 9.98923 3.61818 10.0442C3.75112 10.0997 3.89599 10.0965 4.02664 10.0374L4.9091 9.63627C5.09484 9.55166 5.29658 9.50788 5.50069 9.50788C5.7048 9.50788 5.90653 9.55166 6.09228 9.63627L6.97428 10.0369C7.10539 10.096 7.25025 10.0993 7.38273 10.0438C7.51568 9.98878 7.61653 9.88426 7.66696 9.74995L8.00756 8.84279C8.07915 8.65167 8.19087 8.47812 8.33518 8.33381C8.47949 8.18951 8.65306 8.0778 8.84418 8.00621L9.7514 7.66608C9.88571 7.61566 9.99023 7.51436 10.0452 7.38188C10.1003 7.24894 10.098 7.10409 10.0384 6.97345L9.63725 6.09104C9.55272 5.90528 9.50898 5.70356 9.50898 5.49947C9.50898 5.29539 9.55272 5.09367 9.63725 4.90791L10.0379 4.02596C10.0975 3.89532 10.0998 3.75001 10.0448 3.61753C9.98977 3.48459 9.88525 3.38375 9.75094 3.33332L8.84372 2.99274C8.6526 2.92115 8.47903 2.80944 8.33472 2.66514C8.19041 2.52083 8.07869 2.34728 8.0071 2.15616L7.66696 1.249C7.61653 1.11469 7.51522 1.01017 7.38273 0.955164C7.25025 0.900157 7.10539 0.902449 6.97428 0.962041L6.09182 1.36314C5.90602 1.44754 5.70431 1.49121 5.50023 1.49121C5.29615 1.49121 5.09444 1.44754 4.90864 1.36314L4.02664 0.962041C3.95997 0.93174 3.88762 0.915959 3.81439 0.915742Z" fill="#F45601"/>
<path d="M4.1252 5.04131C3.61956 5.04131 3.20835 4.63013 3.20835 4.12452C3.20835 3.6189 3.61956 3.20772 4.1252 3.20772C4.63083 3.20772 5.04204 3.6189 5.04204 4.12452C5.04204 4.63013 4.63083 5.04131 4.1252 5.04131ZM6.87572 7.79168C6.37008 7.79168 5.95888 7.3805 5.95888 6.87489C5.95888 6.36928 6.37008 5.9581 6.87572 5.9581C7.38136 5.9581 7.79256 6.36928 7.79256 6.87489C7.79256 7.3805 7.38136 7.79168 6.87572 7.79168ZM4.12474 7.79168C4.03964 7.7916 3.95625 7.76783 3.8839 7.72304C3.81154 7.67825 3.75309 7.61421 3.71507 7.53808C3.67705 7.46196 3.66097 7.37675 3.66864 7.29201C3.6763 7.20726 3.7074 7.12632 3.75846 7.05825L6.50898 3.39108C6.58193 3.29382 6.69053 3.22952 6.81089 3.21233C6.93125 3.19514 7.05351 3.22646 7.15077 3.2994C7.24804 3.37235 7.31234 3.48094 7.32953 3.60129C7.34673 3.72164 7.31541 3.8439 7.24246 3.94116L4.49193 7.60833C4.44924 7.66537 4.3938 7.71166 4.33005 7.74349C4.2663 7.77532 4.19599 7.79183 4.12474 7.79168Z" fill="#F45601"/>
</g>
</svg>
