<svg width="11" height="11" viewBox="0 0 11 11" fill="none" xmlns="http://www.w3.org/2000/svg">
<path id="Vector" d="M2.2291 7.31206C3.31817 8.60899 4.62917 9.63013 6.1255 10.3527C6.6952 10.6216 7.45709 10.9407 8.30592 10.9954C8.35855 10.9977 8.40888 11 8.46151 11C9.03121 11 9.4888 10.804 9.86174 10.4005C9.86403 10.3983 9.8686 10.3937 9.87089 10.3891C10.0036 10.2296 10.1546 10.086 10.3125 9.93328C10.42 9.83071 10.5298 9.72358 10.6351 9.61417C11.1224 9.10816 11.1224 8.4654 10.6305 7.97534L9.25543 6.60547C9.02206 6.36386 8.74292 6.23622 8.45007 6.23622C8.15721 6.23622 7.87579 6.36386 7.63555 6.60319L6.81646 7.41919C6.74096 7.37588 6.66317 7.33713 6.58995 7.30066C6.49844 7.25508 6.41378 7.21177 6.33828 7.1639C5.5924 6.69208 4.91517 6.07667 4.26767 5.28574C3.9405 4.87319 3.72085 4.52673 3.56756 4.17344C3.78263 3.97969 3.98397 3.77683 4.17844 3.57853C4.24708 3.50787 4.31801 3.43722 4.38894 3.36656C4.63604 3.12039 4.76874 2.83547 4.76874 2.546C4.76874 2.25653 4.63832 1.97161 4.38894 1.72545L3.70712 1.04621C3.62704 0.966432 3.55154 0.888935 3.47375 0.809159C3.32275 0.654165 3.16488 0.494613 3.0093 0.351015C2.77364 0.120804 2.49679 0 2.20393 0C1.91336 0 1.63423 0.120804 1.38942 0.353295L0.533722 1.20576C0.222559 1.51575 0.0463859 1.89184 0.00977855 2.32719C-0.0336927 2.87194 0.0669776 3.45089 0.327805 4.15064C0.728198 5.23332 1.33222 6.2385 2.2291 7.31206ZM0.568041 2.37505C0.595497 2.0719 0.712182 1.8189 0.931827 1.60008L1.78295 0.752176C1.91565 0.624534 2.06208 0.558433 2.20393 0.558433C2.3435 0.558433 2.48535 0.624534 2.61577 0.756734C2.76906 0.898052 2.9132 1.04621 3.06878 1.20348C3.14657 1.28326 3.22665 1.36303 3.30673 1.44509L3.98854 2.12433C4.1304 2.26564 4.20361 2.40924 4.20361 2.55056C4.20361 2.69188 4.1304 2.83547 3.98854 2.97679C3.91762 3.04745 3.84669 3.12039 3.77576 3.19105C3.56298 3.4053 3.36393 3.60816 3.14428 3.80191C3.13971 3.80647 3.13742 3.80874 3.13285 3.8133C2.94294 4.00249 2.97269 4.18255 3.01845 4.31931C3.02074 4.32615 3.02302 4.33071 3.02531 4.33755C3.20148 4.75922 3.4463 5.16038 3.82839 5.63904C4.51477 6.48239 5.23777 7.13655 6.03398 7.64028C6.13236 7.7041 6.23761 7.75425 6.33599 7.80439C6.42751 7.84998 6.51216 7.89329 6.58767 7.94115C6.59682 7.94571 6.60368 7.95027 6.61283 7.95483C6.68834 7.99358 6.76155 8.01181 6.83477 8.01181C7.0178 8.01181 7.13678 7.89557 7.17567 7.85682L8.03137 7.00435C8.16407 6.87215 8.30821 6.80149 8.45007 6.80149C8.62395 6.80149 8.7658 6.90862 8.85503 7.00435L10.2347 8.3765C10.5092 8.65002 10.5069 8.94633 10.2278 9.23581C10.1317 9.33838 10.031 9.43639 9.92351 9.53896C9.76336 9.69395 9.59633 9.8535 9.44533 10.0336C9.18221 10.3162 8.86876 10.4484 8.46379 10.4484C8.4249 10.4484 8.38371 10.4461 8.34482 10.4438C7.59437 10.396 6.89654 10.1042 6.3726 9.85578C4.94949 9.16971 3.70026 8.19644 2.66381 6.96104C1.8104 5.93763 1.23613 4.98487 0.856324 3.96374C0.620664 3.33692 0.531434 2.8332 0.568041 2.37505Z" fill="url(#paint0_linear_303_2704)"/>
<defs>
<linearGradient id="paint0_linear_303_2704" x1="2.46069" y1="3.71021" x2="11.8662" y2="5.31161" gradientUnits="userSpaceOnUse">
<stop stop-color="#F45601"/>
<stop offset="1" stop-color="#FF7429"/>
</linearGradient>
</defs>
</svg>
