<svg width="10" height="10" viewBox="0 0 10 10" fill="none" xmlns="http://www.w3.org/2000/svg">
<path id="Vector" fill-rule="evenodd" clip-rule="evenodd" d="M5 0C3.62157 0 2.37156 0.560773 1.46617 1.46617C0.560773 2.37156 0 3.62157 0 5C0 6.37843 0.560773 7.62844 1.46617 8.53385C2.37156 9.43923 3.62157 10 5 10C6.37843 10 7.62844 9.43923 8.53385 8.53385C9.43923 7.62844 10 6.37845 10 5C10 3.62157 9.43923 2.37156 8.53385 1.46617C7.62844 0.560793 6.37845 0 5 0ZM6.90521 4.98565H5.26476V2.59119C5.26476 2.37 5.08541 2.19072 4.86429 2.19072C4.6431 2.19072 4.46382 2.37004 4.46382 2.59119V5.38614C4.46382 5.60731 4.64316 5.78661 4.86429 5.78661L6.90521 5.78666C7.1264 5.78666 7.30568 5.60733 7.30568 5.38618C7.30568 5.16504 7.1264 4.98565 6.90521 4.98565ZM5 9.20211C3.84143 9.20211 2.79084 8.73086 2.02994 7.96998C1.26907 7.20914 0.797808 6.15859 0.797808 5C0.797808 3.84141 1.26905 2.79086 2.02994 2.03002C2.79084 1.26914 3.84143 0.797891 5 0.797891C6.15857 0.797891 7.20916 1.26914 7.97004 2.03002C8.7309 2.79088 9.20219 3.84141 9.20219 5C9.20219 6.15859 8.7309 7.20914 7.97004 7.96998C7.20914 8.73086 6.15857 9.20211 5 9.20211Z" fill="url(#paint0_linear_302_2607)"/>
<defs>
<linearGradient id="paint0_linear_302_2607" x1="2.23699" y1="3.37292" x2="10.7875" y2="4.82874" gradientUnits="userSpaceOnUse">
<stop stop-color="#F45601"/>
<stop offset="1" stop-color="#FF7429"/>
</linearGradient>
</defs>
</svg>
