<svg width="24" height="21" viewBox="0 0 24 21" fill="none" xmlns="http://www.w3.org/2000/svg">
<g id="Vector">
<path d="M21.8438 -0.00146484H12.7031V8.39853H24V2.09854C24 0.940549 23.0069 -0.00146484 21.8438 -0.00146484ZM19.7344 6.29854C19.1922 6.29854 18.7022 6.08816 18.3281 5.75235C17.9541 6.08816 17.4641 6.29854 16.9219 6.29854C15.7587 6.29854 14.8125 5.35652 14.8125 4.19853C14.8125 3.04055 15.7587 2.09854 16.9219 2.09854C17.4641 2.09854 17.9541 2.30891 18.3281 2.64472C18.7022 2.30891 19.1922 2.09854 19.7344 2.09854C20.8975 2.09854 21.8438 3.04055 21.8438 4.19853C21.8438 5.35652 20.8975 6.29854 19.7344 6.29854Z" fill="#F9FAFB"/>
<path d="M16.9219 4.89854C17.3102 4.89854 17.625 4.58513 17.625 4.19853C17.625 3.81194 17.3102 3.49854 16.9219 3.49854C16.5336 3.49854 16.2188 3.81194 16.2188 4.19853C16.2188 4.58513 16.5336 4.89854 16.9219 4.89854Z" fill="#F9FAFB"/>
<path d="M19.7344 4.89854C20.1227 4.89854 20.4375 4.58513 20.4375 4.19853C20.4375 3.81194 20.1227 3.49854 19.7344 3.49854C19.3461 3.49854 19.0312 3.81194 19.0312 4.19853C19.0312 4.58513 19.3461 4.89854 19.7344 4.89854Z" fill="#F9FAFB"/>
<path d="M4.26562 13.9985C3.87834 13.9985 3.5625 14.3123 3.5625 14.6985C3.5625 15.0847 3.87834 15.3985 4.26562 15.3985C4.65427 15.3985 4.96875 15.7116 4.96875 16.0985C4.96875 16.4847 5.28459 16.7985 5.67188 16.7985C6.05916 16.7985 6.375 16.4847 6.375 16.0985C6.375 15.7116 6.68948 15.3985 7.07812 15.3985C7.46541 15.3985 7.78125 15.0847 7.78125 14.6985C7.78125 14.3123 7.46541 13.9985 7.07812 13.9985C6.68948 13.9985 6.375 13.6854 6.375 13.2985C6.375 12.9116 6.68948 12.5985 7.07812 12.5985C7.46541 12.5985 7.78125 12.2847 7.78125 11.8985C7.78125 11.5123 7.46541 11.1985 7.07812 11.1985C6.68948 11.1985 6.375 10.8854 6.375 10.4985C6.375 10.1116 6.68948 9.79854 7.07812 9.79854C7.46541 9.79854 7.78125 9.48475 7.78125 9.09854C7.78125 8.71232 7.46541 8.39853 7.07812 8.39853C6.68948 8.39853 6.375 8.08545 6.375 7.69853C6.375 7.31162 6.68948 6.99854 7.07812 6.99854C7.46541 6.99854 7.78125 6.68475 7.78125 6.29854C7.78125 5.91232 7.46541 5.59854 7.07812 5.59854C6.68948 5.59854 6.375 5.28545 6.375 4.89854C6.375 4.51232 6.05916 4.19853 5.67188 4.19853C5.28459 4.19853 4.96875 4.51232 4.96875 4.89854C4.96875 5.28545 4.65427 5.59854 4.26562 5.59854C3.87834 5.59854 3.5625 5.91232 3.5625 6.29854C3.5625 6.68475 3.87834 6.99854 4.26562 6.99854C4.65427 6.99854 4.96875 7.31162 4.96875 7.69853C4.96875 8.08545 4.65427 8.39853 4.26562 8.39853C3.87834 8.39853 3.5625 8.71232 3.5625 9.09854C3.5625 9.48475 3.87834 9.79854 4.26562 9.79854C4.65427 9.79854 4.96875 10.1116 4.96875 10.4985C4.96875 10.8854 4.65427 11.1985 4.26562 11.1985C3.87834 11.1985 3.5625 11.5123 3.5625 11.8985C3.5625 12.2847 3.87834 12.5985 4.26562 12.5985C4.65427 12.5985 4.96875 12.9116 4.96875 13.2985C4.96875 13.6854 4.65427 13.9985 4.26562 13.9985Z" fill="#F9FAFB"/>
<path d="M0 2.09854V18.8985C0 20.0565 0.946219 20.9985 2.10938 20.9985H11.2969V-0.00146484H2.10938C0.946219 -0.00146484 0 0.940549 0 2.09854ZM3.65316 4.28879C3.91683 3.42746 4.72158 2.79854 5.67188 2.79854C6.62217 2.79854 7.42692 3.42746 7.69059 4.28879C8.55577 4.55059 9.1875 5.35246 9.1875 6.29854C9.1875 6.83586 8.98425 7.32665 8.64919 7.69853C8.98425 8.07042 9.1875 8.56122 9.1875 9.09854C9.1875 9.63585 8.98425 10.1266 8.64919 10.4985C8.98425 10.8704 9.1875 11.3612 9.1875 11.8985C9.1875 12.4359 8.98425 12.9266 8.64919 13.2985C8.98425 13.6704 9.1875 14.1612 9.1875 14.6985C9.1875 15.6446 8.55577 16.4465 7.69059 16.7083C7.42692 17.5696 6.62217 18.1985 5.67188 18.1985C4.72158 18.1985 3.91683 17.5696 3.65316 16.7083C2.78798 16.4465 2.10938 15.6446 2.10938 14.6985C2.10938 14.1612 2.3595 13.6704 2.69456 13.2985C2.3595 12.9266 2.10938 12.4359 2.10938 11.8985C2.10938 11.3612 2.3595 10.8704 2.69456 10.4985C2.3595 10.1266 2.10938 9.63585 2.10938 9.09854C2.10938 8.56122 2.3595 8.07042 2.69456 7.69853C2.3595 7.32665 2.10938 6.83586 2.10938 6.29854C2.10938 5.35246 2.78798 4.55059 3.65316 4.28879ZM18.3281 17.4985C19.104 17.4985 19.7344 16.8703 19.7344 16.0985C19.7344 15.0519 18.8541 13.2985 18.3281 13.2985C17.8021 13.2985 16.9219 15.0519 16.9219 16.0985C16.9219 16.8703 17.5522 17.4985 18.3281 17.4985Z" fill="#F9FAFB"/>
<path d="M12.7031 20.9985H21.8438C23.0069 20.9985 24 20.0565 24 18.8985V9.79854H12.7031V20.9985ZM18.3281 11.8985C20.1546 11.8985 21.1406 14.8797 21.1406 16.0985C21.1406 17.6428 19.8786 18.8985 18.3281 18.8985C16.7777 18.8985 15.5156 17.6428 15.5156 16.0985C15.5156 14.8797 16.5016 11.8985 18.3281 11.8985Z" fill="#F9FAFB"/>
</g>
</svg>
