<svg width="27" height="26" viewBox="0 0 27 26" fill="none" xmlns="http://www.w3.org/2000/svg">
<path id="Subtract" fill-rule="evenodd" clip-rule="evenodd" d="M22.2168 24.555C24.6451 22.6741 25.0718 19.2195 23.1559 16.8355L23.1692 16.8231C22.9691 16.5642 22.7425 16.33 22.5023 16.1208C22.8141 16.0652 23.1268 15.9716 23.4403 15.8525C26.3139 14.7446 27.7421 11.5564 26.6135 8.73528C25.4848 5.91417 22.2503 4.51239 19.3637 5.62006C19.207 5.67957 19.0632 5.73941 18.9191 5.81194L18.9237 5.63434C19.0031 2.60254 16.5608 0.0783191 13.4726 0.000382568C10.3843 -0.077554 7.81313 2.32014 7.73374 5.35195C7.7271 5.60565 7.73371 5.847 7.76616 6.089C7.73619 6.07744 7.7068 6.06588 7.67774 6.05446C7.5703 6.01224 7.46742 5.97181 7.35633 5.93903C4.42024 4.98906 1.25006 6.55924 0.282416 9.44169C-0.68523 12.3241 0.914176 15.4364 3.85027 16.3864C4.17065 16.496 4.4791 16.5672 4.80114 16.6135C4.5755 16.8362 4.36211 17.0847 4.17424 17.3466C2.38958 19.8276 3.01091 23.2579 5.53844 24.9972C8.06563 26.7493 11.5598 26.1393 13.3315 23.658C13.5194 23.3961 13.6817 23.121 13.8186 22.8325C13.9667 23.1028 14.1535 23.3741 14.3536 23.633C16.2695 26.017 19.7884 26.4358 22.2168 24.555ZM15.2666 14.6092C15.558 14.2619 15.7607 13.8401 15.824 13.3687L15.7987 13.3439L18.3197 13.2819C18.4591 13.6416 18.8138 13.8897 19.2319 13.8773C19.7513 13.8649 20.1693 13.4308 20.1567 12.9222C20.144 12.4136 19.7006 12.0042 19.1812 12.0166C18.7758 12.029 18.4338 12.3019 18.3071 12.6617L15.8114 12.7237C15.7607 12.2523 15.5707 11.8181 15.292 11.4708L17.0655 9.68453C17.4203 9.84579 17.851 9.77136 18.1424 9.48605C18.5098 9.12632 18.5098 8.53089 18.1297 8.17115C17.7496 7.81142 17.1542 7.81142 16.7868 8.18356C16.4955 8.48127 16.4321 8.90303 16.6095 9.25036L14.8359 11.0242C14.4938 10.7637 14.0631 10.5901 13.607 10.5281V7.97268C13.9744 7.83623 14.2405 7.5013 14.2405 7.09194C14.2405 6.58335 13.8224 6.16159 13.2903 6.16159C12.7709 6.16159 12.3402 6.58335 12.3402 7.09194C12.3402 7.5013 12.6062 7.84863 12.9736 7.97268V10.5281C12.4542 10.5901 11.9728 10.8134 11.5928 11.1483L9.51511 9.46124C9.65447 9.10151 9.55312 8.67975 9.23641 8.41925C8.83101 8.09672 8.22293 8.14634 7.89354 8.54329C7.56416 8.94025 7.61484 9.52327 8.02023 9.8582C8.33694 10.1187 8.76767 10.1435 9.10972 9.94503L11.1747 11.6321C10.9593 11.967 10.8073 12.3515 10.7693 12.7733L8.04557 12.9842C7.88088 12.6369 7.51349 12.4012 7.09543 12.4384C6.57602 12.4756 6.18329 12.9346 6.2213 13.4432C6.25931 13.9518 6.72804 14.3363 7.24745 14.2991C7.66551 14.2743 7.99489 13.989 8.09624 13.6168L10.7946 13.4059C10.8706 13.8277 11.0353 14.1999 11.2887 14.5224L9.50245 16.5195C9.14773 16.3707 8.717 16.4575 8.43829 16.7676C8.09624 17.1522 8.13425 17.7476 8.52697 18.0825C8.91969 18.4175 9.52778 18.3802 9.86983 17.9957C10.1359 17.698 10.1739 17.2638 9.98385 16.9289L11.7448 14.9689C12.0868 15.2294 12.4795 15.4155 12.9229 15.4775L13.0623 18.0577C12.7076 18.2066 12.4542 18.5539 12.4795 18.9633C12.5049 19.4719 12.9609 19.8688 13.4804 19.844C13.9998 19.8192 14.4052 19.3726 14.3798 18.864C14.3545 18.4547 14.0758 18.1322 13.6957 18.0205L13.5564 15.4899C14.0251 15.4527 14.4558 15.2915 14.8106 15.031L16.6855 16.7304C16.5335 17.0902 16.6095 17.5119 16.9135 17.7848C17.2936 18.1322 17.9017 18.1073 18.2564 17.7352C18.6111 17.3631 18.5858 16.7676 18.2057 16.4203C17.9017 16.1474 17.4583 16.1102 17.1162 16.2838L15.2666 14.6092Z" fill="#FEFEFE"/>
</svg>
