<svg width="34" height="15" viewBox="0 0 34 15" fill="none" xmlns="http://www.w3.org/2000/svg">
<path fill-rule="evenodd" clip-rule="evenodd" d="M18.4657 1.75744C18.5169 1.76245 18.5785 1.88974 18.6278 1.92692C18.6899 1.97412 18.7451 2.00845 18.7958 2.08282C18.8769 2.20224 18.9262 2.3517 18.9593 2.51761C18.9946 2.6971 19.0956 2.78292 19.1725 2.9145C19.2147 2.98673 19.2545 3.04966 19.3102 3.09828C19.3908 3.1698 19.4823 3.17409 19.5651 3.23344C19.6896 3.3214 19.7843 3.46585 19.9025 3.57384C19.9649 3.62962 19.9998 3.71757 20.0555 3.78909C20.1103 3.85917 20.1696 3.8842 20.2276 3.93926C20.2715 3.98074 20.3159 4.03366 20.3589 4.07871C20.4214 4.14378 20.4327 4.23246 20.4694 4.32471C20.5328 4.48489 20.6165 4.6222 20.6645 4.78524C20.6949 4.88965 20.7442 4.8968 20.7904 4.97403C20.813 5.01194 20.8253 5.07558 20.8511 5.11563C20.8864 5.16998 20.905 5.17713 20.924 5.25293C20.953 5.37164 20.9665 5.4124 21.0145 5.50322C21.0499 5.56973 21.0915 5.67842 21.0838 5.7671C21.0888 5.62265 20.9937 5.47319 20.9136 5.41669C20.8588 5.37808 20.8149 5.37164 20.7678 5.29798C20.7243 5.23076 20.689 5.13637 20.6387 5.08202C20.5889 5.02695 20.5332 5.01265 20.4775 4.97046C20.4087 4.91826 20.3752 4.83387 20.3127 4.78167C20.2575 4.73662 20.2176 4.67512 20.1678 4.6222C20.1198 4.57142 20.0641 4.53424 20.0111 4.49062C19.9056 4.4048 19.844 4.22602 19.725 4.17525C19.7136 4.24319 19.7485 4.32399 19.7526 4.39121C19.7576 4.48418 19.7689 4.55069 19.7825 4.63936C19.7942 4.7123 19.8205 4.77809 19.8273 4.85175C19.8345 4.92469 19.8585 5.04197 19.8549 5.10848L19.83 5.10776C19.8268 5.06557 19.8119 5.07201 19.7988 5.04412L19.7684 4.96188C19.7426 4.89752 19.7127 4.8303 19.6629 4.78596C19.6235 4.7502 19.6004 4.74806 19.5683 4.69013C19.5361 4.63149 19.5316 4.58859 19.5126 4.51922C19.48 4.3998 19.475 4.28538 19.4374 4.16881C19.3985 4.04724 19.3346 3.96501 19.2916 3.85202C19.2726 3.8041 19.254 3.76334 19.2368 3.71543C19.2214 3.67181 19.2092 3.60316 19.1852 3.56812C19.1146 3.46299 18.9928 3.57956 18.9126 3.52378L18.8624 3.45799L18.7981 3.40364C18.775 3.36145 18.7686 3.30495 18.7682 3.25132C18.7677 3.20984 18.7782 3.12832 18.78 3.0754C18.7831 2.99459 18.7849 2.96384 18.7795 2.88804C18.77 2.74859 18.7433 2.63203 18.7016 2.51475C18.6541 2.37959 18.5658 2.34241 18.5404 2.18079L18.4657 1.7553V1.75744ZM15.3346 2.45825C15.312 2.47899 15.2834 2.66278 15.2698 2.71927C15.2486 2.80866 15.22 2.8816 15.2155 2.97743C15.2051 3.18124 15.3079 3.2742 15.3776 3.40936C15.3387 3.54237 15.283 3.59672 15.206 3.68468C15.1526 3.74475 15.0819 3.79266 15.0991 3.91352C15.1141 4.01578 15.1811 4.06226 15.1856 4.16524C15.1911 4.29539 15.0883 4.35474 15.0344 4.44342C14.9882 4.51922 14.9533 4.59145 14.9615 4.70086C14.9687 4.79597 14.9791 4.81242 14.9447 4.90395C14.918 4.97475 14.8913 5.0198 14.8768 5.10133C14.8641 5.17069 14.8569 5.23362 14.8324 5.29512C14.7704 5.4503 14.7491 5.58975 14.722 5.76281C14.7057 5.86578 14.6916 5.94373 14.6921 6.05386C14.6925 6.13538 14.6912 6.17829 14.6663 6.24551C14.6395 6.31702 14.6196 6.35993 14.5997 6.43931C14.5743 6.53728 14.5304 6.58376 14.4933 6.66815C14.4227 6.82833 14.3783 7.01069 14.3185 7.18374C14.2587 7.3568 14.1664 7.51413 14.0939 7.67431C14.0509 7.76871 13.9875 7.78087 13.9341 7.84737C13.8911 7.90029 13.8748 8.00041 13.8118 8.01614C13.7937 8.16202 13.7213 8.22281 13.6633 8.32221C13.6035 8.4259 13.537 8.55248 13.4912 8.67262C13.4446 8.7949 13.3934 8.91147 13.3459 9.03304C13.3142 9.11384 13.2789 9.1732 13.2395 9.24042C13.2182 9.2776 13.1883 9.3198 13.1947 9.37343C13.2648 9.27689 13.2816 9.11813 13.3223 8.99442C13.359 8.88286 13.4161 8.80134 13.4364 8.68334C13.4546 8.57894 13.4808 8.51529 13.5093 8.42447C13.5333 8.34724 13.5324 8.26285 13.561 8.18419C13.5868 8.11268 13.6081 8.05261 13.6293 7.97609C13.6701 7.83021 13.7163 7.68933 13.7638 7.5506C13.7874 7.48195 13.7892 7.42188 13.8037 7.3518C13.8182 7.28171 13.8508 7.22308 13.8616 7.14942C13.8748 7.06289 13.8761 7.02713 13.9046 6.95062C13.9327 6.87624 13.9576 6.83119 13.9957 6.76969C14.0486 6.68173 14.1202 6.57089 14.1528 6.47792C14.1953 6.35707 14.1795 6.20475 14.1972 6.07531C14.2171 5.93158 14.2461 5.84004 14.2981 5.71561C14.3393 5.61549 14.3937 5.4596 14.4054 5.3509C14.3565 5.39667 14.2963 5.44458 14.2633 5.51895C14.2429 5.56472 14.247 5.61621 14.2148 5.65769L14.155 5.70345C14.0631 5.79141 13.9834 5.93873 13.8829 6.00452C13.8367 6.03455 13.7801 6.0796 13.7407 6.13467C13.7031 6.18759 13.6773 6.24837 13.6366 6.297C13.6053 6.3349 13.5945 6.34849 13.5691 6.39497C13.5451 6.43788 13.5189 6.45003 13.4971 6.48221C13.4722 6.51654 13.4093 6.61022 13.4025 6.65956C13.4441 6.56803 13.4201 6.43287 13.4609 6.3349C13.4944 6.25409 13.5492 6.20189 13.5881 6.12895C13.6334 6.04528 13.6556 5.94588 13.7081 5.8665L13.7625 5.76853C13.7874 5.72348 13.8272 5.67771 13.8499 5.62551C13.8874 5.53898 13.9264 5.4453 13.9622 5.35519C13.9861 5.29369 14.0364 5.2229 14.0482 5.15424C14.0554 5.11277 14.0455 5.06199 14.0514 5.02052L14.0772 4.91683C14.0898 4.85747 14.1111 4.7831 14.1406 4.73662C14.1872 4.6651 14.2447 4.68155 14.3045 4.62935C14.3484 4.59145 14.4634 4.53066 14.4969 4.47345C14.5259 4.42411 14.5549 4.27823 14.5752 4.20957C14.5979 4.13234 14.6142 4.07227 14.6155 3.98646C14.6174 3.86775 14.6142 3.80339 14.6577 3.70542C14.698 3.6146 14.7555 3.56669 14.7994 3.48445C14.8723 3.34714 14.8496 3.1605 14.9144 3.00818C14.9796 2.85514 15.0172 2.70068 15.0679 2.5312C15.0928 2.44753 15.124 2.41535 15.1648 2.36028C15.2051 2.30665 15.2422 2.20582 15.3038 2.22441L15.3337 2.4604L15.3346 2.45825ZM11.1072 7.76656C11.1869 7.62569 11.2671 7.48552 11.3522 7.35394C11.4373 7.22307 11.4731 7.10151 11.5388 6.95205C11.5704 6.88053 11.6017 6.83548 11.6248 6.74967C11.6447 6.6753 11.637 6.60021 11.6542 6.52155C11.6827 6.39712 11.7765 6.27984 11.8267 6.18187C11.9064 6.02669 11.9553 5.93658 12.0101 5.75494C12.0491 5.62622 12.0966 5.50179 12.1378 5.37164C12.1858 5.2186 12.2786 5.11777 12.3656 5.01909C12.4299 4.94615 12.5023 4.90181 12.5648 4.81885C12.6191 4.74663 12.7532 4.75735 12.7532 4.63292C12.7532 4.44914 12.8474 4.53281 12.8474 4.78024C12.8474 4.99477 12.6581 5.51967 12.6169 5.65053C12.5693 5.79928 12.5272 5.95446 12.4797 6.1032C12.4362 6.23836 12.4181 6.41142 12.3484 6.52441C12.2936 6.6138 12.1971 6.73036 12.131 6.79544C12.0694 6.85694 12.0024 6.88483 11.9417 6.95276C11.9069 6.99138 11.8743 7.04215 11.8381 7.07719C11.6714 7.24095 11.5193 7.43618 11.3549 7.60566C11.277 7.68576 11.2055 7.78659 11.1303 7.86811C11.0751 7.92818 11.0103 8.0426 10.9497 8.08765C10.9709 7.98467 11.0588 7.85309 11.1077 7.76656H11.1072ZM17.542 5.77425C17.7091 5.77425 17.7403 6.12609 17.9409 6.28985C18.0097 6.34634 18.0967 6.33705 18.142 6.45361C18.1805 6.5523 18.1764 6.7039 18.2162 6.81331C18.2991 7.04287 18.4005 7.28243 18.4517 7.53844C18.4915 7.73724 18.549 7.94177 18.5984 8.14844C18.6391 8.32292 18.732 8.54175 18.7166 8.74341C18.641 8.61612 18.602 8.44592 18.5305 8.31434C18.4689 8.19992 18.405 8.09337 18.3444 7.97466C18.2171 7.72437 18.0111 7.63641 17.8585 7.4276C17.7702 7.30674 17.7901 7.21092 17.7412 7.05288C17.7127 6.96063 17.667 6.8884 17.6561 6.78399C17.6484 6.70819 17.6629 6.62667 17.652 6.54729C17.6285 6.37423 17.245 5.77425 17.5425 5.77425H17.542ZM20.195 6.17901C20.2846 6.26982 20.3788 6.35707 20.4662 6.45433C20.5445 6.54157 20.5717 6.64598 20.6315 6.75324C20.6926 6.86051 20.8171 6.97207 20.8964 7.04287C20.9539 7.09435 21.0023 7.10079 21.0517 7.17159C21.0988 7.23952 21.1282 7.34536 21.1689 7.42188C21.2355 7.54702 21.4053 7.7351 21.3963 7.93962C21.4859 7.95607 21.5289 8.1706 21.5615 8.27716C21.6018 8.40874 21.6716 8.51529 21.7313 8.62685C21.8205 8.79204 21.9405 8.92362 22.0211 9.09596C22.0605 9.18035 22.085 9.23041 22.1388 9.30835C22.171 9.35412 22.2127 9.42921 22.2108 9.48642C22.0746 9.50859 21.9727 9.26974 21.8595 9.1925C21.8128 9.16104 21.7671 9.12815 21.7191 9.09883C21.6525 9.05949 21.5946 9.07737 21.5303 9.05306C21.3795 8.99442 21.245 8.76701 21.1151 8.65331C21.0245 8.57322 20.9371 8.52816 20.8692 8.39801C20.8049 8.2743 20.7723 8.18348 20.6835 8.10052C20.598 8.02115 20.507 7.96251 20.4227 7.88027C20.3376 7.7966 20.2208 7.71794 20.1542 7.60066C20.0791 7.46908 20.0442 7.28315 19.9876 7.13226C19.9251 6.96635 19.845 6.83191 19.7915 6.65813C19.7222 6.43073 19.5606 6.27483 19.5606 6.03026C19.5606 5.66198 19.9233 5.90297 20.195 6.17758V6.17901ZM23.063 7.94177L23.082 7.90959C23.063 7.94177 23.3297 8.01113 23.4873 8.02329C23.6 8.03259 23.6711 8.12055 23.7775 8.17561C23.883 8.22924 24.0008 8.34724 24.071 8.47882C24.142 8.61469 24.1579 8.73269 24.2675 8.82279C24.3716 8.9086 24.4875 8.97297 24.5921 9.06092C24.713 9.16319 24.7841 9.32051 24.8824 9.45281C24.9603 9.55793 25.0327 9.63731 25.116 9.73742C25.1695 9.80178 25.2836 9.90548 25.3098 10.002C25.1844 10.0177 25.0318 9.88617 24.9159 9.82538C24.7945 9.76245 24.6614 9.76174 24.5387 9.71168C24.2824 9.6087 24.0655 9.42063 23.7929 9.41991C23.6825 9.41991 23.5584 9.44923 23.4583 9.38344C23.3804 9.33267 23.3193 9.21968 23.2636 9.12457C23.1069 8.85783 22.8946 8.68263 22.7302 8.42519C22.5423 8.13056 23.4189 7.94105 23.063 7.94105V7.94177ZM0.973524 13.6398C1.05729 13.5797 1.12159 13.6341 1.20853 13.6134C1.28686 13.5948 1.37878 13.4589 1.45666 13.431C1.53047 13.4045 1.59839 13.1914 1.67265 13.1464C1.83113 13.0513 1.93029 13.2093 2.07836 13.0885C2.22054 12.9733 2.36997 12.9998 2.50354 12.8353C2.63214 12.6758 2.76254 12.5793 2.91016 12.4749C3.00706 12.407 3.10169 12.2732 3.19995 12.2489C3.30998 12.2225 3.353 12.2082 3.45443 12.1102C3.50242 12.0637 3.54589 11.9893 3.59117 11.9464C3.67313 11.8692 3.73924 11.837 3.82935 11.7855C3.94074 11.7226 4.04262 11.6296 4.16216 11.581C4.26449 11.5402 4.26947 11.4616 4.35097 11.3836C4.45195 11.2878 4.56877 11.1727 4.67699 11.0776C4.8649 10.9124 5.08497 10.8394 5.26971 10.6792C5.35303 10.607 5.43136 10.489 5.52645 10.4232C5.62561 10.3531 5.74334 10.3202 5.84794 10.2709C5.86197 10.4847 5.82394 10.6399 5.72296 10.7844C5.66229 10.8716 5.48751 11.0876 5.40917 11.0847C5.34714 11.4923 5.02067 11.669 4.8237 11.8449C4.78023 11.8842 4.71186 11.9571 4.6616 12.0086C4.58824 12.0844 4.51172 12.1474 4.44153 12.2289C4.33467 12.3519 4.22102 12.462 4.10374 12.5686C3.97922 12.6808 3.83886 12.7845 3.72611 12.9268C3.66317 13.0062 3.59706 13.1199 3.52371 13.1693C3.43315 13.2301 2.94276 13.7785 2.56105 14.0767C3.29278 13.9888 4.17936 13.9602 5.09266 13.0198C5.57852 12.9061 5.93669 12.7288 6.34557 12.4542C6.27674 12.8582 6.36413 12.831 6.61453 12.9583C6.72683 12.9562 6.78841 12.8038 6.88168 12.7359C6.92923 12.7016 6.98628 12.7023 7.03745 12.6587C7.09994 12.605 7.15563 12.5385 7.22129 12.4906C7.30913 12.4248 7.40014 12.3705 7.49161 12.3197C7.58987 12.2661 7.70307 12.2718 7.79453 12.1946C7.90049 12.1059 7.49931 12.8703 7.60934 12.7831C7.72661 12.6901 8.51902 11.6854 8.62769 11.4308C8.46242 11.7676 8.19345 12.6172 8.29352 12.5028C8.39314 12.3891 8.43299 12.2768 8.54936 12.2117C8.64716 12.1574 8.7667 12.2975 8.86632 12.2761C8.99808 12.2482 9.03023 12.0594 9.1629 12.0501C9.28652 12.0422 9.3884 11.8778 9.5093 11.8885C9.61299 11.8985 9.68136 12.1888 9.79547 12.1788C10.0069 12.1624 10.0364 12.048 10.2302 11.9364C10.3578 11.8635 10.4806 11.9529 10.8795 11.8234C10.7065 12.1138 10.6798 12.2182 10.5779 12.3648C10.4982 12.4785 10.5177 12.5843 10.4566 12.728C10.385 12.8968 10.4421 12.9619 10.5734 12.9454C10.8116 12.9154 11.1041 12.4792 11.3255 12.344C11.3314 12.4277 11.8304 11.7383 11.8177 11.8299C11.7982 11.9679 11.7013 12.053 11.6506 12.1645C11.5342 12.4227 11.4228 12.6472 11.2544 12.8324C10.9954 13.1185 10.4557 13.8422 10.2102 14.1547C10.4421 14.0467 10.85 13.9552 11.0497 13.8114C11.2621 13.6584 11.4803 13.5533 11.6977 13.4231C11.9019 13.3008 12.0622 13.1235 12.2315 12.9133C12.3873 12.7202 12.5856 12.5757 12.7138 12.334C12.836 12.103 12.8804 11.802 13.0122 11.5767C13.1168 11.3986 13.2426 11.2485 13.3527 11.0776C13.4863 10.8695 13.6755 10.5934 13.8693 10.5469C14.0876 10.494 13.9979 10.863 13.9567 11.054C13.8892 11.3657 13.9046 11.6732 13.8598 11.9893C13.8209 12.2625 13.709 12.5228 13.781 12.8046C13.8073 12.5242 13.9594 12.2625 14.0799 12.0644C14.1754 11.9078 14.2904 11.2478 14.462 11.5595C14.5164 11.6582 14.5254 11.7848 14.5417 11.9064C14.5635 12.0737 14.6065 12.2067 14.6486 12.3619C14.7192 12.6215 14.793 12.9068 14.9085 13.1292C14.9216 13.0091 14.9103 12.8768 14.9126 12.7531C14.9153 12.555 14.9619 12.5257 15.0371 12.3741C15.1462 12.1531 15.2377 11.8256 15.2413 11.5524C15.2431 11.3929 15.24 11.3271 15.2889 11.2034C15.3323 11.094 15.3713 11.0168 15.3821 10.8931C15.3962 10.7322 15.3156 10.213 15.4709 10.1972C15.5284 10.3367 15.5818 10.376 15.6113 10.5534C15.6439 10.745 15.6819 10.8115 15.7675 10.9653C15.8245 11.0683 15.8644 11.1669 15.9101 11.2785C15.9635 11.4101 16.0595 11.488 16.1107 11.6125C16.1646 11.7426 16.1705 11.8928 16.2343 12.0172C16.3126 12.1702 16.4014 12.2189 16.5092 12.3018C16.6056 12.3755 16.6966 12.4735 16.789 12.5593C16.8651 12.6301 17.0136 12.688 17.0625 12.8031C16.9597 12.5543 16.9783 12.3118 16.9783 12.0151C16.9783 11.8878 16.9701 11.7548 16.9778 11.6289C16.9864 11.483 17.0263 11.3858 17.0489 11.2606C17.0969 10.9932 17.0059 10.8237 17.0009 10.5605C16.9986 10.4268 17.0081 10.2888 17.0009 10.1558C16.9932 10.0185 16.9692 9.89832 16.981 9.75602C17.1037 9.69309 17.1902 10.1236 17.2273 10.2673C17.288 10.5012 17.3473 10.7436 17.4637 10.9081C17.6312 11.1448 17.7861 11.2907 17.9808 11.4623C18.1891 11.6454 18.3 11.9643 18.5287 12.118C18.7542 12.2697 19.0598 12.3168 19.2328 12.5922C19.3414 12.7645 19.4424 12.9268 19.5828 13.0434C19.8323 13.2494 20.094 13.4889 20.3593 13.6398C20.535 13.7399 20.6731 13.913 20.8493 14.0174C21.0136 14.1154 21.1495 14.2219 21.3252 14.2999C21.403 14.3342 21.4832 14.3635 21.557 14.4057C21.6195 14.4415 21.6657 14.5344 21.739 14.4951L21.7386 14.3964C21.6512 14.3714 21.5144 14.2112 21.4334 14.1454C21.3243 14.0574 21.2002 13.9759 21.1219 13.8315C20.957 13.5275 20.7895 13.2815 20.5712 13.077C20.449 12.9626 20.3403 12.8196 20.2176 12.7123C20.1166 12.6236 19.9998 12.5571 19.897 12.467C19.6761 12.2732 19.5171 12.0644 19.3496 11.7755C19.2187 11.5495 19.0281 11.2492 19.024 10.936C19.1526 10.8358 19.3274 10.9016 19.4456 11.0068C19.6018 11.1455 19.7865 11.2671 19.9582 11.3343C20.0541 11.3729 20.1003 11.4694 20.1841 11.5381C20.2828 11.6175 20.3729 11.6775 20.4662 11.7712C20.6206 11.9271 20.7628 12.0801 20.9231 12.2082C21.049 12.3076 21.1699 12.4356 21.2953 12.5214C21.4628 12.6358 21.6281 12.7402 21.7775 12.899C21.9088 13.0391 22.042 13.1707 22.1773 13.3037C22.3272 13.4503 22.4481 13.6484 22.588 13.8029C22.7116 13.9402 22.9063 14.0589 23.0549 14.1161C23.2319 14.1854 24.1393 14.7561 24.3236 14.7575C24.1624 14.6059 23.9428 13.9702 23.9428 13.7328C23.9428 13.5483 24.2987 13.6255 24.4065 13.6892C24.4074 13.8315 24.7529 13.7042 24.8185 13.7521C24.8928 13.8064 25.0064 14.0145 25.0907 13.8744C25.0092 13.6234 24.8711 13.4796 24.7529 13.2801C24.6745 13.1485 24.617 13.0248 24.5446 12.8811C24.4685 12.7295 24.3635 12.6437 24.2752 12.5135C24.0981 12.2511 23.984 11.8885 23.8142 11.6139C23.7576 11.5224 23.7114 11.4301 23.6852 11.3035C23.6571 11.1641 23.6716 10.9603 23.6304 10.8223C23.7065 10.808 23.8101 10.7972 23.8826 10.828C23.9736 10.868 24.0411 10.9467 24.1357 10.9717C24.2824 11.0103 24.445 11.0211 24.5446 11.2256C24.6216 11.3843 24.6628 11.5431 24.7606 11.6604C24.8063 11.7147 24.9037 11.7455 24.958 11.7726C25.0146 11.8012 25.0626 11.8706 25.1196 11.8914L25.1292 11.95C25.3854 12.0837 25.6132 12.2489 25.8622 12.4034C25.9111 12.4334 25.9655 12.4842 26.018 12.5192C26.0628 12.5478 26.1108 12.5614 26.1529 12.5915C26.2598 12.6665 26.2992 12.8947 26.3916 12.9912C26.4862 13.0906 26.6189 13.1171 26.723 13.2007C26.8127 13.273 26.8901 13.3309 26.9888 13.3759C27.117 13.436 27.2406 13.514 27.356 13.5976C27.4167 13.642 27.486 13.6977 27.5426 13.76C27.6178 13.8436 27.6336 13.8408 27.7183 13.8737C27.8202 13.9144 27.9229 14.0031 28.0185 14.0467C28.0801 14.0746 28.1335 14.1447 28.1928 14.169C28.2467 14.1905 28.3259 14.1669 28.3816 14.1676C28.3105 14.1633 28.1865 13.9466 28.1457 13.8465C28.0946 13.7199 28.1294 13.7335 28.028 13.6527C27.9442 13.5855 27.8591 13.5068 27.7758 13.4389C27.5915 13.2858 27.4371 13.0992 27.2469 12.9905C27.1124 12.9133 27.0681 12.8546 26.9567 12.7273C26.9254 12.6916 26.8887 12.6887 26.8593 12.6594L26.8335 12.5922C26.7968 12.5457 26.7321 12.5178 26.6963 12.467C26.6057 12.3376 26.507 12.2117 26.4228 12.0594C26.3775 11.9779 26.3232 11.7719 26.2349 11.8134C26.267 11.792 26.2947 11.7548 26.3132 11.7076L26.2942 11.6618C26.3649 11.5688 26.5641 11.5424 26.6415 11.596C26.7543 11.6732 26.8829 11.8871 27.0101 11.8878C27.0395 11.8885 27.0708 11.8399 27.0961 11.8449C27.1287 11.8506 27.1364 11.8828 27.1609 11.8956C27.2197 11.9242 27.2881 11.9657 27.3492 12.0029C27.4747 12.0801 27.5924 12.0751 27.7178 12.1374C27.8143 12.1853 27.9057 12.2453 27.9904 12.3426C28.1004 12.4685 28.1602 12.5114 28.2834 12.5836C28.3364 12.6151 28.3834 12.6673 28.4373 12.6973C28.4962 12.7295 28.5437 12.718 28.6035 12.7359C28.7095 12.7681 28.7905 12.9082 28.8901 12.9504C28.9467 12.974 29.0106 12.9383 29.0676 12.9526C29.1197 12.9662 29.1731 13.0062 29.2243 13.0262C29.3393 13.072 29.4693 13.1714 29.5865 13.2715C29.6839 13.3559 29.784 13.4703 29.8804 13.544C29.9791 13.6198 30.1263 13.4382 30.2399 13.5032C30.3789 13.5826 30.3989 13.712 30.494 13.8515C30.6062 14.0167 30.6366 13.9108 30.777 13.9888C30.8829 14.0467 30.9803 14.2977 31.0935 14.3185C31.1895 14.3363 31.3248 14.1676 31.4113 14.2384C31.4562 14.2748 31.4983 14.3249 31.5413 14.3492C31.7509 14.4693 31.8474 14.4994 32.081 14.4994C32.2155 14.4994 32.4578 14.6567 32.5891 14.686C32.8694 14.749 33.6613 14.9478 34 14.9985C25.9791 9.28761 23.1961 5.31944 19.6919 0.972243C19.5176 0.754848 19.2817 0.568918 19.1463 0.355813C19.0471 0.200633 18.9742 0.211359 18.8447 0.210644C18.7926 0.210644 18.7469 0.252121 18.698 0.256412C18.6509 0.259987 18.612 0.217795 18.5699 0.189191C18.4635 0.117679 18.4096 0.0590396 18.2909 0.0583245C18.2289 0.0583245 18.1909 0.055464 18.1347 0.0947954C18.0731 0.137702 18.0523 0.146284 17.9844 0.137702C17.8599 0.12197 17.7267 0.148429 17.604 0.124115C17.4474 0.0926501 17.3799 0.253551 17.2377 0.317912C17.201 0.334359 17.1503 0.320772 17.0946 0.319342C17.0439 0.317912 16.9959 0.33722 16.9466 0.316481C16.8882 0.292167 16.87 0.171313 16.8166 0.129121C16.7709 0.0926501 16.7184 0.101947 16.669 0.103377C16.611 0.104807 16.5617 0.109098 16.5083 0.0669059L16.468 0.0111268C16.4399 -0.0117569 16.4037 0.00326051 16.3738 0.00469075C16.2144 0.0104117 16.0785 0.00183028 15.9192 0.00326052C15.777 0.00469075 15.6642 0.0290047 15.5239 0.0633303C15.4808 0.074057 15.427 0.0876443 15.4007 0.149859L15.379 0.257842C15.3545 0.317197 15.2934 0.330784 15.2531 0.342941C15.1734 0.36654 15.1363 0.370115 15.0602 0.418743C15.0081 0.453069 15.005 0.474522 14.9601 0.42947C14.918 0.387278 14.8727 0.344371 14.827 0.30504C14.7939 0.27715 14.7487 0.189191 14.7133 0.181324L14.6454 0.21279L14.5834 0.212074C14.534 0.211359 14.5023 0.230668 14.4534 0.219941C14.3728 0.203493 14.3144 0.116964 14.2429 0.0626152C14.1962 0.0268594 14.0695 0.0189931 14.0188 0.0225687C13.9372 0.0290047 13.9852 0.0154175 13.9051 0.0204233C13.8245 0.0254291 13.724 0.100516 13.6561 0.161301C13.5904 0.220656 13.5388 0.310045 13.4727 0.37083C13.388 0.448778 13.3079 0.49383 13.2377 0.603958C13.1702 0.710511 13.0633 0.747697 12.8827 0.972243C9.5899 5.05556 6.94236 8.80491 0 13.9795C0.319678 13.8272 0.922358 13.6756 0.972166 13.6391L0.973524 13.6398Z" fill="#FEFEFE"/>
</svg>
