<svg width="25" height="21" viewBox="0 0 25 21" fill="none" xmlns="http://www.w3.org/2000/svg">
<path id="Vector" d="M24.8758 0.183552C24.8144 0.110893 24.7345 0.0564365 24.6447 0.0260066C24.555 -0.00442339 24.4587 -0.009682 24.3662 0.0107933C24.3199 0.0215231 19.6411 1.04843 12.5 1.04843C5.35889 1.04843 0.680057 0.0215231 0.633817 0.0107441C0.444609 -0.0307966 0.249297 0.0353535 0.124151 0.183503C0.0627357 0.256215 0.0221784 0.344449 0.00685341 0.438688C-0.00847158 0.532926 0.00201726 0.629595 0.0371887 0.718266L1.07883 3.34326C1.1145 3.43319 1.17414 3.51143 1.25116 3.56934C1.32818 3.62725 1.41957 3.66257 1.51526 3.6714C1.53933 3.67357 2.57311 3.76679 4.13829 3.87409L4.0005 6.29846H2.60422C2.53581 6.29842 2.46806 6.31197 2.40484 6.33834C2.34163 6.3647 2.2842 6.40338 2.23582 6.45214C2.18745 6.5009 2.14909 6.55879 2.12293 6.62251C2.09677 6.68623 2.08333 6.75452 2.08337 6.82348V8.92346C2.08333 8.99242 2.09677 9.06071 2.12293 9.12443C2.14909 9.18814 2.18745 9.24604 2.23582 9.2948C2.2842 9.34356 2.34163 9.38223 2.40484 9.4086C2.46806 9.43497 2.53581 9.44852 2.60422 9.44847H3.80763L3.12604 20.4407C3.12154 20.5123 3.13168 20.584 3.15583 20.6515C3.17998 20.719 3.21762 20.7807 3.26642 20.8329C3.31506 20.8852 3.37384 20.9269 3.4391 20.9554C3.50437 20.9839 3.57474 20.9986 3.64586 20.9985H5.7292C5.86171 20.9986 5.98926 20.9477 6.08584 20.8562C6.18243 20.7648 6.24079 20.6397 6.24902 20.5063L6.93467 9.44847H18.0654L18.751 20.5063C18.7683 20.7832 18.9956 20.9985 19.2708 20.9985H21.3542C21.4981 20.9985 21.6354 20.9385 21.7336 20.8329C21.7824 20.7807 21.8201 20.719 21.8442 20.6515C21.8684 20.584 21.8785 20.5123 21.874 20.4407L21.1925 9.44847H22.3959C22.4643 9.44852 22.532 9.43497 22.5952 9.4086C22.6585 9.38223 22.7159 9.34356 22.7643 9.2948C22.8126 9.24604 22.851 9.18814 22.8772 9.12443C22.9033 9.06071 22.9168 8.99242 22.9167 8.92346V6.82343C22.9168 6.75447 22.9033 6.68618 22.8772 6.62246C22.851 6.55874 22.8126 6.50085 22.7643 6.45209C22.7159 6.40333 22.6585 6.36466 22.5952 6.33829C22.532 6.31192 22.4643 6.29837 22.3959 6.29841H20.9996L20.8618 3.87404C22.427 3.76669 23.4608 3.67352 23.4848 3.67135C23.5805 3.66252 23.6719 3.6272 23.7489 3.56929C23.8259 3.51138 23.8856 3.43314 23.9213 3.34321L24.9629 0.718217C24.998 0.629546 25.0085 0.532897 24.9931 0.438681C24.9778 0.344466 24.9372 0.256255 24.8758 0.183552ZM10.9375 6.29846H7.12812L7.26015 4.05713C8.42626 4.11378 9.67826 4.16005 10.9374 4.18269V6.29846H10.9375ZM14.0625 6.29846V4.18269C15.3216 4.16005 16.5737 4.11378 17.7397 4.05713L17.8718 6.29846H14.0625Z" fill="#F9FAFB"/>
</svg>
