<svg width="81" height="21" viewBox="0 0 81 21" fill="none" xmlns="http://www.w3.org/2000/svg">
<path d="M17.9288 13.6725C17.9258 13.6752 17.9253 13.6798 17.9277 13.6831C19.3498 15.6338 18.9153 18.366 16.9662 19.7917C15.0151 21.2189 12.2789 20.7856 10.8517 18.8345C10.6713 18.5778 10.2426 18.5755 10.0527 18.8253C8.597 20.7489 5.85036 21.1347 3.92738 19.6689C2.00378 18.2133 1.61795 15.4666 3.0837 13.5437C3.27476 13.2924 3.1526 12.8852 2.85851 12.7705C0.59293 11.9312 -0.566007 9.40979 0.273291 7.14421C1.11259 4.87862 3.63405 3.71969 5.89963 4.55898C6.04499 4.60851 6.20038 4.50199 6.20202 4.34844C6.20288 4.26762 6.20623 4.18596 6.21141 4.10267C6.3613 1.69299 8.43894 -0.141318 10.8486 0.0085694C13.2583 0.158457 15.0926 2.2361 14.9427 4.64578C14.9388 4.70938 15.0045 4.75442 15.0635 4.73028C15.1357 4.70072 15.2093 4.67371 15.2868 4.64694C17.5733 3.84788 20.0589 5.05511 20.8586 7.33155C21.6583 9.60799 20.4504 12.1037 18.174 12.9034C18.1005 12.9288 18.027 12.9524 17.9538 12.974C17.7462 13.0352 17.6592 13.3135 17.7946 13.4823C17.8414 13.5406 17.8866 13.6005 17.9301 13.662C17.9324 13.6653 17.9318 13.6698 17.9288 13.6725Z" fill="url(#paint0_linear_55_2)"/>
<path d="M46.9288 13.6725C46.9258 13.6752 46.9253 13.6798 46.9277 13.6831C48.3498 15.6338 47.9153 18.366 45.9662 19.7917C44.0151 21.2189 41.2789 20.7856 39.8517 18.8345C39.6713 18.5778 39.2426 18.5755 39.0527 18.8253C37.597 20.7489 34.8504 21.1347 32.9274 19.6689C31.0038 18.2133 30.6179 15.4666 32.0837 13.5437C32.2748 13.2924 32.1526 12.8852 31.8585 12.7705C29.5929 11.9312 28.434 9.40979 29.2733 7.14421C30.1126 4.87862 32.634 3.71969 34.8996 4.55898C35.045 4.60851 35.2004 4.50199 35.202 4.34844C35.2029 4.26762 35.2062 4.18596 35.2114 4.10267C35.3613 1.69299 37.4389 -0.141318 39.8486 0.0085694C42.2583 0.158457 44.0926 2.2361 43.9427 4.64578C43.9388 4.70938 44.0045 4.75442 44.0635 4.73028C44.1357 4.70072 44.2093 4.67371 44.2868 4.64694C46.5733 3.84788 49.0589 5.05511 49.8586 7.33155C50.6583 9.60799 49.4504 12.1037 47.174 12.9034C47.1005 12.9288 47.027 12.9524 46.9538 12.974C46.7462 13.0352 46.6592 13.3135 46.7946 13.4823C46.8414 13.5406 46.8866 13.6005 46.9301 13.662C46.9324 13.6653 46.9318 13.6698 46.9288 13.6725Z" fill="url(#paint1_linear_55_2)"/>
<path d="M76.9288 13.6725C76.9258 13.6752 76.9253 13.6798 76.9277 13.6831C78.3498 15.6338 77.9153 18.366 75.9662 19.7917C74.0151 21.2189 71.2789 20.7856 69.8517 18.8345C69.6713 18.5778 69.2426 18.5755 69.0527 18.8253C67.597 20.7489 64.8504 21.1347 62.9274 19.6689C61.0038 18.2133 60.6179 15.4666 62.0837 13.5437C62.2748 13.2924 62.1526 12.8852 61.8585 12.7705C59.5929 11.9312 58.434 9.40979 59.2733 7.14421C60.1126 4.87862 62.634 3.71969 64.8996 4.55898C65.045 4.60851 65.2004 4.50199 65.202 4.34844C65.2029 4.26762 65.2062 4.18596 65.2114 4.10267C65.3613 1.69299 67.4389 -0.141318 69.8486 0.0085694C72.2583 0.158457 74.0926 2.2361 73.9427 4.64578C73.9388 4.70938 74.0045 4.75442 74.0635 4.73028C74.1357 4.70072 74.2093 4.67371 74.2868 4.64694C76.5733 3.84788 79.0589 5.05511 79.8586 7.33155C80.6583 9.60799 79.4504 12.1037 77.174 12.9034C77.1005 12.9288 77.027 12.9524 76.9538 12.974C76.7462 13.0352 76.6592 13.3135 76.7946 13.4823C76.8414 13.5406 76.8866 13.6005 76.9301 13.662C76.9324 13.6653 76.9318 13.6698 76.9288 13.6725Z" fill="url(#paint2_linear_55_2)"/>
<defs>
<linearGradient id="paint0_linear_55_2" x1="4.84341" y1="6.65944" x2="22.6321" y2="10.8841" gradientUnits="userSpaceOnUse">
<stop stop-color="#F45601"/>
<stop offset="1" stop-color="#FF7429"/>
</linearGradient>
<linearGradient id="paint1_linear_55_2" x1="33.8434" y1="6.65944" x2="51.6321" y2="10.8841" gradientUnits="userSpaceOnUse">
<stop stop-color="#F45601"/>
<stop offset="1" stop-color="#FF7429"/>
</linearGradient>
<linearGradient id="paint2_linear_55_2" x1="63.8434" y1="6.65944" x2="81.6321" y2="10.8841" gradientUnits="userSpaceOnUse">
<stop stop-color="#F45601"/>
<stop offset="1" stop-color="#FF7429"/>
</linearGradient>
</defs>
</svg>
