<svg width="22" height="21" viewBox="0 0 22 21" fill="none" xmlns="http://www.w3.org/2000/svg">
<path d="M17.9288 13.6725C17.9258 13.6752 17.9253 13.6798 17.9277 13.6831C19.3498 15.6338 18.9153 18.366 16.9662 19.7917C15.0151 21.2189 12.2789 20.7856 10.8517 18.8345C10.6713 18.5778 10.2426 18.5755 10.0527 18.8253C8.597 20.7489 5.85036 21.1347 3.92738 19.6689C2.00378 18.2133 1.61795 15.4666 3.0837 13.5437C3.27476 13.2924 3.1526 12.8852 2.85851 12.7705C0.59293 11.9312 -0.566007 9.40979 0.273291 7.14421C1.11259 4.87862 3.63405 3.71969 5.89963 4.55898C6.04499 4.60851 6.20038 4.50199 6.20202 4.34844C6.20288 4.26762 6.20623 4.18596 6.21141 4.10267C6.3613 1.69299 8.43894 -0.141318 10.8486 0.0085694C13.2583 0.158457 15.0926 2.2361 14.9427 4.64578C14.9388 4.70938 15.0045 4.75442 15.0635 4.73028C15.1357 4.70072 15.2093 4.67371 15.2868 4.64694C17.5733 3.84788 20.0589 5.05511 20.8586 7.33155C21.6583 9.60799 20.4504 12.1037 18.174 12.9034C18.1005 12.9288 18.027 12.9524 17.9538 12.974C17.7462 13.0352 17.6592 13.3135 17.7946 13.4823C17.8414 13.5406 17.8866 13.6005 17.9301 13.662C17.9324 13.6653 17.9318 13.6698 17.9288 13.6725Z" fill="url(#paint0_linear_263_8802)"/>
<defs>
<linearGradient id="paint0_linear_263_8802" x1="4.84341" y1="6.65944" x2="22.6321" y2="10.8841" gradientUnits="userSpaceOnUse">
<stop stop-color="#F45601"/>
<stop offset="1" stop-color="#FF7429"/>
</linearGradient>
</defs>
</svg>
