<svg width="20" height="24" viewBox="0 0 20 24" fill="none" xmlns="http://www.w3.org/2000/svg">
<path d="M16.9679 7.68369C16.885 7.60709 16.7844 7.55002 16.6741 7.51706C16.5638 7.48409 16.4469 7.47615 16.3329 7.49387C16.2188 7.51159 16.1106 7.55448 16.0171 7.61909C15.9236 7.6837 15.8474 7.76825 15.7944 7.86594C15.4261 8.54565 14.9583 9.17235 14.405 9.7274C14.4601 9.32763 14.4877 8.92489 14.4877 8.52172C14.4877 7.74767 14.3786 6.95112 14.1632 6.15391C13.4552 3.53542 11.5985 1.32099 9.06939 0.0784677C8.961 0.0252326 8.84044 -0.00169518 8.71845 8.26512e-05C8.59646 0.00186048 8.47682 0.0322887 8.3702 0.0886573C8.26357 0.145026 8.17327 0.225585 8.10733 0.32316C8.04139 0.420734 8.00186 0.532296 7.99227 0.647907C7.79511 3.02748 6.50564 5.19236 4.45254 6.58887C4.42536 6.60748 4.39839 6.62632 4.37142 6.64507C4.31554 6.68393 4.26287 6.72068 4.21366 6.75153C4.20596 6.75639 4.19835 6.76137 4.19083 6.76648C2.89958 7.64525 1.83415 8.81666 1.10957 10.1544C0.373309 11.5152 0 12.9754 0 14.4944C0 15.2682 0.109132 16.0647 0.324389 16.8621C1.46034 21.0648 5.43922 24 10.0003 24C15.5142 24 20 19.7358 20 14.4944C20 11.9097 18.9232 9.49091 16.9679 7.68369Z" fill="url(#paint0_linear_263_8804)"/>
<defs>
<linearGradient id="paint0_linear_263_8804" x1="4.47398" y1="8.09501" x2="21.7234" y2="10.5424" gradientUnits="userSpaceOnUse">
<stop stop-color="#F45601"/>
<stop offset="1" stop-color="#FF7429"/>
</linearGradient>
</defs>
</svg>
