<svg width="44" height="44" viewBox="0 0 44 44" fill="none" xmlns="http://www.w3.org/2000/svg">
<path opacity="0.2" fill-rule="evenodd" clip-rule="evenodd" d="M31.9961 1.5H11.9961C6.1971 1.5 1.49609 6.20101 1.49609 12V32C1.49609 37.799 6.1971 42.5 11.9961 42.5H31.9961C37.7951 42.5 42.4961 37.799 42.4961 32V12C42.4961 6.20101 37.7951 1.5 31.9961 1.5ZM11.9961 0C5.36868 0 -0.00390625 5.37258 -0.00390625 12V32C-0.00390625 38.6274 5.36868 44 11.9961 44H31.9961C38.6235 44 43.9961 38.6274 43.9961 32V12C43.9961 5.37258 38.6235 0 31.9961 0H11.9961Z" fill="#F9FAFB"/>
<path fill-rule="evenodd" clip-rule="evenodd" d="M20.0465 24.5318L19.775 28.1914C20.1621 28.1914 20.3313 28.0321 20.5324 27.8391L22.3504 26.1709L26.1172 28.8187C26.8075 29.1887 27.2951 28.9941 27.4811 28.2091L29.9543 17.0855C30.1738 16.1043 29.5856 15.7214 28.9121 15.9627L14.3779 21.3049C13.3859 21.6749 13.401 22.2057 14.2087 22.4454L17.9251 23.5554L26.5562 18.3708C26.9633 18.1118 27.332 18.255 27.0287 18.514L20.0465 24.5318Z" fill="#F9FAFB"/>
</svg>
