<svg width="44" height="44" viewBox="0 0 44 44" fill="none" xmlns="http://www.w3.org/2000/svg">
<path fill-rule="evenodd" clip-rule="evenodd" d="M32 1.5H12C6.20101 1.5 1.5 6.20101 1.5 12V32C1.5 37.799 6.20101 42.5 12 42.5H32C37.799 42.5 42.5 37.799 42.5 32V12C42.5 6.20101 37.799 1.5 32 1.5ZM12 0C5.37258 0 0 5.37258 0 12V32C0 38.6274 5.37258 44 12 44H32C38.6274 44 44 38.6274 44 32V12C44 5.37258 38.6274 0 32 0H12Z" fill="#F45601"/>
<path fill-rule="evenodd" clip-rule="evenodd" d="M30.9959 27.751C30.981 27.7063 30.9512 27.6616 30.9363 27.6318C30.6083 27.0504 29.9823 26.32 29.058 25.4703L29.0431 25.4554L29.0282 25.4405L29.0133 25.4255H28.9984C28.581 25.0231 28.3127 24.7547 28.2083 24.6206C27.9996 24.3522 27.9549 24.0988 28.0742 23.8305C28.1487 23.6218 28.4468 23.2044 28.9537 22.5485C29.222 22.2056 29.4307 21.9224 29.5947 21.7137C30.7276 20.2081 31.2195 19.2391 31.0705 18.8217L31.0108 18.7323C30.9661 18.6727 30.8767 18.613 30.7127 18.5683C30.5487 18.5236 30.34 18.5087 30.0866 18.5385L27.2543 18.5534C27.2096 18.5385 27.1499 18.5385 27.0605 18.5534C26.971 18.5683 26.9263 18.5832 26.9263 18.5832L26.8816 18.613L26.8369 18.6429C26.8071 18.6578 26.7623 18.7025 26.7325 18.7472C26.6878 18.7919 26.658 18.8516 26.6431 18.9112C26.33 19.7013 25.9872 20.4317 25.5996 21.1174C25.3611 21.5199 25.1375 21.8777 24.9288 22.1758C24.7201 22.474 24.5561 22.6976 24.4219 22.8317C24.2878 22.9659 24.1536 23.0851 24.0493 23.1746C23.9449 23.264 23.8555 23.2938 23.7958 23.2789C23.7362 23.264 23.6766 23.2491 23.6319 23.2342C23.5424 23.1746 23.4679 23.1001 23.4083 22.9957C23.3486 22.8914 23.3188 22.7721 23.289 22.6081C23.2741 22.4591 23.2592 22.3249 23.2592 22.2056C23.2592 22.1013 23.2592 21.9373 23.2592 21.7286C23.2741 21.5199 23.2741 21.3857 23.2741 21.3112C23.2741 21.0578 23.2741 20.7895 23.289 20.5062C23.3039 20.223 23.3039 19.9845 23.3188 19.8056C23.3337 19.6416 23.3337 19.4478 23.3337 19.269C23.3337 19.0752 23.3188 18.9261 23.3039 18.8217C23.289 18.7174 23.2443 18.613 23.1996 18.5087C23.1548 18.4043 23.0803 18.3298 22.9909 18.2702C22.9014 18.2106 22.7971 18.1658 22.6629 18.136C22.32 18.0615 21.8728 18.0168 21.3362 18.0019C20.1138 17.9869 19.3386 18.0615 18.9809 18.2404C18.8467 18.3149 18.7126 18.4043 18.6082 18.5385C18.4889 18.6876 18.474 18.7621 18.5635 18.777C18.966 18.8366 19.2343 18.9857 19.3983 19.1944L19.4579 19.3137C19.5026 19.4031 19.5473 19.5522 19.5921 19.7609C19.6368 19.9696 19.6666 20.223 19.6815 20.4764C19.7113 20.9534 19.7113 21.3559 19.6815 21.6988C19.6517 22.0417 19.6219 22.31 19.5921 22.4889C19.5623 22.6827 19.5175 22.8317 19.4579 22.951C19.3983 23.0702 19.3685 23.1448 19.3386 23.1597C19.3237 23.1895 19.3088 23.2044 19.2939 23.2044C19.2045 23.2342 19.115 23.2491 19.0256 23.2491C18.9362 23.2491 18.8169 23.2044 18.6976 23.115C18.5635 23.0255 18.4293 22.8914 18.2952 22.7423C18.161 22.5783 17.997 22.3547 17.8181 22.0715C17.6392 21.7882 17.4604 21.4454 17.2666 21.0429L17.1026 20.7597C17.0132 20.5808 16.8641 20.3124 16.7001 19.9547C16.5361 19.5969 16.3871 19.269 16.2529 18.941C16.1933 18.8068 16.1187 18.7025 16.0144 18.628L15.9697 18.5981C15.9398 18.5683 15.8802 18.5385 15.8057 18.5087C15.7311 18.4789 15.6566 18.4491 15.5821 18.4491L12.8839 18.464C12.6007 18.464 12.4218 18.5236 12.3323 18.6578L12.2876 18.7174C12.2727 18.7472 12.2578 18.8068 12.2578 18.8814C12.2578 18.9559 12.2727 19.0453 12.3174 19.1497C12.705 20.0739 13.1373 20.9684 13.5994 21.8181C14.0616 22.6678 14.4641 23.3684 14.8069 23.8901C15.1498 24.4119 15.4926 24.9038 15.8504 25.3808C16.2082 25.8429 16.4318 26.1411 16.551 26.2752C16.6703 26.4094 16.7597 26.4989 16.8194 26.5734L17.0579 26.8119C17.2218 26.9759 17.4455 27.1548 17.7585 27.3784C18.0566 27.602 18.3995 27.8107 18.7722 28.0343C19.1449 28.243 19.5772 28.4219 20.0691 28.556C20.561 28.6902 21.038 28.7498 21.5002 28.72H22.6331C22.8567 28.7051 23.0356 28.6306 23.1548 28.5113L23.1996 28.4666C23.2294 28.4219 23.2592 28.3622 23.2741 28.2877C23.289 28.1983 23.3039 28.1237 23.3039 28.0194C23.289 27.7361 23.3188 27.4827 23.3635 27.2591C23.4083 27.0355 23.4679 26.8566 23.5275 26.7523C23.5871 26.633 23.6617 26.5436 23.7362 26.469C23.8108 26.3945 23.8704 26.3349 23.9002 26.3349C23.93 26.32 23.9598 26.3051 23.9747 26.3051C24.1387 26.2454 24.3176 26.3051 24.5263 26.4541C24.735 26.6032 24.9437 26.797 25.1226 27.0206C25.3015 27.2442 25.54 27.4976 25.7934 27.7809C26.0617 28.0641 26.2853 28.2728 26.4791 28.407L26.6729 28.5262C26.8071 28.6007 26.971 28.6753 27.1797 28.7349C27.3884 28.7945 27.5673 28.8243 27.7313 28.7796L30.2506 28.7349C30.504 28.7349 30.6978 28.6902 30.832 28.6157C30.9661 28.5262 31.0556 28.4517 31.0705 28.3473C31.1003 28.2579 31.1003 28.1386 31.0705 28.0194C31.0556 27.9001 31.0257 27.8107 30.9959 27.766H30.981L30.9959 27.751Z" fill="#F45601"/>
</svg>
