<svg width="44" height="44" viewBox="0 0 44 44" fill="none" xmlns="http://www.w3.org/2000/svg">
<path fill-rule="evenodd" clip-rule="evenodd" d="M32 1.5H12C6.20101 1.5 1.5 6.20101 1.5 12V32C1.5 37.799 6.20101 42.5 12 42.5H32C37.799 42.5 42.5 37.799 42.5 32V12C42.5 6.20101 37.799 1.5 32 1.5ZM12 0C5.37258 0 0 5.37258 0 12V32C0 38.6274 5.37258 44 12 44H32C38.6274 44 44 38.6274 44 32V12C44 5.37258 38.6274 0 32 0H12Z" fill="#F9FAFB"/>
<path fill-rule="evenodd" clip-rule="evenodd" d="M28.7552 16.2448C27.3075 14.7972 25.3828 14 23.3355 14C21.2883 14 19.3634 14.7972 17.9159 16.2448C16.4683 17.6925 15.6711 19.6172 15.6711 21.6645C15.6711 22.9615 15.9994 24.2356 16.6224 25.3646L15 30L19.6354 28.3776C20.7644 29.0006 22.0387 29.3289 23.3355 29.3289C25.3828 29.3289 27.3077 28.5317 28.7552 27.0841C30.2028 25.6365 31 23.7117 31 21.6645C31 19.6172 30.2028 17.6923 28.7552 16.2448ZM27.1244 24.5119L26.2396 25.3966C25.5067 26.1296 23.4268 25.2382 21.5942 23.4058C19.7618 21.5732 18.8704 19.4933 19.6034 18.7604L20.4881 17.8756C20.6713 17.6922 20.9685 17.6922 21.1518 17.8756L22.2578 18.9816C22.4412 19.1648 22.4412 19.462 22.2578 19.6453L21.5942 20.3089C22.2379 21.6678 23.3324 22.7622 24.6912 23.406L25.3549 22.7421C25.538 22.5589 25.8352 22.5589 26.0185 22.7421L27.1245 23.8483C27.3079 24.0315 27.3079 24.3284 27.1245 24.512L27.1244 24.5119Z" fill="#F9FAFB"/>
</svg>
