<svg width="20" height="15" viewBox="0 0 20 15" fill="none" xmlns="http://www.w3.org/2000/svg">
<path id="menu" fill-rule="evenodd" clip-rule="evenodd" d="M19.0444 1.88906H0.955574C0.687343 1.88906 0.45264 1.78964 0.284996 1.60736C0.117351 1.44165 0 1.19309 0 0.944531C0 0.6794 0.100587 0.44741 0.284996 0.281702C0.45264 0.115995 0.687343 0 0.955574 0H19.0444C19.3127 0 19.5474 0.0994244 19.715 0.281702C19.8826 0.44741 20 0.6794 20 0.944531C20 1.20966 19.8994 1.44165 19.715 1.60736C19.5474 1.77307 19.3127 1.88906 19.0444 1.88906ZM13.4451 8.25222H0.955574C0.687343 8.25222 0.45264 8.1528 0.284996 7.97052C0.117351 7.80481 0 7.57282 0 7.30769C0 7.04256 0.100587 6.81057 0.284996 6.64486C0.45264 6.47916 0.687343 6.36316 0.955574 6.36316H13.4451C13.7133 6.36316 13.948 6.46258 14.1157 6.64486C14.2833 6.81057 14.4007 7.04256 14.4007 7.30769C14.4007 7.57282 14.3001 7.80481 14.1157 7.97052C13.948 8.13623 13.7133 8.25222 13.4451 8.25222ZM19.0444 14.6154H0.955574C0.687343 14.6154 0.45264 14.516 0.284996 14.3337C0.117351 14.168 0 13.9194 0 13.6708C0 13.4057 0.100587 13.1737 0.284996 13.008C0.45264 12.8423 0.687343 12.7263 0.955574 12.7263H19.0444C19.3127 12.7263 19.5474 12.8257 19.715 13.008C19.8826 13.1737 20 13.4223 20 13.6708C20 13.936 19.8994 14.168 19.715 14.3337C19.5474 14.4994 19.3127 14.6154 19.0444 14.6154Z" fill="white"/>
</svg>
