<svg width="12" height="12" viewBox="0 0 12 12" fill="none" xmlns="http://www.w3.org/2000/svg">
<path fill-rule="evenodd" clip-rule="evenodd" d="M7.05908 5.99926L11.782 1.27931C12.0727 0.988764 12.0727 0.514392 11.782 0.217912C11.4912 -0.0726374 11.0166 -0.0726374 10.7199 0.217912L6.00296 4.93786L1.2801 0.217912C0.989374 -0.0726374 0.514709 -0.0726374 0.218047 0.217912C-0.0726823 0.508462 -0.0726823 0.988764 0.218047 1.27931L4.94092 5.99926L0.218047 10.7192C-0.0726823 11.0098 -0.0726823 11.4841 0.218047 11.7806C0.366378 11.9288 0.55625 12 0.746114 12C0.935978 12 1.13177 11.9288 1.27416 11.7806L5.99704 7.06066L10.714 11.7806C10.8623 11.9288 11.0522 12 11.242 12C11.4319 12 11.6277 11.9288 11.7701 11.7806C12.0608 11.4901 12.0608 11.0098 11.7701 10.7192L7.05908 5.99926Z" fill="white"/>
</svg>
