<svg width="186" height="39" viewBox="0 0 186 39" fill="none" xmlns="http://www.w3.org/2000/svg">
<g clip-path="url(#clip0_304_7961)">
<path opacity="0.5" d="M3.79054 0.432903H52.4055C54.2513 0.432903 55.7475 1.92917 55.7475 3.77491V35.5586C55.7475 37.4044 54.2513 38.9006 52.4055 38.9006H3.79054C1.9448 38.9006 0.448528 37.4044 0.448528 35.5586V3.77491C0.448528 1.92917 1.9448 0.432903 3.79054 0.432903Z" stroke="white" stroke-width="0.865806"/>
<path opacity="0.5" d="M66.8452 0.432903H115.46C117.306 0.432903 118.802 1.92917 118.802 3.77491V35.5586C118.802 37.4044 117.306 38.9006 115.46 38.9006H66.8452C64.9995 38.9006 63.5032 37.4044 63.5032 35.5586V3.77491C63.5032 1.92917 64.9995 0.432903 66.8452 0.432903Z" stroke="white" stroke-width="0.865806"/>
<path opacity="0.5" d="M129.916 0.432903H178.531C180.376 0.432903 181.873 1.92917 181.873 3.77491V35.5586C181.873 37.4044 180.376 38.9006 178.531 38.9006H129.916C128.07 38.9006 126.574 37.4044 126.574 35.5586V3.77491C126.574 1.92917 128.07 0.432903 129.916 0.432903Z" stroke="white" stroke-width="0.865806"/>
<path fill-rule="evenodd" clip-rule="evenodd" d="M19.4836 13.4199L16.3147 21.9654L15.9684 20.2338C15.3797 18.2338 13.5441 16.0606 11.4922 14.9784L14.4013 25.9395H17.8299L22.9208 13.4199H19.4836Z" fill="#D9D9D9"/>
<path fill-rule="evenodd" clip-rule="evenodd" d="M25.4256 25.9481H22.1875L24.2135 13.4199H27.4516L25.4256 25.9481Z" fill="#D9D9D9"/>
<path fill-rule="evenodd" clip-rule="evenodd" d="M37.1753 13.7228C36.5346 13.4718 35.5216 13.186 34.2662 13.186C31.0627 13.186 28.8116 14.8917 28.803 17.3332C28.777 19.1341 30.4134 20.1298 31.6428 20.7359C32.8982 21.3506 33.3225 21.7489 33.3225 22.2943C33.3138 23.1341 32.3095 23.5238 31.3744 23.5238C30.0844 23.5238 29.3917 23.3246 28.3354 22.8571L27.9112 22.6579L27.461 25.4718C28.2229 25.8181 29.6168 26.1212 31.0714 26.1385C34.474 26.1385 36.6818 24.4588 36.7078 21.8614C36.7164 20.4328 35.8506 19.3419 33.9891 18.4501C32.8549 17.8787 32.1623 17.4891 32.1623 16.9003C32.1796 16.3635 32.751 15.8181 34.0324 15.8181C35.0887 15.7921 35.8593 16.0432 36.448 16.2943L36.7424 16.4241L37.184 13.7142L37.1753 13.7228Z" fill="#D9D9D9"/>
<path fill-rule="evenodd" clip-rule="evenodd" d="M41.4818 21.5152C41.7502 20.7966 42.7718 18.0087 42.7718 18.0087C42.7545 18.0347 43.0402 17.2728 43.1961 16.8052L43.4212 17.8875C43.4212 17.8875 44.0359 20.8832 44.1658 21.5152C43.6636 21.5152 42.1138 21.5152 41.4731 21.5152H41.4818ZM42.9796 13.4199C42.209 13.4199 41.6203 13.645 41.2826 14.4589L36.4688 25.9481H39.8714C39.8714 25.9481 40.4341 24.3983 40.5554 24.0693C40.9277 24.0693 44.235 24.0693 44.7112 24.0693C44.8065 24.5109 45.1008 25.9481 45.1008 25.9481H48.1052L45.4904 13.4199H42.9796Z" fill="#D9D9D9"/>
<path fill-rule="evenodd" clip-rule="evenodd" d="M13.3657 13.4199H8.15351L8.10156 13.671C12.1708 14.71 14.8635 17.2208 15.9717 20.2338L14.8375 14.4762C14.6471 13.6797 14.0756 13.4459 13.3743 13.4199H13.3657Z" fill="white"/>
<path fill-rule="evenodd" clip-rule="evenodd" d="M83.4699 30.2338C89.3055 30.2338 94.0414 25.4978 94.0414 19.6623C94.0414 13.8268 89.3055 9.09082 83.4699 9.09082C77.6257 9.09082 72.8984 13.8268 72.8984 19.6623C72.8984 25.4978 77.6344 30.2338 83.4699 30.2338Z" fill="#D9D9D9"/>
<path fill-rule="evenodd" clip-rule="evenodd" d="M98.8449 30.2338C104.68 30.2338 109.416 25.4978 109.416 19.6623C109.416 13.8268 104.68 9.09082 98.8449 9.09082C93.0007 9.09082 88.2734 13.8268 88.2734 19.6623C88.2734 25.4978 93.0007 30.2338 98.8449 30.2338Z" fill="white"/>
<path fill-rule="evenodd" clip-rule="evenodd" d="M91.1479 26.9177C89.3644 25.0216 88.2734 22.4675 88.2734 19.6623C88.2734 16.883 89.347 14.3549 91.096 12.4761L91.3211 12.5886C93.0094 14.4674 94.0397 16.9436 94.0397 19.6623C94.0397 22.3895 93.0007 24.8831 91.3038 26.7619L91.1566 26.9177H91.1479Z" fill="#EDEDED"/>
<path fill-rule="evenodd" clip-rule="evenodd" d="M74.9688 17.0132H75.8952L77.0727 19.9656L78.1376 17.0132H79.1073V20.9526H78.3541V18.0262L77.3324 20.9526H76.761L75.748 18.0695V20.9526H74.9688V17.0132Z" fill="#1E1F21"/>
<path fill-rule="evenodd" clip-rule="evenodd" d="M82.9923 20.9525V17.9395H82.3516V20.9525H82.9923Z" fill="#1E1F21"/>
<path fill-rule="evenodd" clip-rule="evenodd" d="M87.3324 20.9524V17.0649H86.6484V20.9524H87.3324Z" fill="#1E1F21"/>
<path fill-rule="evenodd" clip-rule="evenodd" d="M86.2578 17.9394V18.658H87.773V17.9394H86.2578Z" fill="#1E1F21"/>
<path fill-rule="evenodd" clip-rule="evenodd" d="M101.641 20.9525V17.9395H101V20.9525H101.641Z" fill="#1E1F21"/>
<path fill-rule="evenodd" clip-rule="evenodd" d="M107.493 20.9523V17.186H106.844V20.9523H107.493Z" fill="#1E1F21"/>
<path fill-rule="evenodd" clip-rule="evenodd" d="M92.8238 17.9392H92.1484V20.9522H92.8324V18.9608C92.9883 18.6405 93.4731 18.5712 93.551 18.5712V17.9219C93.3952 17.9219 92.8411 18.0431 92.8238 18.3375V17.9392Z" fill="#1E1F21"/>
<path fill-rule="evenodd" clip-rule="evenodd" d="M103.121 17.9392H102.445V20.9522H103.129V18.9608C103.285 18.6405 103.77 18.5712 103.839 18.5712V17.9219C103.683 17.9219 103.138 18.0431 103.121 18.3375V17.9392Z" fill="#1E1F21"/>
<path fill-rule="evenodd" clip-rule="evenodd" d="M85.0261 18.7967H85.6928C85.6928 18.2686 85.3551 17.9482 84.801 17.9482C84.2469 17.9482 83.8053 18.234 83.8053 18.8833C83.8053 19.5327 84.4893 19.6192 84.6019 19.6539C84.7404 19.6885 85.1127 19.7405 85.1127 20.1474C85.1127 20.3032 84.9309 20.3379 84.7664 20.3379C84.6105 20.3379 84.4547 20.2167 84.4547 20.0348H83.7188C83.7188 20.7102 84.2469 20.9786 84.775 20.9786C85.3032 20.9786 85.8053 20.5543 85.8053 20.0435C85.8053 19.5413 85.3118 19.247 84.9222 19.1863C84.3335 19.1084 84.3941 18.5976 84.7317 18.5976C85.0521 18.5976 85.0348 18.7361 85.0434 18.7881L85.0261 18.7967Z" fill="#1E1F21"/>
<path fill-rule="evenodd" clip-rule="evenodd" d="M97.1682 19.8703C96.9258 20.1734 96.5535 20.3639 96.1379 20.3639C95.4106 20.3639 94.8305 19.7751 94.8305 19.0651C94.8305 18.3379 95.4193 17.7578 96.1379 17.7578C96.5448 17.7578 96.9171 17.9483 97.1595 18.2426H98.008C97.6963 17.498 96.9604 17.0132 96.1379 17.0132C95.0037 17.0132 94.0859 17.9309 94.0859 19.0651C94.0859 20.1907 95.0037 21.1171 96.1379 21.1171C96.9777 21.1171 97.705 20.5976 98.0253 19.8703H97.1682Z" fill="#1E1F21"/>
<path fill-rule="evenodd" clip-rule="evenodd" d="M105.934 21.0214C106.8 21.0214 107.501 20.3115 107.501 19.4543C107.501 18.5799 106.791 17.8872 105.934 17.8872V18.5539C106.436 18.5539 106.835 18.9608 106.835 19.4543C106.835 19.9478 106.428 20.3548 105.934 20.3548V21.0214ZM105.934 21.0214V20.3548C105.432 20.3548 105.034 19.9478 105.034 19.4543C105.034 18.9521 105.441 18.5539 105.934 18.5539V17.8872C105.068 17.8872 104.367 18.5885 104.367 19.4543C104.367 20.3115 105.077 21.0214 105.934 21.0214Z" fill="#1E1F21"/>
<path fill-rule="evenodd" clip-rule="evenodd" d="M100.091 21.0214C100.965 21.0214 101.658 20.3115 101.658 19.4543C101.658 18.5799 100.956 17.8872 100.091 17.8872V18.5539C100.593 18.5539 100.991 18.9608 100.991 19.4543C100.991 19.9478 100.584 20.3548 100.091 20.3548V21.0214ZM100.091 17.8872C99.2247 17.8872 98.5234 18.5885 98.5234 19.4543C98.5234 20.3115 99.2334 21.0214 100.091 21.0214V20.3548C99.5884 20.3548 99.1901 19.9478 99.1901 19.4543C99.1901 18.9608 99.597 18.5539 100.091 18.5539V17.8872Z" fill="#1E1F21"/>
<path fill-rule="evenodd" clip-rule="evenodd" d="M89.8606 19.7662H91.3931C91.4017 19.7229 91.4017 19.6709 91.4017 19.6276V19.4978C91.3758 18.7965 90.9342 17.9393 89.8606 17.9307V18.6579C90.2242 18.6579 90.5879 18.8311 90.5879 19.1601H89.8606V19.7662ZM89.8606 21.0302C90.4667 21.0216 91.3238 20.6233 91.3238 20.1125H90.51C90.51 20.2337 90.1983 20.3463 89.8606 20.3376V21.0302ZM89.1074 19.7662H89.8606V19.1601H89.1333C89.1333 18.8224 89.497 18.6579 89.8606 18.6579V17.9307C89.8519 17.9307 89.8433 17.9307 89.8433 17.9307C88.8649 17.9307 88.3368 18.7445 88.3281 19.5324V19.5584C88.3454 20.3116 88.8216 21.0302 89.8346 21.0302C89.8433 21.0302 89.8519 21.0302 89.8606 21.0302V20.3463C89.497 20.3376 89.1074 20.1904 89.1074 19.7662Z" fill="#1E1F21"/>
<path fill-rule="evenodd" clip-rule="evenodd" d="M81.4421 21.0214C82.3079 21.0214 83.0092 20.3115 83.0092 19.4543C83.0092 18.5799 82.2993 17.8872 81.4421 17.8872V18.5539C81.9443 18.5539 82.3425 18.9608 82.3425 19.4543C82.3425 19.9478 81.9356 20.3548 81.4421 20.3548V21.0214ZM81.4421 21.0214V20.3548C80.9399 20.3548 80.5417 19.9478 80.5417 19.4543C80.5417 18.9521 80.9486 18.5539 81.4421 18.5539V17.8872C80.5676 17.8872 79.875 18.5885 79.875 19.4543C79.875 20.3115 80.5763 21.0214 81.4421 21.0214Z" fill="#1E1F21"/>
<path fill-rule="evenodd" clip-rule="evenodd" d="M162.563 19.1514V24.9956H165.81V21.5323H169.49C171.04 21.5237 172.356 20.528 172.849 19.1514H162.555H162.563Z" fill="#D9D9D9"/>
<path fill-rule="evenodd" clip-rule="evenodd" d="M162.126 14.3291C162.316 16.7187 164.576 18.6062 167.338 18.6062C167.347 18.6062 172.983 18.6062 172.983 18.6062C173.026 18.3897 173.044 18.1646 173.044 17.9309C173.044 15.9482 171.442 14.3464 169.468 14.3291H162.117H162.126Z" fill="white"/>
<path fill-rule="evenodd" clip-rule="evenodd" d="M157.311 18.5541V18.5454C157.346 18.4848 157.406 18.4415 157.484 18.4415C157.588 18.4415 157.675 18.5281 157.675 18.632V24.9437H160.921V14.329H157.675C157.259 14.3463 156.8 14.6407 156.627 15.013L154.038 20.5541C154.03 20.5801 154.021 20.5974 154.012 20.6147C153.978 20.6753 153.908 20.71 153.83 20.71C153.709 20.71 153.614 20.6147 153.614 20.4935V14.3203H150.367V24.9351H153.614C154.021 24.9178 154.48 24.6147 154.644 24.2511L157.294 18.5628C157.294 18.5541 157.294 18.5541 157.302 18.5454L157.311 18.5541Z" fill="#D9D9D9"/>
<path fill-rule="evenodd" clip-rule="evenodd" d="M145.184 18.7361L143.288 24.9439H140.95L139.054 18.7274C139.037 18.6322 138.95 18.5542 138.846 18.5542C138.725 18.5542 138.63 18.6495 138.63 18.7707V24.9439H135.383V14.3291H138.171H139.002C139.599 14.3291 140.223 14.7966 140.404 15.3681L141.989 20.5369C142.067 20.7967 142.197 20.7967 142.275 20.5369L143.859 15.3681C144.032 14.7966 144.664 14.3291 145.262 14.3291H146.093H148.881V24.9439H145.634V18.7707C145.634 18.6495 145.539 18.5542 145.417 18.5542C145.314 18.5542 145.227 18.6322 145.21 18.7361H145.184Z" fill="#D9D9D9"/>
</g>
<defs>
<clipPath id="clip0_304_7961">
<rect width="186" height="39" fill="white"/>
</clipPath>
</defs>
</svg>
