<?xml version="1.0" encoding="utf-8"?>
<!-- Generator: Adobe Illustrator 25.4.1, SVG Export Plug-In . SVG Version: 6.00 Build 0)  -->
<svg version="1.1" id="Layer_1" xmlns="http://www.w3.org/2000/svg" xmlns:xlink="http://www.w3.org/1999/xlink" x="0px" y="0px"
	 viewBox="0 0 18 14.6" enable-background="new 0 0 18 14.6" xml:space="preserve">
<linearGradient id="SVGID_1_" gradientUnits="userSpaceOnUse" x1="3.8615" y1="8.8569" x2="19.0411" y2="5.698" gradientTransform="matrix(1 0 0 -1 0 14.6175)">
	<stop  offset="0" style="stop-color:#F45601"/>
	<stop  offset="1" style="stop-color:#FF7429"/>
</linearGradient>
<path fill-rule="evenodd" clip-rule="evenodd" fill="url(#SVGID_1_)" d="M13.1,0C15.8,0,18,2.2,18,4.9c0,4.3-6.8,8.5-8.6,9.6
	c-0.3,0.2-0.6,0.2-0.9,0C6.8,13.4,0,9.1,0,4.9C0,2.2,2.2,0,4.9,0c0.8,0,1.6,0.2,2.3,0.6c0.3,0.2,0.6,0.4,0.8,0.6
	c0.5,0.4,1.4,0.4,1.9,0c0.3-0.2,0.5-0.4,0.8-0.6C11.5,0.2,12.3,0,13.1,0z"/>
</svg>
