<svg width="14" height="14" viewBox="0 0 14 14" fill="none" xmlns="http://www.w3.org/2000/svg">
<path id="Vector" fill-rule="evenodd" clip-rule="evenodd" d="M4.79357 9.69641C4.68828 9.40819 4.46327 9.18714 4.18345 9.09704L1.23638 8.14806C0.337666 7.85867 0.337946 6.51501 1.23678 6.22604L4.18309 5.27882C4.46312 5.18879 4.68832 4.96764 4.79365 4.67923L5.92528 1.58064C6.23846 0.723119 7.38741 0.72312 7.70058 1.58064L8.83224 4.67927C8.93756 4.96766 9.16273 5.1888 9.44273 5.27884L12.3883 6.22606C13.287 6.51508 13.2873 7.85861 12.3887 8.14804L9.44237 9.09702C9.16257 9.18714 8.93759 9.40817 8.83231 9.69637L7.70055 12.7944C7.38733 13.6519 6.23853 13.6518 5.92531 12.7944L4.79357 9.69641Z" fill="url(#paint0_linear_301_900)"/>
<defs>
<linearGradient id="paint0_linear_301_900" x1="2.08174" y1="4.57187" x2="16.6687" y2="7.2178" gradientUnits="userSpaceOnUse">
<stop stop-color="#F45601"/>
<stop offset="1" stop-color="#FF7429"/>
</linearGradient>
</defs>
</svg>
