<svg width="18" height="18" viewBox="0 0 18 18" fill="none" xmlns="http://www.w3.org/2000/svg">
<path id="Vector" fill-rule="evenodd" clip-rule="evenodd" d="M15.4745 2.52545C13.846 0.896899 11.6806 0 9.37748 0C7.07435 0 4.90882 0.896899 3.28041 2.52545C1.65186 4.15401 0.754961 6.31938 0.754961 8.62252C0.754961 10.0816 1.1243 11.5151 1.82517 12.7852L0 18L5.21481 16.1748C6.48493 16.8757 7.91851 17.245 9.37748 17.245C11.6806 17.245 13.8461 16.3481 15.4745 14.7196C17.1031 13.091 18 10.9257 18 8.62252C18 6.31938 17.1031 4.15386 15.4745 2.52545ZM13.64 11.8258L12.6446 12.8212C11.82 13.6458 9.48012 12.643 7.41843 10.5816C5.35704 8.51988 4.35421 6.17999 5.1788 5.3554L6.17416 4.36004C6.38019 4.15371 6.71457 4.15371 6.92076 4.36004L8.16503 5.60432C8.37136 5.81035 8.37136 6.14473 8.16503 6.35091L7.41843 7.09751C8.14262 8.62625 9.3739 9.85753 10.9026 10.5817L11.6492 9.83482C11.8553 9.62879 12.1896 9.62879 12.3958 9.83482L13.6401 11.0794C13.8464 11.2854 13.8464 11.6195 13.6401 11.826L13.64 11.8258Z" fill="#FE7023"/>
</svg>
