<svg width="14" height="14" viewBox="0 0 14 14" fill="none" xmlns="http://www.w3.org/2000/svg">
<path fill-rule="evenodd" clip-rule="evenodd" d="M0.203125 3.06043C0.203125 4.12959 0.409803 4.38396 0.71982 5.31799C1.24446 6.89987 1.78501 7.62722 2.76673 8.84344C2.97341 9.10179 3.28342 9.41578 3.51793 9.65028C3.58152 9.71785 3.59742 9.76157 3.65704 9.82119L4.61888 10.6996C4.95672 10.9857 5.29854 11.2719 5.66817 11.5183C6.55848 12.1105 7.11889 12.4166 8.14036 12.7544C8.30332 12.8061 8.43051 12.8657 8.59346 12.9214C9.11413 13.1042 9.62288 13.2473 10.1356 13.2751H10.5251C10.8709 13.2552 11.2246 13.1757 11.5863 13.0168C12.1348 12.7743 13.0013 12.3132 13.2159 11.7409C13.3749 11.3236 13.4782 10.8904 13.4782 10.3975C13.4782 10.2306 13.3192 10.1193 13.208 10.0438L11.9758 9.36014C11.8447 9.29257 11.7135 9.2091 11.5784 9.13756C11.4313 9.05409 11.3041 8.98255 11.165 8.89909C10.3184 8.36649 10.231 8.10814 9.30094 9.28065C8.43846 10.3617 8.41063 10.2981 7.5084 9.75362C6.22859 8.97858 5.40983 8.37842 4.4758 7.13437C4.18565 6.74089 3.98295 6.39907 3.73255 5.98572C3.19598 5.09144 3.10059 5.03977 4.18565 4.18921C5.55291 3.11607 4.99249 3.10017 4.35259 1.91972C4.27707 1.78459 4.18963 1.6415 4.11809 1.50239L3.55767 0.484899C3.33509 0.0794916 3.28342 0 2.92571 0C2.56403 0 2.02746 0.158983 1.75719 0.254373C0.974194 0.536568 0.203125 2.16615 0.203125 3.06043Z" fill="white"/>
</svg>
